<svg xmlns="http://www.w3.org/2000/svg" viewBox="0 0 776.19 162.46"><defs><style>.cls-1{fill:#b74b4b;}.cls-2{fill:#fff;}</style></defs><g id="レイヤー_2" data-name="レイヤー 2"><g id="レイヤー_1-2" data-name="レイヤー 1"><path class="cls-1" d="M735.83,26.9c61.06,26.49,57,129-41,129-76,0-245-12-338.3-7.43-54,2.65-237.4,36.85-321.7-12.57-42-24.66-51-97,1-126,54.53-30.41,147,20,244,9,81.37-9.23,154-17,241-4C575.82,23.11,682.83,3.9,735.83,26.9Z"/><path class="cls-2" d="M61.07,67.71l-.34,0c-1.2.06-1.37.25-1.37,1.73v8.3c0,1.5.15,1.75,1.37,1.75h.34v.76h-5.6v-.76h.32c1.2,0,1.39-.27,1.39-1.75v-9.4L52.86,80.27h-.55l-4.25-12v8.42c0,2.07.34,2.72,1.46,2.81l.25,0v.76H45.49v-.76l.25,0a1.46,1.46,0,0,0,1.18-.74A4,4,0,0,0,47.2,77V69.46c0-1.48-.17-1.67-1.36-1.73l-.35,0V67h4.39L53.3,76.3,56.78,67h4.29Z"/><path class="cls-2" d="M68.52,66.67c3.32,0,5.93,3,5.93,7s-2.61,6.95-5.93,6.95-5.95-3.06-5.95-6.95S65.18,66.67,68.52,66.67Zm0,13.14c2.17,0,3.53-2.39,3.53-6.19s-1.36-6.19-3.53-6.19S65,69.82,65,73.6,66.34,79.81,68.5,79.81Z"/><path class="cls-2" d="M85.89,80.38l-7.36-11v7.75c0,1.37.44,2.26,1.47,2.34l.24,0v.76H76v-.76l.25,0c1-.08,1.46-.89,1.46-2.43V68.57a2.1,2.1,0,0,0-1.71-.8V67h3.48L86,76.62V70.33c0-1.42-.27-2.49-1.46-2.58l-.25,0V67h4.27v.76l-.24,0c-1.12.09-1.49.8-1.49,2.79v9.84Z"/><path class="cls-2" d="M95.92,66.67c3.32,0,5.93,3,5.93,7s-2.61,6.95-5.93,6.95-6-3.06-6-6.95S92.57,66.67,95.92,66.67Zm0,13.14c2.16,0,3.53-2.39,3.53-6.19s-1.37-6.19-3.53-6.19-3.52,2.39-3.52,6.17S93.73,79.81,95.9,79.81Z"/><path class="cls-2" d="M118,66.91a1.81,1.81,0,0,1,1.12-.4,4,4,0,0,1,2.29.92.61.61,0,0,1,.19.45.94.94,0,0,1-.17.52,1.59,1.59,0,0,0-.24.85c0,.46,0,.84,0,1.25a5.28,5.28,0,0,0,1.42-.26,1.3,1.3,0,0,1,.63-.15c.93,0,1.46.43,1.46.89s-.19.7-.57.74c-.83.08-1.8.15-3,.27.06,2.09.11,3.85.23,5.71a8.1,8.1,0,0,1,2.92,1.73,1.26,1.26,0,0,1,.34.9.91.91,0,0,1-.83.91,1.11,1.11,0,0,1-1-.46,9.09,9.09,0,0,0-1.71-1.44c-.4,1.23-1.63,1.86-3.29,1.86s-2.7-.93-2.7-2c0-1.35,1.35-2,2.78-2a9.85,9.85,0,0,1,1.77.14c0-1.75-.08-3.39-.16-5.23-1.35.11-2.07.15-2.49.15A3.65,3.65,0,0,1,115.7,72a1.79,1.79,0,0,0-.61-.14,1,1,0,0,0-.89.63,25.5,25.5,0,0,0-2,5.91,7.32,7.32,0,0,0-.11,1.27c0,.32.17,1,.17,1.35s-.23.87-.69.87-.6-.24-.85-.64a10.37,10.37,0,0,1-.89-4.75A27.2,27.2,0,0,1,110.91,70a10,10,0,0,0,.42-2.07,2.53,2.53,0,0,0-.4-1.5l.19-.19a2.84,2.84,0,0,1,.82.49,6,6,0,0,1,.93,1.26,1.54,1.54,0,0,1,0,1.78,8.09,8.09,0,0,0-.59,1.26,15.13,15.13,0,0,0-1.1,5.12c0,.4,0,.76,0,1,0,.06,0,.11.06.11s.08,0,.1-.09a48.56,48.56,0,0,1,2.31-5.09c.57-1.09,1.14-1.18,1.47-1.18l.81,0h.34c.63,0,1.7-.1,3.23-.27,0-.74-.07-1.63-.11-2.39,0-.4,0-.69-.28-.89a1.75,1.75,0,0,0-1.11-.31Zm-2.17,12.14c0,.53.55,1,1.79,1s1.9-.51,2-1.5a5.92,5.92,0,0,0-2.18-.43C116.63,78.07,115.83,78.39,115.83,79.05Z"/><path class="cls-2" d="M131.66,68.72c.34-.42.74-.93,1.21-1.43,1.88,1.43,2,1.58,2,1.75s-.11.21-.3.21h-5.78l-1.44.1v-.73l1.44.1Zm.24,7.62c.4-.92.56-1,.8-1s.46.09,1.14.59.74.66.74.87-.15.44-.64.65v.49c0,1.48.05,2,.05,2.4s-.55.72-1.44.72c-.36,0-.51-.14-.51-.42v-.44h-2.11V81.6c0,.44-.57.72-1.45.72-.36,0-.51-.13-.51-.42,0-.57.06-1.38.06-4.18,0-.78,0-1.63-.06-2.26a8.59,8.59,0,0,1,2.28.88Zm-.3-5.21a13.85,13.85,0,0,1,1.14-1.23c1.65,1.25,1.75,1.4,1.75,1.55s-.12.21-.31.21h-4.61l-1.45.1V71l1.45.09Zm0,2.58c.34-.41.68-.77,1.14-1.23,1.65,1.25,1.75,1.41,1.75,1.56s-.12.21-.31.21h-4.61l-1.45.09v-.72l1.45.09Zm-.27-7.54c.35-.42.71-.81,1.16-1.27,1.69,1.29,1.79,1.44,1.79,1.6s-.12.2-.3.2h-4.26l-1.44.1v-.72l1.44.09Zm-1.1,10.7-.3.34v2.45H132V76.87Zm9.56-7.22a.46.46,0,0,1-.42.49c0,1-.06,1.85-.11,2.64h2.22c.38-.91.49-1,.78-1s.36,0,1.12.61.83.76.83,1-.09.38-.66.69a33,33,0,0,1-.49,5.43c-.38,1.92-1.31,2.83-2.85,2.83-.27,0-.36-.09-.5-.53-.26-.78-.78-1.16-1.8-1.48l0-.29a17.8,17.8,0,0,0,2,.12c.55,0,.81-.18,1-1.12a29.5,29.5,0,0,0,.54-5.7H139.2a13.26,13.26,0,0,1-1.39,5.3,8.21,8.21,0,0,1-5.35,3.91l-.14-.25a8.32,8.32,0,0,0,3.82-4.21c.78-1.77,1.18-4.2,1.18-8.42h-.51l-1.71.09V69l1.71.1h1.59V67.75c0-1,0-1.63-.06-2.41,2.74.23,2.91.38,2.91.59s-.15.39-.72.58v2.61h1.22A14.4,14.4,0,0,1,143,67.64c1.86,1.38,2,1.53,2,1.78a.25.25,0,0,1-.27.23Z"/><path class="cls-2" d="M164.18,75.75c-.74,2.85-2.45,4.71-4.69,4.75a2.11,2.11,0,0,1-2.32-2.4c0-.64.08-1.8.27-3.64.15-1.49.25-2.64.25-3.71,0-.8-.31-1-.63-1a2.21,2.21,0,0,0-1.33.71,43.14,43.14,0,0,0-4,4.39c0,2.18.15,4.14.15,4.92a3.16,3.16,0,0,1-.36,1.74.83.83,0,0,1-.72.46c-.46,0-.61-.23-.72-1a5,5,0,0,0-1.31-2.51c-.21.31-.46.72-.63.93a1,1,0,0,1-.68.44,1,1,0,0,1-1-.93,1.12,1.12,0,0,1,.44-.91c.36-.38.76-.76,1.17-1.24a18.07,18.07,0,0,0,2.42-3.51c0-.4,0-.8,0-1.2a8.52,8.52,0,0,0-1.69.84c-.23.19-.36.26-.51.26a1.09,1.09,0,0,1-.76-.41,2.36,2.36,0,0,1-.7-1.54l.21-.08a1.07,1.07,0,0,0,.95.42,7.26,7.26,0,0,0,2.54-.82c0-1,0-2.16,0-3,0-.47,0-.84-.3-1a2.16,2.16,0,0,0-.88-.32l0-.27a2.76,2.76,0,0,1,1.09-.28,3.5,3.5,0,0,1,1.73.7,1,1,0,0,1,.47.78.87.87,0,0,1-.25.59,1.63,1.63,0,0,0-.28.63c-.06.4-.1.78-.17,1.69a.33.33,0,0,1,.19,0,.64.64,0,0,1,.36.15.83.83,0,0,1,.34.63,1.14,1.14,0,0,1-.26.64c-.21.31-.44.73-.82,1.43l0,.38a37.25,37.25,0,0,1,4.22-4,2.39,2.39,0,0,1,1.5-.57,2.13,2.13,0,0,1,2.14,1.94c0,.3-.09.91-.2,1.71a42.48,42.48,0,0,0-.55,5.13c0,.89.24,1.29,1.15,1.29,1.11,0,2.74-1.16,4-3.35Zm-13.79,3.11c0-.7,0-1.67,0-2.71-.4.6-1,1.38-1.39,1.95a10.41,10.41,0,0,0,1.28.78Z"/><path class="cls-2" d="M171.73,73.81a6.57,6.57,0,0,1,3.68-1.1c3,0,4.6,1.8,4.6,4.08,0,3-2.62,4.85-6.21,4.87-2.2,0-3.82-.84-3.82-2.38a1.94,1.94,0,0,1,2.18-1.88,3.19,3.19,0,0,1,2.65,1.25,2,2,0,0,1,.41,1.16.9.9,0,0,1,0,.23A3.59,3.59,0,0,0,178,76.49c0-2-1.14-2.93-3.22-2.93a6,6,0,0,0-3.6,1.64,9.77,9.77,0,0,0-1.62,1.88,1.19,1.19,0,0,1-1,.61.88.88,0,0,1-.91-1,1.38,1.38,0,0,1,.51-1.1c.23-.23.82-.76,1.33-1.31a64.31,64.31,0,0,0,5.11-6.15.28.28,0,0,0,0-.12.09.09,0,0,0-.07-.09l-.1,0c-.89.32-1.82.72-2.71,1.12-.29.13-.5.21-.69.32a.87.87,0,0,1-.51.13c-.72,0-1.46-1.19-1.46-1.86a4.5,4.5,0,0,1,0-.64l.19-.06c.46.68.78.84,1.24.84a2.38,2.38,0,0,0,.68-.12c.95-.23,2.19-.57,3.4-1a.87.87,0,0,1,.59-.34,2.45,2.45,0,0,1,1.08.38c.61.34.92.57.92.91a.68.68,0,0,1-.4.63,4.31,4.31,0,0,0-1,.83l-4.18,4.62Zm0,4.37a.88.88,0,0,0-1,.85c0,.76.78,1.35,2.43,1.35.17,0,.36,0,.57,0C173.49,79.09,172.77,78.18,171.77,78.18Z"/><path class="cls-2" d="M184,81.83a15,15,0,0,0,5.13-5.44c1.41-2.6,2.15-5.73,2.34-10.81,2.6.35,2.92.48,2.92.82s-.21.46-.76.65a17.38,17.38,0,0,0,3,8A16.54,16.54,0,0,0,202,80l-.11.27a3.72,3.72,0,0,0-2.07,1.06c-.21.21-.31.31-.42.31s-.21-.08-.38-.25a18.53,18.53,0,0,1-3.84-5.18,20.07,20.07,0,0,1-1.77-6.71,16.45,16.45,0,0,1-2.67,7.75A13.68,13.68,0,0,1,184.19,82Z"/><path class="cls-2" d="M211.11,80.76c4.72-1.73,6.48-4.31,6.48-7,0-2.85-2.16-4.77-5.32-4.77-.34,0-.64,0-.91,0,.89.66,1.22,1.25,1.22,1.61a6.13,6.13,0,0,1-.61,1.68A33,33,0,0,1,208.84,78c-.63.83-1.13,1.31-1.83,1.31a2.48,2.48,0,0,1-1.78-1.2,5.28,5.28,0,0,1-1-3.23c0-3.59,3.45-6.72,8.11-6.72s7.29,2.87,7.29,6c0,3.55-2.52,6.06-8.47,6.88Zm-5.66-6.23a3.24,3.24,0,0,0,.63,1.94,1.49,1.49,0,0,0,.91.64,1.21,1.21,0,0,0,1-.68,24.89,24.89,0,0,0,2.47-4.92,5.14,5.14,0,0,0,.32-1.33,1.67,1.67,0,0,0-.28-1C207.24,70,205.45,72,205.45,74.53Z"/><path class="cls-2" d="M222.14,70.58a19.7,19.7,0,0,0,2.75-5c2.17.83,2.36,1,2.36,1.27s-.21.34-.9.46a14.22,14.22,0,0,1-4,3.55ZM228,75.37c.4-.88.53-1,.78-1s.45.09,1.13.59.75.66.75.87-.16.44-.65.65v.4c0,1.84.06,2.75.06,3.19s-.55.72-1.45.72c-.36,0-.51-.13-.51-.42V80h-2.2V81.1c0,.44-.63.73-1.5.73-.37,0-.52-.14-.52-.42s.08-1.08.08-4.69c0-.57,0-1.07,0-1.56a15.45,15.45,0,0,1-1.58,1.18l-.17-.21a25.54,25.54,0,0,0,4.33-7.58c2.19.8,2.42,1,2.42,1.27s-.23.4-1,.49a2.45,2.45,0,0,1-.25.42,6,6,0,0,1,2.93,1.5,2.06,2.06,0,0,1,.6,1.39,1,1,0,0,1-1,1.1c-.46,0-.76-.19-1-.8a6.72,6.72,0,0,0-1.83-2.77,16.2,16.2,0,0,1-3,3.57c.44.13.9.25,1.33.4a2,2,0,0,1,.48.25Zm-1.83.53-.26.3v3.21h2.2V75.9ZM240,81.09a2.65,2.65,0,0,0-1.67.81c-.17.19-.28.29-.4.29s-.19-.1-.34-.29A14.88,14.88,0,0,1,235,74c-.73,4.84-3.06,7.54-7.32,8.83l-.13-.24c4-2.13,5.66-5.68,5.81-11.84,2.09.21,2.47.36,2.47.65s-.15.36-.61.57a12.89,12.89,0,0,0,4.87,8.87ZM227.93,65.7c2.53.21,3.48,1.35,3.48,2.13A1.09,1.09,0,0,1,230.32,69c-.41,0-.78-.28-1-.91A3.67,3.67,0,0,0,227.82,66ZM237.2,69c.42-.81.61-1,.84-1s.45.12,1,.59.84.74.84,1-.23.42-.78.53a21.19,21.19,0,0,1-2.34,2l-.25-.15a13,13,0,0,0,.76-2.51h-3.93a13.8,13.8,0,0,1-2.18,2.59L231,72a22.28,22.28,0,0,0,1.82-6.65c2.47.68,2.76.85,2.76,1.12s-.19.44-.86.53a13.82,13.82,0,0,1-1,2Z"/><path class="cls-2" d="M253.79,70.85a3.51,3.51,0,0,1,1-.16,2.42,2.42,0,0,1,.89.14,4.94,4.94,0,0,1,1.35.7,1.19,1.19,0,0,1,.59.93.59.59,0,0,1-.54.57,6.71,6.71,0,0,0-1.19.27c-1.64.55-3.21,1.23-4.83,1.93,0,.63,0,1.22,0,1.71s0,.93,0,1.26c0,.76-.45,1-.87,1a.84.84,0,0,1-.84-.91c0-.08,0-.32,0-.38,0-.72.06-1.06.06-1.94-2,1.18-2.64,1.85-2.64,2.78s.93,1.5,2.7,1.5a14.53,14.53,0,0,0,2.05-.17,7.66,7.66,0,0,0,1.16-.27,3.82,3.82,0,0,1,1.12-.13c.81,0,1.5.45,1.5,1.14a.78.78,0,0,1-.63.83,18.57,18.57,0,0,1-4.14.27c-3.31,0-4.75-1.06-4.75-2.81,0-1.56,1.05-2.66,3.61-4.31a9.25,9.25,0,0,0-.06-1.39c-.09-.67-.36-.91-.78-.91a3.71,3.71,0,0,0-2.1,1.36,16.41,16.41,0,0,0-1.39,1.62,1.13,1.13,0,0,1-.82.53c-.38,0-.76-.23-.76-1a1.5,1.5,0,0,1,.7-1.3,7.07,7.07,0,0,0,1.16-1.16,14.75,14.75,0,0,0,1.49-2.26,8.89,8.89,0,0,1-1.92.21,2.47,2.47,0,0,1-2.17-1.71l.19-.19a2.85,2.85,0,0,0,1.81.61,12.6,12.6,0,0,0,2.81-.44,8.47,8.47,0,0,0,.4-1.12,2.51,2.51,0,0,0,.11-.72.56.56,0,0,0-.25-.51,2.42,2.42,0,0,0-.89-.31v-.26a2.89,2.89,0,0,1,1.2-.3,3.3,3.3,0,0,1,1.59.53.7.7,0,0,1,.4.57.62.62,0,0,1-.15.41,3.92,3.92,0,0,0-.34.42c-.17.27-.4.67-.61,1a7.38,7.38,0,0,0,1.41-.63,1.58,1.58,0,0,1,.87-.28c.59,0,1,.24,1,.64a.64.64,0,0,1-.34.65,11.87,11.87,0,0,1-1.13.42c-.6.21-1.44.43-2.47.74-.51.89-.94,1.69-1.4,2.39a4.6,4.6,0,0,1,2-.62,1.64,1.64,0,0,1,1.54.74,2.57,2.57,0,0,1,.46,1.52c1.25-.67,2.47-1.37,3.38-1.94.24-.15.43-.29.43-.44a.3.3,0,0,0-.17-.26,1.89,1.89,0,0,0-.85-.33Z"/><path class="cls-2" d="M260.17,70.81c.27,0,.5,0,.73,0,1.71,0,2.48.72,2.48,1.56a1.08,1.08,0,0,1-1.14,1.18,1,1,0,0,1-1-.8,3,3,0,0,0-1.16-1.62Zm3.54,5.55a10.13,10.13,0,0,0-.42,2.39c0,1.12.57,1.78.57,2.51a1.18,1.18,0,0,1-1.33,1.25,1,1,0,0,1-1.08-1c0-.52.19-1.45.19-2.09s-.35-1.11-1.14-1.31l0-.25c.77,0,1.08-.1,1.53-1.24l3.12-7.92.36.12Zm-2-10.57a5.62,5.62,0,0,1,.57,0c1.9,0,2.81.76,2.81,1.64a1.08,1.08,0,0,1-1.1,1.14,1,1,0,0,1-1.07-.82,3.22,3.22,0,0,0-1.31-1.67Zm11.19,12.48V76.81c0-.74,0-1.29-.06-1.94,2,.19,2.14.33,2.14.53s-.13.33-.53.48v1c0,1.08.06,2,.06,2.36s-.3.66-1.14.66c-.32,0-.47-.11-.47-.38v-.66h-3.37v.76c0,.38-.43.66-1.14.66-.32,0-.47-.11-.47-.38,0-.51.05-1.84.05-3.1,0-.74,0-1.29-.05-1.93,2,.21,2.11.3,2.11.51s-.1.32-.5.47v2.47h.82V73.54h-2.87l-.25.29v7.71c0,.36-.47.7-1.36.7-.31,0-.46-.15-.46-.43s.08-1.35.08-7c0-.61,0-1.52-.06-2.53a11.14,11.14,0,0,1,2.07.74h2.85V71.07h-3.38l-1.56.1v-.72l1.56.09h1.33V68.19h-.63l-1.8.09v-.72l1.8.09h.63v-.36a19.57,19.57,0,0,0-.08-2c2.21.23,2.55.36,2.55.59s-.17.34-.69.57v1.17h2.13v-.34c0-.76,0-1.37-.07-2,2.2.23,2.54.36,2.54.59s-.17.34-.68.57v1.15h.53a17.07,17.07,0,0,1,1.21-1.38c1.75,1.38,1.73,1.52,1.73,1.69s-.11.23-.3.23H274v2.35h.91a19.5,19.5,0,0,1,1.29-1.48C278,70.54,278,70.68,278,70.85s-.11.22-.3.22h-5.34a.48.48,0,0,1-.3.35V73h3c.28-.74.49-.85.72-.85s.42,0,1.08.53.72.63.72.82-.15.36-.59.55v1.17c0,3.46.12,4.53.12,5.36s-.42,1.6-1.84,1.6c-.35,0-.38,0-.48-.4a1.74,1.74,0,0,0-1.37-1.29l0-.29a11.37,11.37,0,0,0,1.26.08c.36,0,.47-.08.47-.42V73.54h-3.15v4.73ZM270,68.19v2.35h2.13V68.19Z"/><path class="cls-2" d="M284.59,66.15a2.82,2.82,0,0,1,2.89.31c.51.3.64.53.64.8a.63.63,0,0,1-.23.53,2,2,0,0,0-.41.51c-.19.4-.35.7-.5,1.06a6.11,6.11,0,0,0,.95-.45,1.47,1.47,0,0,1,.76-.21c.42,0,1,.3,1,.7s-.19.63-.72.86a22.85,22.85,0,0,1-2.62.83c-1.48,3.65-2.45,6.14-3.84,9.37a1.16,1.16,0,0,1-1.12.8.94.94,0,0,1-.89-1,2.82,2.82,0,0,1,.45-1.14c1.48-2.68,2.64-5,3.78-7.64a12.74,12.74,0,0,1-1.9.19,2.51,2.51,0,0,1-2.32-1.75l.21-.2a2.74,2.74,0,0,0,1.71.57,11.35,11.35,0,0,0,2.91-.5,13.58,13.58,0,0,0,.53-1.63,3.36,3.36,0,0,0,.14-.88c0-.3-.31-.68-1.35-.79Zm1.78,8.21A8.83,8.83,0,0,1,292,72.12a7.08,7.08,0,0,1,2.18.26c.72.27.88.57.88,1.05a.72.72,0,0,1-.8.72c-.42,0-1.16-.11-1.58-.11a4.9,4.9,0,0,0-1.58.45c-2,.82-3,2.11-3,3.42s1.2,2,2.91,2a9.84,9.84,0,0,0,1.88-.12,7.14,7.14,0,0,1,.91-.17c1.16,0,1.77.44,1.77,1.08a.87.87,0,0,1-.55.86,8.85,8.85,0,0,1-2.34.27c-3.74,0-5.45-1.2-5.45-3.63,0-1.41,1-3.14,3.57-4.83a9.17,9.17,0,0,0-4.31,1.26Z"/><path class="cls-2" d="M305.43,66a3,3,0,0,1,1.43-.53,4.35,4.35,0,0,1,2,.84.73.73,0,0,1,.32.62.91.91,0,0,1-.19.59,1.74,1.74,0,0,0-.26.74,12,12,0,0,0-.12,1.22l3.12-.27a2.93,2.93,0,0,0,.85-.19,2.14,2.14,0,0,1,.55-.15,4.09,4.09,0,0,1,1.9.67.89.89,0,0,1,.5.8c0,.41-.27.66-.74.66s-1.28-.23-2-.32a14.24,14.24,0,0,0-1.9-.12,22.87,22.87,0,0,0-2.33.12c0,.74,0,2.2,0,3.78a5.4,5.4,0,0,1,.36,1.9c0,3.53-2.47,5.56-7.12,6.29l-.08-.33c2.74-.89,4.64-2.45,5.23-4.73a1.84,1.84,0,0,1-1.08.31c-1.49,0-2.28-.92-2.28-2.51a2.41,2.41,0,0,1,2.18-2.4,2.35,2.35,0,0,1,1.2.23c0-.36,0-.7,0-1.08s0-.8,0-1.29a43.48,43.48,0,0,0-4.69.91,4.29,4.29,0,0,0-1.14.42,1.31,1.31,0,0,1-.73.21,1.76,1.76,0,0,1-1-.35,3.61,3.61,0,0,1-1-1,2.14,2.14,0,0,1-.25-1l.23-.11a2.24,2.24,0,0,0,.84.53,2.26,2.26,0,0,0,.74.11,11.1,11.1,0,0,0,1.25-.11l5.76-.78c0-.91,0-1.56,0-2.07s0-.74-.17-1-.57-.34-1.33-.4Zm-.8,9.22a1.21,1.21,0,0,0,1.24,1.37A1.31,1.31,0,0,0,307,75.12a1.33,1.33,0,0,0-1.14-1.48A1.39,1.39,0,0,0,304.63,75.18Z"/><path class="cls-2" d="M322.59,66.15a2.82,2.82,0,0,1,2.89.31c.51.3.64.53.64.8a.63.63,0,0,1-.23.53,2,2,0,0,0-.41.51c-.19.4-.35.7-.5,1.06a6.11,6.11,0,0,0,.95-.45,1.47,1.47,0,0,1,.76-.21c.42,0,1,.3,1,.7s-.19.63-.72.86a22.85,22.85,0,0,1-2.62.83c-1.48,3.65-2.45,6.14-3.84,9.37a1.16,1.16,0,0,1-1.12.8.94.94,0,0,1-.89-1,2.82,2.82,0,0,1,.45-1.14c1.48-2.68,2.64-5,3.78-7.64a12.74,12.74,0,0,1-1.9.19,2.51,2.51,0,0,1-2.32-1.75l.21-.2a2.74,2.74,0,0,0,1.71.57,11.35,11.35,0,0,0,2.91-.5,13.58,13.58,0,0,0,.53-1.63,3.36,3.36,0,0,0,.14-.88c0-.3-.31-.68-1.35-.79Zm1.78,8.21A8.83,8.83,0,0,1,330,72.12a7.08,7.08,0,0,1,2.18.26c.72.27.88.57.88,1.05a.72.72,0,0,1-.8.72c-.42,0-1.16-.11-1.58-.11a4.9,4.9,0,0,0-1.58.45c-2,.82-3,2.11-3,3.42s1.2,2,2.91,2a9.84,9.84,0,0,0,1.88-.12,7.14,7.14,0,0,1,.91-.17c1.16,0,1.77.44,1.77,1.08a.87.87,0,0,1-.55.86,8.85,8.85,0,0,1-2.34.27c-3.74,0-5.45-1.2-5.45-3.63,0-1.41,1-3.14,3.57-4.83a9.17,9.17,0,0,0-4.31,1.26Z"/><path class="cls-2" d="M338.76,67.84A3.22,3.22,0,0,1,341,70a17,17,0,0,1,.38,1.69,13.19,13.19,0,0,1,3.89-1.38c.38-.8.61-1.3.88-2a1.5,1.5,0,0,0,.07-.44c0-.11-.13-.22-.36-.3a1.5,1.5,0,0,0-.57-.08l-.41,0-.08-.32a2.36,2.36,0,0,1,1.54-.55,4.13,4.13,0,0,1,1.75.57c.4.25.51.51.51.68a.75.75,0,0,1-.25.55,4.1,4.1,0,0,0-.45.54c-.31.47-.52.76-.84,1.23a2,2,0,0,1,.32,0c3.56,0,5.44,2.4,5.44,4.66,0,4.23-4.51,5.87-8.7,6.32l-.06-.32c3.65-1.24,6.63-3.21,6.63-6.35a3.36,3.36,0,0,0-3.53-3.53,3.11,3.11,0,0,0-.48,0A57.19,57.19,0,0,1,343.3,76a8.16,8.16,0,0,0,.74.7.91.91,0,0,1,.34.78.75.75,0,0,1-.82.78,2,2,0,0,1-1.46-.78c-1,1.07-2.09,2-3.29,1.94a1.77,1.77,0,0,1-1.65-2c0-1.6,1-3.38,3-5-.18-.93-.25-1.33-.4-2.11a3.36,3.36,0,0,0-1.16-2.2Zm1.57,5.63a4.89,4.89,0,0,0-1.76,3.38c0,.51.21.89.59.89s1.27-.42,2.2-1.42A12.87,12.87,0,0,1,340.33,73.47Zm1.24-1a10.68,10.68,0,0,0,.89,2.52,25,25,0,0,0,2.4-3.91A10.06,10.06,0,0,0,341.57,72.52Z"/><path class="cls-2" d="M363.11,80.76c4.72-1.73,6.48-4.31,6.48-7,0-2.85-2.16-4.77-5.32-4.77-.34,0-.64,0-.91,0,.89.66,1.22,1.25,1.22,1.61a6.13,6.13,0,0,1-.61,1.68A33,33,0,0,1,360.84,78c-.63.83-1.13,1.31-1.83,1.31a2.48,2.48,0,0,1-1.78-1.2,5.28,5.28,0,0,1-1-3.23c0-3.59,3.45-6.72,8.11-6.72s7.29,2.87,7.29,6c0,3.55-2.52,6.06-8.47,6.88Zm-5.66-6.23a3.24,3.24,0,0,0,.63,1.94,1.49,1.49,0,0,0,.91.64,1.21,1.21,0,0,0,1-.68,24.89,24.89,0,0,0,2.47-4.92,5.14,5.14,0,0,0,.32-1.33,1.67,1.67,0,0,0-.28-1C359.24,70,357.45,72,357.45,74.53Z"/><path class="cls-2" d="M391.92,80.38a2.49,2.49,0,0,0-.86,1.29c-.15.5-.21.56-.68.59-1.26.1-2.78.14-5.11.14-4.92,0-6.1-.59-7.41-3.12a19.32,19.32,0,0,1-2.17,2.57c-.07.45-.21.68-.43.68s-.44-.3-1.33-2.2c.89-.35,1.74-.69,2.52-1.09V73.68h-.72l-1.52.09v-.72l1.52.09h.61c.38-.83.64-1.12.87-1.12s.44,0,1.16.61.78.76.78,1-.17.44-.68.67v5c1.16,1,2.66,1.3,6.7,1.3a53.19,53.19,0,0,0,6.75-.42Zm-17-14.57c2.11.29,3.38,1.31,3.38,2.43a1.1,1.1,0,0,1-1.15,1.24.94.94,0,0,1-.92-.8,5.52,5.52,0,0,0-1.42-2.62Zm12.75,4.75c.3-.7.55-1,.76-1s.53.1,1.22.57.7.65.7.82-.13.4-.61.62v.5c0,5.62.06,6.4.06,6.61,0,.55-.67.82-1.54.82-.32,0-.49-.14-.49-.46v-.47h-5.36V79c0,.38-.5.76-1.54.76a.43.43,0,0,1-.49-.48c0-.23.05-1.21.05-7.48,0-1,0-1.33-.05-2a7.43,7.43,0,0,1,2.41.82h.66c.08-.72.14-1.42.15-2.15H380.9l-1.9.1v-.72l1.9.09h1.59a1,1,0,0,1-.53-.68,3.24,3.24,0,0,0-1.16-1.81l.12-.26c2,.13,3,.83,3,1.78a1,1,0,0,1-.57,1h2.17a23.6,23.6,0,0,0,1-3.07c2.09.76,2.34.94,2.34,1.17s-.11.33-.7.38a15.07,15.07,0,0,1-1.64,1.52h1.85c.4-.53.78-1,1.27-1.59,1.9,1.36,2.15,1.65,2.15,1.9a.24.24,0,0,1-.27.22h-5.32a.52.52,0,0,1-.42.44,9.84,9.84,0,0,1-1.29,1.71Zm.1,2.41V71.09h-5.13l-.23.25V73Zm-5.36,2.51h5.36v-2h-5.36Zm0,2.6h5.36V76h-5.36Z"/><path class="cls-2" d="M393,82.36a19.66,19.66,0,0,0,5.62-4.28c2.28,1.14,2.41,1.32,2.41,1.56s-.13.42-1,.42a17.81,17.81,0,0,1-6.89,2.55Zm.38-5.4,1.9.1h11.94c.44-.55.86-1,1.41-1.64,2.05,1.47,2.19,1.71,2.19,1.9s-.12.27-.31.27H395.23l-1.9.1Zm12-10.73c.42-.87.63-1,.86-1s.51.1,1.25.71.72.72.72.93-.17.41-.66.64v.8c0,5.13.13,6.25.13,6.86s-.89.85-1.67.85c-.33,0-.52-.13-.52-.47v-.4h-7v.36c0,.42-.58.8-1.63.8a.46.46,0,0,1-.53-.5c0-.57.11-2.31.11-7.58,0-1.53,0-1.84,0-2.85,1.74.44,2.33.65,2.52.86Zm-6.69.53-.23.25V69h7V66.76Zm6.8,4.94V69.48h-7V71.7Zm0,2.91V72.23h-7v2.38Zm-1.86,3.64a13,13,0,0,1,5.15,1.28c1.06.57,1.48,1.08,1.48,1.84a1,1,0,0,1-1.08,1.08,1.61,1.61,0,0,1-1.33-.74,11.51,11.51,0,0,0-4.33-3.19Z"/><path class="cls-2" d="M424.79,70.85a3.51,3.51,0,0,1,1-.16,2.42,2.42,0,0,1,.89.14,4.94,4.94,0,0,1,1.35.7,1.19,1.19,0,0,1,.59.93.59.59,0,0,1-.54.57,6.71,6.71,0,0,0-1.19.27c-1.64.55-3.21,1.23-4.83,1.93,0,.63,0,1.22,0,1.71s0,.93,0,1.26c0,.76-.45,1-.87,1a.84.84,0,0,1-.84-.91c0-.08,0-.32,0-.38,0-.72.06-1.06.06-1.94-2,1.18-2.64,1.85-2.64,2.78s.93,1.5,2.7,1.5a14.53,14.53,0,0,0,2-.17,7.66,7.66,0,0,0,1.16-.27,3.82,3.82,0,0,1,1.12-.13c.81,0,1.5.45,1.5,1.14a.78.78,0,0,1-.63.83,18.57,18.57,0,0,1-4.14.27c-3.31,0-4.75-1.06-4.75-2.81,0-1.56,1-2.66,3.61-4.31a9.25,9.25,0,0,0-.06-1.39c-.09-.67-.36-.91-.78-.91a3.75,3.75,0,0,0-2.11,1.36,17.9,17.9,0,0,0-1.38,1.62,1.13,1.13,0,0,1-.82.53c-.38,0-.76-.23-.76-1a1.5,1.5,0,0,1,.7-1.3,7.07,7.07,0,0,0,1.16-1.16,14,14,0,0,0,1.48-2.26,8.74,8.74,0,0,1-1.91.21,2.47,2.47,0,0,1-2.17-1.71l.19-.19a2.84,2.84,0,0,0,1.8.61,12.58,12.58,0,0,0,2.82-.44,10.27,10.27,0,0,0,.4-1.12,2.51,2.51,0,0,0,.11-.72.56.56,0,0,0-.25-.51,2.42,2.42,0,0,0-.89-.31v-.26a2.89,2.89,0,0,1,1.2-.3,3.3,3.3,0,0,1,1.59.53.7.7,0,0,1,.4.57.62.62,0,0,1-.15.41,3,3,0,0,0-.34.42c-.17.27-.4.67-.61,1a7.38,7.38,0,0,0,1.41-.63,1.58,1.58,0,0,1,.87-.28c.59,0,1,.24,1,.64a.63.63,0,0,1-.35.65,10.7,10.7,0,0,1-1.12.42c-.6.21-1.44.43-2.47.74-.51.89-1,1.69-1.4,2.39a4.6,4.6,0,0,1,2-.62,1.64,1.64,0,0,1,1.54.74,2.57,2.57,0,0,1,.46,1.52c1.25-.67,2.47-1.37,3.38-1.94.24-.15.43-.29.43-.44a.3.3,0,0,0-.17-.26,1.89,1.89,0,0,0-.85-.33Z"/><path class="cls-2" d="M433.43,75.22c-.32.17-.66.36-1,.53-.14.49-.25.66-.42.66s-.38-.21-1.14-2.18c.85-.25,1.71-.48,2.56-.72V70.09h-1l-1.45.09v-.72l1.45.09h1V68c0-1.12,0-2-.09-2.76,2.47.23,2.7.36,2.7.61s-.17.38-.71.59v3.13h.19c.33-.41.65-.81,1-1.23,1.54,1.25,1.63,1.37,1.63,1.56s-.11.21-.3.21h-2.53c0,.47,0,1,0,1.42v1.43c.76-.25,1.52-.54,2.34-.86l.15.23a27.52,27.52,0,0,1-2.49,1.77c.06,4.52.14,5.58.14,6.44s-.71,1.8-2.13,1.8c-.34,0-.4,0-.51-.38a2.3,2.3,0,0,0-1.62-1.52l0-.28a12.88,12.88,0,0,0,1.42.09c.65,0,.76-.08.76-.74Zm15.64,5a2.26,2.26,0,0,0-1,1.29c-.17.52-.23.57-.72.59s-1.22,0-1.79,0c-3.8,0-5.39-1.06-6.32-3.15A8,8,0,0,1,435,82.57l-.17-.23c2.11-1.71,3.15-4.18,3.51-7.2,2.42.47,2.55.61,2.55.85s-.13.33-.68.52a8.37,8.37,0,0,1-.65,1.9,4.34,4.34,0,0,0,2.11,1.38V74.47h-3.36l-1.9.1v-.72l1.9.09h7.25c.38-.49.8-1,1.24-1.5,2,1.48,2.13,1.6,2.13,1.79s-.1.24-.31.24H444a.52.52,0,0,1-.31.44V77h1.43c.36-.46.76-.93,1.19-1.41,1.85,1.39,1.94,1.52,1.94,1.71s-.09.23-.28.23h-4.28V80.1c.54,0,1.12,0,1.81,0a31.41,31.41,0,0,0,3.57-.19ZM440.5,72c0,.38-.49.76-1.46.76-.32,0-.5-.15-.5-.47s.06-1.16.06-5.06c0-1,0-1.38-.06-2.08a7.7,7.7,0,0,1,2.34.87h3.71c.34-.82.51-1,.72-1s.45.06,1.16.55.7.57.7.78-.11.38-.61.68v.5c0,3.15.06,3.93.06,4.14,0,.55-.63.81-1.5.81-.33,0-.5-.13-.5-.45v-.23H440.5Zm4.12-3.32V66.59h-3.89l-.23.25v1.88Zm-4.12,2.64h4.12V69.25H440.5Z"/><path class="cls-2" d="M449.85,74.63A38.28,38.28,0,0,0,453.23,65c2.36.59,2.81.78,2.81,1.07s-.22.4-.85.53a21.11,21.11,0,0,1-1.9,4c.78.21,1.08.36,1.08.51s-.15.33-.63.55v1.81c0,4.84.08,7.75.08,8.45,0,.52-.59.86-1.5.86-.4,0-.61-.19-.61-.5,0-.76.14-3.76.14-8.87v-.68a26.25,26.25,0,0,1-1.75,2.07Zm4.26,7.82a16.8,16.8,0,0,0,4.08-5.3c2.15.9,2.41,1.1,2.41,1.37s-.3.4-.85.42a14.27,14.27,0,0,1-5.47,3.74Zm3.45-12.14h-.66l-1.9.1v-.72l1.9.09h.66v-2c0-1,0-1.73-.07-2.55,2.64.23,2.81.36,2.81.59s-.15.38-.69.59v3.32H462v-2c0-1,0-1.73-.07-2.55,2.64.23,2.81.36,2.81.59s-.15.38-.69.59v3.32h.59c.36-.47.8-1,1.26-1.52,1.9,1.52,1.93,1.65,1.93,1.83s-.11.22-.3.22H464v5.4h.63c.4-.53.78-1,1.29-1.58,2,1.56,2,1.71,2,1.88s-.12.23-.31.23H456.4l-1.89.1v-.73l1.89.1h1.16Zm2.05,5.4H462v-5.4h-2.34Zm2.72,1.56a7.71,7.71,0,0,1,3.8,2A2.35,2.35,0,0,1,467,80.9a1.1,1.1,0,0,1-1.12,1.25,1.17,1.17,0,0,1-1.17-.89,8.26,8.26,0,0,0-2.55-3.75Z"/><path class="cls-2" d="M476.43,66a3,3,0,0,1,1.42-.53,4.34,4.34,0,0,1,2,.84.73.73,0,0,1,.32.62.91.91,0,0,1-.19.59,1.74,1.74,0,0,0-.26.74,12,12,0,0,0-.12,1.22l3.12-.27a2.93,2.93,0,0,0,.85-.19,2.14,2.14,0,0,1,.55-.15,4.09,4.09,0,0,1,1.9.67.89.89,0,0,1,.5.8c0,.41-.27.66-.74.66s-1.28-.23-2-.32a14.24,14.24,0,0,0-1.9-.12,23.22,23.22,0,0,0-2.34.12c0,.74,0,2.2,0,3.78a5.4,5.4,0,0,1,.36,1.9c0,3.53-2.47,5.56-7.12,6.29l-.08-.33c2.74-.89,4.64-2.45,5.23-4.73a1.84,1.84,0,0,1-1.08.31c-1.49,0-2.28-.92-2.28-2.51a2.41,2.41,0,0,1,2.18-2.4,2.35,2.35,0,0,1,1.2.23c0-.36,0-.7,0-1.08s0-.8,0-1.29a44.18,44.18,0,0,0-4.7.91,4.34,4.34,0,0,0-1.13.42,1.31,1.31,0,0,1-.73.21,1.76,1.76,0,0,1-1-.35,3.61,3.61,0,0,1-1-1,2.14,2.14,0,0,1-.25-1l.23-.11a2.24,2.24,0,0,0,.84.53,2.26,2.26,0,0,0,.74.11,11.1,11.1,0,0,0,1.25-.11l5.76-.78c0-.91,0-1.56,0-2.07s0-.74-.17-1-.57-.34-1.33-.4Zm-.8,9.22a1.21,1.21,0,0,0,1.24,1.37A1.31,1.31,0,0,0,478,75.12a1.33,1.33,0,0,0-1.14-1.48A1.39,1.39,0,0,0,475.63,75.18Z"/><path class="cls-2" d="M494.73,73.81a6.57,6.57,0,0,1,3.68-1.1c3,0,4.6,1.8,4.6,4.08,0,3-2.62,4.85-6.21,4.87-2.21,0-3.82-.84-3.82-2.38a1.94,1.94,0,0,1,2.18-1.88,3.19,3.19,0,0,1,2.65,1.25,2,2,0,0,1,.41,1.16.9.9,0,0,1,0,.23A3.58,3.58,0,0,0,501,76.49c0-2-1.14-2.93-3.21-2.93a6,6,0,0,0-3.61,1.64,9.69,9.69,0,0,0-1.61,1.88,1.19,1.19,0,0,1-1,.61.88.88,0,0,1-.91-1,1.38,1.38,0,0,1,.51-1.1c.23-.23.82-.76,1.33-1.31a65.84,65.84,0,0,0,5.11-6.15.28.28,0,0,0,0-.12.09.09,0,0,0-.07-.09l-.1,0c-.89.32-1.82.72-2.72,1.12-.28.13-.49.21-.68.32a.89.89,0,0,1-.51.13c-.72,0-1.47-1.19-1.47-1.86a3.39,3.39,0,0,1,0-.64l.19-.06c.46.68.78.84,1.24.84a2.38,2.38,0,0,0,.68-.12c1-.23,2.19-.57,3.4-1a.87.87,0,0,1,.59-.34,2.45,2.45,0,0,1,1.08.38c.61.34.92.57.92.91a.68.68,0,0,1-.4.63,4.31,4.31,0,0,0-1,.83l-4.18,4.62Zm0,4.37a.88.88,0,0,0-1,.85c0,.76.78,1.35,2.43,1.35.17,0,.36,0,.57,0C496.49,79.09,495.77,78.18,494.77,78.18Z"/><path class="cls-2" d="M512.59,66.15a2.82,2.82,0,0,1,2.89.31c.51.3.64.53.64.8a.63.63,0,0,1-.23.53,2,2,0,0,0-.41.51c-.19.4-.35.7-.5,1.06a6.11,6.11,0,0,0,.95-.45,1.47,1.47,0,0,1,.76-.21c.42,0,1,.3,1,.7s-.19.63-.72.86a23.5,23.5,0,0,1-2.62.83c-1.49,3.65-2.45,6.14-3.84,9.37a1.16,1.16,0,0,1-1.12.8.94.94,0,0,1-.89-1,2.82,2.82,0,0,1,.45-1.14c1.48-2.68,2.64-5,3.78-7.64a12.74,12.74,0,0,1-1.9.19,2.51,2.51,0,0,1-2.32-1.75l.21-.2a2.74,2.74,0,0,0,1.71.57,11.35,11.35,0,0,0,2.91-.5,13.58,13.58,0,0,0,.53-1.63,3.35,3.35,0,0,0,.13-.88c0-.3-.3-.68-1.34-.79Zm1.78,8.21A8.83,8.83,0,0,1,520,72.12a7.08,7.08,0,0,1,2.18.26c.72.27.88.57.88,1.05a.72.72,0,0,1-.8.72c-.42,0-1.16-.11-1.58-.11a4.9,4.9,0,0,0-1.58.45c-2,.82-3,2.11-3,3.42s1.2,2,2.91,2a9.84,9.84,0,0,0,1.88-.12,7.14,7.14,0,0,1,.91-.17c1.16,0,1.77.44,1.77,1.08a.87.87,0,0,1-.55.86,8.85,8.85,0,0,1-2.34.27c-3.74,0-5.45-1.2-5.45-3.63,0-1.41,1-3.14,3.57-4.83a9.17,9.17,0,0,0-4.31,1.26Z"/><path class="cls-2" d="M528.76,67.84A3.22,3.22,0,0,1,531,70a17,17,0,0,1,.38,1.69,13.19,13.19,0,0,1,3.89-1.38c.38-.8.61-1.3.88-2a1.5,1.5,0,0,0,.07-.44c0-.11-.13-.22-.36-.3a1.5,1.5,0,0,0-.57-.08l-.42,0-.07-.32a2.36,2.36,0,0,1,1.54-.55,4.13,4.13,0,0,1,1.75.57c.39.25.51.51.51.68a.79.79,0,0,1-.25.55,4.1,4.1,0,0,0-.45.54c-.31.47-.52.76-.84,1.23a2,2,0,0,1,.32,0c3.56,0,5.44,2.4,5.44,4.66,0,4.23-4.51,5.87-8.7,6.32l-.06-.32c3.65-1.24,6.63-3.21,6.63-6.35a3.36,3.36,0,0,0-3.53-3.53,3.11,3.11,0,0,0-.48,0A57.19,57.19,0,0,1,533.3,76a8.16,8.16,0,0,0,.74.7.91.91,0,0,1,.34.78.75.75,0,0,1-.82.78,2,2,0,0,1-1.46-.78c-1,1.07-2.09,2-3.29,1.94a1.77,1.77,0,0,1-1.65-2c0-1.6,1-3.38,3-5-.17-.93-.24-1.33-.39-2.11a3.36,3.36,0,0,0-1.16-2.2Zm1.57,5.63a4.89,4.89,0,0,0-1.76,3.38c0,.51.21.89.59.89s1.27-.42,2.2-1.42A12.87,12.87,0,0,1,530.33,73.47Zm1.24-1a10.68,10.68,0,0,0,.89,2.52,24.25,24.25,0,0,0,2.39-3.91A10.1,10.1,0,0,0,531.57,72.52Z"/><path class="cls-2" d="M548,67a7,7,0,0,1,1.22,1.22,2.78,2.78,0,0,1,.63,1.52,2,2,0,0,1-.23,1,9.89,9.89,0,0,0-.48,1.08,15.87,15.87,0,0,0-.81,3.49,6.63,6.63,0,0,0,0,.88v.49c0,.08,0,.1.05.1s.06,0,.08-.08a30.59,30.59,0,0,1,2.15-4.58,7.7,7.7,0,0,1,1.82-2,8.9,8.9,0,0,1,4-1.42,16.07,16.07,0,0,1,2.3-.12c1.23,0,1.75.4,1.75,1.12s-.46.78-1.22.78h-1.54a4.19,4.19,0,0,0-2.13.72c-1.5,1-2.77,2.38-2.77,4.37,0,2.41,2.41,2.7,4.54,2.7a7.79,7.79,0,0,0,1.52-.15,5.41,5.41,0,0,1,1-.15c.81,0,1.61.43,1.61,1.21a.8.8,0,0,1-.57.84,10.23,10.23,0,0,1-2.68.24c-3.4,0-6.29-1.1-6.29-4.16,0-2.28,1.28-4.19,3.16-5.92a7.23,7.23,0,0,0-2.7,1,4,4,0,0,0-1.33,1.5,22.82,22.82,0,0,0-1.8,5.2,4.33,4.33,0,0,0-.12,1.18c0,.44.17,1.22.17,1.65a.65.65,0,0,1-.68.71c-.36,0-.7-.29-1-.93a9.64,9.64,0,0,1-.64-3.84,27.67,27.67,0,0,1,.82-5.83,12.78,12.78,0,0,0,.34-1.94,5.71,5.71,0,0,0-.31-1.58Z"/><path class="cls-2" d="M572,70.05V68.26c0-1.46,0-2.49-.12-3.32,2.72.23,3.16.4,3.16.68s-.23.44-.84.67v3.76h3c.39-.53.87-1.07,1.34-1.6,2,1.43,2.19,1.73,2.19,1.9s-.11.23-.31.23h-6.19V75h2.3a19,19,0,0,1,1.31-1.51c1.9,1.42,2.09,1.65,2.09,1.82s-.11.23-.3.23h-5.4V80.9h3.9a16.51,16.51,0,0,1,1.52-1.73c2.09,1.55,2.26,1.84,2.26,2s-.12.23-.31.23H566.15l-1.9.09V80.8l1.9.1H572V75.58h-3.27l-1.9.09V75l1.9.09H572V70.58h-3.73a15.82,15.82,0,0,1-3.7,5.64l-.25-.15A33.74,33.74,0,0,0,567,66.74c2.55.57,3,.76,3,1.07s-.33.43-.9.51c-.19.57-.38,1.16-.59,1.73Z"/><path class="cls-2" d="M584.64,69.55a3.37,3.37,0,0,0,2.48.71,27.39,27.39,0,0,0,4.24-.55c0-.63,0-1.12,0-1.68a3,3,0,0,0-.17-1c-.15-.37-.49-.5-1.06-.5l-.29,0-.07-.32a2.28,2.28,0,0,1,1.44-.63,3.74,3.74,0,0,1,1.77.57.8.8,0,0,1,.45.67.94.94,0,0,1-.22.62,1.3,1.3,0,0,0-.25.65c0,.3,0,.74-.08,1.25a14.35,14.35,0,0,0,2-.59,2.75,2.75,0,0,0,.66-.34,1.7,1.7,0,0,1,1-.23c.8,0,1.31.44,1.31.91s-.11.65-.78.82c-1.44.36-2.62.63-4.23.91,0,1,0,1.9,0,2.68a10.36,10.36,0,0,0,1.63-.47,2,2,0,0,0,.44-.23,1.65,1.65,0,0,1,.91-.27c.82,0,1.18.36,1.18.74s-.31.65-.69.8a21,21,0,0,1-3.43.88c0,1.1.07,2,.15,3a12.06,12.06,0,0,1,3.8,1.59,1.6,1.6,0,0,1,.85,1.33.89.89,0,0,1-1,1,1.66,1.66,0,0,1-1.06-.51,9,9,0,0,0-2.62-1.9,2.21,2.21,0,0,1-1.11,1.94,4,4,0,0,1-2.31.49c-1.71,0-2.85-.85-2.85-2,0-1.43,1.44-2.17,3.27-2.17a13.3,13.3,0,0,1,1.46.06c0-1,0-1.85,0-2.64a21.52,21.52,0,0,1-2.22.13c-1.47,0-1.94-.59-1.94-1.39s.7-1.69,1.82-2.52v0c-.78.07-1.48.13-1.92.13a2.7,2.7,0,0,1-2.69-1.77Zm4.61,9.2c-1.18,0-1.8.32-1.8,1s.66.91,1.69.91a2.55,2.55,0,0,0,1.84-.57,1.8,1.8,0,0,0,.4-1.09A8.06,8.06,0,0,0,589.25,78.75Zm2.11-7.64a6.18,6.18,0,0,0-1.88.78c-1,.55-1.31,1.14-1.31,1.58s.25.51,1,.51a14.63,14.63,0,0,0,2.2-.19C591.4,72.9,591.38,72,591.36,71.11Z"/><path class="cls-2" d="M620.18,75.75c-.74,2.85-2.45,4.71-4.69,4.75a2.11,2.11,0,0,1-2.32-2.4c0-.64.08-1.8.27-3.64.15-1.49.25-2.64.25-3.71,0-.8-.31-1-.63-1a2.21,2.21,0,0,0-1.33.71,43.14,43.14,0,0,0-4,4.39c0,2.18.15,4.14.15,4.92a3.16,3.16,0,0,1-.36,1.74.83.83,0,0,1-.72.46c-.46,0-.61-.23-.72-1a5,5,0,0,0-1.31-2.51c-.21.31-.46.72-.63.93a1,1,0,0,1-.68.44,1,1,0,0,1-1-.93,1.14,1.14,0,0,1,.43-.91c.37-.38.77-.76,1.18-1.24a18.52,18.52,0,0,0,2.42-3.51c0-.4,0-.8,0-1.2a8.52,8.52,0,0,0-1.69.84c-.23.19-.36.26-.51.26a1.09,1.09,0,0,1-.76-.41,2.36,2.36,0,0,1-.7-1.54l.21-.08a1.07,1.07,0,0,0,.95.42,7.26,7.26,0,0,0,2.54-.82c0-1,0-2.16,0-3,0-.47,0-.84-.3-1a2.16,2.16,0,0,0-.88-.32l0-.27a2.76,2.76,0,0,1,1.09-.28,3.5,3.5,0,0,1,1.73.7,1,1,0,0,1,.47.78.87.87,0,0,1-.25.59,1.63,1.63,0,0,0-.28.63c-.06.4-.1.78-.17,1.69a.31.31,0,0,1,.19,0,.64.64,0,0,1,.36.15.86.86,0,0,1,.34.63,1.1,1.1,0,0,1-.27.64c-.2.31-.43.73-.81,1.43l0,.38a37.25,37.25,0,0,1,4.22-4,2.39,2.39,0,0,1,1.5-.57,2.13,2.13,0,0,1,2.14,1.94c0,.3-.09.91-.2,1.71a42.82,42.82,0,0,0-.56,5.13c0,.89.25,1.29,1.16,1.29,1.1,0,2.74-1.16,4-3.35Zm-13.79,3.11c0-.7,0-1.67,0-2.71-.4.6-1,1.38-1.39,1.95a11.09,11.09,0,0,0,1.27.78Z"/><path class="cls-2" d="M622.64,69.55a3.37,3.37,0,0,0,2.48.71,27.39,27.39,0,0,0,4.24-.55c0-.63,0-1.12,0-1.68a3,3,0,0,0-.17-1c-.15-.37-.49-.5-1.06-.5l-.29,0-.07-.32a2.28,2.28,0,0,1,1.44-.63,3.74,3.74,0,0,1,1.77.57.8.8,0,0,1,.45.67.94.94,0,0,1-.22.62,1.3,1.3,0,0,0-.25.65c0,.3,0,.74-.08,1.25a14.35,14.35,0,0,0,2-.59,2.75,2.75,0,0,0,.66-.34,1.7,1.7,0,0,1,1-.23c.8,0,1.31.44,1.31.91s-.11.65-.78.82c-1.44.36-2.62.63-4.23.91,0,1,0,1.9,0,2.68a10.36,10.36,0,0,0,1.63-.47,2,2,0,0,0,.44-.23,1.65,1.65,0,0,1,.91-.27c.82,0,1.18.36,1.18.74s-.31.65-.69.8a21,21,0,0,1-3.43.88c0,1.1.07,2,.15,3a12.06,12.06,0,0,1,3.8,1.59,1.6,1.6,0,0,1,.85,1.33.89.89,0,0,1-1,1,1.66,1.66,0,0,1-1.06-.51,9,9,0,0,0-2.62-1.9,2.21,2.21,0,0,1-1.11,1.94,4,4,0,0,1-2.31.49c-1.71,0-2.85-.85-2.85-2,0-1.43,1.44-2.17,3.27-2.17a13.3,13.3,0,0,1,1.46.06c0-1,0-1.85,0-2.64a21.52,21.52,0,0,1-2.22.13c-1.47,0-1.94-.59-1.94-1.39s.7-1.69,1.82-2.52v0c-.78.07-1.48.13-1.92.13a2.7,2.7,0,0,1-2.69-1.77Zm4.61,9.2c-1.18,0-1.8.32-1.8,1s.66.91,1.69.91a2.55,2.55,0,0,0,1.84-.57,1.8,1.8,0,0,0,.4-1.09A8.06,8.06,0,0,0,627.25,78.75Zm2.11-7.64a6.18,6.18,0,0,0-1.88.78c-1,.55-1.31,1.14-1.31,1.58s.25.51,1,.51a14.63,14.63,0,0,0,2.2-.19C629.4,72.9,629.38,72,629.36,71.11Z"/><path class="cls-2" d="M656.26,76.79a9.85,9.85,0,0,1-8.15,4.66,4,4,0,0,1-2.75-.88,3.12,3.12,0,0,1-.84-2.24c0-.64,0-2,.14-4.12.07-1.84.15-4,.15-5.61,0-.89,0-1.14-.76-1.36a3.32,3.32,0,0,0-.7-.16l-.06-.28a2.09,2.09,0,0,1,1.33-.49,3.57,3.57,0,0,1,1.82.76c.61.39.8.68.8,1a1.3,1.3,0,0,1-.25.67,2.48,2.48,0,0,0-.3,1c-.11.92-.23,2.11-.32,4.22-.06,1.24-.08,2-.08,2.7,0,.4,0,.74,0,1.06,0,.8.09,1.24.42,1.56a2.19,2.19,0,0,0,1.56.44,12.62,12.62,0,0,0,7.77-3.14Z"/><path class="cls-2" d="M664.59,66.15a2.82,2.82,0,0,1,2.89.31c.51.3.64.53.64.8a.63.63,0,0,1-.23.53,2,2,0,0,0-.41.51c-.19.4-.35.7-.5,1.06a6.11,6.11,0,0,0,.95-.45,1.47,1.47,0,0,1,.76-.21c.42,0,1,.3,1,.7s-.19.63-.72.86a23.5,23.5,0,0,1-2.62.83c-1.49,3.65-2.45,6.14-3.84,9.37a1.16,1.16,0,0,1-1.12.8.94.94,0,0,1-.89-1,2.82,2.82,0,0,1,.45-1.14c1.48-2.68,2.64-5,3.78-7.64a12.74,12.74,0,0,1-1.9.19,2.51,2.51,0,0,1-2.32-1.75l.21-.2a2.74,2.74,0,0,0,1.71.57,11.35,11.35,0,0,0,2.91-.5,13.58,13.58,0,0,0,.53-1.63,3.35,3.35,0,0,0,.13-.88c0-.3-.3-.68-1.34-.79Zm1.78,8.21A8.83,8.83,0,0,1,672,72.12a7.08,7.08,0,0,1,2.18.26c.72.27.88.57.88,1.05a.72.72,0,0,1-.8.72c-.42,0-1.16-.11-1.58-.11a4.9,4.9,0,0,0-1.58.45c-2,.82-3,2.11-3,3.42s1.2,2,2.91,2a9.84,9.84,0,0,0,1.88-.12,7.14,7.14,0,0,1,.91-.17c1.16,0,1.77.44,1.77,1.08a.87.87,0,0,1-.55.86,8.85,8.85,0,0,1-2.34.27c-3.74,0-5.45-1.2-5.45-3.63,0-1.41,1-3.14,3.57-4.83a9.17,9.17,0,0,0-4.31,1.26Z"/><path class="cls-2" d="M684,79.38a2.74,2.74,0,1,1-2.74-2.74A2.75,2.75,0,0,1,684,79.38Zm-4.62,0a1.88,1.88,0,0,0,3.76,0,1.9,1.9,0,0,0-1.88-1.89A1.92,1.92,0,0,0,679.35,79.38Z"/><path class="cls-2" d="M47.58,100.76l-1.9.09v-.72l1.9.1h1.5V97.05a29.24,29.24,0,0,1-3.42.38l0-.28a26.17,26.17,0,0,0,6.25-2.91c2,1.31,2.09,1.46,2.09,1.69s-.14.34-.54.34a3.4,3.4,0,0,1-.51,0c-.47.13-1,.28-1.63.4a.57.57,0,0,1-.31.51v3.08h.74c.38-.5.78-1,1.22-1.47,1.82,1.3,2.05,1.56,2.05,1.75s-.09.25-.3.25H51v1.92c2.25.32,3.1,1.17,3.1,2.12S53.57,106,53,106a1.06,1.06,0,0,1-1-1,3.52,3.52,0,0,0-1-1.94c0,5.53.12,7,.12,7.6s-.69.82-1.56.82c-.38,0-.59-.17-.59-.48,0-.57.08-1.86.11-6.25a19.39,19.39,0,0,1-3.38,4l-.22-.17a29.3,29.3,0,0,0,3.45-7.86Zm11.61,3.63a8.16,8.16,0,0,1,3.44,3.19,3.86,3.86,0,0,1,.47,1.73,1.2,1.2,0,0,1-1.27,1.36,1.09,1.09,0,0,1-1.06-1.08,13.07,13.07,0,0,0-.27-1.52c-2.15.71-4.37,1.29-6.44,1.77-.15.42-.34.59-.55.59s-.42-.34-1-2.66c.91,0,1.84,0,2.79-.08a106.46,106.46,0,0,0,2.09-12.88c2.68.53,3.08.72,3.08,1s-.21.46-.84.7a62.06,62.06,0,0,1-3.38,11.17c1.37-.05,2.73-.13,4.1-.24A9.05,9.05,0,0,0,59,104.6Z"/><path class="cls-2" d="M70,95.15a3.34,3.34,0,0,1,1.29-.26,3.3,3.3,0,0,1,1.59.57c.52.3.65.53.65.8a.66.66,0,0,1-.23.53,2.28,2.28,0,0,0-.42.51c-.19.4-.34.7-.49,1.06a6.58,6.58,0,0,0,1-.45,1.47,1.47,0,0,1,.76-.21c.42,0,1,.3,1,.7s-.19.63-.72.86a23.07,23.07,0,0,1-2.63.83c-1.48,3.65-2.45,6.14-3.83,9.37a1.16,1.16,0,0,1-1.12.8.94.94,0,0,1-.9-1,2.73,2.73,0,0,1,.46-1.14c1.48-2.68,2.64-5,3.78-7.64a12.74,12.74,0,0,1-1.9.19,2.5,2.5,0,0,1-2.32-1.75l.21-.2a2.72,2.72,0,0,0,1.71.57,11.35,11.35,0,0,0,2.91-.5,13.58,13.58,0,0,0,.53-1.63,3.35,3.35,0,0,0,.13-.88c0-.3-.3-.68-1.35-.79Zm1.78,8.21a8.81,8.81,0,0,1,5.62-2.24,7.11,7.11,0,0,1,2.19.26c.72.27.87.57.87,1.05a.71.71,0,0,1-.79.72c-.42,0-1.16-.11-1.58-.11a4.9,4.9,0,0,0-1.58.45c-2,.82-3,2.11-3,3.42s1.19,2,2.9,2a10,10,0,0,0,1.89-.12,7.14,7.14,0,0,1,.91-.17c1.16,0,1.76.44,1.76,1.08a.87.87,0,0,1-.55.86,8.71,8.71,0,0,1-2.33.27c-3.75,0-5.46-1.2-5.46-3.63,0-1.41,1-3.14,3.58-4.83a9.24,9.24,0,0,0-4.32,1.26Z"/><path class="cls-2" d="M88.76,110.67C94.17,109.48,97,107.25,97,105c0-1.31-.88-1.93-2.24-1.93a6.29,6.29,0,0,0-4.26,2.16,6,6,0,0,0-.93,1.37c-.23.44-.4.65-.78.65s-1-.88-1-1.73a1.65,1.65,0,0,1,.18-.93,2.65,2.65,0,0,0,.28-.73,33.89,33.89,0,0,0,.82-3.62c-.57,0-1,0-1.37,0a2.55,2.55,0,0,1-2.6-2l.28-.15a2.08,2.08,0,0,0,1.86.81,10.5,10.5,0,0,0,2-.2,16.66,16.66,0,0,0,.23-2.19c0-.68-.06-1-1.13-1.18l0-.3a3.3,3.3,0,0,1,1.14-.25,3.51,3.51,0,0,1,1.49.48c.43.24.62.53.62.76a.66.66,0,0,1-.21.49,1.61,1.61,0,0,0-.41.7c-.08.31-.18.69-.27,1.18a11.89,11.89,0,0,0,1.52-.49,2.65,2.65,0,0,0,.64-.36,1.25,1.25,0,0,1,.78-.25c.84,0,1.37.32,1.37.87,0,.38-.19.65-1,.93a29,29,0,0,1-3.57.92c-.21,1.23-.45,2.54-.7,4a9.23,9.23,0,0,1,5.11-1.77c2.68,0,4.16,1.44,4.16,3.25,0,3-3.67,5.34-10.26,5.51Z"/><path class="cls-2" d="M112.35,95.91a1.85,1.85,0,0,1,1.12-.4,4,4,0,0,1,2.3.92.61.61,0,0,1,.19.45.94.94,0,0,1-.17.52,1.58,1.58,0,0,0-.25.85c0,.46,0,.84,0,1.25a5.28,5.28,0,0,0,1.42-.26,1.27,1.27,0,0,1,.63-.15c.93,0,1.46.43,1.46.89s-.19.7-.57.74c-.84.08-1.8.15-3,.27,0,2.09.11,3.85.22,5.71a8.07,8.07,0,0,1,2.93,1.73,1.26,1.26,0,0,1,.34.9.91.91,0,0,1-.83.91,1.11,1.11,0,0,1-1-.46,9.43,9.43,0,0,0-1.71-1.44c-.4,1.23-1.64,1.86-3.29,1.86s-2.7-.93-2.7-2c0-1.35,1.35-2,2.78-2a9.74,9.74,0,0,1,1.76.14c0-1.75-.07-3.39-.15-5.23-1.35.11-2.07.15-2.49.15a3.73,3.73,0,0,1-1.37-.26,1.69,1.69,0,0,0-.6-.14,1,1,0,0,0-.9.63,26,26,0,0,0-2,5.91,6.44,6.44,0,0,0-.12,1.27c0,.32.18,1,.18,1.35s-.23.87-.69.87-.61-.24-.85-.64a10.24,10.24,0,0,1-.9-4.75A27.23,27.23,0,0,1,105.27,99a9.9,9.9,0,0,0,.41-2.07,2.53,2.53,0,0,0-.39-1.5l.19-.19a2.81,2.81,0,0,1,.81.49,5.38,5.38,0,0,1,.93,1.26,1.49,1.49,0,0,1,0,1.78,8.09,8.09,0,0,0-.59,1.26,15.13,15.13,0,0,0-1.1,5.12,8.29,8.29,0,0,0,0,1c0,.06,0,.11.06.11s.07,0,.09-.09a50.63,50.63,0,0,1,2.32-5.09c.57-1.09,1.14-1.18,1.46-1.18l.82,0h.34c.63,0,1.69-.1,3.23-.27,0-.74-.07-1.63-.11-2.39,0-.4,0-.69-.29-.89a1.74,1.74,0,0,0-1.1-.31Zm-2.16,12.14c0,.53.55,1,1.78,1s1.9-.51,2-1.5a5.93,5.93,0,0,0-2.19-.43C111,107.07,110.19,107.39,110.19,108.05Z"/><path class="cls-2" d="M121.87,105.89a8.86,8.86,0,0,1,4.47,1.55,3.15,3.15,0,0,1,1.48,2.42,1.34,1.34,0,0,1-1.43,1.5c-.62,0-1-.5-1.33-1.6a6.12,6.12,0,0,0-3.28-3.61Z"/><path class="cls-2" d="M140.23,102.56a24.88,24.88,0,0,0,8.15-8.72c2.47.91,2.58,1,2.58,1.28s-.13.36-.68.47a15.88,15.88,0,0,0,8.11,4.45l-.06.28a2.84,2.84,0,0,0-1.56,1.33c-.15.29-.24.42-.38.42a1.3,1.3,0,0,1-.38-.13,13.09,13.09,0,0,1-6.21-6.08,20.21,20.21,0,0,1-9.42,7Zm7.81,3.73h-2.91l-1.9.09v-.72l1.9.09H148v-3.59h-2.91l-1.9.1v-.72l1.9.09h5.7c.42-.53.78-1,1.31-1.56,1.9,1.47,2.11,1.62,2.11,1.87a.24.24,0,0,1-.27.22h-3.42c0,.25-.15.37-.36.4v3.19H152c.4-.49.91-1.15,1.39-1.63,2,1.52,2.12,1.77,2.12,1.94s-.11.23-.3.23h-5v4h4.16c.44-.55,1-1.18,1.52-1.77,2,1.54,2.24,1.84,2.24,2s-.11.27-.3.27H142.58l-1.9.09v-.72l1.9.1H148Z"/><path class="cls-2" d="M160.25,98.65c.65.68,1,.82,1.35.82l.21,0a16.09,16.09,0,0,0,2.26-.36c2.49-.56,4.94-1.12,6.35-1.47a10,10,0,0,0,1.88-.6,2.73,2.73,0,0,1,1.23-.38,3.76,3.76,0,0,1,1.58.34,1.07,1.07,0,0,1,.76,1.06c0,.51-.25.74-1.31.74a11.47,11.47,0,0,0-3.52.44c-2.64.93-4,2.89-4,5a3.58,3.58,0,0,0,2.88,3.5,7.66,7.66,0,0,0,1.47.21l.26,0c.21,0,.42,0,.61,0,1.24,0,1.92.7,1.92,1.41s-.3,1-1.39,1a10,10,0,0,1-4.08-.92,5,5,0,0,1-2.91-4.63,6.82,6.82,0,0,1,3.06-5.49c-1.6.55-3,1-5,1.59a4.67,4.67,0,0,0-1.16.52.94.94,0,0,1-.55.19,1.29,1.29,0,0,1-.8-.31A3.47,3.47,0,0,1,160,99.41c0-.13,0-.27,0-.46v-.26Z"/><path class="cls-2" d="M186.47,109.76c4.71-1.73,6.48-4.31,6.48-7,0-2.85-2.17-4.77-5.32-4.77-.34,0-.64,0-.91,0,.89.66,1.21,1.25,1.21,1.61a6,6,0,0,1-.6,1.68,32.36,32.36,0,0,1-3.14,5.64c-.62.83-1.12,1.31-1.82,1.31a2.52,2.52,0,0,1-1.79-1.2,5.34,5.34,0,0,1-1-3.23c0-3.59,3.46-6.72,8.12-6.72s7.29,2.87,7.29,6c0,3.55-2.53,6.06-8.47,6.88Zm-5.66-6.23a3.24,3.24,0,0,0,.63,1.94,1.44,1.44,0,0,0,.91.64,1.23,1.23,0,0,0,1-.68,24.89,24.89,0,0,0,2.47-4.92,5.14,5.14,0,0,0,.32-1.33,1.62,1.62,0,0,0-.29-1C182.6,99,180.81,101,180.81,103.53Z"/><path class="cls-2" d="M197.38,110.83a15.11,15.11,0,0,0,5.13-5.44c1.4-2.6,2.15-5.73,2.34-10.81,2.6.35,2.92.48,2.92.82s-.21.46-.76.65a17.37,17.37,0,0,0,3,8,16.48,16.48,0,0,0,5.38,4.88l-.12.27a3.78,3.78,0,0,0-2.07,1.06c-.2.21-.3.31-.41.31s-.21-.08-.38-.25a18.53,18.53,0,0,1-3.84-5.18,20.07,20.07,0,0,1-1.77-6.71,16.35,16.35,0,0,1-2.68,7.75,13.61,13.61,0,0,1-6.57,4.83Z"/><path class="cls-2" d="M220.86,107.54a5.67,5.67,0,0,0,1.58.74,2.47,2.47,0,0,0,.36,0,1.25,1.25,0,0,0,.8-.32,5.14,5.14,0,0,0,1.18-1.87,13.71,13.71,0,0,0,.91-4.38c0-.92-.23-1.09-.86-1.09a6.52,6.52,0,0,0-1.33.21c-1.63,3.31-2.88,5.85-4.31,8.4-.42.76-.78,1-1.1,1-.55,0-.82-.63-.82-1.16a1.94,1.94,0,0,1,.48-1.18,48.67,48.67,0,0,0,4-6.55,18.58,18.58,0,0,0-2.16.72,3.59,3.59,0,0,0-.38.21,1,1,0,0,1-.46.11c-.36,0-1.06-.64-1.36-1.48a1.41,1.41,0,0,1-.12-.59,3.58,3.58,0,0,1,0-.4l.21,0c.49.58.74.69,1.14.69a7.21,7.21,0,0,0,1.08-.1l2.55-.39a19.92,19.92,0,0,0,.79-2.28,2.5,2.5,0,0,0,.12-.67.54.54,0,0,0-.23-.47,2.56,2.56,0,0,0-1.06-.35l0-.24A2,2,0,0,1,223,95.7a3.86,3.86,0,0,1,2.05.75.88.88,0,0,1,.4.7.87.87,0,0,1-.36.64,3.53,3.53,0,0,0-.42.59c-.32.57-.49.92-.74,1.45a6.68,6.68,0,0,1,1.23-.1c1.3,0,1.92,1.14,1.92,2.38a12.28,12.28,0,0,1-1.23,5.79c-.91,1.82-2.13,2.55-3.29,2.55-.59,0-.87-.17-.87-.93a1.19,1.19,0,0,0-.21-.57,6,6,0,0,0-.8-1.18Zm7.28-6.88a7,7,0,0,1,4.2,2.23,4.23,4.23,0,0,1,1.37,2.79c0,.83-.4,1.12-.8,1.12a1.28,1.28,0,0,1-.82-.42,2,2,0,0,0-1.29-.45,14.73,14.73,0,0,0-2.07.17l0-.27a19.39,19.39,0,0,0,2.05-.91c.32-.17.53-.29.53-.44a1.24,1.24,0,0,0-.21-.66,6.91,6.91,0,0,0-3-2.87Zm.25-4.21a5.25,5.25,0,0,1,2.39.79,1.53,1.53,0,0,1,.66,1.16.76.76,0,0,1-.77.84c-.38,0-.61-.27-.88-.8a4.6,4.6,0,0,0-1.52-1.73Zm1.8-1.39a5.06,5.06,0,0,1,2.37.66,1.46,1.46,0,0,1,.77,1.26.74.74,0,0,1-.78.76c-.27,0-.52-.12-.8-.69a4.09,4.09,0,0,0-1.65-1.73Z"/><path class="cls-2" d="M240.3,110.73c0,.48-.72.78-1.71.78-.38,0-.55-.15-.55-.44,0-.59.09-2.24.09-12.14,0-1.29,0-2,0-2.79a9.1,9.1,0,0,1,2.68.89H243c.17-1.08.28-2,.36-3,2.67.62,3,.76,3,1s-.19.38-.8.53a15.16,15.16,0,0,1-1.5,1.5h4.09c.45-1,.64-1.12.89-1.12a2.37,2.37,0,0,1,1.33.63c.74.57.85.74.85,1s-.17.44-.76.7v1.14c0,8.78.1,10.41.1,11s-.67.78-1.71.78c-.38,0-.55-.15-.55-.44V110h-8Zm8-9.74V97.57h-7.7l-.3.32V101Zm-8,4.12h8v-3.59h-8Zm0,4.37h8v-3.84h-8Z"/><path class="cls-2" d="M259.2,94.81A5,5,0,0,1,263,96.69a2.23,2.23,0,0,1,.48,1.33c0,.59-.23,1-.78,1a1.25,1.25,0,0,1-.72-.25,1.47,1.47,0,0,0-.9-.28,5.81,5.81,0,0,0-1.57.19c-.38.09-.54.3-.54.53a2.85,2.85,0,0,0,.25.95,2.72,2.72,0,0,1,.19.72,9.05,9.05,0,0,1-.09,1.14,21.25,21.25,0,0,0-.17,2.66c0,.15.05.23.11.23a.73.73,0,0,0,.28-.11c.27-.17.48-.35.76-.55,2.28-1.77,3.86-2.61,5.87-2.61,2.46,0,4,1.6,4,3.52,0,3-3,5.07-9.42,5.54l-.05-.34c4.65-1.12,7.37-3.3,7.37-5.51a2.05,2.05,0,0,0-2.26-2.26c-1.52,0-3.16.9-4.91,3a8.56,8.56,0,0,0-1.12,1.55c-.21.61-.51,1-.87,1a2,2,0,0,1-1.29-2.14c0-.61.19-2.7.4-4.28a8.33,8.33,0,0,0,.13-1.38c0-.16,0-.52,0-.76a1.34,1.34,0,0,1,.55-1,15.58,15.58,0,0,1,2.41-1.23,4.16,4.16,0,0,0-2-2.09Z"/><path class="cls-2" d="M286.15,99.85a3.45,3.45,0,0,1,1-.16,2.48,2.48,0,0,1,.9.14,4.72,4.72,0,0,1,1.34.7,1.16,1.16,0,0,1,.59.93.59.59,0,0,1-.53.57,6.71,6.71,0,0,0-1.19.27c-1.64.55-3.22,1.23-4.83,1.93,0,.63,0,1.22,0,1.71s0,.93,0,1.26c0,.76-.46,1-.87,1a.84.84,0,0,1-.84-.91c0-.08,0-.32,0-.38,0-.72.06-1.06.06-1.94-2,1.18-2.64,1.85-2.64,2.78s.93,1.5,2.69,1.5a14.4,14.4,0,0,0,2.05-.17,7.13,7.13,0,0,0,1.16-.27,3.91,3.91,0,0,1,1.12-.13c.82,0,1.51.45,1.51,1.14a.79.79,0,0,1-.63.83,18.57,18.57,0,0,1-4.14.27c-3.31,0-4.75-1.06-4.75-2.81,0-1.56,1-2.66,3.61-4.31a9.25,9.25,0,0,0-.06-1.39c-.09-.67-.36-.91-.78-.91a3.75,3.75,0,0,0-2.11,1.36,17.9,17.9,0,0,0-1.38,1.62,1.13,1.13,0,0,1-.82.53c-.38,0-.76-.23-.76-1a1.5,1.5,0,0,1,.7-1.3,7.07,7.07,0,0,0,1.16-1.16,14,14,0,0,0,1.48-2.26,8.76,8.76,0,0,1-1.92.21c-.76,0-1.57-.45-2.16-1.71l.19-.19a2.82,2.82,0,0,0,1.8.61,12.45,12.45,0,0,0,2.81-.44,7.2,7.2,0,0,0,.4-1.12,2.26,2.26,0,0,0,.12-.72.56.56,0,0,0-.25-.51,2.42,2.42,0,0,0-.89-.31v-.26a2.85,2.85,0,0,1,1.19-.3,3.3,3.3,0,0,1,1.6.53.7.7,0,0,1,.4.57.62.62,0,0,1-.15.41,3,3,0,0,0-.34.42c-.18.27-.4.67-.61,1a7,7,0,0,0,1.4-.63,1.61,1.61,0,0,1,.88-.28c.59,0,1,.24,1,.64a.62.62,0,0,1-.34.65,10.7,10.7,0,0,1-1.12.42c-.61.21-1.44.43-2.47.74-.51.89-.95,1.69-1.4,2.39a4.6,4.6,0,0,1,2-.62,1.64,1.64,0,0,1,1.54.74,2.57,2.57,0,0,1,.45,1.52c1.26-.67,2.47-1.37,3.39-1.94.24-.15.43-.29.43-.44a.3.3,0,0,0-.17-.26,1.89,1.89,0,0,0-.85-.33Z"/><path class="cls-2" d="M295.17,100.8a5.65,5.65,0,0,1,0,.58c0,1.43-.76,2.09-1.61,2.09a.94.94,0,0,1-1-1,1.59,1.59,0,0,1,.85-1.37,2.08,2.08,0,0,0,.88-1.86l.3-.06a4.65,4.65,0,0,1,.46,1.06h8.13a23.86,23.86,0,0,0,1.27-4.14,82.18,82.18,0,0,1-8.28.4c-.63,0-1.24,0-1.84,0l-.06-.28A72.49,72.49,0,0,0,305.47,94c1.77,1.19,2,1.46,2,1.67s-.13.32-.61.32c-.15,0-.36,0-.58,0-.52.08-1.05.14-1.6.19,2.18.61,2.37.82,2.37,1.07s-.22.36-.79.42a17.57,17.57,0,0,1-2.36,2.67h3.21c.44-.81.65-1,.91-1s.55.13,1.3.78c.58.51.74.76.74,1s-.16.42-1.11.61a10.82,10.82,0,0,1-2.1,1.45l-.23-.17a13.37,13.37,0,0,0,.66-2.09Zm8.32,2.54c.5-.81.71-1,.91-1s.48.08,1.11.61c.85.72.95.91.95,1.14s-.35.49-.95.65a13.69,13.69,0,0,1-2.57,3,20.41,20.41,0,0,0,7,1.57l-.05.29a2.61,2.61,0,0,0-1.41,1.27c-.17.34-.27.46-.51.46a1.62,1.62,0,0,1-.29,0,13.07,13.07,0,0,1-6.25-2.43,18.21,18.21,0,0,1-8.62,2.47l-.1-.27a19.9,19.9,0,0,0,7.41-3.38,10.86,10.86,0,0,1-1.42-1.94,14.38,14.38,0,0,1-.93-1.94h-.59l-1.71.1v-.72l1.71.09Zm-7.44-6.63c1.69.4,2.6,1.35,2.6,2.26a1,1,0,0,1-1,1.1.87.87,0,0,1-.91-.83,4.34,4.34,0,0,0-.87-2.32Zm2.24,7.16a9.77,9.77,0,0,0,1.16,1.49,10.61,10.61,0,0,0,1.73,1.46,14.69,14.69,0,0,0,1.65-1.94,9.34,9.34,0,0,0,.61-1Zm1.44-7.37c1.86.52,2.58,1.54,2.58,2.4a1,1,0,0,1-1,1.12.89.89,0,0,1-.95-.91,4.08,4.08,0,0,0-.8-2.4Z"/><path class="cls-2" d="M318.81,111.24a7.54,7.54,0,0,0,3.55-3.4c.68-1.35.89-2.88.89-5.56v-1.86c-.7.07-1.33.15-2,.2a10.34,10.34,0,0,1-1.08.06,4.64,4.64,0,0,1-.92-.11,3,3,0,0,0-.93-.15c-.34,0-.78.3-1.06,1a19.39,19.39,0,0,0-1.1,3.86,8.91,8.91,0,0,0-.19,1.41,4.07,4.07,0,0,0,.09,1,4.67,4.67,0,0,1,.13,1c0,.42-.19.76-.62.76s-.74-.19-1.07-.76a9,9,0,0,1-.85-4.27,31.8,31.8,0,0,1,.53-5.07,20.82,20.82,0,0,0,.34-2.38,3.91,3.91,0,0,0-.3-1.54l.21-.15A6.76,6.76,0,0,1,316,97.09a2.47,2.47,0,0,1,.32,1.06,2.31,2.31,0,0,1-.17,1,4,4,0,0,0-.25.55,15.25,15.25,0,0,0-.81,3.72,10.51,10.51,0,0,0-.06,1.12,5.43,5.43,0,0,0,0,.57l.11,0a37.3,37.3,0,0,1,1.71-4c.53-1.11,1.05-1.41,1.92-1.45.32,0,.82,0,1.58-.07,1-.1,1.93-.23,2.9-.36,0-.67,0-1.3-.05-2.06a1.57,1.57,0,0,0-.27-1,1.59,1.59,0,0,0-1.16-.4l0-.31a2.75,2.75,0,0,1,1.31-.4,3.86,3.86,0,0,1,1.94.73.83.83,0,0,1,.48.66.8.8,0,0,1-.17.55,1.34,1.34,0,0,0-.19.52c0,.43-.08.93-.08,1.5l1-.1a2.18,2.18,0,0,0,.44-.11,1.34,1.34,0,0,1,.49-.1c.93,0,1.54.42,1.54,1.09,0,.26-.17.6-1,.6l-1.1,0c-.38,0-.84,0-1.37,0,0,.84.08,2.41.08,3.71a7.42,7.42,0,0,1-1.22,4.59c-1.08,1.45-2.47,2.28-4.9,2.93Z"/><path class="cls-2" d="M339.12,95.55c.25-.68.36-.78.53-.78s.36.08.84.42.64.53.64.74-.15.46-1.18.86a17.81,17.81,0,0,0,2.53,6.93A15.72,15.72,0,0,0,348.2,109l-.13.27a3.44,3.44,0,0,0-2,1.12c-.17.21-.27.3-.4.3a.66.66,0,0,1-.4-.2,17,17,0,0,1-4.33-5.72,16.08,16.08,0,0,1-1.27-4.14,20.58,20.58,0,0,1-1,2.48,17.68,17.68,0,0,1-3.27,4.6,17.09,17.09,0,0,1-2.83,2.34,18.44,18.44,0,0,1-1.93,1.1l-.18-.21c3.82-3.08,6.27-7.26,7.64-12.82l1.31.42c-.07-.82-.11-1.62-.15-2.44h-2.18l-1.9.1v-.72l1.9.09Z"/><path class="cls-2" d="M367.54,104.75c-.74,2.85-2.45,4.71-4.69,4.75a2.11,2.11,0,0,1-2.32-2.4c0-.64.08-1.8.27-3.64.15-1.49.24-2.64.24-3.71,0-.8-.3-1-.62-1a2.21,2.21,0,0,0-1.33.71,42,42,0,0,0-4,4.39c0,2.18.15,4.14.15,4.92a3.25,3.25,0,0,1-.36,1.74.83.83,0,0,1-.72.46c-.46,0-.61-.23-.73-1a4.88,4.88,0,0,0-1.31-2.51c-.2.31-.45.72-.62.93a1,1,0,0,1-.69.44,1,1,0,0,1-1-.93,1.14,1.14,0,0,1,.43-.91c.36-.38.76-.76,1.18-1.24a18,18,0,0,0,2.41-3.51c0-.4,0-.8.06-1.2a8.52,8.52,0,0,0-1.69.84c-.23.19-.36.26-.51.26a1.09,1.09,0,0,1-.76-.41,2.42,2.42,0,0,1-.71-1.54l.21-.08a1.08,1.08,0,0,0,.95.42,7.29,7.29,0,0,0,2.55-.82c0-1,0-2.16,0-3,0-.47,0-.84-.31-1a2.06,2.06,0,0,0-.87-.32l0-.27a2.76,2.76,0,0,1,1.08-.28,3.44,3.44,0,0,1,1.73.7,1,1,0,0,1,.48.78.92.92,0,0,1-.25.59,1.49,1.49,0,0,0-.28.63c-.06.4-.1.78-.17,1.69a.31.31,0,0,1,.19,0,.67.67,0,0,1,.36.15.86.86,0,0,1,.34.63,1.1,1.1,0,0,1-.27.64c-.21.31-.43.73-.81,1.43l0,.38a38.39,38.39,0,0,1,4.21-4,2.43,2.43,0,0,1,1.51-.57A2.13,2.13,0,0,1,363,99.83a16.18,16.18,0,0,1-.21,1.71,44.63,44.63,0,0,0-.55,5.13c0,.89.25,1.29,1.16,1.29,1.1,0,2.74-1.16,3.95-3.35Zm-13.79,3.11c0-.7,0-1.67,0-2.71-.4.6-1,1.38-1.39,1.95a10.29,10.29,0,0,0,1.27.78Z"/><path class="cls-2" d="M368.87,105.89a8.86,8.86,0,0,1,4.47,1.55,3.15,3.15,0,0,1,1.48,2.42,1.34,1.34,0,0,1-1.43,1.5c-.62,0-1-.5-1.33-1.6a6.12,6.12,0,0,0-3.28-3.61Z"/><path class="cls-2" d="M387.49,99.58a19.41,19.41,0,0,0,2.76-5c2.16.83,2.35,1,2.35,1.27s-.21.34-.89.46a14.27,14.27,0,0,1-4,3.55Zm5.87,4.79c.4-.88.53-1,.78-1s.46.09,1.14.59.74.66.74.87-.15.44-.64.65v.4c0,1.84.05,2.75.05,3.19s-.55.72-1.44.72c-.36,0-.51-.13-.51-.42V109h-2.21v1.15c0,.44-.62.73-1.5.73-.36,0-.51-.14-.51-.42s.08-1.08.08-4.69c0-.57,0-1.07,0-1.56a16.64,16.64,0,0,1-1.58,1.18l-.17-.21a25.76,25.76,0,0,0,4.33-7.58c2.19.8,2.41,1,2.41,1.27s-.22.4-1,.49a2.42,2.42,0,0,1-.24.42,5.93,5.93,0,0,1,2.92,1.5,2.07,2.07,0,0,1,.61,1.39,1,1,0,0,1-1,1.1c-.45,0-.76-.19-1-.8a6.61,6.61,0,0,0-1.82-2.77,16.2,16.2,0,0,1-3,3.57c.44.13.89.25,1.33.4a2.44,2.44,0,0,1,.48.25Zm-1.82.53-.27.3v3.21h2.21V104.9Zm13.83,5.19a2.61,2.61,0,0,0-1.67.81c-.17.19-.29.29-.4.29s-.19-.1-.34-.29a14.88,14.88,0,0,1-2.57-7.92c-.72,4.84-3.06,7.54-7.31,8.83l-.14-.24c4.05-2.13,5.67-5.68,5.82-11.84,2.09.21,2.47.36,2.47.65s-.15.36-.61.57a12.92,12.92,0,0,0,4.86,8.87ZM393.29,94.7c2.52.21,3.47,1.35,3.47,2.13A1.08,1.08,0,0,1,395.68,98c-.42,0-.78-.28-1-.91A3.69,3.69,0,0,0,393.17,95Zm9.27,3.3c.42-.81.61-1,.83-1s.46.12,1.05.59.83.74.83,1-.22.42-.77.53a23.19,23.19,0,0,1-2.34,2l-.25-.15a13.78,13.78,0,0,0,.76-2.51h-3.93a13.49,13.49,0,0,1-2.19,2.59l-.22-.17a22.28,22.28,0,0,0,1.82-6.65c2.47.68,2.75.85,2.75,1.12s-.18.44-.85.53a13.86,13.86,0,0,1-1,2Z"/><path class="cls-2" d="M409.38,96a7,7,0,0,1,1.22,1.22,2.77,2.77,0,0,1,.62,1.52,2,2,0,0,1-.22,1,9.89,9.89,0,0,0-.48,1.08,16.62,16.62,0,0,0-.82,3.49c0,.31,0,.59,0,.88v.49c0,.08,0,.1.05.1s.06,0,.08-.08a31.74,31.74,0,0,1,2.14-4.58,7.73,7.73,0,0,1,1.83-2,8.9,8.9,0,0,1,4-1.42,16,16,0,0,1,2.3-.12c1.23,0,1.75.4,1.75,1.12s-.46.78-1.22.78h-1.54a4.19,4.19,0,0,0-2.13.72c-1.5,1-2.77,2.38-2.77,4.37,0,2.41,2.41,2.7,4.54,2.7a7.88,7.88,0,0,0,1.52-.15,5.2,5.2,0,0,1,1-.15c.82,0,1.62.43,1.62,1.21a.8.8,0,0,1-.57.84,10.23,10.23,0,0,1-2.68.24c-3.4,0-6.29-1.1-6.29-4.16,0-2.28,1.27-4.19,3.16-5.92a7.17,7.17,0,0,0-2.7,1,4,4,0,0,0-1.33,1.5,23.26,23.26,0,0,0-1.81,5.2,4.78,4.78,0,0,0-.11,1.18c0,.44.17,1.22.17,1.65a.66.66,0,0,1-.68.71c-.36,0-.71-.29-1-.93a9.64,9.64,0,0,1-.64-3.84,27.66,27.66,0,0,1,.81-5.83,11.61,11.61,0,0,0,.34-1.94,5.62,5.62,0,0,0-.3-1.58Z"/><path class="cls-2" d="M427.43,105.66a4.18,4.18,0,0,1,.82,2.43,2.15,2.15,0,0,1-2,2.38,1,1,0,0,1-1-1c0-.47.2-.78.81-1.25a2.34,2.34,0,0,0,1.1-1.88,5.43,5.43,0,0,0,0-.59Zm2.26-4.18v.28c0,.48-.64.77-1.5.77-.38,0-.55-.14-.55-.44,0-.63.08-1.79.08-3.94,0-.89,0-1.7-.06-2.5,1.77.49,2.3.74,2.45,1h3.15c0-1.18,0-2-.05-2.76,2.66.25,2.83.38,2.83.61s-.16.4-.76.61v1.54h3.53c.44-1,.59-1.07.85-1.07s.48.1,1.18.63.82.7.82.93-.15.46-.7.68v.59c0,2,.07,2.76.07,3.19s-.59.76-1.54.76c-.38,0-.55-.15-.55-.43v-.42h-3.63c0,1.18.06,1.77.06,2,0,.47-.7.76-1.67.76-.36,0-.53-.14-.53-.42s0-1.12.06-2.32Zm3.54-.53c0-1.27,0-2.53,0-3.8H430l-.27.3V101Zm5.69,6.1c-.07.77-.09,1.19-.09,1.63s.85.57.85,1.16c0,.85-.87,1.46-5.33,1.46-3.94,0-4.49-.34-4.49-1.42,0-.71.1-1.6.1-4.26,0-.51,0-1-.06-1.44,2.62.38,2.79.51,2.79.74s-.15.36-.68.57v3.38c0,.44.13.55,2.35.55,2.68,0,3.06-.21,3.37-.59a6.6,6.6,0,0,0,.91-1.82Zm-5.11-2.36c2.17.32,3.08,1.22,3.08,2.3a1.09,1.09,0,0,1-1.14,1.16,1.07,1.07,0,0,1-1.06-1,3.29,3.29,0,0,0-1.05-2.2Zm5.13-3.74v-3.8h-3.66c0,1.27,0,2.53,0,3.8Zm.65,3.89a5.56,5.56,0,0,1,2.73,1.33,2.44,2.44,0,0,1,.88,1.77c0,.85-.48,1.37-1.18,1.37a1.16,1.16,0,0,1-1.12-1.09,5.57,5.57,0,0,0-1.48-3.15Z"/><path class="cls-2" d="M452.21,96.37V96.2a18,18,0,0,0-.1-2.15c2.62.23,3,.4,3,.67s-.23.41-.81.64v1h5c.54-.86.67-1,1-1s.42.12,1.2.74.76.78.76,1-.23.46-1.1.57a11,11,0,0,1-1.56,1.21l-.25-.15a15.1,15.1,0,0,0,.17-1.86H447.11a3.36,3.36,0,0,1,.06.63c0,1.44-.82,2-1.56,2a1,1,0,0,1-1-.89,1.42,1.42,0,0,1,.7-1.26,2.08,2.08,0,0,0,.89-1.82V95.4l.27-.08a4.5,4.5,0,0,1,.53,1.05ZM462,109.23a2.62,2.62,0,0,0-1.43,1.44c-.15.35-.21.46-.43.46a1,1,0,0,1-.31,0,8.54,8.54,0,0,1-6.31-5.24,7.23,7.23,0,0,1-2.33,3.25,12.75,12.75,0,0,1-6.56,2.32l-.09-.27A12.33,12.33,0,0,0,450,108a6.41,6.41,0,0,0,1.48-2.43h-4.84l-1.86.1V105l1.86.09h5a13.06,13.06,0,0,0,.44-2.34H449l-1.86.1v-.72l1.86.09h3.19c0-.45,0-.93,0-1.44V100h-3.57l-1.87.09v-.72l1.87.1h3.57c0-1.09,0-1.64-.08-2.13,2.6.21,2.87.32,2.87.61s-.27.42-.7.57v1h2.66c.38-.5.74-.93,1.14-1.37,1.86,1.29,2,1.54,2,1.67s-.08.23-.27.23h-5.54v.93c0,.46,0,.87,0,1.29h2.22c.38-.49.78-1,1.18-1.4,1.92,1.31,2.09,1.57,2.09,1.71s-.08.22-.27.22H454.2a12.45,12.45,0,0,1-.4,2.34h5c.38-.49.78-1,1.25-1.58,2,1.47,2.23,1.69,2.23,1.88s-.1.23-.29.23h-8c1.48,2,4.12,3.08,8.07,3.35Z"/><path class="cls-2" d="M464,98.48c.64.68,1,.82,1.34.82l.21,0a14.78,14.78,0,0,0,2.26-.37c2.49-.55,4.94-1.12,6.35-1.46a9.16,9.16,0,0,0,1.88-.61,2.86,2.86,0,0,1,1.23-.38,3.79,3.79,0,0,1,1.58.35,1.07,1.07,0,0,1,.76,1.06c0,.51-.25.74-1.31.74a11.34,11.34,0,0,0-3.51.44c-2.64.93-4,2.89-4,5a3.58,3.58,0,0,0,2.89,3.5,7.44,7.44,0,0,0,1.44.21l.29,0c.2,0,.41,0,.6,0,1.24,0,1.92.7,1.92,1.41s-.3,1-1.39,1a10.07,10.07,0,0,1-4.08-.91,5,5,0,0,1-2.91-4.63,6.85,6.85,0,0,1,3.06-5.49c-1.59.55-3,1-5,1.59a4.59,4.59,0,0,0-1.15.52,1,1,0,0,1-.56.19,1.27,1.27,0,0,1-.79-.31,3.41,3.41,0,0,1-1.33-1.82,2.3,2.3,0,0,1,0-.42v-.3Zm12.29,2.73a5.39,5.39,0,0,1,2.39.8,1.51,1.51,0,0,1,.67,1.16.76.76,0,0,1-.78.84c-.38,0-.61-.27-.88-.8a4.6,4.6,0,0,0-1.52-1.73Zm1.8-1.38a5,5,0,0,1,2.38.66,1.47,1.47,0,0,1,.76,1.26.74.74,0,0,1-.78.76c-.27,0-.52-.12-.8-.69a4,4,0,0,0-1.65-1.73Z"/><path class="cls-2" d="M483.84,97.15a2.61,2.61,0,0,1,1,.47,4.71,4.71,0,0,1,1.21,1.26,1.5,1.5,0,0,1,.29.78,3.93,3.93,0,0,1-.13.83,10.25,10.25,0,0,0-.25,2.57,4.39,4.39,0,0,0,.76,2.81.55.55,0,0,0,.38.21c.15,0,.3-.12.45-.35,2.78-4,4.07-5.54,6.18-5.54a5.33,5.33,0,0,1,5.24,5c0,1.12-.38,1.6-1.06,1.6a1,1,0,0,1-.82-.51,1.81,1.81,0,0,0-.95-.69,7.66,7.66,0,0,0-1.77-.26v-.27c.69-.15,1.3-.31,1.87-.49a.53.53,0,0,0,.38-.57,3.8,3.8,0,0,0-3.14-3.12c-1.33,0-2.94,1.41-4.46,5.2a3.27,3.27,0,0,0-.31,1.18,1.39,1.39,0,0,0,.06.34,2.87,2.87,0,0,1,.13.69.79.79,0,0,1-.76.89,2.67,2.67,0,0,1-1.88-1.12c-1.27-1.52-1.86-3-1.86-7.22v-.4a13.26,13.26,0,0,0-.08-1.8,2.36,2.36,0,0,0-.62-1.31Z"/><path class="cls-2" d="M506.2,94.81A5,5,0,0,1,510,96.69a2.23,2.23,0,0,1,.48,1.33c0,.59-.23,1-.78,1a1.25,1.25,0,0,1-.72-.25,1.47,1.47,0,0,0-.9-.28,5.81,5.81,0,0,0-1.57.19c-.38.09-.54.3-.54.53a2.85,2.85,0,0,0,.25.95,2.72,2.72,0,0,1,.19.72,9.05,9.05,0,0,1-.09,1.14,21.14,21.14,0,0,0-.18,2.66c0,.15.06.23.12.23a.73.73,0,0,0,.28-.11c.27-.17.48-.35.76-.55,2.28-1.77,3.86-2.61,5.87-2.61,2.45,0,4,1.6,4,3.52,0,3-3,5.07-9.42,5.54l-.06-.34c4.66-1.12,7.38-3.3,7.38-5.51a2.05,2.05,0,0,0-2.27-2.26c-1.51,0-3.15.9-4.9,3a8.56,8.56,0,0,0-1.12,1.55c-.21.61-.51,1-.87,1a2,2,0,0,1-1.29-2.14c0-.61.19-2.7.4-4.28a8.33,8.33,0,0,0,.13-1.38c0-.16,0-.52,0-.76a1.34,1.34,0,0,1,.55-1,15.58,15.58,0,0,1,2.41-1.23,4.16,4.16,0,0,0-2-2.09Z"/><path class="cls-2" d="M538.54,104.75c-.74,2.85-2.45,4.71-4.69,4.75a2.11,2.11,0,0,1-2.32-2.4c0-.64.08-1.8.27-3.64.15-1.49.24-2.64.24-3.71,0-.8-.3-1-.62-1a2.21,2.21,0,0,0-1.33.71,42,42,0,0,0-4,4.39c0,2.18.15,4.14.15,4.92a3.25,3.25,0,0,1-.36,1.74.83.83,0,0,1-.72.46c-.46,0-.61-.23-.73-1a4.88,4.88,0,0,0-1.31-2.51c-.21.31-.45.72-.62.93a1,1,0,0,1-.69.44,1,1,0,0,1-1-.93,1.14,1.14,0,0,1,.43-.91c.36-.38.76-.76,1.18-1.24a18,18,0,0,0,2.41-3.51c0-.4,0-.8.06-1.2a8.24,8.24,0,0,0-1.69.84c-.23.19-.36.26-.51.26a1.09,1.09,0,0,1-.76-.41,2.42,2.42,0,0,1-.71-1.54l.21-.08a1.08,1.08,0,0,0,.95.42,7.29,7.29,0,0,0,2.55-.82c0-1,0-2.16,0-3,0-.47,0-.84-.31-1a2.06,2.06,0,0,0-.87-.32l0-.27a2.76,2.76,0,0,1,1.08-.28,3.47,3.47,0,0,1,1.73.7,1,1,0,0,1,.48.78.92.92,0,0,1-.25.59,1.49,1.49,0,0,0-.28.63c-.06.4-.1.78-.18,1.69a.36.36,0,0,1,.2,0,.67.67,0,0,1,.36.15.86.86,0,0,1,.34.63,1.1,1.1,0,0,1-.27.64c-.21.31-.43.73-.81,1.43l0,.38a38.39,38.39,0,0,1,4.21-4,2.43,2.43,0,0,1,1.5-.57A2.14,2.14,0,0,1,534,99.83a16.18,16.18,0,0,1-.21,1.71,44.63,44.63,0,0,0-.55,5.13c0,.89.25,1.29,1.16,1.29,1.1,0,2.74-1.16,3.95-3.35Zm-13.79,3.11c0-.7,0-1.67,0-2.71-.4.6-1,1.38-1.39,1.95a10.29,10.29,0,0,0,1.27.78Z"/><path class="cls-2" d="M546.09,102.81a6.54,6.54,0,0,1,3.68-1.1c3,0,4.6,1.8,4.6,4.08,0,3-2.62,4.85-6.21,4.87-2.21,0-3.82-.84-3.82-2.38a1.94,1.94,0,0,1,2.18-1.88,3.17,3.17,0,0,1,2.64,1.25,1.92,1.92,0,0,1,.42,1.16.9.9,0,0,1,0,.23,3.6,3.6,0,0,0,2.83-3.55c0-2-1.14-2.93-3.21-2.93a6,6,0,0,0-3.61,1.64,9.35,9.35,0,0,0-1.61,1.88,1.19,1.19,0,0,1-1,.61.88.88,0,0,1-.91-1,1.38,1.38,0,0,1,.51-1.1c.23-.23.82-.76,1.33-1.31A65.84,65.84,0,0,0,549,97.17a.28.28,0,0,0,0-.12A.09.09,0,0,0,549,97l-.09,0c-.89.32-1.83.72-2.72,1.12-.28.13-.49.21-.68.32a.92.92,0,0,1-.52.13c-.72,0-1.46-1.19-1.46-1.86a3.39,3.39,0,0,1,0-.64l.19-.06c.46.68.78.84,1.23.84a2.5,2.5,0,0,0,.69-.12c1-.23,2.18-.57,3.4-1a.87.87,0,0,1,.59-.34,2.45,2.45,0,0,1,1.08.38c.61.34.91.57.91.91a.66.66,0,0,1-.4.63,4.47,4.47,0,0,0-1,.83L546,102.77Zm0,4.37a.88.88,0,0,0-1,.85c0,.76.77,1.35,2.43,1.35.17,0,.36,0,.57,0C547.85,108.09,547.13,107.18,546.12,107.18Z"/><path class="cls-2" d="M565.9,99.77V97.53c0-1.35,0-2.3-.09-3.1,2.52.23,2.92.38,2.92.65s-.21.4-.78.62v4.07h2.38V97.53c0-1.56,0-2.3-.1-3.1,2.53.23,2.93.38,2.93.65s-.21.4-.78.62v4.07h.49c.4-.53.9-1.1,1.37-1.63,2,1.5,2.22,1.76,2.22,1.93s-.11.23-.3.23H572.4c0,4.52.11,5.91.11,6.52s-.68.87-1.55.87c-.42,0-.63-.19-.63-.51v-1.6H568V107c0,.53-.6.87-1.55.87-.42,0-.63-.19-.63-.51,0-.67.09-2.41.13-7.07h-2.49v9.31h9.46c.4-.53.92-1.14,1.39-1.67,2,1.5,2.26,1.8,2.26,2s-.11.23-.3.23H563.41v.57c0,.55-.64.91-1.61.91-.44,0-.65-.2-.65-.53,0-.74.12-2.56.14-10.79h-1l-1.9.1v-.72l1.9.09h1V97.64c0-1.4,0-2.39-.1-3.21,2.62.23,3,.4,3,.67s-.23.41-.82.64v4Zm2.05,5.28h2.38V100.3H568Z"/><path class="cls-2" d="M581.77,101.73v.45c0,.4-.61.8-1.6.8-.34,0-.53-.17-.53-.49s.11-2.38.11-5.61c0-1.06,0-1.94,0-2.58a7.08,7.08,0,0,1,2.47.82h8.6c.34-.75.53-.92.74-.92s.5.06,1.22.59.78.69.78.86-.14.4-.63.66V97c0,2.52.11,4.33.11,4.82s-.72.86-1.61.86c-.32,0-.51-.13-.51-.48v-.45h-3.1a13.8,13.8,0,0,0,7.66,3.44l-.06.28a2.37,2.37,0,0,0-1.48,1.31c-.15.31-.21.44-.38.44a1.26,1.26,0,0,1-.38-.1,11.56,11.56,0,0,1-2.79-1.55,1.11,1.11,0,0,0-.16.07v.65c0,2.24.14,4.18.14,4.59s-.63.8-1.68.8c-.47,0-.66-.17-.66-.47,0-.46.11-2.3.11-4.85,0-.53,0-1.27-.07-1.8.51,0,.93.07,1.27.13a9,9,0,0,1-2.07-2.94h-.46c-.34.41-.7.81-1.08,1.19a19.36,19.36,0,0,1-2,1.69c1.42.17,1.67.33,1.67.5s-.23.4-.65.59a5.77,5.77,0,0,1-2,4.69,7.82,7.82,0,0,1-4.44,1.42l-.1-.22a6.6,6.6,0,0,0,3.4-2.3c.65-.86,1-1.75,1-3.93a18.63,18.63,0,0,1-5.07,2.1l-.14-.24a18.88,18.88,0,0,0,6.73-5.49Zm3.49-6.08H582l-.24.26v2.21h3.49Zm0,5.54V98.65h-3.49v2.54Zm2.32-5.54a.5.5,0,0,1-.3.43v2h3.59V95.65Zm3.29,3h-3.59v2.54h3.59Z"/><path class="cls-2" d="M609.14,99.85a3.56,3.56,0,0,1,1-.16,2.48,2.48,0,0,1,.9.14,4.72,4.72,0,0,1,1.34.7,1.16,1.16,0,0,1,.59.93.59.59,0,0,1-.53.57,6.83,6.83,0,0,0-1.2.27c-1.63.55-3.21,1.23-4.82,1.93,0,.63,0,1.22,0,1.71s0,.93,0,1.26c0,.76-.46,1-.87,1a.84.84,0,0,1-.84-.91c0-.08,0-.32,0-.38,0-.72.06-1.06.06-1.94-2,1.18-2.64,1.85-2.64,2.78s.93,1.5,2.69,1.5a14.4,14.4,0,0,0,2-.17,7.13,7.13,0,0,0,1.16-.27,3.91,3.91,0,0,1,1.12-.13c.82,0,1.5.45,1.5,1.14a.78.78,0,0,1-.62.83,18.57,18.57,0,0,1-4.14.27c-3.31,0-4.75-1.06-4.75-2.81,0-1.56,1-2.66,3.61-4.31a9.25,9.25,0,0,0-.06-1.39c-.1-.67-.36-.91-.78-.91a3.75,3.75,0,0,0-2.11,1.36,17.9,17.9,0,0,0-1.38,1.62,1.13,1.13,0,0,1-.82.53c-.38,0-.76-.23-.76-1a1.5,1.5,0,0,1,.7-1.3,7.07,7.07,0,0,0,1.16-1.16,14.75,14.75,0,0,0,1.48-2.26,8.76,8.76,0,0,1-1.92.21c-.76,0-1.57-.45-2.16-1.71l.19-.19a2.82,2.82,0,0,0,1.8.61,12.45,12.45,0,0,0,2.81-.44,7.2,7.2,0,0,0,.4-1.12,2.26,2.26,0,0,0,.12-.72.56.56,0,0,0-.25-.51,2.42,2.42,0,0,0-.89-.31v-.26a2.85,2.85,0,0,1,1.19-.3,3.3,3.3,0,0,1,1.6.53.7.7,0,0,1,.4.57.62.62,0,0,1-.15.41,4.09,4.09,0,0,0-.35.42c-.17.27-.39.67-.6,1a7.28,7.28,0,0,0,1.4-.63,1.61,1.61,0,0,1,.88-.28c.59,0,1,.24,1,.64a.62.62,0,0,1-.34.65,10.7,10.7,0,0,1-1.12.42c-.61.21-1.44.43-2.47.74-.51.89-1,1.69-1.4,2.39a4.6,4.6,0,0,1,2-.62,1.64,1.64,0,0,1,1.54.74,2.57,2.57,0,0,1,.45,1.52c1.26-.67,2.47-1.37,3.39-1.94.24-.15.43-.29.43-.44a.3.3,0,0,0-.17-.26,1.89,1.89,0,0,0-.85-.33Z"/><path class="cls-2" d="M618.84,96.26a19.78,19.78,0,0,0-.08-2c2.17.23,2.74.36,2.74.59s-.18.34-.69.57v1.33h.88a11,11,0,0,1,1-1.16c1.62,1.1,1.7,1.33,1.7,1.46s-.12.23-.31.23h-5.22a.54.54,0,0,1-.33.44v2.52c0,.36.19.52,1.13.52a16.5,16.5,0,0,0,3-.25,1.4,1.4,0,0,1,.88,1.14.48.48,0,0,1-.42.51,19.44,19.44,0,0,1-3.38.27c-2.7,0-3.21-.32-3.21-1.39,0-.61.08-1.69.08-3.21v-.51l-1.15.06v-.73l1.7.1h1.69Zm-.82,9-1.9.1v-.73l1.9.1h11.72c.42-.5.82-1,1.31-1.45,1.81,1.3,2,1.58,2,1.75s-.11.23-.3.23h-7.07a.44.44,0,0,1-.38.44v1.8h2.93c.4-.49.78-.91,1.25-1.39,1.77,1.32,1.92,1.52,1.92,1.7s-.11.22-.3.22h-5.8v2.4h4.3c.41-.5.87-1,1.42-1.56,1.94,1.46,2.11,1.69,2.11,1.86s-.11.23-.3.23H617.58l-1.9.09v-.72l1.9.1h5.7V108h-4.35l-1.61.1v-.72l1.61.09h4.35v-2.24Zm8.49-5.07c-.66,2.13-2.2,3.46-4.65,4.29l-.16-.25C624,102.68,625,100.7,625,97.4c0-1.77,0-2.21-.09-3a7.17,7.17,0,0,1,2.37.84h3.08c.4-.82.61-1,.86-1s.43.08,1.08.57.76.67.76.9-.23.43-.69.7a22.66,22.66,0,0,1-.51,5.39,2.75,2.75,0,0,1-2.94,2.21c-.31,0-.36-.08-.48-.52-.19-.64-.62-1-1.48-1.21l0-.29a14.17,14.17,0,0,0,1.75.12c.72,0,1.06-.19,1.23-.86a9.49,9.49,0,0,0,.21-1Zm3.71-.53c0-.55.11-1.13.15-1.68h-3.5a9.41,9.41,0,0,1-.21,1.68Zm.17-2.21q0-.83,0-1.65h-3.3l-.23.25v1.4Z"/><path class="cls-2" d="M639.72,103.82a3.72,3.72,0,0,1,1.9-.54,2.14,2.14,0,0,1,1.57.75,4.1,4.1,0,0,1,.78,2.45c.21,1.55.55,2,1.43,2a4.33,4.33,0,0,0,3-1.29,12.18,12.18,0,0,0,3-4.69l.33.08a12.79,12.79,0,0,1-2.28,5.62,5.22,5.22,0,0,1-4.11,2.24c-1.86,0-2.85-1-2.83-3.55,0-2.13-.45-2.8-1.25-2.8-1,0-1.86,1.09-2.41,2a27.78,27.78,0,0,0-1.54,3.17,1,1,0,0,1-1,.68,1,1,0,0,1-1-1.14,2.73,2.73,0,0,1,.57-1.48c.51-.7,1.06-1.52,1.41-2.09a78.31,78.31,0,0,0,3.66-7,4.75,4.75,0,0,0,.54-1.53c0-.38-.16-.82-1-1.09l0-.34a4.06,4.06,0,0,1,.95-.11,3.37,3.37,0,0,1,2.09,1.25,1.14,1.14,0,0,1,.34.82.79.79,0,0,1-.42.61,2.91,2.91,0,0,0-.89,1.12c-.65,1.12-1.81,3.09-2.85,4.86Z"/><path class="cls-2" d="M654,98.48c.64.68,1,.82,1.34.82l.21,0a14.78,14.78,0,0,0,2.26-.37c2.49-.55,4.94-1.12,6.35-1.46a9.16,9.16,0,0,0,1.88-.61,2.86,2.86,0,0,1,1.23-.38,3.79,3.79,0,0,1,1.58.35,1.07,1.07,0,0,1,.76,1.06c0,.51-.25.74-1.31.74a11.34,11.34,0,0,0-3.51.44c-2.64.93-4,2.89-4,5a3.58,3.58,0,0,0,2.89,3.5,7.44,7.44,0,0,0,1.44.21l.29,0c.2,0,.41,0,.6,0,1.24,0,1.92.7,1.92,1.41s-.3,1-1.39,1a10.07,10.07,0,0,1-4.08-.91,5,5,0,0,1-2.91-4.63,6.85,6.85,0,0,1,3.06-5.49c-1.59.55-3,1-5,1.59a4.59,4.59,0,0,0-1.15.52,1,1,0,0,1-.56.19,1.27,1.27,0,0,1-.79-.31,3.41,3.41,0,0,1-1.33-1.82,2.3,2.3,0,0,1,0-.42v-.3Zm12.29,2.73a5.39,5.39,0,0,1,2.39.8,1.51,1.51,0,0,1,.67,1.16.76.76,0,0,1-.78.84c-.38,0-.61-.27-.88-.8a4.6,4.6,0,0,0-1.52-1.73Zm1.8-1.38a5,5,0,0,1,2.38.66,1.47,1.47,0,0,1,.76,1.26.74.74,0,0,1-.78.76c-.27,0-.52-.12-.8-.69a4,4,0,0,0-1.65-1.73Z"/><path class="cls-2" d="M673.84,97.15a2.61,2.61,0,0,1,1,.47,4.71,4.71,0,0,1,1.21,1.26,1.5,1.5,0,0,1,.29.78,3.93,3.93,0,0,1-.13.83,10.25,10.25,0,0,0-.25,2.57,4.39,4.39,0,0,0,.76,2.81.55.55,0,0,0,.38.21c.15,0,.3-.12.45-.35,2.78-4,4.07-5.54,6.18-5.54a5.33,5.33,0,0,1,5.24,5c0,1.12-.38,1.6-1.06,1.6a1,1,0,0,1-.82-.51,1.81,1.81,0,0,0-1-.69,7.66,7.66,0,0,0-1.77-.26v-.27c.69-.15,1.3-.31,1.87-.49a.53.53,0,0,0,.38-.57,3.8,3.8,0,0,0-3.14-3.12c-1.33,0-2.94,1.41-4.46,5.2a3.27,3.27,0,0,0-.31,1.18,1.39,1.39,0,0,0,.06.34,2.87,2.87,0,0,1,.13.69.79.79,0,0,1-.76.89,2.67,2.67,0,0,1-1.88-1.12c-1.27-1.52-1.86-3-1.86-7.22v-.4a13.26,13.26,0,0,0-.08-1.8,2.36,2.36,0,0,0-.62-1.31Z"/><path class="cls-2" d="M693,98.55a3.41,3.41,0,0,0,2.49.71,27.54,27.54,0,0,0,4.24-.55c0-.63,0-1.12,0-1.68a3.62,3.62,0,0,0-.17-1c-.15-.37-.49-.5-1.06-.5l-.29,0-.07-.32a2.28,2.28,0,0,1,1.44-.63,3.77,3.77,0,0,1,1.77.57.8.8,0,0,1,.45.67.9.9,0,0,1-.23.62,1.39,1.39,0,0,0-.24.65c0,.3,0,.74-.08,1.25a13.72,13.72,0,0,0,2-.59,2.64,2.64,0,0,0,.67-.34,1.68,1.68,0,0,1,1-.23c.8,0,1.31.44,1.31.91s-.12.65-.78.82c-1.44.36-2.62.63-4.24.91,0,1,0,1.9,0,2.68a10.93,10.93,0,0,0,1.64-.47,1.76,1.76,0,0,0,.43-.23,1.73,1.73,0,0,1,.92-.27c.81,0,1.17.36,1.17.74s-.3.65-.68.8a21.22,21.22,0,0,1-3.44.88c0,1.1.08,2,.15,3a12,12,0,0,1,3.8,1.59,1.59,1.59,0,0,1,.86,1.33.89.89,0,0,1-1,1,1.66,1.66,0,0,1-1.06-.51,8.93,8.93,0,0,0-2.63-1.9,2.18,2.18,0,0,1-1.1,1.94,4,4,0,0,1-2.32.49c-1.71,0-2.84-.85-2.84-2,0-1.43,1.44-2.17,3.26-2.17a13.51,13.51,0,0,1,1.47.06c0-1,0-1.85,0-2.64a21.57,21.57,0,0,1-2.23.13c-1.46,0-1.93-.59-1.93-1.39s.7-1.69,1.82-2.52v0c-.78.07-1.48.13-1.92.13a2.71,2.71,0,0,1-2.7-1.77Zm4.62,9.2c-1.18,0-1.8.32-1.8,1s.66.91,1.69.91a2.55,2.55,0,0,0,1.84-.57,1.8,1.8,0,0,0,.4-1.09A8.06,8.06,0,0,0,697.61,107.75Zm2.11-7.64a6.18,6.18,0,0,0-1.88.78c-1,.55-1.31,1.14-1.31,1.58s.24.51,1,.51a14.64,14.64,0,0,0,2.21-.19C699.76,101.9,699.74,101,699.72,100.11Z"/><path class="cls-2" d="M717.79,95a3,3,0,0,1,1.42-.53,4.34,4.34,0,0,1,2,.84.76.76,0,0,1,.32.62,1,1,0,0,1-.19.59,1.76,1.76,0,0,0-.27.74c-.05.42-.09.78-.11,1.22l3.12-.27a3,3,0,0,0,.85-.19,2,2,0,0,1,.55-.15,4.13,4.13,0,0,1,1.9.67.91.91,0,0,1,.5.8c0,.41-.27.66-.75.66s-1.27-.23-2-.32a14.35,14.35,0,0,0-1.9-.12,23.22,23.22,0,0,0-2.34.12c0,.74,0,2.2,0,3.78a5.4,5.4,0,0,1,.36,1.9c0,3.53-2.47,5.56-7.12,6.29l-.08-.33c2.74-.89,4.64-2.45,5.23-4.73a1.85,1.85,0,0,1-1.09.31c-1.48,0-2.28-.92-2.28-2.51a2.42,2.42,0,0,1,2.19-2.4,2.29,2.29,0,0,1,1.19.23c0-.36,0-.7,0-1.08s0-.8,0-1.29a44.46,44.46,0,0,0-4.69.91,4.58,4.58,0,0,0-1.14.42,1.26,1.26,0,0,1-.72.21,1.74,1.74,0,0,1-1-.35,3.61,3.61,0,0,1-1-1,2.14,2.14,0,0,1-.25-1l.23-.11a2.08,2.08,0,0,0,1.57.64,11,11,0,0,0,1.26-.11l5.75-.78c0-.91,0-1.56,0-2.07s0-.74-.17-1-.57-.34-1.33-.4Zm-.8,9.22a1.21,1.21,0,0,0,1.24,1.37,1.31,1.31,0,0,0,1.13-1.43c0-.82-.49-1.48-1.13-1.48A1.39,1.39,0,0,0,717,104.18Z"/><path class="cls-2" d="M735.32,108.38a2.74,2.74,0,1,1-2.73-2.74A2.74,2.74,0,0,1,735.32,108.38Zm-4.61,0a1.88,1.88,0,1,0,3.76,0,1.88,1.88,0,1,0-3.76,0Z"/><path class="cls-2" d="M57.24,42.65v1.18l-1.54.34.77-3.6h1.75l-.09,3.53a9.8,9.8,0,0,1-4.82,1.17c-4.43,0-8-2.61-8-8s3.83-8,8.14-8A9,9,0,0,1,58,30.45L58.06,34H56.31l-.79-3.63,1.54.35V32A4.44,4.44,0,0,0,54,30.61c-2.46,0-4.62,2-4.62,6.7S51.46,44,53.89,44A5.54,5.54,0,0,0,57.24,42.65Z"/><path class="cls-2" d="M75.05,37.29c0,5.3-3.5,8-7.3,8s-7.3-2.62-7.3-8,3.53-8,7.3-8S75.05,31.93,75.05,37.29Zm-7.3,6.65c2.32,0,3.23-2.83,3.23-6.65s-.91-6.66-3.23-6.66-3.23,2.86-3.23,6.66S65.44,43.94,67.75,43.94Z"/><path class="cls-2" d="M77.24,43.61l2.45-.34h.66l3,.34v1.24H77.24Zm1.2-13.06,1.32.65L77.27,31V29.74h5.19l8.25,11.32v3.83H88.76Zm.75-.81L80.67,31V44.85H79.19Zm7.41,0h6.06V31l-2.33.35h-.64L86.6,31Zm2.63,0h1.48V44.89l-1.48-1.48Z"/><path class="cls-2" d="M106.25,42.65v1.18l-1.54.34.78-3.6h1.75l-.09,3.53a9.87,9.87,0,0,1-4.83,1.17c-4.43,0-8-2.61-8-8s3.83-8,8.15-8a8.9,8.9,0,0,1,4.5,1.14l.09,3.56h-1.75l-.79-3.63,1.54.35V32a4.42,4.42,0,0,0-3-1.39c-2.46,0-4.62,2-4.62,6.7S100.47,44,102.91,44A5.51,5.51,0,0,0,106.25,42.65Z"/><path class="cls-2" d="M109.24,31V29.74h3.7v1.58h-.36Zm3.7,12.3v1.58h-3.7V43.61l3.34-.34ZM111,36.87c0-2.37,0-4.76-.07-7.13h4c-.07,2.32-.07,4.71-.07,7.13v.75c0,2.47,0,4.86.07,7.23h-4c.07-2.33.07-4.72.07-7.13Zm7.53-7.13,1.67,1.3h-7.27v-1.3h8l.16,4h-1.92Zm-.54,8h-5.06V36.37H118Zm3.6,3.16-.16,4h-8.5V43.56h7.73L119,44.85l.68-4Zm-4.3-4.12.34-2.21H119v4.95h-1.34l-.34-2.32Z"/><path class="cls-2" d="M124,31V29.74h3.7v1.58h-.36Zm4.39,12.3,3.34.34v1.24H124V43.61l3.34-.34Zm-2.62-6.4c0-2.37,0-4.76-.07-7.13h4c-.07,2.32-.07,4.71-.07,7.13v1.4c0,1.88,0,4.21.07,6.58h-4c.07-2.33.07-4.72.07-7.13Zm4.51,2.2h-2.58V37.78h2.61c2,0,3-1.41,3-3.52s-1.12-3.2-3.13-3.2h-2.51V29.74h2.55c4.8,0,6.7,1.8,6.7,4.54S135.25,39.07,130.26,39.07Z"/><path class="cls-2" d="M139.7,31l1.67-1.3L140.76,34h-1.92l.09-4.27h13.5L152.5,34h-1.9L150,29.74l1.65,1.3Zm6.45,12.23,3.47.34v1.24h-7.88V43.61l3.4-.34Zm-2.41-6.4c0-2.37,0-4.76-.07-7.13h4c-.07,2.32-.07,4.71-.07,7.13v.83c0,2.39,0,4.78.07,7.15h-4c.07-2.33.07-4.72.07-7.13Z"/></g></g></svg>