<svg xmlns="http://www.w3.org/2000/svg" viewBox="0 0 761.67 154.4"><defs><style>.cls-1{fill:#c7d84e;}.cls-2{fill:#3e3b3a;}.cls-3{fill:#444;}</style></defs><g id="レイヤー_2" data-name="レイヤー 2"><g id="レイヤー_1-2" data-name="レイヤー 1"><path class="cls-1" d="M733.72,31.9c48,22,38,109-60,109-76,0-260,4-318,5-54.07.93-256,24-320-10-43-22.88-52-97,0-126,54.53-30.41,163,20,260,9,81.37-9.23,186-14,257-4C607.78,22.65,694,13.7,733.72,31.9Z"/><path class="cls-2" d="M57.4,35.77H55a2.91,2.91,0,0,0-.37-1.05,3.22,3.22,0,0,0-.69-.78,2.93,2.93,0,0,0-.93-.48,3.7,3.7,0,0,0-1.12-.16,3.45,3.45,0,0,0-1.89.53,3.58,3.58,0,0,0-1.29,1.56,7,7,0,0,0,0,5,3.32,3.32,0,0,0,3.17,2.07A3.63,3.63,0,0,0,53,42.33a2.94,2.94,0,0,0,.92-.46,2.82,2.82,0,0,0,.7-.76,2.71,2.71,0,0,0,.39-1l2.39,0a5.06,5.06,0,0,1-1.74,3.19,5.2,5.2,0,0,1-1.67,1,6.26,6.26,0,0,1-2.13.35,6,6,0,0,1-3.08-.8,5.55,5.55,0,0,1-2.13-2.31,7.77,7.77,0,0,1-.78-3.62,7.8,7.8,0,0,1,.78-3.62A5.67,5.67,0,0,1,48.79,32a6,6,0,0,1,3.07-.8,6.31,6.31,0,0,1,2,.31,5.2,5.2,0,0,1,1.68.89,5,5,0,0,1,1.21,1.45A5.26,5.26,0,0,1,57.4,35.77Z"/><path class="cls-2" d="M71.28,37.89a7.65,7.65,0,0,1-.79,3.62,5.6,5.6,0,0,1-2.15,2.31,6.31,6.31,0,0,1-6.15,0A5.72,5.72,0,0,1,60,41.51a7.68,7.68,0,0,1-.79-3.62A7.68,7.68,0,0,1,60,34.27,5.63,5.63,0,0,1,62.19,32a6.31,6.31,0,0,1,6.15,0,5.63,5.63,0,0,1,2.15,2.3A7.68,7.68,0,0,1,71.28,37.89Zm-2.38,0a6,6,0,0,0-.47-2.51,3.51,3.51,0,0,0-1.28-1.56,3.68,3.68,0,0,0-3.77,0,3.51,3.51,0,0,0-1.28,1.56,6.05,6.05,0,0,0-.46,2.51,6.07,6.07,0,0,0,.46,2.52A3.48,3.48,0,0,0,63.38,42a3.62,3.62,0,0,0,3.77,0,3.48,3.48,0,0,0,1.28-1.55A6.06,6.06,0,0,0,68.9,37.89Z"/><path class="cls-2" d="M84.29,31.35V44.44H82.18L76,35.52H75.9v8.92H73.53V31.35h2.12l6.16,8.92h.12V31.35Z"/><path class="cls-2" d="M98.07,35.77H95.68a2.92,2.92,0,0,0-.38-1.05,3,3,0,0,0-.68-.78,3,3,0,0,0-.93-.48,3.7,3.7,0,0,0-1.12-.16,3.46,3.46,0,0,0-1.9.53,3.58,3.58,0,0,0-1.29,1.56,6,6,0,0,0-.46,2.5,5.92,5.92,0,0,0,.47,2.53A3.44,3.44,0,0,0,90.68,42a3.38,3.38,0,0,0,1.88.52,3.57,3.57,0,0,0,1.1-.16,3.11,3.11,0,0,0,.93-.46,3,3,0,0,0,.7-.76,2.71,2.71,0,0,0,.39-1l2.39,0a5.16,5.16,0,0,1-.58,1.75,5.33,5.33,0,0,1-1.16,1.44,5.42,5.42,0,0,1-1.67,1,6.26,6.26,0,0,1-2.13.35,6,6,0,0,1-3.08-.8,5.51,5.51,0,0,1-2.14-2.31,7.77,7.77,0,0,1-.78-3.62,7.68,7.68,0,0,1,.79-3.62A5.61,5.61,0,0,1,89.46,32a6,6,0,0,1,3.07-.8,6.35,6.35,0,0,1,2,.31,4.91,4.91,0,0,1,2.89,2.34A5.65,5.65,0,0,1,98.07,35.77Z"/><path class="cls-2" d="M100.25,44.44V31.35h8.51v2h-6.14v3.55h5.7v2h-5.7v3.57h6.19v2Z"/><path class="cls-2" d="M111.19,44.44V31.35h4.9a5.27,5.27,0,0,1,2.54.56,3.83,3.83,0,0,1,1.55,1.54,5,5,0,0,1,0,4.47,3.82,3.82,0,0,1-1.57,1.54,5.34,5.34,0,0,1-2.55.56h-3.25v-2h2.93a3.08,3.08,0,0,0,1.45-.31,2,2,0,0,0,.83-.84,3,3,0,0,0,0-2.47,1.85,1.85,0,0,0-.84-.82,3.06,3.06,0,0,0-1.45-.3h-2.17V44.44Z"/><path class="cls-2" d="M122.19,33.34v-2h10.45v2h-4v11.1h-2.35V33.34Z"/><path class="cls-3" d="M47.12,65.36h3.41l3.6,8.8h.16l3.6-8.8h3.42V78.45H58.62V69.93h-.11l-3.39,8.46H53.3L49.91,69.9H49.8v8.55H47.12Z"/><path class="cls-3" d="M75.61,71.91a7.59,7.59,0,0,1-.81,3.64,5.59,5.59,0,0,1-2.2,2.29,6.58,6.58,0,0,1-6.25,0,5.53,5.53,0,0,1-2.19-2.3,7.55,7.55,0,0,1-.81-3.63,7.63,7.63,0,0,1,.81-3.65A5.57,5.57,0,0,1,66.35,66a6.58,6.58,0,0,1,6.25,0,5.65,5.65,0,0,1,2.2,2.29A7.63,7.63,0,0,1,75.61,71.91Zm-2.8,0a5.76,5.76,0,0,0-.42-2.34,3.12,3.12,0,0,0-5.82,0,5.77,5.77,0,0,0-.41,2.34,5.84,5.84,0,0,0,.41,2.34,3.17,3.17,0,0,0,1.16,1.44,3.37,3.37,0,0,0,3.5,0,3.17,3.17,0,0,0,1.16-1.44A5.83,5.83,0,0,0,72.81,71.91Z"/><path class="cls-3" d="M88.61,65.36V78.45H86.22l-5.7-8.24h-.1v8.24H77.66V65.36h2.43l5.65,8.23h.11V65.36Z"/><path class="cls-3" d="M102.92,71.91a7.59,7.59,0,0,1-.81,3.64,5.59,5.59,0,0,1-2.2,2.29,6.58,6.58,0,0,1-6.25,0,5.62,5.62,0,0,1-2.2-2.3,7.66,7.66,0,0,1-.8-3.63,7.75,7.75,0,0,1,.8-3.65A5.65,5.65,0,0,1,93.66,66a6.58,6.58,0,0,1,6.25,0,5.65,5.65,0,0,1,2.2,2.29A7.63,7.63,0,0,1,102.92,71.91Zm-2.81,0a5.94,5.94,0,0,0-.41-2.34,3.21,3.21,0,0,0-1.16-1.45,3.12,3.12,0,0,0-4.66,1.45,5.76,5.76,0,0,0-.42,2.34,5.83,5.83,0,0,0,.42,2.34A3.17,3.17,0,0,0,95,75.69a3.37,3.37,0,0,0,3.5,0,3.23,3.23,0,0,0,1.16-1.44A6,6,0,0,0,100.11,71.91Z"/><path class="cls-3" d="M110.11,65a1.9,1.9,0,0,1,0,.38,37.83,37.83,0,0,0-.68,7.22,32.62,32.62,0,0,0,.34,5c0,.25.12.82.12,1,0,.67-.41.9-1,.9a.91.91,0,0,1-1-.83,37.88,37.88,0,0,1-.45-6.23,41.35,41.35,0,0,1,.67-7.52c.09-.33.23-.92,1.21-.8C110,64.25,110.11,64.63,110.11,65Zm6.89.09c0-.38,0-1.06,1-1.06s1,.64,1,1l0,2.2,2.52-.11a.86.86,0,0,1,1,1c0,.81-.55.9-.73.92s-2.33.11-2.78.13l.08,4.28a14.34,14.34,0,0,1,3,2.18c.54.49.68.83.68,1.13a1.1,1.1,0,0,1-1,1.12c-.37,0-.43-.07-1.26-.93a9,9,0,0,0-1.54-1.3,5.77,5.77,0,0,1-.29,2.3c-.67,1.46-2.61,1.61-3.42,1.61-3.06,0-4.22-1.7-4.22-3.46,0-2.2,1.79-3.49,4.25-3.49a6.55,6.55,0,0,1,1.78.23l-.09-3.6c-.72,0-3.38.09-4.91.09-.32,0-1,0-1-1s.64-.93,1.24-.93c1.55,0,3.35,0,4.68-.09Zm-1.58,9.18c-.68,0-2.5.18-2.5,1.85s1.55,1.75,2.3,1.75c.51,0,1.5-.11,1.84-.86a6.81,6.81,0,0,0,.16-2.36A4,4,0,0,0,115.42,74.3Z"/><path class="cls-3" d="M125.17,68.27c-.25,0-.82,0-.82-.81s.5-.83.82-.83h5.37a.73.73,0,0,1,.85.81c0,.83-.56.83-.85.83Zm.53-2.65a.8.8,0,1,1,0-1.6H130a.8.8,0,1,1,0,1.6Zm0,5.22c-.26,0-.85,0-.85-.79a.72.72,0,0,1,.85-.81H130a.8.8,0,1,1,0,1.6Zm0,2.61a.79.79,0,1,1,0-1.58H130a.71.71,0,0,1,.83.77c0,.81-.6.81-.87.81Zm5,4.83c0,1.42-.36,1.75-1.75,1.75H126.7c-1.38,0-1.76-.31-1.76-1.75V76.21c0-1.42.36-1.77,1.76-1.77H129c1.41,0,1.77.33,1.77,1.77Zm-1.62-1.85a.45.45,0,0,0-.51-.51h-1.37a.45.45,0,0,0-.5.51V78a.44.44,0,0,0,.5.5h1.37a.45.45,0,0,0,.51-.5Zm6.12-6.29h3.29c1.61,0,2.09.43,2.09,2.31a26.9,26.9,0,0,1-.61,6.37c-.45,1.39-1.37,1.39-3.53,1.39-.67,0-1.39,0-1.39-1.08,0-.72.42-.87.76-.9h1.53c.63,0,.92-.09,1.1-1.12a30,30,0,0,0,.29-4c0-.88,0-1.15-.74-1.15h-2.85a14.91,14.91,0,0,1-2,7.09c-.77,1.23-1.06,1.25-1.3,1.25a1.12,1.12,0,0,1-1.08-1,1.28,1.28,0,0,1,.36-.81c.78-1,2.27-2.93,2.27-7.76V67.76h-1.11a.81.81,0,0,1-.92-.9.82.82,0,0,1,.95-.88H135V64.4c0-.69.29-.94,1-.94.87,0,.92.58.92.94V66h3.64a.89.89,0,1,1,0,1.78h-5.24Z"/><path class="cls-3" d="M146.7,68.79l-2.63.13A.91.91,0,0,1,143,68c0-.88.7-.93,1-.95l2.77-.11c0-.4.1-1.93.11-2,0-.39.06-1,1-1s1,.58,1,1c0,.18,0,.52-.11,2a.45.45,0,0,1,.35.49,1.44,1.44,0,0,1-.38.82c2.39-2.46,4-2.7,5-2.7a2.82,2.82,0,0,1,3.09,3,17.13,17.13,0,0,1-.54,3.49,22.79,22.79,0,0,0-.66,4,1.09,1.09,0,0,0,1.15,1.24,1.67,1.67,0,0,0,.72-.14c.68-.29.76-.31,1-.31a.87.87,0,0,1,.79.94c0,1.39-2.34,1.53-2.68,1.53a2.62,2.62,0,0,1-2.93-2.86,41.17,41.17,0,0,1,1-6.75,6.56,6.56,0,0,0,.09-.87,1.21,1.21,0,0,0-1.32-1.31c-1.83,0-3.92,2.28-4.79,3.33-.05,1.35-.07,1.49-.07,3.85,0,.63,0,3.4,0,4s0,1.37-1,1.37c-.17,0-.86,0-1-.65a5.77,5.77,0,0,1-.05-1.37c0-1.69,0-2.05.05-4.77l-1.73,2.59c-.39.58-.59.8-1.06.8a1,1,0,0,1-1-1c0-.41.11-.54.86-1.4a33.11,33.11,0,0,0,2.18-2.92,10.28,10.28,0,0,0,.86-1.53Z"/><path class="cls-3" d="M170.77,69.37c3.76,0,5.4,2.34,5.4,4.91a5,5,0,0,1-3.36,4.88,10.19,10.19,0,0,1-3.84.63c-3.53,0-5-1.28-5-3,0-2.1,2-3,3.72-3a4.3,4.3,0,0,1,2.63.81,3,3,0,0,1,.88,2.24,2.36,2.36,0,0,1-.19,1,3.37,3.37,0,0,0,3.08-3.43c0-2.59-2-3.36-4.11-3.36a9.31,9.31,0,0,0-6.27,2.72c-1.13,1-1.18,1.08-1.56,1.08a1.1,1.1,0,0,1-1.06-1.07c0-.41.05-.48,1.6-1.65,1.85-1.43,6.46-4.88,7.63-6-1.1.06-5.56.31-6.48.31a.89.89,0,0,1-1-1c0-1,.54-1,1.89-1l4.72-.07c.87,0,2-.09,2.56-.09s1.49,0,1.49,1.08c0,.7-.27.9-1.31,1.62a44.92,44.92,0,0,0-3.87,2.84A5.87,5.87,0,0,1,170.77,69.37Zm-1.24,7.7c0-1.42-1.08-1.65-1.91-1.65s-1.87.48-1.87,1.35,1.42,1.38,2.68,1.38a3.7,3.7,0,0,0,.85-.07A2.06,2.06,0,0,0,169.53,77.07Z"/><path class="cls-3" d="M185.84,64.47c0-.27,0-1,1-1s1.06.69,1.06,1v1.71a14.59,14.59,0,0,0,2.47,8.44,13.1,13.1,0,0,0,4.14,3.46,1.07,1.07,0,0,1,.72.94,1.16,1.16,0,0,1-1.1,1.17c-.74,0-2.73-1.64-3.56-2.41a12.68,12.68,0,0,1-3.71-6.86,12.42,12.42,0,0,1-3.53,6.64c-1,1-3,2.63-3.78,2.63a1.2,1.2,0,0,1-1.1-1.19.91.91,0,0,1,.58-.83,11.71,11.71,0,0,0,6.41-8.37,34.72,34.72,0,0,0,.36-3.62Z"/><path class="cls-3" d="M200.43,65c0,.31-.25,1.66-.29,1.94a50.91,50.91,0,0,0-.41,6.32,28.51,28.51,0,0,0,.27,4.16c0,.29.13,1,.13,1.21,0,.49-.2,1-1.07,1a.89.89,0,0,1-1-.74,31.63,31.63,0,0,1-.38-5.78,44.14,44.14,0,0,1,.71-8.33c.19-.6.63-.6,1.13-.6A.84.84,0,0,1,200.43,65Zm11.09,13.52a23.1,23.1,0,0,1-3.71.29c-2,0-5.79-.09-5.79-3.4,0-.89.43-2.81,1.64-2.81.52,0,1.09.32,1.09.83,0,.23,0,.25-.36.91a2.25,2.25,0,0,0-.3,1c0,1.32,1.58,1.5,3.31,1.5a20.27,20.27,0,0,0,2.43-.17c.27,0,1.42-.25,1.66-.25a.9.9,0,0,1,1,1C212.5,78,212.32,78.39,211.52,78.53Zm-.52-11-1.71,0c-1.75,0-3.74.05-5.11.14l-.47,0a.9.9,0,0,1-1-1,.85.85,0,0,1,.79-1c.35-.06,3-.2,5.69-.2a15.77,15.77,0,0,1,2.33.11c.27.07.55.32.55.91C212.06,67.4,211.42,67.49,211,67.49Z"/><path class="cls-3" d="M222.18,69a.76.76,0,0,1,.88.85c0,.83-.59.83-.92.83h-2.32v1.51h2.11c.3,0,.93,0,.93.81s-.43.83-.93.83h-1.84a12.05,12.05,0,0,0,1.6,1.75c.72.62.81.7.81,1a1,1,0,0,1-.88,1c-.31,0-.45-.15-.76-.47a12.74,12.74,0,0,1-1-1.33v3.76a.8.8,0,0,1-.83.94c-.58,0-.92-.22-.92-.94V76.08a19.49,19.49,0,0,1-1.82,2.06c-.41.37-.61.5-.9.5a1,1,0,0,1-.95-1c0-.38,0-.42,1-1.17a12.19,12.19,0,0,0,2.45-2.65h-2.22a.79.79,0,0,1-.93-.79c0-.6.3-.85.93-.85h2.45V70.63h-2.66c-.34,0-.94,0-.94-.83s.6-.85.92-.85h1.17c-.07-.59-.29-1.8-.43-2.36h-.6a.68.68,0,0,1-.75-.77c0-.72.34-.88.88-.88h2.41v-.78c0-.57.4-.75.85-.75s.94.07.94.75v.78h2.23a.75.75,0,0,1,.88.84c0,.42-.14.81-.72.81h-.54c-.11.78-.36,1.88-.47,2.36Zm-2.54,0c.11-.52.25-1.26.41-2.36h-2.27c.13.6.18,1,.4,2.36Zm9.76,1.8v8.68c0,.74-.34.94-1,.94s-.83-.58-.83-.94V70.75h-2.31v1.16a22,22,0,0,1-.12,2.3A13.53,13.53,0,0,1,223.73,79c-.56,1-.81,1.12-1.25,1.12a1,1,0,0,1-1-.92,1.23,1.23,0,0,1,.32-.74,11.73,11.73,0,0,0,1.73-6.63V66.59c0-1.09,0-1.63.81-1.94.31-.11,2.74-.36,3.24-.45s2.42-.52,2.56-.52a.94.94,0,0,1,.88,1,.82.82,0,0,1-.7.87,24.32,24.32,0,0,1-3.67.57c-1.32.13-1.34.17-1.34,1.1v1.68h5.21c.74,0,.93.34.93,1,0,.83-.59.88-.93.88Z"/><path class="cls-3" d="M237.08,65.1c0,.5-.11,2.66-.13,3.11,0,1.19-.12,3.84-.12,4.87,0,2.43,0,4.64,3.69,4.64,4.07,0,5-2.16,5.56-3.92.09-.31.35-1.73.49-2a.92.92,0,0,1,.83-.4c.32,0,1.17.07,1.17.94a9.44,9.44,0,0,1-1.46,4.28c-1.44,2.25-3.89,3-6.52,3s-4.18-.7-5.15-2.23c-.68-1.09-.7-2.53-.7-4.27,0-1.24.11-6.65.13-7.76,0-.92.14-1.42,1.15-1.42A1,1,0,0,1,237.08,65.1Z"/><path class="cls-3" d="M253.5,65.5c0,.21-.09,1.13-.11,1.31-.07.86-.2,2.29-.2,3.69,0,.6,0,4.23.95,5.85a1.57,1.57,0,0,0,1.23.72c1.08,0,1.75-1.22,2.2-2.61.25-.81.36-1.1,1-1.1a1,1,0,0,1,1.08.92,5.84,5.84,0,0,1-.87,2.41c-.54,1-1.54,2.63-3.47,2.63-4.09,0-4.09-7.07-4.09-8.91a43.84,43.84,0,0,1,.29-5.17c.18-.66.68-.68,1.12-.68A.84.84,0,0,1,253.5,65.5ZM264.68,77c0-.4,0-2.17,0-2.51-.07-2.41-.42-5.31-1.77-6.37a2.65,2.65,0,0,0-1.46-.47c-.5-.05-1-.13-1-1a1,1,0,0,1,1.1-1,4.71,4.71,0,0,1,3.9,2.25,12.8,12.8,0,0,1,1.23,4.63,37,37,0,0,1,.18,3.89c0,.86,0,1.66-1.06,1.66S264.68,77.25,264.68,77Z"/><path class="cls-3" d="M276,71.76h-3.87c-1.48,0-2.12-.52-2.12-2.12v-4a.82.82,0,0,1,.9-1c.72,0,1,.29,1,1v3.62a.67.67,0,0,0,.76.76H276V64.42a.81.81,0,0,1,.88-.94c.72,0,1,.25,1,.94V70h3.35a.67.67,0,0,0,.76-.76V65.62a.81.81,0,0,1,.9-1c.72,0,1,.29,1,1v4c0,1.58-.61,2.12-2.11,2.12h-3.89v6.39h4.07a.67.67,0,0,0,.76-.73v-3.5a.8.8,0,0,1,.88-.93c.7,0,1,.25,1,.93v3.89c0,1.64-.69,2.13-2.11,2.13H271.33c-1.42,0-2.1-.49-2.1-2.13V73.92a.8.8,0,0,1,.88-.93c.7,0,1,.25,1,.93v3.5c0,.61.38.73.75.73H276Z"/><path class="cls-3" d="M291,70.07c-.5,0-1-.16-.93-.94a9.6,9.6,0,0,1-2.79,1.28,1.06,1.06,0,0,1-.92-1.13c0-.6.36-.76.83-.94a15,15,0,0,0,5.8-4c.93-.93,1.08-1.08,1.87-1.08s1,.22,1.85,1.08a16,16,0,0,0,5.85,4.07c.47.2.8.36.8.9a1.08,1.08,0,0,1-1,1.14,9.49,9.49,0,0,1-2.66-1.26.79.79,0,0,1-.92.88Zm2.53,3.71a29.15,29.15,0,0,1-2.06,4c2.83-.1,3.3-.14,7.49-.39a18.65,18.65,0,0,0-1.49-1.64,1,1,0,0,1-.4-.76,1,1,0,0,1,1-.88c.4,0,.61.22,1.19.79A28,28,0,0,1,302,78c.51.69.65.94.65,1.25a1.21,1.21,0,0,1-1.17,1,.7.7,0,0,1-.61-.35c-.09-.12-.52-.77-.63-.91-3.23.28-4.34.37-7.91.59-.66,0-3.92.22-4.39.22-.25,0-.95,0-.95-1,0-.21.07-.7.46-.84.18-.06,1.68-.09,2-.09a22.21,22.21,0,0,0,2-4.09h-3.75c-.55,0-.93-.2-.93-.94a.81.81,0,0,1,.93-.86h14.34c.57,0,.93.21.93.93a.81.81,0,0,1-.93.87Zm5-5.42a18.31,18.31,0,0,1-3.14-2.79c-.21-.27-.32-.36-.48-.36s-.26.11-.47.36a18.31,18.31,0,0,1-3.15,2.79Z"/><path class="cls-3" d="M307.5,65.5c0,.21-.09,1.13-.11,1.31-.07.86-.2,2.29-.2,3.69,0,.6,0,4.23.95,5.85a1.57,1.57,0,0,0,1.23.72c1.08,0,1.75-1.22,2.2-2.61.25-.81.36-1.1,1-1.1a1,1,0,0,1,1.08.92,5.84,5.84,0,0,1-.87,2.41c-.54,1-1.54,2.63-3.47,2.63-4.09,0-4.09-7.07-4.09-8.91a43.84,43.84,0,0,1,.29-5.17c.18-.66.68-.68,1.12-.68A.84.84,0,0,1,307.5,65.5ZM318.68,77c0-.4,0-2.17,0-2.51-.07-2.41-.42-5.31-1.77-6.37a2.65,2.65,0,0,0-1.46-.47c-.5-.05-1-.13-1-1a1,1,0,0,1,1.1-1,4.71,4.71,0,0,1,3.9,2.25,12.8,12.8,0,0,1,1.23,4.63,37,37,0,0,1,.18,3.89c0,.86,0,1.66-1.06,1.66S318.68,77.25,318.68,77Z"/><path class="cls-3" d="M337.13,67.1a1,1,0,0,1,1,1c0,.85-.61,1-1.55,1.12a39.12,39.12,0,0,0-7.54,2.12c-1.17.54-3.31,1.7-3.31,3.66,0,1.51.93,2.56,5.27,2.56a30.92,30.92,0,0,0,5.49-.53h.4a.91.91,0,0,1,1,1c0,.78-.47.94-1,1a32.26,32.26,0,0,1-5.53.45c-3.33,0-7.78-.42-7.78-4.36,0-3.38,3.21-4.81,5.33-5.74a38.18,38.18,0,0,0-.84-3.8,5.44,5.44,0,0,1-.25-1.14c0-.75.73-.88,1.11-.88.94,0,1,.43,1.28,1.69.14.74.54,2.74.61,3.37A36.38,36.38,0,0,1,337.13,67.1Z"/><path class="cls-3" d="M341.41,71.64a.81.81,0,0,1-.94-.87c0-.7.45-.88.94-.88h4.12c.16-.32.76-1.73.9-2a.83.83,0,0,1,.85-.59c.56,0,1.19.32,1.19.84a7.44,7.44,0,0,1-.69,1.77h8.57a.83.83,0,0,1,1,.86c0,.78-.54.89-1,.89h-2a11.49,11.49,0,0,1-2.54,4.53,29.37,29.37,0,0,1,3.8,1.91c.39.24.7.42.7.9a1.12,1.12,0,0,1-1,1.15,2,2,0,0,1-1-.39,28.88,28.88,0,0,0-4-2.2,12.39,12.39,0,0,1-4.46,2,21.32,21.32,0,0,1-3.73.61.92.92,0,0,1-1-1c0-.84.59-.91,1-1a15.28,15.28,0,0,0,6.05-1.55c-1.66-.57-1.93-.66-3.44-1.13-.76-.24-1.44-.44-1.44-1.23a2.21,2.21,0,0,1,.43-1.13c.59-.94.72-1.15.93-1.51Zm13.45-6.7c1.35,0,2,.43,2,2v1.27c0,.42-.05,1-.9,1-.68,0-1-.17-1-1v-1c0-.36-.13-.65-.63-.65H343.5a.58.58,0,0,0-.65.65v1a.81.81,0,0,1-.92.93c-.79,0-1-.28-1-.93V66.94c0-1.55.63-2,2-2h5v-.72c0-.51.25-.79.88-.79s1.08.16,1.08.79v.72Zm-8,6.7c-.35.61-.58,1-1,1.62-.19.27-.24.37-.24.5,0,.31.29.4.56.47a38,38,0,0,1,3.65,1.17,11,11,0,0,0,2.4-3.76Z"/><path class="cls-3" d="M368.68,69.65c2.95,0,5.47,1.36,5.47,4.36,0,4.9-4.78,5.48-7.86,5.48a19,19,0,0,1-4.42-.47.91.91,0,0,1-.61-.9,1,1,0,0,1,.18-.61.86.86,0,0,1,.74-.31,4.6,4.6,0,0,1,.7.11,17.92,17.92,0,0,0,3.3.3c2.37,0,4.21-.41,5.22-1.54a3.21,3.21,0,0,0,.63-2,2.34,2.34,0,0,0-.85-1.86,4.65,4.65,0,0,0-2.79-.77A8.42,8.42,0,0,0,363,73.26c-.14.1-.78.72-.92.81a1.61,1.61,0,0,1-.72.19c-.77,0-1.1-.48-1.1-1.47,0-.78.18-3.89.31-4.85.07-.61.18-1.11,1-1.11s1,.25,1,.83c0,0-.2,1.87-.23,2.1-.07.67-.13,1.34-.15,2A11.08,11.08,0,0,1,368.68,69.65Zm2.79-3a1.12,1.12,0,0,1-.77.18,46.72,46.72,0,0,1-6.11-.56c-2.12-.32-2.72-.41-2.72-1.22a.9.9,0,0,1,.87-1,10.92,10.92,0,0,1,1.66.28,43,43,0,0,0,6,.56c1.28.06,1.44.36,1.44,1.06A1,1,0,0,1,371.47,66.65Z"/><path class="cls-3" d="M381.58,64.92c.08-.38.2-1,1-1,.29,0,1.1,0,1.1.81a16.7,16.7,0,0,1-.54,2.5l1,0c1.36,0,2.52.15,3.42,1.59a6.45,6.45,0,0,1,.77,3.4c0,5.85-1.33,7.58-4,7.58a6.68,6.68,0,0,1-3-.76.93.93,0,0,1-.53-.82c0-.45.29-1,.81-1,.24,0,.35.05,1.21.41a4.51,4.51,0,0,0,1.42.27c1,0,1.39-.39,1.69-1.62a19.08,19.08,0,0,0,.4-4.14c0-2.25-.4-3.08-2.63-3.08-.38,0-.86,0-1.1,0a61.6,61.6,0,0,1-3.35,9.36c-.43.94-.72,1.12-1.17,1.12a1.11,1.11,0,0,1-1.13-1,2.15,2.15,0,0,1,.41-1.08,39.07,39.07,0,0,0,3.15-8.28c-.3,0-1.18.07-1.85.16-.36,0-.68.07-.81.07-.88,0-.95-.57-.95-1a.85.85,0,0,1,.75-1c.34,0,.72-.07,3.35-.21C381.41,65.86,381.42,65.77,381.58,64.92Zm7.15.38c.89,0,2.54,1.31,3.44,3.54a14.1,14.1,0,0,1,.81,4.47,1,1,0,0,1-1.11,1.15c-.87,0-.94-.59-1-1.11A11.87,11.87,0,0,0,390,69a5.1,5.1,0,0,0-1.7-2.07,1,1,0,0,1-.43-.75.86.86,0,0,1,.34-.67A.91.91,0,0,1,388.73,65.3Z"/><path class="cls-3" d="M397.14,75.74c-.31.54-.56.79-1.08.79a1,1,0,0,1-1.08-.9,1.8,1.8,0,0,1,.39-1,26.67,26.67,0,0,0,2.88-6.27c-1.44,0-2,0-2.3,0s-1.06,0-1.06-.9.55-.94.75-1,2.79-.06,3.15-.07c.08-.29.36-1.62.42-1.88a.86.86,0,0,1,1-.77c.18,0,1.08,0,1.08.79a7.31,7.31,0,0,1-.38,1.78l2.09-.09a.86.86,0,0,1,1,.94.83.83,0,0,1-.52.86c-.22.08-2.63.18-3.1.2A38.53,38.53,0,0,1,397.14,75.74ZM404.83,70a.87.87,0,0,1,.95-1.07.91.91,0,0,1,1,1l.21,3.78c1.43.66,3.64,2.12,3.64,3a1,1,0,0,1-1,1c-.32,0-.41-.09-1.22-.8,0,0-1-.75-1.52-1.11a4.29,4.29,0,0,1-.27,2c-.84,1.93-3,1.93-3.54,1.93-3.19,0-4.32-1.77-4.32-3.35,0-1.43,1-3.48,4.66-3.48a9.31,9.31,0,0,1,1.6.15Zm-1.54,4.55c-1.45,0-2.71.5-2.71,1.8,0,1.68,1.9,1.68,2.39,1.68,2.21,0,2.2-1.52,2.16-3.14A4.4,4.4,0,0,0,403.29,74.57ZM410,67.22a1.64,1.64,0,0,1,.78,1.17,1.06,1.06,0,0,1-1,1c-.34,0-.47-.12-1-.57a12.47,12.47,0,0,0-3.4-2.2.9.9,0,0,1-.63-.79,1,1,0,0,1,1-.94A11.37,11.37,0,0,1,410,67.22Z"/><path class="cls-3" d="M418.52,77.32c0,1.5-.36,1.86-1.85,1.86h-1.79c-1.49,0-1.85-.36-1.85-1.86V66c0-1.48.34-1.86,1.85-1.86h1.79c1.49,0,1.85.36,1.85,1.86Zm-1.67-6.51V66.4a.45.45,0,0,0-.51-.51h-1.08a.44.44,0,0,0-.5.51v4.41Zm0,1.58h-2.09V77a.44.44,0,0,0,.5.5h1.08a.44.44,0,0,0,.51-.5Zm2.77,1.75a.75.75,0,0,1-.86-.83c0-.65.23-.94.86-.94h5.76V70.63h-5.9a.77.77,0,0,1-.89-.85c0-.61.22-.94.89-.94H423v-2H420a.77.77,0,0,1-.89-.83c0-.76.51-.85.89-.85H423v-1c0-.44.14-.85.88-.85s1,.15,1,.85v1h3.06a.77.77,0,0,1,.89.85.76.76,0,0,1-.89.83h-3.06v2h3.64a.75.75,0,0,1,.88.85c0,.59-.18.94-.84.94h-1.25v1.74h1.07c.52,0,.84.26.84.89s-.21.88-.84.88h-1.07v3.92c0,2.07-.73,2.13-3,2.13-1.15,0-1.82,0-1.82-1a.74.74,0,0,1,.87-.84l1.21,0c.5,0,.84-.11.84-.85V74.14Zm2.57,1.4c.4.49,1.07,1.3,1.07,1.77a1.12,1.12,0,0,1-1.1.93c-.43,0-.54-.14-.9-.73a15.82,15.82,0,0,0-1.14-1.57.89.89,0,0,1-.27-.6c0-.64.72-.82,1-.86C421.28,74.43,421.42,74.61,422.19,75.54Z"/><path class="cls-3" d="M433,79.5a.76.76,0,0,1-.85.87c-.72,0-.94-.31-.94-.87V65.8c0-1.35.54-1.82,1.8-1.82h3.41c1.24,0,1.82.44,1.82,1.82v3c0,1.35-.56,1.82-1.82,1.82H433Zm3.51-12.94V66a.45.45,0,0,0-.49-.51h-2.52a.44.44,0,0,0-.5.51v.61ZM433,67.93v1.22h3c.38,0,.51-.2.51-.5v-.72Zm10.1,8.6c0,1.39-.58,1.82-1.8,1.82h-4.74c-1.24,0-1.82-.43-1.82-1.82V73.31c0-1.37.56-1.82,1.82-1.82h4.74c1.24,0,1.8.45,1.8,1.82Zm-6.65-2.34h4.92v-.83a.44.44,0,0,0-.5-.5h-3.91a.45.45,0,0,0-.51.5Zm0,1.28v.94a.45.45,0,0,0,.51.5h3.91a.44.44,0,0,0,.5-.5v-.94Zm5-4.86c-1.28,0-1.82-.47-1.82-1.82v-3c0-1.37.56-1.82,1.82-1.82h3.38c1.32,0,1.82.51,1.82,1.82V78.21c0,1.67-.5,2-2.36,2s-1.89-.06-2.05-.13a1,1,0,0,1-.52-.92c0-.86.61-.86.85-.86l1.62,0c.48,0,.72-.06.72-.62V70.61Zm-.05-4h3.51V66a.45.45,0,0,0-.51-.51h-2.5a.45.45,0,0,0-.5.51Zm3.51,1.37h-3.51v.72a.44.44,0,0,0,.5.5h3Z"/><path class="cls-3" d="M455.08,64.4a.87.87,0,0,1,1-.63c.7,0,1,.38,1,.81a3.52,3.52,0,0,1-.43,1.29c.54,0,1.85,0,3.64-.1s2.75-.09,2.88-.09a.83.83,0,0,1,1,.9.78.78,0,0,1-.74.88c-.31.05-5.47.23-7.72.25-.24.45-.62,1-1.34,2.12a4.93,4.93,0,0,1,2.74-.89,2.57,2.57,0,0,1,2.7,1.94,25,25,0,0,1,4.09-1.14.91.91,0,0,1,.93,1c0,.72-.52.9-1.09,1-2.15.5-2.38.56-3.66,1,.09,1,.09,1.89.09,2.22,0,1.17,0,1.83-1,1.83s-1-.68-1-1.27c0-.33,0-1.77,0-2.07-2.4,1.08-3.73,1.9-3.73,3.11s1.73,1.37,3.65,1.37a27.2,27.2,0,0,0,3.43-.22,10.38,10.38,0,0,1,1.29-.1.8.8,0,0,1,.88.9c0,.63-.32.82-.82.91a26.66,26.66,0,0,1-4.4.35,10.49,10.49,0,0,1-4.41-.62,2.54,2.54,0,0,1-1.69-2.32c0-2.54,3-4.12,5.56-5.26a1.41,1.41,0,0,0-1.47-1.06c-2.36,0-4.09,2.27-5,3.44-.63.83-.94,1.24-1.5,1.24a1,1,0,0,1-.95-1c0-.36.14-.52,1.33-1.83a31.4,31.4,0,0,0,3.22-4.59l-3,0a.88.88,0,0,1-1-.92.85.85,0,0,1,1-.9c2.61,0,2.9,0,4,0C454.67,65.5,454.9,64.83,455.08,64.4Z"/><path class="cls-3" d="M476.79,72.66H473.1c-.43,0-.61-.09-.78-.41,0,.63-.23.79-1.87,1.46v4.64c0,1.87-.83,1.87-2.38,1.87-.66,0-1.4,0-1.4-1s.61-.9,1.08-.9c.67,0,.9,0,.9-.58V74.41a6,6,0,0,1-1.51.41c-.6,0-.79-.59-.79-1a.78.78,0,0,1,.52-.81c.27-.09,1.53-.43,1.78-.52v-4h-1.3a.78.78,0,0,1-.9-.88c0-.87.6-.9.9-.9h1.3V64.38a.9.9,0,1,1,1.8,0v2.36h1.17a.77.77,0,0,1,.81.88c0,.49-.21.9-.81.9h-1.17v3.3a3.62,3.62,0,0,1,1.13-.35.7.7,0,0,1,.67.49c-.05-.9.61-.9.85-.9h9.4a.8.8,0,1,1,0,1.6h-3.93v1.78h3.26a.76.76,0,1,1,0,1.52h-3.26v2.28c.29,0,.61,0,.69,0h3.2c.67,0,1,.27,1,.83s-.25,1-1,1h-3.16a5.41,5.41,0,0,1-4.92-2.44A8.61,8.61,0,0,1,473,80a.85.85,0,0,1-.7.36,1,1,0,0,1-1-.93c0-.29,0-.29.83-1.41a9.17,9.17,0,0,0,1.24-3.76.8.8,0,0,1,.85-.83c.14,0,.92,0,.92.78a11.94,11.94,0,0,1-.22,1.53,4,4,0,0,0,1.91,2.07Zm5.58-4.37c0,1.31-.32,1.85-1.85,1.85h-5.68c-1.53,0-1.85-.54-1.85-1.85V65.75c0-1.32.32-1.87,1.85-1.87h5.68c1.53,0,1.85.55,1.85,1.87Zm-7.6-1.86h5.84v-.57c0-.36-.17-.51-.49-.51h-4.84a.45.45,0,0,0-.51.51Zm0,1.28v.58c0,.28.11.5.51.5h4.84a.44.44,0,0,0,.49-.5v-.58Z"/><path class="cls-3" d="M488.16,79.47c0,.29,0,.93-.93.93s-.94-.48-.94-.93V71.56c-.41.58-.59.81-1,.81a1.06,1.06,0,0,1-1-1.09,1.14,1.14,0,0,1,.32-.81,15.14,15.14,0,0,0,3-6.34c.09-.35.21-.72.84-.72.42,0,1,.18,1,.79a18.61,18.61,0,0,1-1.25,4Zm8.45-12.75V64.34c0-.45.1-.93.84-.93s1.07.16,1.07.93v2.38H500c.47,0,.9.18.9.83s-.16,1-.9,1h-1.49v4.12h1.81c.26,0,.94,0,.94.85,0,.61-.23.94-.94.94H489.64a.81.81,0,0,1-.94-.89c0-.77.49-.9.94-.9h1.78V68.52h-1.49c-.56,0-.89-.27-.89-.81s.13-1,.89-1h1.49V64.34c0-.46.13-.93.85-.93s1,.16,1,.93v2.38Zm-7.78,12.5c0-.38.21-.54,1.1-1.21a11.58,11.58,0,0,0,2.21-2.32,1,1,0,0,1,.78-.51,1,1,0,0,1,.93.94c0,.83-3.18,4.18-4,4.18A1.1,1.1,0,0,1,488.83,79.22Zm7.78-10.7h-3.32v4.12h3.32Zm.45,6.7c.38,0,.47.12,1.2,1a13.17,13.17,0,0,0,1.91,1.82c.69.5,1,.72,1,1.2a1.1,1.1,0,0,1-1,1c-.56,0-1.71-1.16-2.3-1.75a15.07,15.07,0,0,1-1.55-1.82,1,1,0,0,1-.27-.61A1,1,0,0,1,497.06,75.22Z"/><path class="cls-3" d="M514.79,71.46a6.28,6.28,0,0,1,.48,2.48c0,3.85-2.7,5.24-5.38,5.62a25.79,25.79,0,0,1-2.61.21c-.4,0-1.32,0-1.32-1,0-.79.51-.81,1.81-.83,4.32,0,5.16-1.69,5.56-3.42a3.47,3.47,0,0,1-3.3,1.55c-2.79,0-4.39-1.59-4.39-3.53s1.57-3.58,4.41-3.58a5.18,5.18,0,0,1,2.79.64l0-1.87c-3,.05-4.45.09-6.88.09-.34,0-2,0-2.27,0a.79.79,0,0,1-.74-.9c0-.92.61-.92,1.48-.92,4.63,0,5.13,0,8.37,0l0-1.12a1,1,0,1,1,2,0v1.09l3-.09c.36,0,1,0,1,.92s-.56.9-1.55.92c-.4,0-2.14,0-2.5,0Zm-2.65,2.44a1.88,1.88,0,0,0,.72-1.51c0-1.56-1.6-1.91-2.5-1.91-1.24,0-2.76.6-2.76,2s1.53,1.92,2.54,1.92A3.45,3.45,0,0,0,512.14,73.9Z"/><path class="cls-3" d="M530.77,69.37c3.76,0,5.4,2.34,5.4,4.91a5,5,0,0,1-3.36,4.88,10.19,10.19,0,0,1-3.84.63c-3.53,0-5-1.28-5-3,0-2.1,2-3,3.72-3a4.3,4.3,0,0,1,2.63.81,3,3,0,0,1,.88,2.24,2.36,2.36,0,0,1-.19,1,3.37,3.37,0,0,0,3.08-3.43c0-2.59-2-3.36-4.11-3.36a9.31,9.31,0,0,0-6.27,2.72c-1.13,1-1.18,1.08-1.56,1.08a1.1,1.1,0,0,1-1.06-1.07c0-.41,0-.48,1.6-1.65,1.85-1.43,6.46-4.88,7.63-6-1.1.06-5.56.31-6.48.31a.89.89,0,0,1-1-1c0-1,.54-1,1.89-1l4.72-.07c.87,0,2-.09,2.56-.09s1.49,0,1.49,1.08c0,.7-.27.9-1.31,1.62a44.92,44.92,0,0,0-3.87,2.84A5.87,5.87,0,0,1,530.77,69.37Zm-1.24,7.7c0-1.42-1.08-1.65-1.91-1.65s-1.87.48-1.87,1.35,1.42,1.38,2.68,1.38a3.7,3.7,0,0,0,.85-.07A2.06,2.06,0,0,0,529.53,77.07Z"/><path class="cls-3" d="M540.58,68.23c-.81,0-1.42,0-1.42-.93,0-.76.41-1,1-1h2.52c.26-1.53.29-1.69.35-1.89a.83.83,0,0,1,.88-.61c.74,0,1.08.32,1.08.88a8.6,8.6,0,0,1-.22,1.57c2.2-.06,3.1-.07,5.21-.16.21,0,1.18-.08,1.38-.08a.88.88,0,0,1,1,1c0,.9-.68.92-1,.93-3.55.18-5.3.22-7,.26a56.7,56.7,0,0,1-1.7,6.33A41.28,41.28,0,0,1,541,79.14a.89.89,0,0,1-.85.53c-.36,0-1.11-.2-1.11-.9,0-.2,0-.36.38-1.16a44.57,44.57,0,0,0,2.16-6.14c.28-1.08.54-2.16.75-3.24ZM554,79.41a15.19,15.19,0,0,1-3.08.22c-4.27,0-6.08-.76-6.08-2.9,0-.83.39-2,1.42-2,.36,0,.93.2.93.69a1.11,1.11,0,0,1-.14.5,1.28,1.28,0,0,0-.2.63c0,.59.49.85,1.12,1a9.85,9.85,0,0,0,2.18.2,24.89,24.89,0,0,0,2.55-.13c.85-.09,1-.11,1.12-.11a.83.83,0,0,1,.94.92A.9.9,0,0,1,554,79.41ZM553.9,72a1.16,1.16,0,0,1-.61.15c-.16,0-.92-.08-1.37-.11-.27,0-.48,0-.92,0a25.64,25.64,0,0,0-2.64.13l-1.64.16a.84.84,0,0,1-.83-.92c0-.7.47-.92,1.66-1.08a33.08,33.08,0,0,1,3.74-.22,10.89,10.89,0,0,1,2.56.27c.39.22.39.56.39.9A1,1,0,0,1,553.9,72Z"/><path class="cls-3" d="M559.8,78.64c-1.42,0-2.86-1.21-2.86-3.93a7.58,7.58,0,0,1,2.39-5.52,21.27,21.27,0,0,1-.77-3.57.89.89,0,0,1,1-.9.74.74,0,0,1,.81.69c.11.41.44,2.25.51,2.61a10.38,10.38,0,0,1,4.28-1.26c.08-.35.38-1.91.45-2.22a.84.84,0,0,1,.94-.77.93.93,0,0,1,1.06.95,19.7,19.7,0,0,1-.47,2.13,8.78,8.78,0,0,1,2.62.77A5.62,5.62,0,0,1,572.87,73a6.23,6.23,0,0,1-2.5,5.26,9.58,9.58,0,0,1-5,1.4,1,1,0,0,1-1.1-1c0-.72.32-.76,1.31-.87a6.68,6.68,0,0,0,3.6-1.06,4.62,4.62,0,0,0,1.73-3.76c0-3.79-3.15-4.22-4.19-4.34a34.39,34.39,0,0,1-2.47,6.23c.67.66.79.81.79,1.13a1.12,1.12,0,0,1-.95,1,1.54,1.54,0,0,1-1-.51C562.49,77.32,561.28,78.64,559.8,78.64Zm.15-7.56a6,6,0,0,0-1.21,3.65c0,1.21.49,2.09,1.22,2.09s1.17-.5,2-1.71A18.65,18.65,0,0,1,560,71.08Zm3.11,2.27a25.56,25.56,0,0,0,1.73-4.79,7,7,0,0,0-3.4,1.18A15.32,15.32,0,0,0,563.06,73.35Z"/><path class="cls-3" d="M578.43,65c0,.31-.25,1.66-.29,1.94a50.91,50.91,0,0,0-.41,6.32,28.51,28.51,0,0,0,.27,4.16c0,.29.13,1,.13,1.21,0,.49-.2,1-1.07,1a.89.89,0,0,1-1-.74,31.63,31.63,0,0,1-.38-5.78,44.14,44.14,0,0,1,.71-8.33c.19-.6.63-.6,1.13-.6A.84.84,0,0,1,578.43,65Zm11.09,13.52a23.06,23.06,0,0,1-3.7.29c-2,0-5.8-.09-5.8-3.4,0-.89.43-2.81,1.64-2.81.52,0,1.09.32,1.09.83,0,.23,0,.25-.36.91a2.25,2.25,0,0,0-.3,1c0,1.32,1.58,1.5,3.31,1.5a20.39,20.39,0,0,0,2.43-.17c.27,0,1.42-.25,1.66-.25a.9.9,0,0,1,1,1C590.5,78,590.32,78.39,589.52,78.53Zm-.52-11-1.71,0c-1.75,0-3.74.05-5.11.14l-.47,0a.9.9,0,0,1-1-1,.85.85,0,0,1,.79-1c.35-.06,3-.2,5.69-.2a15.77,15.77,0,0,1,2.33.11c.27.07.55.32.55.91C590.06,67.4,589.42,67.49,589,67.49Z"/><path class="cls-3" d="M600,66.94V64.33a.79.79,0,0,1,.9-.9c.81,0,1,.3,1,.9v2.61h6a.78.78,0,0,1,.9.88c0,.77-.44.92-.9.92h-6v3.54h5.31a.78.78,0,0,1,.88.89c0,.79-.49.88-.88.88h-5.31V78h6.6a.77.77,0,0,1,.89.85c0,.63-.24,1-.89,1H593.28a.79.79,0,0,1-.9-.9c0-.75.43-.9.9-.9H600V74.05h-5.4a.77.77,0,0,1-.88-.85c0-.65.27-.92.88-.92H600V68.74H596a12.75,12.75,0,0,1-1.59,2.55.83.83,0,0,1-.73.42,1.12,1.12,0,0,1-1.1-1,1.07,1.07,0,0,1,.29-.67,17,17,0,0,0,2.7-5.38c.12-.36.25-.7.86-.7.2,0,1.06,0,1.06.79a10.79,10.79,0,0,1-.68,2.18Z"/><path class="cls-3" d="M620.3,69.6l5-.14a.8.8,0,0,1,.92.86c0,.83-.54.85-1.37.87l-4.5.12,0,2.4a18.55,18.55,0,0,1,5.19,2.93c.83.67.83,1,.83,1.19a1.13,1.13,0,0,1-1,1.13c-.43,0-.7-.25-1.24-.75a16.11,16.11,0,0,0-2.36-1.77,12.57,12.57,0,0,0-1.37-.74c0,1.75-.14,4-3.92,4-2.54,0-5-1-5-3.27,0-2,1.8-3.34,4.91-3.34a9.94,9.94,0,0,1,2,.17l0-1.89c-1.46,0-3.78,0-5.24,0-1.08,0-1.62,0-1.62-.88a.81.81,0,0,1,.94-.85c1.63,0,4.25,0,5.88,0v-1.9l-5.37,0c-1,0-1.6,0-1.6-.88s.65-.87,1.06-.87l1,0c.77,0,4.18,0,4.88,0l0-1.3c0-.68.42-.92,1-.92s1,.26,1,.92l0,1.24,4.21-.1,1,0a.87.87,0,1,1,0,1.73l-5.16.16Zm-3.92,5.08c-.74,0-3,.09-3,1.69,0,1.12,1.31,1.62,2.83,1.62s2-.43,2.14-1.37a10.1,10.1,0,0,0,0-1.65A6,6,0,0,0,616.38,74.68Z"/><path class="cls-3" d="M632.7,68.79l-2.63.13A.91.91,0,0,1,629,68c0-.88.7-.93,1-.95l2.78-.11c0-.4.09-1.93.1-2,0-.39.06-1,1-1s1,.58,1,1c0,.18,0,.52-.11,2a.45.45,0,0,1,.35.49,1.44,1.44,0,0,1-.38.82c2.39-2.46,4-2.7,5-2.7a2.82,2.82,0,0,1,3.09,3,17.13,17.13,0,0,1-.54,3.49,22.79,22.79,0,0,0-.66,4,1.09,1.09,0,0,0,1.15,1.24,1.67,1.67,0,0,0,.72-.14c.68-.29.76-.31,1-.31a.87.87,0,0,1,.79.94c0,1.39-2.34,1.53-2.68,1.53a2.62,2.62,0,0,1-2.93-2.86,41.17,41.17,0,0,1,1-6.75,6.56,6.56,0,0,0,.09-.87,1.21,1.21,0,0,0-1.32-1.31c-1.83,0-3.92,2.28-4.79,3.33-.05,1.35-.07,1.49-.07,3.85,0,.63,0,3.4,0,4s0,1.37-1,1.37c-.17,0-.86,0-1-.65a5.77,5.77,0,0,1-.05-1.37c0-1.69,0-2.05.05-4.77l-1.73,2.59c-.39.58-.59.8-1.06.8a1,1,0,0,1-1-1c0-.41.11-.54.86-1.4a33.11,33.11,0,0,0,2.18-2.92,10.28,10.28,0,0,0,.86-1.53Z"/><path class="cls-3" d="M656.3,69.6l5-.14a.8.8,0,0,1,.92.86c0,.83-.54.85-1.37.87l-4.5.12,0,2.4a18.55,18.55,0,0,1,5.19,2.93c.83.67.83,1,.83,1.19a1.13,1.13,0,0,1-1,1.13c-.43,0-.7-.25-1.24-.75a16.11,16.11,0,0,0-2.36-1.77,12.57,12.57,0,0,0-1.37-.74c0,1.75-.14,4-3.92,4-2.54,0-5-1-5-3.27,0-2,1.8-3.34,4.91-3.34a9.94,9.94,0,0,1,2,.17l0-1.89c-1.46,0-3.78,0-5.24,0-1.08,0-1.62,0-1.62-.88a.81.81,0,0,1,.94-.85c1.63,0,4.25,0,5.88,0v-1.9l-5.37,0c-1,0-1.6,0-1.6-.88s.65-.87,1.06-.87l1,0c.77,0,4.18,0,4.88,0l0-1.3c0-.68.42-.92,1-.92s1,.26,1,.92l0,1.24,4.21-.1,1,0a.87.87,0,1,1,0,1.73l-5.16.16Zm-3.92,5.08c-.74,0-3,.09-3,1.69,0,1.12,1.31,1.62,2.83,1.62s2-.43,2.14-1.37a10.1,10.1,0,0,0,0-1.65A6,6,0,0,0,652.38,74.68Z"/><path class="cls-3" d="M669.08,65.1c0,.5-.11,2.66-.13,3.11,0,1.19-.12,3.84-.12,4.87,0,2.43,0,4.64,3.69,4.64,4.07,0,5-2.16,5.56-3.92.09-.31.35-1.73.49-2a.92.92,0,0,1,.83-.4c.32,0,1.17.07,1.17.94a9.44,9.44,0,0,1-1.46,4.28c-1.44,2.25-3.89,3-6.52,3s-4.18-.7-5.15-2.23c-.68-1.09-.7-2.53-.7-4.27,0-1.24.11-6.65.13-7.76,0-.92.14-1.42,1.15-1.42A1,1,0,0,1,669.08,65.1Z"/><path class="cls-3" d="M684.58,68.23c-.81,0-1.42,0-1.42-.93,0-.76.41-1,1-1h2.52c.26-1.53.29-1.69.35-1.89a.83.83,0,0,1,.88-.61c.74,0,1.08.32,1.08.88a8.6,8.6,0,0,1-.22,1.57c2.2-.06,3.1-.07,5.21-.16.21,0,1.18-.08,1.38-.08a.88.88,0,0,1,1,1c0,.9-.68.92-1,.93-3.55.18-5.3.22-7,.26a56.7,56.7,0,0,1-1.7,6.33A41.28,41.28,0,0,1,685,79.14a.89.89,0,0,1-.85.53c-.36,0-1.11-.2-1.11-.9,0-.2,0-.36.38-1.16a44.57,44.57,0,0,0,2.16-6.14c.28-1.08.54-2.16.75-3.24ZM698,79.41a15.19,15.19,0,0,1-3.08.22c-4.27,0-6.08-.76-6.08-2.9,0-.83.39-2,1.42-2,.36,0,.93.2.93.69a1.11,1.11,0,0,1-.14.5,1.28,1.28,0,0,0-.2.63c0,.59.49.85,1.12,1a9.85,9.85,0,0,0,2.18.2,24.89,24.89,0,0,0,2.55-.13c.85-.09,1-.11,1.12-.11a.83.83,0,0,1,.94.92A.9.9,0,0,1,698,79.41ZM697.9,72a1.16,1.16,0,0,1-.61.15c-.16,0-.92-.08-1.37-.11-.27,0-.48,0-.92,0a25.64,25.64,0,0,0-2.64.13l-1.64.16a.84.84,0,0,1-.83-.92c0-.7.47-.92,1.66-1.08a33.08,33.08,0,0,1,3.74-.22,10.89,10.89,0,0,1,2.56.27c.39.22.39.56.39.9A1,1,0,0,1,697.9,72Z"/><path class="cls-3" d="M707.17,76.66a3,3,0,1,1-3-3A3,3,0,0,1,707.17,76.66Zm-4.75,0a1.73,1.73,0,1,0,1.72-1.73A1.72,1.72,0,0,0,702.42,76.66Z"/><path class="cls-3" d="M51.76,96.94h2.12c.31,0,1,0,1,.87,0,.66-.4.86-1,.86H51.76V99a12.53,12.53,0,0,0,2,2.64c.49.49.58.6.58.94s-.32,1.06-.86,1.06-1.23-1.1-1.73-2v6.75c0,.25,0,.85-.85.85s-.94-.34-.94-.85v-6a16.2,16.2,0,0,1-1.65,2.75c-.27.36-.51.6-.87.6a1,1,0,0,1-1-1c0-.34.1-.47,1-1.53a14.65,14.65,0,0,0,2.5-4.5H47.51c-.27,0-1,0-1-.83,0-.61.29-.9,1-.9H50V94.83c-.57.06-1.89.18-2.35.18a.8.8,0,0,1-.85-.88.73.73,0,0,1,.77-.81,34.25,34.25,0,0,0,4.83-.59,5.92,5.92,0,0,1,1.42-.31.84.84,0,0,1,.78.92.74.74,0,0,1-.58.76,18.55,18.55,0,0,1-2.23.46Zm9.05,8.66a26.46,26.46,0,0,0-1-3c-.57-1.46-.63-1.62-.63-1.93,0-.65.7-.79,1-.79.6,0,.76.22,1.5,2.18a30.28,30.28,0,0,1,1.69,6.21c0,.9-1,.92-1.1.92-.77,0-.81-.27-1.08-1.86a66.34,66.34,0,0,1-7.6,1.07c-.21,0-.93,0-.93-1.07,0-.79.48-.82,1.38-.9A76.58,76.58,0,0,0,56.8,93.27c.05-.43.16-1,1-1,.5,0,1,.23,1,.81a87,87,0,0,1-2.92,13.18C57.12,106.16,59.66,105.84,60.81,105.6Z"/><path class="cls-3" d="M66.66,97.09c-.81,0-1.42,0-1.42-.94,0-.76.41-1,1-1h2.52c.25-1.53.29-1.69.34-1.89a.84.84,0,0,1,.88-.61c.74,0,1.08.33,1.08.88a9.09,9.09,0,0,1-.21,1.57c2.19,0,3.09-.07,5.2-.16.22,0,1.19-.07,1.39-.07a.87.87,0,0,1,1,1c0,.9-.68.92-1,.94-3.55.18-5.3.21-7,.25a56.41,56.41,0,0,1-1.69,6.34,44.83,44.83,0,0,1-1.7,4.61.89.89,0,0,1-.84.52c-.36,0-1.12-.2-1.12-.9,0-.2,0-.36.38-1.15a45.57,45.57,0,0,0,2.16-6.14c.29-1.08.54-2.16.76-3.24Zm13.43,11.18a16.39,16.39,0,0,1-3.08.21c-4.26,0-6.08-.75-6.08-2.9,0-.82.39-2,1.42-2,.36,0,.94.2.94.69a1,1,0,0,1-.15.5,1.43,1.43,0,0,0-.2.63c0,.6.49.85,1.12,1a9.85,9.85,0,0,0,2.18.2,25.23,25.23,0,0,0,2.56-.13c.84-.09,1-.1,1.11-.1a.83.83,0,0,1,.94.91A.91.91,0,0,1,80.09,108.27ZM80,100.88a1.16,1.16,0,0,1-.61.15c-.16,0-.92-.07-1.37-.11-.27,0-.48,0-.91,0a25.7,25.7,0,0,0-2.65.13l-1.64.16a.84.84,0,0,1-.83-.92c0-.7.47-.92,1.66-1.08A33,33,0,0,1,77.37,99a10.33,10.33,0,0,1,2.56.27c.4.21.4.55.4.9A1,1,0,0,1,80,100.88Z"/><path class="cls-3" d="M87.56,100.24A9.43,9.43,0,0,1,92.35,99c.76,0,3.31.11,4.66,1.37a4.24,4.24,0,0,1,1.26,3.11,4.31,4.31,0,0,1-2.37,4,12.58,12.58,0,0,1-5.62,1,17.42,17.42,0,0,1-4.47-.49.92.92,0,0,1-.61-.9.87.87,0,0,1,.87-.94c.25,0,1.38.22,1.62.26a24.58,24.58,0,0,0,2.89.19c1.16,0,5.57,0,5.57-3.17,0-2.43-2.72-2.68-4-2.68a7.74,7.74,0,0,0-5.45,1.86c-.38.37-.58.55-1,.55s-1.1-.27-1.1-.88c0-.34.08-.45.63-1.42a25.09,25.09,0,0,0,1.63-3.91l-2.65,0c-.34,0-1.06,0-1.06-1s.7-.94,1.26-.94h3c.07-.29.32-1.51.39-1.75s.31-.64,1-.64c.84,0,1.09.36,1.09.86a6.91,6.91,0,0,1-.3,1.49c2.14,0,4.27-.1,6.39-.18l1.78,0c.33,0,1,0,1,.94a.8.8,0,0,1-.76.9c-.25,0-5.43.2-9,.27A19.22,19.22,0,0,1,87.56,100.24Z"/><path class="cls-3" d="M104.19,93.88a1.9,1.9,0,0,1,0,.38,37.92,37.92,0,0,0-.68,7.22,34,34,0,0,0,.34,5c0,.25.13.83.13,1,0,.67-.42.9-1,.9a.91.91,0,0,1-1-.83,36.81,36.81,0,0,1-.45-6.23,41.87,41.87,0,0,1,.66-7.52c.09-.33.24-.92,1.21-.79C104.08,93.11,104.19,93.48,104.19,93.88Zm6.9.09c0-.38,0-1.06,1-1.06s1,.65,1,1l0,2.2,2.52-.11a.87.87,0,0,1,1,.95c0,.82-.56.91-.74.92s-2.32.11-2.77.13l.07,4.28a14.34,14.34,0,0,1,3,2.18c.54.49.68.83.68,1.14a1.1,1.1,0,0,1-1,1.11c-.38,0-.44-.07-1.26-.93a9.37,9.37,0,0,0-1.55-1.3,5.83,5.83,0,0,1-.29,2.31c-.67,1.45-2.61,1.6-3.42,1.6-3.06,0-4.21-1.69-4.21-3.46,0-2.19,1.78-3.49,4.24-3.49a6.64,6.64,0,0,1,1.79.23l-.09-3.6c-.72,0-3.39.09-4.92.09-.32,0-1,0-1-1s.65-.94,1.24-.94c1.55,0,3.35,0,4.68-.09Zm-1.59,9.18c-.68,0-2.5.18-2.5,1.86s1.55,1.74,2.3,1.74c.51,0,1.5-.1,1.84-.86a6.8,6.8,0,0,0,.16-2.36A3.92,3.92,0,0,0,109.5,103.15Z"/><path class="cls-3" d="M123.4,108.5c-.56,0-.83-.4-1.12-.79a22.62,22.62,0,0,0-2.66-3,1,1,0,0,1,.75-1.81c.4,0,.67,0,2.83,2.4.5.56,1.44,1.58,1.44,2.09A1.26,1.26,0,0,1,123.4,108.5Z"/><path class="cls-3" d="M140.62,99.7a.79.79,0,0,1-.9-.89,1.14,1.14,0,0,1,0-.27,6.47,6.47,0,0,1-2.32,1.14,1.1,1.1,0,0,1-1-1.15c0-.53.3-.72.68-.92a22.85,22.85,0,0,0,2.41-1.33,24.12,24.12,0,0,0,3.53-3c.7-.77,1.05-1.13,1.87-1.13a1.89,1.89,0,0,1,1.59.75,21.44,21.44,0,0,0,2.3,2.25,17.93,17.93,0,0,0,4.07,2.58.88.88,0,0,1,.58.85,1.05,1.05,0,0,1-1,1.13,6.4,6.4,0,0,1-2.33-1.12c0,.08,0,.15,0,.27a.81.81,0,0,1-.93.89H146v2.39h4.76a.89.89,0,1,1,0,1.77H146v3h6.5c.65,0,.94.27.94,1a.8.8,0,0,1-.94.87h-15c-.68,0-.93-.31-.93-1a.8.8,0,0,1,.93-.88H144v-3h-4.74c-.47,0-.93-.13-.93-.89a.8.8,0,0,1,.93-.88H144V99.7Zm8.66-1.77a22.42,22.42,0,0,1-3.78-3.33c-.27-.31-.36-.41-.54-.41s-.27.09-.54.39a19.14,19.14,0,0,1-3.8,3.35Z"/><path class="cls-3" d="M158.93,96.06l-2.9.2c-.27,0-1,0-1-1.07,0-.64.25-1,1.08-1s11.16-.45,13.09-.45c1,0,1.69,0,1.69.94s-.67,1.08-1.71,1.08a7.6,7.6,0,0,0-4.72,1.58c-.81.52-3.6,2.52-3.6,5.46,0,2.52,1.93,3.49,5.82,3.49a9,9,0,0,1,1.67,0,.83.83,0,0,1,.76.9c0,1.17-1,1.17-1.8,1.17a16,16,0,0,1-5.1-.74,4.62,4.62,0,0,1-3.44-4.68c0-1.26.29-3.12,2.59-5.31a11.65,11.65,0,0,1,2.61-1.9Z"/><path class="cls-3" d="M179.4,104.77c-.72,1.25-1.62,2.16-3,2.16-2.14,0-3.53-2.23-3.53-5.2,0-5.29,3.91-8.32,8.55-8.32,6,0,7.65,4.2,7.65,7.35a6.94,6.94,0,0,1-3.61,6.41,9.89,9.89,0,0,1-4,1.19,1,1,0,0,1-1-1c0-.79.55-.88,1.29-1,1.35-.18,5.28-.81,5.28-5.62,0-2.37-1.1-5.22-4.94-5.42C181.34,100.79,180,103.68,179.4,104.77Zm-1.57-8.64a6.38,6.38,0,0,0-3,5.64c0,1.92.85,3,1.66,3s1.35-.92,1.89-2.38A29,29,0,0,0,180,95.36,7.22,7.22,0,0,0,177.83,96.13Z"/><path class="cls-3" d="M197.92,93.32c0-.27,0-1,1-1s1.06.69,1.06,1V95a14.62,14.62,0,0,0,2.47,8.45,13.17,13.17,0,0,0,4.14,3.45,1.07,1.07,0,0,1,.72.94,1.16,1.16,0,0,1-1.1,1.17c-.73,0-2.73-1.64-3.56-2.41A12.64,12.64,0,0,1,199,99.77a12.42,12.42,0,0,1-3.53,6.64c-1,1-3,2.63-3.78,2.63a1.2,1.2,0,0,1-1.1-1.19.91.91,0,0,1,.58-.83,11.69,11.69,0,0,0,6.41-8.37,32.16,32.16,0,0,0,.36-3.62Z"/><path class="cls-3" d="M213.51,93.77c.07-.39.19-1,1-1,.2,0,1.08,0,1.08.81a16.42,16.42,0,0,1-.54,2.5l1.17,0c1.3,0,2.49.11,3.4,1.57a6.38,6.38,0,0,1,.78,3.4c0,5.85-1.33,7.58-3.95,7.58a6.83,6.83,0,0,1-3-.75.94.94,0,0,1-.5-.83c0-.45.27-1,.81-1,.23,0,.32,0,1.19.41a4.16,4.16,0,0,0,1.42.27c1,0,1.37-.39,1.69-1.62a19.74,19.74,0,0,0,.4-4.14c0-2.27-.42-3.08-2.63-3.08-.34,0-.65,0-1.21.06a52.84,52.84,0,0,1-2.21,6.93c-1.37,3.56-1.68,3.56-2.18,3.56s-1.15-.39-1.15-.93a2,2,0,0,1,.39-1.08,40,40,0,0,0,3.1-8.34c-.41,0-2.31.24-2.59.24-.87,0-1-.56-1-1a.84.84,0,0,1,.76-1c.25,0,1.42-.11,3.24-.22C213.13,95.64,213.34,94.69,213.51,93.77Zm7,.74c.86,0,2.54,1.22,3.49,3.46a10.69,10.69,0,0,1,.79,3,11.38,11.38,0,0,1,.13,1.46,1,1,0,0,1-1.12,1.11c-.86,0-.93-.61-1-1.09a12.18,12.18,0,0,0-1-4.4c-.35-.75-.49-.88-1.71-2a1,1,0,0,1-.47-.77.82.82,0,0,1,.34-.65A1,1,0,0,1,220.53,94.51Zm.93-1.33a.83.83,0,0,1-.09-.36c0-.33.38-.49.6-.49s.36,0,.9,1a4.87,4.87,0,0,1,.7,1.54c0,.38-.41.53-.59.53a.56.56,0,0,1-.51-.35c-.14-.27-.32-.66-.47-.91S221.54,93.3,221.46,93.18Zm2.13-.42a1,1,0,0,1-.07-.34c0-.29.32-.48.59-.48s.4.14.74.68a6.15,6.15,0,0,1,.83,1.78.57.57,0,0,1-.58.52c-.34,0-.47-.27-.56-.46a8.73,8.73,0,0,0-.41-.8C224,93.52,223.66,92.89,223.59,92.76Z"/><path class="cls-3" d="M230,98.13a.81.81,0,0,1,.14.54,26.45,26.45,0,0,1-1.3,6.82c-.39,1.1-.57,1.44-1.17,1.44a1.14,1.14,0,0,1-1.17-1,2.43,2.43,0,0,1,.22-.81,19,19,0,0,0,1.44-6.3c0-.74.22-1,1.06-1A1.15,1.15,0,0,1,230,98.13ZM238,96.45a2.25,2.25,0,0,1-.77-.23,25.08,25.08,0,0,0-5.8-1.85c-.32-.08-.86-.18-.86-.89a.93.93,0,0,1,.91-1,26.69,26.69,0,0,1,5.95,1.63c1.18.47,1.45.65,1.45,1.19S238.64,96.45,238,96.45Zm-4.63,9.76c0,.62.38.67.54.71h2.25c1.28,0,1.37,0,1.59-2.19.07-.78.13-1.28.94-1.28a.9.9,0,0,1,1,1c0,.15-.14,2.63-.75,3.43s-1.51.93-4.4.93c-2.12,0-3.13,0-3.13-2V97.57c0-.32,0-.93,1-.93s1,.54,1,.93Zm8.39-6.62a26.23,26.23,0,0,1,1.66,6.43c0,.91-1,.93-1.13.93-.78,0-.89-.54-1-1a28,28,0,0,0-2.05-7.1,2.26,2.26,0,0,1-.18-.7c0-.48.45-.84,1.1-.84S240.94,97.37,241.8,99.59Z"/><path class="cls-3" d="M249.67,93.77c.07-.38.2-1,1-1,.29,0,1.1,0,1.1.81a15.3,15.3,0,0,1-.54,2.5l1,0c1.37,0,2.52.15,3.42,1.59a6.45,6.45,0,0,1,.77,3.4c0,5.85-1.33,7.58-4,7.58a6.76,6.76,0,0,1-3-.75A1,1,0,0,1,249,107c0-.45.28-1,.81-1,.23,0,.34,0,1.2.41a4.25,4.25,0,0,0,1.42.27c1,0,1.39-.39,1.7-1.62a19.64,19.64,0,0,0,.39-4.14c0-2.25-.39-3.08-2.63-3.08-.37,0-.86,0-1.09,0a62.7,62.7,0,0,1-3.35,9.36c-.44.94-.72,1.12-1.17,1.12a1.11,1.11,0,0,1-1.14-1,2.18,2.18,0,0,1,.42-1.08A39.7,39.7,0,0,0,248.68,98c-.31,0-1.19.07-1.86.16-.36,0-.68.08-.81.08a1,1,0,0,1-.2-1.91c.35-.06.72-.07,3.35-.22C249.49,94.71,249.51,94.62,249.67,93.77Zm7.15.38c.88,0,2.53,1.31,3.43,3.55a13.75,13.75,0,0,1,.81,4.46,1,1,0,0,1-1.11,1.16c-.87,0-.94-.6-1-1.12a12,12,0,0,0-.92-4.39,5.1,5.1,0,0,0-1.69-2.08,1,1,0,0,1-.44-.75.85.85,0,0,1,.35-.67A.87.87,0,0,1,256.82,94.15Z"/><path class="cls-3" d="M272.76,98.51c3,0,5.48,1.35,5.48,4.35,0,4.9-4.79,5.48-7.87,5.48a18.92,18.92,0,0,1-4.41-.47.89.89,0,0,1-.61-.9,1,1,0,0,1,.17-.61.87.87,0,0,1,.74-.31,4.72,4.72,0,0,1,.71.11,17.83,17.83,0,0,0,3.29.31c2.38,0,4.21-.42,5.22-1.55a3.19,3.19,0,0,0,.63-2,2.37,2.37,0,0,0-.84-1.86,4.68,4.68,0,0,0-2.8-.77,8.42,8.42,0,0,0-5.38,1.82c-.14.11-.77.72-.92.81a1.59,1.59,0,0,1-.72.2c-.77,0-1.1-.49-1.1-1.48,0-.77.18-3.89.31-4.84.07-.61.18-1.12,1-1.12.68,0,1,.25,1,.83,0,0-.19,1.87-.23,2.11-.07.66-.13,1.33-.14,2A11,11,0,0,1,272.76,98.51Zm2.79-3a1.12,1.12,0,0,1-.77.18,46.57,46.57,0,0,1-6.1-.56c-2.13-.32-2.72-.41-2.72-1.22a.9.9,0,0,1,.86-1,10.21,10.21,0,0,1,1.66.29,43.15,43.15,0,0,0,6,.55c1.28.06,1.44.36,1.44,1.07A.92.92,0,0,1,275.55,95.5Z"/><path class="cls-3" d="M289.86,102h6.56c.28,0,.91,0,.91.83,0,.63-.23.92-.91.92h-5.24a16.42,16.42,0,0,0,5.4,3.06c.34.14.63.27.63.72s-.34,1.09-.9,1.09-4-1.54-6.45-4.16v3.86c0,.34-.05.92-.86.92s-1-.24-1-.92v-3.86c-2.31,2.51-5.73,4.16-6.49,4.16a1,1,0,0,1-.88-1c0-.54.4-.7.74-.83a15.14,15.14,0,0,0,5.31-3h-5.29a.79.79,0,0,1-.92-.83c0-.69.31-.92.92-.92H288V101h-.76c-1.49,0-1.85-.38-1.85-1.86V95.3c0-1.15.14-1.85,1.63-1.85h.6c.23-.94.39-1.26,1.19-1.26.37,0,1,.07,1,.54a2.92,2.92,0,0,1-.22.72h1.1c1.48,0,1.85.36,1.85,1.85v3.8c0,1.46-.34,1.86-1.85,1.86h-.85Zm-6-2.09a8.84,8.84,0,0,1-2.52,1.15c-.56,0-.83-.63-.83-1,0-.54.27-.67,1.3-1.16.43-.19,1.4-.73,1.89-1a1.57,1.57,0,0,1,.7-.25c.7,0,.81.78.81,1C285.2,99,285.2,99.14,283.85,99.93ZM283.58,94c1.19.9,1.31,1,1.31,1.39a1,1,0,0,1-.93,1c-.27,0-.4-.09-1.57-1-.18-.14-1-.72-1.19-.86a.76.76,0,0,1-.25-.54,1,1,0,0,1,.9-1A4.75,4.75,0,0,1,283.58,94Zm7.2,2.4v-1a.44.44,0,0,0-.5-.5h-2.6a.44.44,0,0,0-.5.5v1Zm-3.6,1.33v1.15c0,.34.14.52.5.52h2.6c.34,0,.5-.18.5-.52V97.77Zm7.69.29a18.81,18.81,0,0,1,2.18,1.49.76.76,0,0,1,.28.61,1,1,0,0,1-.88,1c-.34,0-.45-.07-1.42-.75-.25-.18-1.42-.94-1.66-1.08a.9.9,0,0,1-.55-.8,1,1,0,0,1,.84-1C293.88,97.55,294.09,97.59,294.87,98.06Zm.9-2.52a9.66,9.66,0,0,1-1.23,1,.77.77,0,0,1-.45.13,1,1,0,0,1-.93-1c0-.38.23-.58.79-1,.23-.2,1.21-1.13,1.4-1.29a1,1,0,0,1,.69-.31,1,1,0,0,1,.9.92C296.94,94.24,296.89,94.47,295.77,95.54Z"/><path class="cls-3" d="M303.16,94c0,.51-.1,2.67-.12,3.12,0,1.19-.13,3.83-.13,4.86,0,2.43,0,4.64,3.69,4.64,4.07,0,5-2.16,5.57-3.92.09-.31.34-1.73.48-2a.92.92,0,0,1,.83-.4c.32,0,1.17.07,1.17.94a9.4,9.4,0,0,1-1.46,4.28c-1.44,2.25-3.89,3-6.52,3s-4.17-.7-5.15-2.23c-.68-1.08-.7-2.52-.7-4.27,0-1.24.11-6.64.13-7.76,0-.92.14-1.42,1.15-1.42A1,1,0,0,1,303.16,94Z"/><path class="cls-3" d="M319.89,107.49c-1.43,0-2.87-1.2-2.87-3.92a7.6,7.6,0,0,1,2.4-5.53,21.51,21.51,0,0,1-.78-3.57.9.9,0,0,1,1.05-.9.74.74,0,0,1,.81.69c.11.41.43,2.25.5,2.61a10.53,10.53,0,0,1,4.29-1.26c.07-.34.37-1.91.45-2.22a.83.83,0,0,1,.93-.77c.54,0,1.07.25,1.07.95a19.17,19.17,0,0,1-.47,2.13,8.82,8.82,0,0,1,2.61.77A5.65,5.65,0,0,1,333,101.8a6.24,6.24,0,0,1-2.51,5.26,9.53,9.53,0,0,1-5,1.4,1,1,0,0,1-1.1-1c0-.72.32-.76,1.31-.87a6.75,6.75,0,0,0,3.61-1.06,4.58,4.58,0,0,0,1.72-3.76c0-3.78-3.15-4.22-4.19-4.34a34.1,34.1,0,0,1-2.47,6.23c.67.67.79.81.79,1.13a1.11,1.11,0,0,1-.95,1,1.56,1.56,0,0,1-.95-.5C322.57,106.18,321.36,107.49,319.89,107.49Zm.14-7.56a6,6,0,0,0-1.21,3.65c0,1.21.49,2.09,1.23,2.09.59,0,1.17-.5,2-1.71A19.11,19.11,0,0,1,320,99.93Zm3.11,2.27a24.76,24.76,0,0,0,1.73-4.79,7.16,7.16,0,0,0-3.4,1.19A15.86,15.86,0,0,0,323.14,102.2Z"/><path class="cls-3" d="M344.85,98.22c3.77,0,5.4,2.34,5.4,4.91a5,5,0,0,1-3.36,4.88,10.16,10.16,0,0,1-3.84.63c-3.53,0-5-1.27-5-3,0-2.11,2-3,3.73-3a4.27,4.27,0,0,1,2.63.81,2.91,2.91,0,0,1,.88,2.23,2.18,2.18,0,0,1-.2,1,3.37,3.37,0,0,0,3.08-3.42c0-2.6-2-3.37-4.11-3.37a9.33,9.33,0,0,0-6.26,2.72c-1.14,1-1.19,1.08-1.57,1.08a1.1,1.1,0,0,1-1.06-1.06c0-.42.05-.49,1.6-1.66,1.86-1.42,6.46-4.88,7.64-6-1.1,0-5.57.3-6.49.3a.89.89,0,0,1-1-1c0-1,.54-1,1.89-1,.34,0,4.19,0,4.71-.07.87,0,2-.09,2.56-.09s1.5,0,1.5,1.08c0,.7-.27.9-1.32,1.62-2.59,1.82-2.88,2-3.87,2.84A5.87,5.87,0,0,1,344.85,98.22Zm-1.24,7.71c0-1.43-1.08-1.66-1.91-1.66s-1.87.49-1.87,1.35,1.42,1.39,2.68,1.39a3.67,3.67,0,0,0,.85-.08A2,2,0,0,0,343.61,105.93Z"/><path class="cls-3" d="M362.12,101.69a16.58,16.58,0,0,1,6.28,3.53,1.21,1.21,0,0,1-.7,2.15c-.45,0-.62-.18-1.59-1.16a12.38,12.38,0,0,0-4-2.5,8.35,8.35,0,0,1-.27,2.9c-.52,1.55-2.24,1.93-3.82,1.93-2.2,0-4.81-.87-4.81-3.62s2.47-3.75,5.17-3.75c.74,0,1.35.06,1.67.09l-.17-7.47c0-.5.12-1.08,1.06-1.08s1.06.5,1.06,1.08l0,2c.68,0,1.92,0,3.76-.07.43,0,1.14-.07,1.57-.07a.85.85,0,0,1,.93,1,.89.89,0,0,1-.54.94c-.41.12-4.12.2-5.7.2ZM358.35,103c-1.08,0-3.13.29-3.13,2,0,1.31,1.33,1.78,2.65,1.78.59,0,1.69-.07,2-.85.22-.5.2-.9.18-2.7A6.81,6.81,0,0,0,358.35,103Z"/><path class="cls-3" d="M383.59,106.93a13.71,13.71,0,0,1-7.54,1.79c-.29,0-1.26,0-1.26-1s.61-.92,1.62-.93a11.45,11.45,0,0,0,5.2-1.1,3.88,3.88,0,0,0,2.25-3.55,2.88,2.88,0,0,0-1.12-2.41A4.94,4.94,0,0,0,380.1,99a14.17,14.17,0,0,0-6.34,1.85c-.79.44-1.06.6-1.46.6a1.08,1.08,0,0,1-1-1.14c0-.55.2-.82,2.13-1.58a36.4,36.4,0,0,1,4.12-1.24,11.1,11.1,0,0,1,2.63-.31c2.86,0,4,.94,4.55,1.53A4.8,4.8,0,0,1,386,102,5.8,5.8,0,0,1,383.59,106.93Zm-9-14.24c.39,0,2.07.4,2.41.45,1.6.24,3.78.43,5.31.52.83.06,1.57.09,1.57,1a1,1,0,0,1-.35.79,1,1,0,0,1-.81.22,59.65,59.65,0,0,1-7.86-1c-.53-.11-1.28-.26-1.12-1.19A.88.88,0,0,1,374.61,92.69Z"/><path class="cls-3" d="M392.52,93.86c0,.31-.26,1.66-.29,2a49,49,0,0,0-.42,6.32,30.07,30.07,0,0,0,.27,4.16c0,.28.13,1,.13,1.2,0,.49-.2,1-1.06,1a.89.89,0,0,1-1-.73,32,32,0,0,1-.37-5.78,44.67,44.67,0,0,1,.7-8.34c.2-.59.63-.59,1.13-.59A.84.84,0,0,1,392.52,93.86Zm11.09,13.52a23.28,23.28,0,0,1-3.71.29c-2,0-5.8-.09-5.8-3.4,0-.88.43-2.81,1.64-2.81.52,0,1.1.32,1.1.83,0,.23,0,.25-.36.92a2.12,2.12,0,0,0-.31,1c0,1.31,1.59,1.49,3.31,1.49a21.82,21.82,0,0,0,2.43-.16c.27,0,1.43-.25,1.66-.25a.89.89,0,0,1,1,1A1,1,0,0,1,403.61,107.38Zm-.53-11-1.71,0c-1.74,0-3.74,0-5.11.14l-.47,0a.89.89,0,0,1-1-1,.85.85,0,0,1,.8-1c.34-.06,3-.2,5.69-.2a15.7,15.7,0,0,1,2.32.11c.27.07.56.32.56.92C404.15,96.26,403.5,96.35,403.08,96.35Z"/><path class="cls-3" d="M411.63,95.05c.88,0,1.73.25,1.73,1.33a6.84,6.84,0,0,1-1.75,3.5,12.35,12.35,0,0,0,1.3,1.38c.59.56.79.76.79,1.17a.85.85,0,0,1-.83.87c-.28,0-.43-.11-.77-.47a12.83,12.83,0,0,1-1-1.12v6.63c0,.72-.33.92-1,.92a.8.8,0,0,1-.88-.92v-6c-.51.45-1.39,1.2-1.89,1.2a1.06,1.06,0,0,1-1-1.06c0-.52.26-.68,1.43-1.47a9.32,9.32,0,0,0,3.44-3.93c0-.3-.33-.3-.49-.3h-3.24c-.42,0-.94-.09-.94-.89a.81.81,0,0,1,.94-.88h1.75V93.16c0-.68.28-.94,1-.94a.81.81,0,0,1,.9.94v1.89Zm10.84,2.63a.82.82,0,0,1,.94.9c0,.77-.42,1-.94,1H421v8.79a.83.83,0,0,1-.9,1c-.72,0-1-.28-1-1V99.53h-2.7v.8A17.57,17.57,0,0,1,415,106.9a10,10,0,0,1-1.09,1.87.92.92,0,0,1-.65.25,1.06,1.06,0,0,1-1.1-1,1.41,1.41,0,0,1,.27-.76,12.07,12.07,0,0,0,1.6-3.42,17.76,17.76,0,0,0,.47-3.83V95.19c0-1.81,1-1.9,2-2,.79-.09,2.12-.22,3.54-.51.31,0,1.79-.41,2-.41a1,1,0,0,1,.86,1c0,.68-.29.81-2.38,1.2-1,.18-2.35.34-3.45.43-.56.06-.63.33-.63.83v1.93Z"/><path class="cls-3" d="M429.38,106.05c.14,0,.67.06.85.07a10.63,10.63,0,0,0,5.07-.61,3.44,3.44,0,0,0,2.09-3.37c0-2.5-1.67-3.34-3.8-3.34a18.9,18.9,0,0,0-5.83,1.29,1.69,1.69,0,0,1-.67.15,1,1,0,0,1-.92-1c0-.7.42-.88,1.14-1.1A22.81,22.81,0,0,1,433.9,97c3.53,0,5.47,2,5.47,5.08a5.4,5.4,0,0,1-2.66,4.88,11.66,11.66,0,0,1-5.48,1.1c-2.3,0-2.82-.23-2.82-1C428.41,106.65,428.48,106.05,429.38,106.05Z"/><path class="cls-3" d="M446.93,96.06l-2.9.2c-.27,0-1,0-1-1.07,0-.64.25-1,1.08-1s11.16-.45,13.09-.45c1,0,1.69,0,1.69.94s-.67,1.08-1.71,1.08a7.6,7.6,0,0,0-4.72,1.58c-.81.52-3.6,2.52-3.6,5.46,0,2.52,1.93,3.49,5.82,3.49a9,9,0,0,1,1.67,0,.83.83,0,0,1,.76.9c0,1.17-1,1.17-1.8,1.17a16,16,0,0,1-5.1-.74,4.62,4.62,0,0,1-3.44-4.68c0-1.26.29-3.12,2.59-5.31a11.46,11.46,0,0,1,2.62-1.9C450.12,95.84,449.81,95.86,446.93,96.06Z"/><path class="cls-3" d="M463.58,94.35c0,.21-.09,1.13-.11,1.31-.07.87-.2,2.29-.2,3.69,0,.6,0,4.23,1,5.86a1.53,1.53,0,0,0,1.22.72c1.08,0,1.75-1.23,2.2-2.61.25-.82.36-1.1,1-1.1a1,1,0,0,1,1.08.91,5.8,5.8,0,0,1-.86,2.42c-.54,1-1.55,2.63-3.48,2.63-4.08,0-4.08-7.08-4.08-8.92a44.28,44.28,0,0,1,.28-5.16c.18-.67.69-.69,1.12-.69A.84.84,0,0,1,463.58,94.35Zm11.18,11.47c0-.4,0-2.16,0-2.5-.07-2.42-.41-5.32-1.76-6.38a2.68,2.68,0,0,0-1.46-.47c-.51,0-1-.12-1-1a1,1,0,0,1,1.1-1,4.76,4.76,0,0,1,3.91,2.26,12.67,12.67,0,0,1,1.22,4.62,34.5,34.5,0,0,1,.18,3.89c0,.87,0,1.66-1.06,1.66S474.76,106.11,474.76,105.82Z"/><path class="cls-3" d="M488.39,98.45l5-.14a.8.8,0,0,1,.92.86c0,.83-.54.85-1.37.87l-4.5.12,0,2.4a18.45,18.45,0,0,1,5.18,2.93c.83.67.83,1,.83,1.19a1.13,1.13,0,0,1-1,1.14c-.44,0-.71-.26-1.25-.76a15.41,15.41,0,0,0-2.36-1.76,12.59,12.59,0,0,0-1.36-.74c-.06,1.74-.15,4-3.93,4-2.54,0-5-1-5-3.27,0-2,1.8-3.33,4.92-3.33a11,11,0,0,1,2,.16l0-1.89c-1.46,0-3.78,0-5.24,0-1.08,0-1.62,0-1.62-.88a.81.81,0,0,1,.94-.85l5.89,0,0-1.91c-.87,0-4.59.05-5.37.05-1,0-1.6,0-1.6-.88s.65-.86,1.06-.86h1l4.88,0v-1.3c0-.68.41-.91,1-.91s1,.25,1,.91l0,1.25,4.21-.11,1,0a.81.81,0,0,1,.93.87.8.8,0,0,1-.93.86l-5.17.16Zm-3.93,5.08c-.74,0-3,.09-3,1.69,0,1.12,1.32,1.62,2.83,1.62s2-.43,2.14-1.36a8.71,8.71,0,0,0,0-1.66A6.13,6.13,0,0,0,484.46,103.53Z"/><path class="cls-3" d="M508.87,100.31a6.25,6.25,0,0,1,.49,2.48c0,3.86-2.7,5.24-5.39,5.62-1.24.16-2.34.22-2.61.22s-1.31,0-1.31-1c0-.79.5-.81,1.8-.83,4.32,0,5.17-1.69,5.56-3.42-.32.49-1,1.55-3.29,1.55-2.79,0-4.4-1.58-4.4-3.53s1.57-3.58,4.41-3.58a5.11,5.11,0,0,1,2.8.65l0-1.88c-2.95.06-4.45.09-6.88.09h-2.27a.8.8,0,0,1-.74-.91c0-.91.62-.91,1.48-.91,4.63,0,5.13,0,8.37-.06V93.65a1,1,0,1,1,2,0v1.1l3-.09c.36,0,1,0,1,.91s-.56.9-1.55.92c-.39,0-2.14.06-2.5.06Zm-2.65,2.45a1.9,1.9,0,0,0,.72-1.52c0-1.56-1.6-1.9-2.5-1.9-1.24,0-2.75.59-2.75,2s1.53,1.93,2.53,1.93A3.53,3.53,0,0,0,506.22,102.76Z"/><path class="cls-3" d="M521.25,105.51a3,3,0,1,1-3-3A3,3,0,0,1,521.25,105.51Zm-4.75,0a1.73,1.73,0,1,0,1.73-1.73A1.74,1.74,0,0,0,516.5,105.51Z"/></g></g></svg>