<svg xmlns="http://www.w3.org/2000/svg" viewBox="0 0 246.56 89.89"><defs><style>.cls-1{fill:#211916;}.cls-2{fill:#333;}</style></defs><g id="レイヤー_2" data-name="レイヤー 2"><g id="レイヤー_1-2" data-name="レイヤー 1"><path class="cls-1" d="M9.52,40.4c-.08,2.8,0,12.48,0,14.32,0,2-.4,2.4-2.4,2.4H2.32c-1.76,0-2.32-.4-2.32-1.6s.48-9.84.56-15.6L1,16C1,12,1,4.48,1,2.88c0-2,.32-2.4,2.32-2.4H6C8,.48,8.56.8,9.84,2.4c2.24,3,4.56,6,6.88,8.88L27.6,25c.64.8,1,1.2,1.52,1.2s.88-.4,1.52-1.2L41.28,11.52c2.32-2.88,4.72-6,7-9.12C49.6.8,50.16.48,52.16.48H54.8c2,0,2.4.4,2.4,2.4,0,1.2-.08,7.44,0,13.12l.4,23.92c.08,4.24.48,13.6.48,14.8,0,2.16-.24,2.4-2.24,2.4H51c-2,0-2.4-.4-2.4-2.4,0-2.32.16-9.92,0-14.24l-.4-20.56c0-.8-.24-1.28-.56-1.28s-.64.24-1,.72l-16,19.76a2.17,2.17,0,0,1-1.68,1,2.12,2.12,0,0,1-1.6-1L11.44,19.36c-.4-.48-.72-.72-1-.72s-.56.48-.56,1.28Z"/><path class="cls-1" d="M123.6,28.08c0,18.8-13.36,29.52-28.72,29.52C77.52,57.6,67.6,44.16,67.6,29.2,67.6,11.52,79.52,0,96.16,0,113.6,0,123.6,13.12,123.6,28.08Zm-46.4,1.2c0,10.8,6.56,19.52,18,19.52,10.4,0,18.8-7.6,18.8-20.24C114,17.84,107.36,9.2,95.92,9.2S77.2,17.76,77.2,29.28Z"/><path class="cls-1" d="M142.72,41.12c0,4.64.24,13.44.24,14,0,1.68-.48,2-2.32,2h-4.8c-1.84,0-2.32-.32-2.32-2,0-.56.24-9.36.24-14V15.68c0-4.48-.24-12.64-.24-13.2,0-1.68.48-2,2.32-2h2.64c2,0,2.56.32,3.84,1.92,2.48,3.28,5,6.4,7.6,9.52l20,25q.6.72,1,.72c.4,0,.56-.48.56-1.28V16.48c0-4.64-.24-13.44-.24-14,0-1.68.48-2,2.32-2h4.8c1.84,0,2.32.32,2.32,2,0,.56-.24,9.36-.24,14V41.92c0,4.4.24,12.64.24,13.2,0,1.68-.48,2-2.32,2h-1.6a3.77,3.77,0,0,1-3.84-1.92c-2.4-3-4.72-5.92-7.36-9.12L144.24,19.84q-.6-.72-1-.72c-.4,0-.56.48-.56,1.28Z"/><path class="cls-1" d="M246.56,28.08c0,18.8-13.36,29.52-28.72,29.52-17.36,0-27.28-13.44-27.28-28.4,0-17.68,11.92-29.2,28.56-29.2C236.56,0,246.56,13.12,246.56,28.08Zm-46.4,1.2c0,10.8,6.56,19.52,18,19.52,10.4,0,18.8-7.6,18.8-20.24,0-10.72-6.64-19.36-18.08-19.36S200.16,17.76,200.16,29.28Z"/><path class="cls-2" d="M60.19,86.07c0-1.35-.75-2-2.44-2.66L56.83,83c-2.53-1.08-4.12-2.43-4.12-4.88,0-2.7,2.23-4.35,5.44-4.35A7,7,0,0,1,62.2,75L62,78.09H60.29l-.6-3.47,1.66.71v1.15a4.68,4.68,0,0,0-3.24-1.43c-1.55,0-2.75.87-2.75,2.35,0,1.33.83,2.08,2.35,2.7l1,.42c3,1.25,4.18,2.55,4.18,4.8,0,2.71-2.18,4.5-5.73,4.5a9.53,9.53,0,0,1-4.73-1.21l.14-3.32h1.77l.6,3.63-1.64-.6v-1.1a6.35,6.35,0,0,0,3.83,1.34C59,88.56,60.19,87.58,60.19,86.07Z"/><path class="cls-2" d="M64.57,75.26V74.18H71.5v1.08l-3.2.34h-.57ZM68.3,88l3.2.34v1.08H64.57V88.35L67.73,88Zm-1.76-6.7c0-2.37,0-4.76-.07-7.13h3.12c-.07,2.32-.07,4.71-.07,7.13v1c0,2.37,0,4.77.07,7.13H66.47c.07-2.32.07-4.71.07-7.12Z"/><path class="cls-2" d="M73.18,88.35,75.61,88h.56l2.81.34v1.08h-5.8ZM74.5,74.94l1.37.61-2.62-.28V74.18h4.34l8.88,12.21v3.15H85.12Zm.63-.76,1.32,1.09V89.43H75.13Zm7.5,0h5.8v1.08l-2.32.34h-.55l-2.93-.34Zm2.52,0h1.32V89.54l-1.32-1.32Z"/><path class="cls-2" d="M102.08,87.2v1.22l-1.48.33.67-3.5h1.58l-.09,3.43A9.72,9.72,0,0,1,98,89.82c-4.53,0-7.88-3-7.88-8a7.62,7.62,0,0,1,8-8,8.94,8.94,0,0,1,4.47,1.12l.1,3.46h-1.58l-.69-3.53,1.49.34v1.34A4.9,4.9,0,0,0,98.5,75c-2.77,0-5.1,2.2-5.1,6.8s2.16,6.77,5,6.77A6,6,0,0,0,102.08,87.2Z"/><path class="cls-2" d="M104.52,75.26V74.18H108V75.6h-.3ZM108,88v1.42h-3.46V88.35l3.16-.34Zm-1.49-6.7c0-2.37,0-4.76-.07-7.13h3.12c-.07,2.32-.07,4.71-.07,7.13v.81c0,2.55,0,4.95.07,7.31h-3.12c.07-2.32.07-4.71.07-7.12ZM114,74.18l1.36,1.23H108V74.18h8.13l.16,4h-1.61Zm-.85,8H108V81h5.13Zm3.62,3.2-.16,4H108V88.22h7.8l-1.36,1.21.7-4Zm-4.34-4.1.35-2.32h1.18v5.2h-1.18l-.35-2.43Z"/><path class="cls-2" d="M138.26,88.5v.93H129.4V88.5l3.13-.62h2.69Zm-3.24-14,.33.23-.1,3.28v6.58c0,1.58,0,3.21.07,4.81h-2.93c.05-1.6.07-3.23.07-4.81V76.68l-2.65.23V75.78Z"/><path class="cls-2" d="M144.59,82.13l.84.34c-1.59,1.11-2.32,2-2.32,3.52a2.52,2.52,0,0,0,2.56,2.66A2.29,2.29,0,0,0,148,86.23c0-1.32-.82-2.2-3.48-3.42-2.37-1.07-3.49-2.55-3.49-4.4,0-2.46,2-4,4.68-4S150,75.92,150,77.87c0,1.25-.83,2.64-3.57,3.84l-.75-.35c1.57-1.33,2-2.19,2-3.51a2.14,2.14,0,1,0-4.27-.22c0,1.17.61,2.24,3.31,3.46s3.84,2.49,3.84,4.62c0,2.43-2.06,4.05-5.12,4.05s-4.83-1.32-4.83-3.61C140.67,84.35,142.06,83.11,144.59,82.13Z"/><path class="cls-2" d="M157.75,82.26a3.22,3.22,0,0,0,2.59-1.21l.42.27a4.18,4.18,0,0,1-4,2.38,4.24,4.24,0,0,1-4.51-4.45c0-3,2.24-4.82,5.17-4.82,3.32,0,5.21,2.32,5.21,6.08,0,4.57-3,8.23-8.9,9.38l-.23-1c4.63-1.54,6.27-3.91,6.27-8.32,0-3.69-.95-5-2.38-5-1.27,0-2.34,1.08-2.34,3.45S156.21,82.26,157.75,82.26Z"/><path class="cls-2" d="M174.69,82.11c0,5.51-2.48,7.65-5.11,7.65s-5.11-2.14-5.11-7.65,2.46-7.68,5.11-7.68S174.69,76.59,174.69,82.11Zm-5.11,6.53c1.24,0,2.34-1.31,2.34-6.53s-1.1-6.57-2.34-6.57-2.34,1.28-2.34,6.57S168.31,88.64,169.58,88.64Z"/></g></g></svg>