<svg xmlns="http://www.w3.org/2000/svg" viewBox="0 0 1100 1300"><defs><style>.cls-1{fill:#fff;opacity:0.6;}.cls-2,.cls-3,.cls-4{fill:none;stroke-miterlimit:10;}.cls-2,.cls-4{stroke:#272828;}.cls-2,.cls-3{stroke-width:3.04px;}.cls-3{stroke:#252525;}.cls-4{stroke-width:2.03px;}.cls-5{fill:#363332;}</style></defs><g id="レイヤー_2" data-name="レイヤー 2"><g id="レイヤー_6" data-name="レイヤー 6"><rect class="cls-1" width="1100" height="1300"/><circle class="cls-2" cx="550" cy="406.14" r="237.97"/><circle class="cls-2" cx="550" cy="406.14" r="217.8"/><circle class="cls-2" cx="550" cy="406.14" r="162.36"/><polyline class="cls-3" points="578.31 236.89 560.23 202.23 539.13 202.3 539.13 236.89"/><polyline class="cls-3" points="650.95 261.29 635.28 251.49 629.67 212.54 612.51 239.96"/><polyline class="cls-3" points="496.77 241.47 480.81 210.71 454.15 224.53 474.97 234.56 470.11 255.3"/><circle class="cls-3" cx="408.51" cy="279.67" r="16.17"/><line class="cls-3" x1="406.2" y1="281.98" x2="427" y2="263.49"/><line class="cls-3" x1="369.51" y1="352.61" x2="379.15" y2="321.73"/><polyline class="cls-3" points="361.5 316.23 364.52 334.11 391.98 342.68"/><polyline class="cls-3" points="343.48 383.36 354.44 393.29 346.81 404.4 379.09 406.39"/><polyline class="cls-3" points="387.7 461.79 366.52 459.47 353.26 476.93"/><line class="cls-3" x1="349.86" y1="459.66" x2="360.2" y2="466.6"/><polyline class="cls-3" points="710.69 270.55 693.13 288.1 678.43 273.39 669.84 281.98"/><path class="cls-3" d="M739.29,326.9c-9.74-16.38-31.87-9.73-31,9.3"/><line class="cls-3" x1="721.81" y1="324.91" x2="725.79" y2="338.19"/><line class="cls-3" x1="736.34" y1="371.45" x2="735.7" y2="403.8"/><polyline class="cls-3" points="754.18 404.16 746.29 387.83 717.54 387.26"/><polyline class="cls-3" points="532.57 581.57 553.85 582.35 537.36 596.84 536.16 616.09"/><line class="cls-3" x1="481.15" y1="563.86" x2="464.29" y2="594.66"/><line class="cls-3" x1="472.3" y1="559.01" x2="455.44" y2="589.82"/><line class="cls-3" x1="446.59" y1="584.98" x2="455.38" y2="568.92"/><path class="cls-3" d="M418.48,519.2c-16.91-8.77-32.21,8.56-21.41,24.25"/><polyline class="cls-3" points="403.14 527.23 413.16 536.08 401.64 549.13"/><polyline class="cls-3" points="713.47 533.02 686.9 510.76 667.61 533.79 690.68 535.03 694.18 556.05"/><circle class="cls-3" cx="726.7" cy="466.5" r="16.17"/><line class="cls-3" x1="724.39" y1="468.81" x2="745.19" y2="450.33"/><circle class="cls-3" cx="625.05" cy="580.82" r="16.17"/><polyline class="cls-3" points="608.87 580.82 625.05 580.82 625.05 596.99"/><path class="cls-4" d="M549.19,244.76l47.52,96.3L703,356.5l-76.9,75,18.15,105.84-95-50-94.13,49.48a.52.52,0,0,1-.75-.54l18-104.81-76.51-74.58a.27.27,0,0,1,.15-.46l105.73-15.37Z"/><path class="cls-4" d="M454,275.09l94.63,50.35,95.3-49.5L625.22,381.69,701.74,457,595.39,472l-48,96.06-47.05-96.54L395.9,455.77a.88.88,0,0,1-.48-1.5l76-73.34L453.82,275.2A.1.1,0,0,1,454,275.09Z"/><circle class="cls-4" cx="549.17" cy="406.12" r="78.08"/><path class="cls-5" d="M501.27,412.26c0,1.19,0,5.29,0,6.08s-.17,1-1,1h-2c-.74,0-1-.17-1-.68s.2-4.17.24-6.61l.17-10.15c0-1.7,0-4.89,0-5.57,0-.85.14-1,1-1h1.12a1.65,1.65,0,0,1,1.63.81c.95,1.29,1.93,2.55,2.91,3.77l4.62,5.84c.27.34.44.51.65.51s.37-.17.64-.51l4.52-5.74c1-1.22,2-2.54,3-3.87a1.64,1.64,0,0,1,1.63-.81h1.12c.85,0,1,.17,1,1,0,.51,0,3.16,0,5.57l.17,10.15c0,1.79.2,5.77.2,6.28,0,.91-.1,1-1,1h-2.07c-.85,0-1-.17-1-1s.07-4.21,0-6l-.16-8.72c0-.34-.11-.54-.24-.54s-.27.1-.44.3l-6.79,8.39a1,1,0,0,1-.72.4.88.88,0,0,1-.67-.4l-6.73-8.39c-.17-.2-.3-.3-.44-.3s-.23.2-.23.54Z"/><path class="cls-5" d="M549.68,407c0,8-5.67,12.53-12.19,12.53-7.37,0-11.58-5.71-11.58-12.05,0-7.51,5.06-12.39,12.12-12.39C545.43,395.12,549.68,400.68,549.68,407Zm-19.69.51c0,4.58,2.78,8.28,7.63,8.28,4.42,0,8-3.22,8-8.58,0-4.55-2.82-8.22-7.67-8.22S530,402.65,530,407.54Z"/><path class="cls-5" d="M557.79,412.56c0,2,.1,5.71.1,5.95,0,.71-.2.84-1,.84h-2c-.78,0-1-.13-1-.84,0-.24.11-4,.11-5.95V401.77c0-1.9-.11-5.36-.11-5.6,0-.71.21-.85,1-.85H556a1.64,1.64,0,0,1,1.63.81c1,1.4,2.14,2.72,3.22,4l8.49,10.6c.17.2.3.3.41.3s.23-.2.23-.54v-8.42c0-2-.1-5.7-.1-5.94,0-.71.21-.85,1-.85h2c.78,0,1,.14,1,.85,0,.24-.1,4-.1,5.94V412.9c0,1.87.1,5.37.1,5.61,0,.71-.21.84-1,.84h-.68a1.58,1.58,0,0,1-1.62-.81c-1-1.29-2-2.51-3.13-3.87l-9-11.14c-.17-.2-.3-.3-.41-.3s-.23.2-.23.54Z"/><path class="cls-5" d="M601.85,407c0,8-5.67,12.53-12.19,12.53-7.36,0-11.57-5.71-11.57-12.05,0-7.51,5-12.39,12.11-12.39C597.61,395.12,601.85,400.68,601.85,407Zm-19.69.51c0,4.58,2.78,8.28,7.64,8.28,4.41,0,8-3.22,8-8.58,0-4.55-2.82-8.22-7.68-8.22S582.16,402.65,582.16,407.54Z"/></g></g></svg>