<svg xmlns="http://www.w3.org/2000/svg" viewBox="0 0 1100 1798.65"><defs><style>.cls-1{fill:#fff;opacity:0.6;}.cls-2,.cls-3,.cls-4{fill:none;stroke-miterlimit:10;}.cls-2,.cls-4{stroke:#272828;}.cls-2,.cls-3{stroke-width:3.04px;}.cls-3{stroke:#252525;}.cls-4{stroke-width:2.03px;}.cls-5{fill:#353432;}</style></defs><g id="レイヤー_2" data-name="レイヤー 2"><g id="レイヤー_1-2" data-name="レイヤー 1"><rect class="cls-1" width="1100" height="1798.65"/><circle class="cls-2" cx="558.09" cy="538.25" r="237.97"/><circle class="cls-2" cx="558.09" cy="538.25" r="217.8"/><circle class="cls-2" cx="558.09" cy="538.25" r="162.36"/><polyline class="cls-3" points="586.4 368.99 568.32 334.33 547.22 334.4 547.22 368.99"/><polyline class="cls-3" points="659.04 393.4 643.37 383.6 637.76 344.65 620.6 372.07"/><polyline class="cls-3" points="504.86 373.58 488.9 342.81 462.24 356.64 483.06 366.67 478.2 387.41"/><circle class="cls-3" cx="416.6" cy="411.78" r="16.17"/><line class="cls-3" x1="414.29" y1="414.09" x2="435.09" y2="395.6"/><line class="cls-3" x1="377.6" y1="484.72" x2="387.24" y2="453.84"/><polyline class="cls-3" points="369.59 448.33 372.61 466.22 400.07 474.79"/><polyline class="cls-3" points="351.57 515.46 362.53 525.4 354.9 536.5 387.19 538.5"/><polyline class="cls-3" points="395.79 593.9 374.61 591.58 361.36 609.04"/><line class="cls-3" x1="357.95" y1="591.77" x2="368.29" y2="598.7"/><polyline class="cls-3" points="718.78 402.65 701.23 420.21 686.52 405.5 677.93 414.09"/><path class="cls-3" d="M747.38,459c-9.74-16.38-31.87-9.74-31,9.3"/><line class="cls-3" x1="729.9" y1="457.02" x2="733.88" y2="470.3"/><line class="cls-3" x1="744.43" y1="503.56" x2="743.79" y2="535.9"/><polyline class="cls-3" points="762.28 536.27 754.39 519.93 725.63 519.37"/><polyline class="cls-3" points="540.66 713.67 561.94 714.46 545.45 728.95 544.25 748.2"/><line class="cls-3" x1="489.24" y1="695.96" x2="472.38" y2="726.77"/><line class="cls-3" x1="480.39" y1="691.12" x2="463.53" y2="721.93"/><line class="cls-3" x1="454.68" y1="717.09" x2="463.47" y2="701.03"/><path class="cls-3" d="M426.57,651.31c-16.91-8.77-32.21,8.55-21.41,24.25"/><polyline class="cls-3" points="411.23 659.34 421.25 668.19 409.73 681.24"/><polyline class="cls-3" points="721.56 665.13 694.99 642.87 675.7 665.89 698.78 667.14 702.27 688.15"/><circle class="cls-3" cx="734.79" cy="598.61" r="16.17"/><line class="cls-3" x1="732.48" y1="600.92" x2="753.28" y2="582.43"/><circle class="cls-3" cx="633.14" cy="712.92" r="16.17"/><polyline class="cls-3" points="616.96 712.92 633.14 712.92 633.14 729.1"/><path class="cls-4" d="M557.28,376.87l47.53,96.3,106.27,15.44-76.9,75,18.15,105.85-95.05-50-94.13,49.49a.52.52,0,0,1-.75-.54l18-104.82L403.87,489a.28.28,0,0,1,.15-.47l105.73-15.36Z"/><path class="cls-4" d="M462.06,407.2l94.63,50.35,95.3-49.5L633.31,513.8l76.53,75.34L603.49,604.06l-48,96.06-47.05-96.54L404,587.87a.87.87,0,0,1-.48-1.49l76-73.35L461.92,407.3A.09.09,0,0,1,462.06,407.2Z"/><circle class="cls-4" cx="557.27" cy="538.22" r="78.08"/><path class="cls-5" d="M509.36,544.37c0,1.18,0,5.29,0,6.07s-.17,1-1,1h-2c-.75,0-1-.17-1-.68s.2-4.17.24-6.62l.17-10.15c0-1.69,0-4.89,0-5.56,0-.85.14-1,1-1h1.12a1.63,1.63,0,0,1,1.63.81c.95,1.29,1.93,2.55,2.92,3.77l4.61,5.84c.27.34.44.51.65.51s.37-.17.64-.51l4.52-5.74c1-1.22,2-2.54,3-3.87a1.63,1.63,0,0,1,1.63-.81h1.12c.85,0,1,.17,1,1,0,.5,0,3.15,0,5.56l.17,10.15c0,1.8.21,5.77.21,6.28,0,.92-.11,1-1,1h-2.08c-.84,0-1-.17-1-1s.06-4.21,0-6l-.17-8.72c0-.34-.11-.55-.24-.55s-.27.11-.44.31l-6.79,8.38a.93.93,0,0,1-.71.41.88.88,0,0,1-.68-.41l-6.72-8.38c-.17-.2-.31-.31-.45-.31s-.23.21-.23.55Z"/><path class="cls-5" d="M557.77,539.14c0,8-5.67,12.52-12.19,12.52-7.37,0-11.58-5.7-11.58-12,0-7.5,5.06-12.39,12.12-12.39C553.52,527.22,557.77,532.79,557.77,539.14Zm-19.69.51c0,4.58,2.78,8.28,7.64,8.28,4.41,0,8-3.22,8-8.59,0-4.55-2.81-8.21-7.67-8.21S538.08,534.76,538.08,539.65Z"/><path class="cls-5" d="M565.88,544.67c0,2,.1,5.7.1,5.94,0,.72-.2.85-1,.85h-2c-.78,0-1-.13-1-.85,0-.24.11-4,.11-5.94V533.88c0-1.9-.11-5.37-.11-5.6,0-.72.21-.85,1-.85h1.12a1.62,1.62,0,0,1,1.63.81c1,1.39,2.14,2.72,3.22,4l8.49,10.59c.17.21.31.31.41.31s.24-.21.24-.54v-8.42c0-2-.11-5.71-.11-5.94,0-.72.21-.85,1-.85h2c.79,0,1,.13,1,.85,0,.23-.1,4-.1,5.94V545c0,1.87.1,5.36.1,5.6,0,.72-.2.85-1,.85h-.67a1.6,1.6,0,0,1-1.63-.81c-1-1.29-2-2.52-3.13-3.87l-9-11.14c-.17-.2-.3-.3-.4-.3s-.24.2-.24.54Z"/><path class="cls-5" d="M609.94,539.14c0,8-5.67,12.52-12.19,12.52-7.36,0-11.57-5.7-11.57-12,0-7.5,5.06-12.39,12.12-12.39C605.7,527.22,609.94,532.79,609.94,539.14Zm-19.69.51c0,4.58,2.78,8.28,7.64,8.28,4.41,0,8-3.22,8-8.59,0-4.55-2.82-8.21-7.68-8.21S590.25,534.76,590.25,539.65Z"/></g></g></svg>