<svg xmlns="http://www.w3.org/2000/svg" viewBox="0 0 258.36 96.23"><defs><style>.cls-1{fill:#efefef;}</style></defs><g id="レイヤー_2" data-name="レイヤー 2"><g id="レイヤー_1-2" data-name="レイヤー 1"><path class="cls-1" d="M10,42.33c-.09,2.94,0,13.08,0,15,0,2.1-.42,2.51-2.52,2.51h-5C.59,59.85,0,59.44,0,58.18S.5,47.86.59,41.83L1,16.77c.08-4.2.08-12.08.08-13.75C1.09.92,1.42.5,3.52.5H6.29c2.09,0,2.68.34,4,2,2.35,3.19,4.78,6.29,7.21,9.31l11.4,14.42c.67.84,1.09,1.26,1.59,1.26s.93-.42,1.6-1.26L43.25,12.07c2.44-3,5-6.28,7.38-9.56,1.34-1.67,1.93-2,4-2h2.76c2.1,0,2.52.42,2.52,2.52,0,1.26-.09,7.79,0,13.75l.42,25.06c.08,4.44.5,14.25.5,15.51,0,2.26-.25,2.51-2.35,2.51H53.4c-2.1,0-2.52-.41-2.52-2.51,0-2.43.17-10.4,0-14.92l-.42-21.55c0-.83-.25-1.34-.58-1.34s-.67.25-1.09.76L32,41a2.26,2.26,0,0,1-1.76,1,2.22,2.22,0,0,1-1.68-1L12,20.29c-.42-.51-.76-.76-1.09-.76s-.59.51-.59,1.34Z"/><path class="cls-1" d="M129.52,29.42c0,19.7-14,30.94-30.1,30.94-18.19,0-28.58-14.09-28.58-29.76C70.84,12.07,83.33,0,100.76,0,119,0,129.52,13.75,129.52,29.42ZM80.9,30.68c0,11.32,6.87,20.46,18.86,20.46,10.89,0,19.7-8,19.7-21.21,0-11.24-7-20.29-18.95-20.29S80.9,18.61,80.9,30.68Z"/><path class="cls-1" d="M149.55,43.09c0,4.86.25,14.08.25,14.67,0,1.76-.5,2.09-2.43,2.09h-5c-1.92,0-2.43-.33-2.43-2.09,0-.59.26-9.81.26-14.67V16.43c0-4.69-.26-13.24-.26-13.83,0-1.76.51-2.1,2.43-2.1h2.77c2.1,0,2.68.34,4,2,2.6,3.44,5.29,6.71,8,10l21,26.15c.42.51.76.76,1,.76.42,0,.59-.5.59-1.34V17.27c0-4.86-.25-14.08-.25-14.67,0-1.76.5-2.1,2.43-2.1h5c1.92,0,2.43.34,2.43,2.1,0,.59-.25,9.81-.25,14.67V43.93c0,4.61.25,13.24.25,13.83,0,1.76-.51,2.09-2.43,2.09h-1.68c-2.09,0-2.77-.33-4-2-2.52-3.18-4.95-6.2-7.72-9.55l-22.29-27.5c-.42-.5-.76-.75-1-.75-.42,0-.59.5-.59,1.34Z"/><path class="cls-1" d="M258.36,29.42c0,19.7-14,30.94-30.09,30.94-18.19,0-28.59-14.09-28.59-29.76,0-18.53,12.5-30.6,29.93-30.6C247.89,0,258.36,13.75,258.36,29.42Zm-48.62,1.26c0,11.32,6.88,20.46,18.86,20.46,10.9,0,19.71-8,19.71-21.21,0-11.24-7-20.29-18.95-20.29S209.74,18.61,209.74,30.68Z"/><path class="cls-1" d="M70.55,91.93c0-1.52-.84-2.21-2.74-3l-1-.45c-2.85-1.21-4.63-2.73-4.63-5.48,0-3,2.51-4.89,6.12-4.89a8,8,0,0,1,4.56,1.34L72.63,83h-2L70,79.05l1.87.8v1.29a5.26,5.26,0,0,0-3.64-1.61c-1.74,0-3.1,1-3.1,2.65,0,1.5.94,2.33,2.64,3l1.12.47c3.36,1.4,4.69,2.87,4.69,5.39,0,3.06-2.44,5.07-6.43,5.07a10.77,10.77,0,0,1-5.33-1.36L62,91.05h2l.67,4.09-1.84-.68V93.22a7.18,7.18,0,0,0,4.31,1.51C69.24,94.73,70.55,93.63,70.55,91.93Z"/><path class="cls-1" d="M75.48,79.77V78.55h7.8v1.22l-3.6.39H79Zm4.2,14.34,3.6.39v1.21h-7.8V94.5L79,94.11Zm-2-7.54c0-2.66,0-5.35-.08-8h3.51c-.08,2.61-.08,5.31-.08,8v1.12c0,2.67,0,5.36.08,8H77.62c.08-2.61.08-5.3.08-8Z"/><path class="cls-1" d="M85.17,94.5l2.73-.39h.63l3.16.39v1.21H85.17Zm1.48-15.09,1.55.68-3-.31V78.55h4.87l10,13.74v3.54H98.6Zm.71-.86,1.49,1.23V95.71H87.36Zm8.44,0h6.52v1.22l-2.61.39h-.62l-3.29-.39Zm2.84,0h1.48V95.83l-1.48-1.48Z"/><path class="cls-1" d="M117.68,93.2v1.38L116,95l.76-3.94h1.78l-.1,3.86a11.11,11.11,0,0,1-5.33,1.28c-5.11,0-8.87-3.35-8.87-9a8.56,8.56,0,0,1,8.94-9,10,10,0,0,1,5,1.26l.11,3.88h-1.78l-.77-4,1.67.38v1.5a5.52,5.52,0,0,0-3.79-1.68c-3.13,0-5.75,2.47-5.75,7.64s2.43,7.62,5.59,7.62A6.7,6.7,0,0,0,117.68,93.2Z"/><path class="cls-1" d="M120.42,79.77V78.55h3.9v1.61H124Zm3.9,14.34v1.6h-3.9V94.5l3.56-.39Zm-1.68-7.54c0-2.66,0-5.35-.07-8h3.5c-.07,2.61-.07,5.31-.07,8v.92c0,2.87,0,5.56.07,8.22h-3.5c.07-2.61.07-5.3.07-8Zm8.41-8,1.52,1.38h-8.25V78.55h9.14l.18,4.53h-1.81Zm-1,9h-5.77V86.22h5.77Zm4.07,3.6L134,95.71h-9.66V94.35h8.77l-1.52,1.36.78-4.52Zm-4.88-4.61.39-2.61H131v5.84h-1.33l-.39-2.73Z"/><path class="cls-1" d="M158.38,94.66v1h-10v-1l3.51-.69h3ZM154.74,79l.36.26L155,82.9v7.39c0,1.79,0,3.62.08,5.42h-3.3c.05-1.8.08-3.63.08-5.42V81.37l-3,.25V80.35Z"/><path class="cls-1" d="M165.51,87.5l.94.38c-1.79,1.24-2.61,2.23-2.61,4a2.84,2.84,0,0,0,2.88,3,2.58,2.58,0,0,0,2.65-2.73c0-1.48-.91-2.47-3.91-3.84-2.67-1.21-3.93-2.88-3.93-5,0-2.77,2.3-4.48,5.27-4.48,3.13,0,4.81,1.68,4.81,3.88,0,1.4-.93,3-4,4.32l-.85-.4c1.77-1.49,2.3-2.47,2.3-3.95a2.4,2.4,0,1,0-4.8-.24c0,1.31.68,2.51,3.72,3.89,2.88,1.32,4.32,2.8,4.32,5.2,0,2.73-2.32,4.55-5.76,4.55S161.1,94.6,161.1,92C161.1,90,162.65,88.6,165.51,87.5Z"/><path class="cls-1" d="M180.31,87.65a3.59,3.59,0,0,0,2.91-1.37l.48.31a4.73,4.73,0,0,1-4.46,2.67,4.78,4.78,0,0,1-5.08-5c0-3.42,2.53-5.42,5.82-5.42,3.74,0,5.86,2.61,5.86,6.85,0,5.13-3.42,9.25-10,10.55l-.26-1.15c5.2-1.72,7-4.39,7-9.35,0-4.16-1.07-5.65-2.69-5.65-1.42,0-2.63,1.22-2.63,3.88C177.31,86.46,178.57,87.65,180.31,87.65Z"/><path class="cls-1" d="M199.36,87.48c0,6.19-2.78,8.6-5.74,8.6s-5.75-2.41-5.75-8.6,2.76-8.65,5.75-8.65S199.36,81.27,199.36,87.48Zm-5.74,7.34c1.4,0,2.63-1.47,2.63-7.34s-1.23-7.4-2.63-7.4S191,81.52,191,87.48,192.19,94.82,193.62,94.82Z"/></g></g></svg>