<svg xmlns="http://www.w3.org/2000/svg" viewBox="0 0 650.5 186.66"><defs><style>.cls-1,.cls-4,.cls-5{fill:#f2f2f2;}.cls-2{fill:none;stroke:#f2f2f2;stroke-miterlimit:10;stroke-width:3px;}.cls-3{fill:#b74b4b;}.cls-4{font-size:32px;font-family:ToppanBunkyuMinchoPr6N-Regular-83pv-RKSJ-H, Toppan Bunkyu Mincho;letter-spacing:0.1em;}.cls-5{font-size:30.93px;font-family:YuKyo-Bold-83pv-RKSJ-H, YuKyokasho;letter-spacing:0.1em;}</style></defs><g id="レイヤー_2" data-name="レイヤー 2"><g id="レイヤー_1-2" data-name="レイヤー 1"><path class="cls-1" d="M100.8,2.5l.65,2.93A9,9,0,0,0,97,6.75a6.79,6.79,0,0,0-2.55,3.36l0,0a6.55,6.55,0,0,1,4-1.22A6.18,6.18,0,0,1,103,10.56a6.37,6.37,0,0,1,1.62,4.68,6.42,6.42,0,0,1-2,4.91A7.24,7.24,0,0,1,97.52,22a6.94,6.94,0,0,1-5.23-1.94,7.9,7.9,0,0,1-1.87-5.68,12.45,12.45,0,0,1,2.78-8.5A10.21,10.21,0,0,1,100.8,2.5ZM97.52,19.21a3.39,3.39,0,0,0,2.63-1,4.24,4.24,0,0,0,.93-3,3.82,3.82,0,0,0-1-2.77,3.41,3.41,0,0,0-2.61-1,3.32,3.32,0,0,0-2.56,1A3.9,3.9,0,0,0,94,15.24a4.28,4.28,0,0,0,.92,3A3.32,3.32,0,0,0,97.52,19.21Z"/><path class="cls-1" d="M117.54,2.5l.65,2.93a9.11,9.11,0,0,0-4.5,1.32,6.79,6.79,0,0,0-2.55,3.36l0,0a6.56,6.56,0,0,1,4-1.22,6.17,6.17,0,0,1,4.61,1.64,6.33,6.33,0,0,1,1.63,4.68,6.43,6.43,0,0,1-2,4.91A7.2,7.2,0,0,1,114.26,22,6.93,6.93,0,0,1,109,20.06a7.86,7.86,0,0,1-1.87-5.68A12.4,12.4,0,0,1,110,5.88,10.17,10.17,0,0,1,117.54,2.5Zm-3.28,16.71a3.38,3.38,0,0,0,2.63-1,4.24,4.24,0,0,0,.94-3,3.86,3.86,0,0,0-1-2.77,3.44,3.44,0,0,0-2.62-1,3.32,3.32,0,0,0-2.56,1,3.9,3.9,0,0,0-1,2.76,4.24,4.24,0,0,0,.93,3A3.28,3.28,0,0,0,114.26,19.21Z"/><path class="cls-1" d="M134.28,2.5l.65,2.93a9,9,0,0,0-4.49,1.32,6.79,6.79,0,0,0-2.55,3.36l0,0a6.58,6.58,0,0,1,4-1.22,6.21,6.21,0,0,1,4.62,1.64,6.37,6.37,0,0,1,1.62,4.68,6.42,6.42,0,0,1-2,4.91A7.24,7.24,0,0,1,131,22a6.94,6.94,0,0,1-5.23-1.94,7.86,7.86,0,0,1-1.87-5.68,12.45,12.45,0,0,1,2.78-8.5A10.2,10.2,0,0,1,134.28,2.5ZM131,19.21a3.37,3.37,0,0,0,2.62-1,4.19,4.19,0,0,0,.94-3,3.86,3.86,0,0,0-.95-2.77,3.41,3.41,0,0,0-2.61-1,3.31,3.31,0,0,0-2.56,1,3.86,3.86,0,0,0-.95,2.76,4.23,4.23,0,0,0,.92,3A3.32,3.32,0,0,0,131,19.21Z"/><path class="cls-1" d="M141.28,15.57V12.82h8.39v2.75Z"/><path class="cls-1" d="M163.38,2.5,164,5.43a9.11,9.11,0,0,0-4.5,1.32A6.79,6.79,0,0,0,157,10.11l0,0a6.56,6.56,0,0,1,4-1.22,6.17,6.17,0,0,1,4.61,1.64,6.37,6.37,0,0,1,1.63,4.68,6.43,6.43,0,0,1-2,4.91A7.24,7.24,0,0,1,160.1,22a7,7,0,0,1-5.23-1.94A7.9,7.9,0,0,1,153,14.38a12.4,12.4,0,0,1,2.79-8.5A10.17,10.17,0,0,1,163.38,2.5ZM160.1,19.21a3.39,3.39,0,0,0,2.63-1,4.24,4.24,0,0,0,.93-3,3.82,3.82,0,0,0-.95-2.77,3.41,3.41,0,0,0-2.61-1,3.32,3.32,0,0,0-2.56,1,3.9,3.9,0,0,0-.95,2.76,4.28,4.28,0,0,0,.92,3A3.32,3.32,0,0,0,160.1,19.21Z"/><path class="cls-1" d="M180.12,2.5l.65,2.93a9.11,9.11,0,0,0-4.5,1.32,6.91,6.91,0,0,0-2.55,3.36l0,0a6.58,6.58,0,0,1,4-1.22,6.17,6.17,0,0,1,4.61,1.64A6.33,6.33,0,0,1,184,15.24a6.43,6.43,0,0,1-2,4.91A7.2,7.2,0,0,1,176.84,22a6.93,6.93,0,0,1-5.22-1.94,7.86,7.86,0,0,1-1.87-5.68,12.4,12.4,0,0,1,2.78-8.5A10.17,10.17,0,0,1,180.12,2.5Zm-3.28,16.71a3.38,3.38,0,0,0,2.63-1,4.24,4.24,0,0,0,.94-3,3.86,3.86,0,0,0-.95-2.77,3.44,3.44,0,0,0-2.62-1,3.34,3.34,0,0,0-2.56,1,3.9,3.9,0,0,0-.95,2.76,4.24,4.24,0,0,0,.93,3A3.28,3.28,0,0,0,176.84,19.21Z"/><path class="cls-1" d="M196.86,2.5l.65,2.93A9,9,0,0,0,193,6.75a6.79,6.79,0,0,0-2.55,3.36l0,0a6.58,6.58,0,0,1,4-1.22,6.19,6.19,0,0,1,4.62,1.64,6.37,6.37,0,0,1,1.62,4.68,6.42,6.42,0,0,1-2,4.91A7.24,7.24,0,0,1,193.59,22a6.94,6.94,0,0,1-5.23-1.94,7.86,7.86,0,0,1-1.87-5.68,12.45,12.45,0,0,1,2.78-8.5A10.2,10.2,0,0,1,196.86,2.5Zm-3.27,16.71a3.37,3.37,0,0,0,2.62-1,4.19,4.19,0,0,0,.94-3,3.86,3.86,0,0,0-1-2.77,3.41,3.41,0,0,0-2.61-1,3.31,3.31,0,0,0-2.56,1,3.86,3.86,0,0,0-.95,2.76,4.28,4.28,0,0,0,.92,3A3.32,3.32,0,0,0,193.59,19.21Z"/><path class="cls-1" d="M219.67,18.69a36.61,36.61,0,0,1-9.21,5.15L209.08,21a37.58,37.58,0,0,0,9.21-4.61h-6.74v-10h8.12V5h-10V2.31h10v-2h3.53v2h10V5h-10v1.3h8.11v10h-6.73a37.32,37.32,0,0,0,9.2,4.61l-1.37,2.88a36.43,36.43,0,0,1-9.21-5.15v5.46h-3.53Zm-4.87-8.45h4.87V8.74H214.8ZM219.67,14V12.43H214.8V14Zm8.39-3.77V8.74H223.2v1.5ZM223.2,14h4.86V12.43H223.2Z"/><path class="cls-1" d="M244,17.39a27.31,27.31,0,0,1-6.53,6.11l-2-2.39a28.26,28.26,0,0,0,6.21-5.72ZM259.32,2.31V5.1H235.76V2.31h10v-2h3.54v2ZM245.51,24c-.88,0-2.11,0-3.69-.13l-.16-3c1.44.09,2.51.13,3.23.13a1.79,1.79,0,0,0,1-.15c.11-.11.16-.45.16-1V15.11h-7.85V6.45H256.9v8.66h-7.33v4.62c0,.72,0,1.27,0,1.68a5.21,5.21,0,0,1-.21,1.15,2,2,0,0,1-.39.77,1.62,1.62,0,0,1-.73.42,4.68,4.68,0,0,1-1.09.21C246.72,24,246.19,24,245.51,24Zm-3.87-11.44h11.8V8.94h-11.8Zm9.3,5.25,2.11-2.39a48.6,48.6,0,0,1,6.6,5.93l-2.21,2.26A52.87,52.87,0,0,0,250.94,17.81Z"/><path class="cls-1" d="M283.11,10.58a9,9,0,0,1,2.15,2.89,7.93,7.93,0,0,1,.78,3.4,5.12,5.12,0,0,1-1,3.48,4,4,0,0,1-3.07,1h-1.66l-.6-2.91h.57a3.49,3.49,0,0,0,1.91-.35,1.8,1.8,0,0,0,.46-1.47c0-1.81-1-3.79-3.09-6a33.94,33.94,0,0,0,2.83-6.84h-3.12V24.08H276V4.16A29.94,29.94,0,0,1,274,7.36h1.38v2.75h-3.69c-.8.84-1.41,1.44-1.85,1.82h4.87V24.08h-3.23v-1h-4.55v1h-3.33V16.41c-.59.31-1.12.59-1.61.83l-.86-3.17a28.41,28.41,0,0,0,6.06-4h-5.59V7.36H266V5h-3.25V2.31H266V.21h3.36v2.1h3.06v1.9a23.34,23.34,0,0,0,1.75-3.07L276,2V1.2h9.78V3.87A42.7,42.7,0,0,1,283.11,10.58Zm-16.23,5.83h4.55V14.53h-4.55Zm0,2.34v1.89h4.55V18.75Zm5-13.73h-2.63V7.36H270A25.9,25.9,0,0,0,271.85,5Z"/><path class="cls-1" d="M292.49,12.74a52.76,52.76,0,0,0-4.78-4l1.92-2.31a51.49,51.49,0,0,1,4.81,3.92ZM296,15.52a30,30,0,0,1-2.2,4.5,29,29,0,0,1-2.74,4l-2.68-1.77a34.92,34.92,0,0,0,4.92-8.06ZM288.83,3,290.75.73a54.26,54.26,0,0,1,4.42,3.56l-1.92,2.39Q291.27,4.87,288.83,3Zm16.58,1.72V20h6.37v3H295.25V20h6.6V4.76h-6.08v-3h15.62v3Z"/><path class="cls-1" d="M320.31,16.46a13.08,13.08,0,0,1-3.64,7.85l-2.7-2a9.74,9.74,0,0,0,2.38-4,27.33,27.33,0,0,0,.61-6.75V6.45h18.38V17.91h-3.46V16.46ZM314.67,4.58v-3H337V4.58Zm5.85,4.81V13.6h11.36V9.39Z"/><path class="cls-1" d="M342.78,1.33h3.38V11.65a24.23,24.23,0,0,1-.89,7.15,14,14,0,0,1-2.88,5.07L339.68,22a12.53,12.53,0,0,0,2.45-4.61,29.08,29.08,0,0,0,.65-7.06Zm8.08,20V2h3.38V21.35Zm8.45,2.26V1.33h3.49V23.61Z"/><path class="cls-1" d="M389.06,1.2V4H385l2.5,1.43a45,45,0,0,1-4.27,6.24c1.73,1.6,3.53,3.4,5.38,5.41l-2.41,2.16c-1.81-2-3.5-3.67-5.07-5.15a36.54,36.54,0,0,1-7.23,6h15.42V23H370.86v1.17H367.4V1.2Zm-16.2,6.39L375,5.25a52.74,52.74,0,0,1,5.69,4.16A42.63,42.63,0,0,0,384.38,4H370.86V20.12h2.41l-2-2.28a32.74,32.74,0,0,0,7.38-6A53.28,53.28,0,0,0,372.86,7.59Z"/><path class="cls-1" d="M398.39,22.13V8.66h3v.67a13.48,13.48,0,0,0,2.21-2.67L402,5.07c.31-.24.54-.43.7-.57h-1.85c.13.31.3.76.52,1.35s.35.92.37,1l-3.15.67a.76.76,0,0,1-.05-.16.71.71,0,0,0,0-.17,23.4,23.4,0,0,1-1.59,5V24.15h-3.12v-7.8a12.73,12.73,0,0,1-1.35,1.88l-.94-4a19.09,19.09,0,0,0,4-8.16,17.05,17.05,0,0,1-1.56,1.53l-2.18-2.13a15.08,15.08,0,0,0,4-5.51l3.09.57a11.16,11.16,0,0,1-.44,1.2h5.48V3.35A12.12,12.12,0,0,0,406.11,0l3.12.57c-.07.19-.24.59-.52,1.2h7.41V4.5h-4c.32.76.54,1.33.68,1.71h3V8.55h-1.45a9.18,9.18,0,0,1-2.5,3.2,33.14,33.14,0,0,0,4.19,1l-1,2.55A26.32,26.32,0,0,1,409,13.49a16.4,16.4,0,0,1-1.88.71h3.07v1.56H416V18.3h-4.6a21.9,21.9,0,0,0,5.07,2.92l-1.12,2.6a23.88,23.88,0,0,1-5.25-3.28v3.61h-3.27V20.59a26.3,26.3,0,0,1-5.33,3.23l-.76-1.69Zm-.23-15.79c-.25-.65-.49-1.27-.73-1.84h-.68c-.45.62-.8,1.08-1.06,1.38Zm8,5.46a9.46,9.46,0,0,1-1.59-1.58,13,13,0,0,1-1.53,1.53l-1.69-1.56V13A39.29,39.29,0,0,0,406.19,11.8Zm-.52,6.5h-3.74V15.76h4.94V14.27a35.65,35.65,0,0,1-4.55,1.07l-.94-2.08V20.8A21.21,21.21,0,0,0,405.67,18.3Zm1.48-12.09h2.26c-.13-.38-.36-1-.67-1.71h-1.8a3.8,3.8,0,0,1-.41.49l1.06.11C407.47,5.44,407.33,5.82,407.15,6.21Zm1.93,4.32a6.46,6.46,0,0,0,2.1-2h-4.44A7.27,7.27,0,0,0,409.08,10.53Z"/><path class="cls-1" d="M437.88,20V13.16H427.46v9h-6v1.45h-2.86V3.87H421V19.32h.72V.73h2.58V19.32h.73V3.87h2.39v6.48h1.14l-.93-2.21a6.51,6.51,0,0,0,4.6-3h-4.16V2.29h5a19.62,19.62,0,0,0,.13-2.13h3.38a14.61,14.61,0,0,1-.16,2.13H442V5.1H435.7a49,49,0,0,1,6.73,3.51l-.85,1.74h1.09v2.86h-1.56v6.52c0,.7,0,1.26,0,1.68a6.46,6.46,0,0,1-.17,1.16,2.22,2.22,0,0,1-.31.76,1.3,1.3,0,0,1-.59.42,3,3,0,0,1-.84.21c-.3,0-.7,0-1.22,0-1,0-2.17,0-3.64-.13l-.16-2.65h-2.47v1.5h-3V14.25h7.93v7h.5c.38,0,.61-.06.69-.17A2.9,2.9,0,0,0,437.88,20Zm1.72-9.64a40.14,40.14,0,0,0-5.17-3,9.17,9.17,0,0,1-4.09,3Zm-8.09,6.34v2.08h2.42V16.69Z"/><path class="cls-1" d="M445.11,1.27h13.44V3.2h9.86V6.14h-2.34V19.73q0,1.1,0,1.71a4.77,4.77,0,0,1-.19,1.15,2.09,2.09,0,0,1-.39.77,2,2,0,0,1-.74.4,3.41,3.41,0,0,1-1.1.21c-.38,0-.91,0-1.61,0-.38,0-1.65,0-3.82-.13l-.18-3c1.82.09,2.95.13,3.38.13a2,2,0,0,0,1.06-.15c.11-.11.16-.45.16-1V6.14h-4.06V20h-3V18.62h-7.1v1.89h-3.3Zm5.41,2.86h-2.11V8.55h2.11Zm-2.11,7.13v4.68h2.11V11.26Zm5-7.13V8.55h2.1V4.13Zm0,11.81h2.1V11.26h-2.1Z"/><path class="cls-1" d="M488.4,15h2.91v2.86H488.4v3.9h-3.51v-3.9h-8.58V15l8.58-12.22h3.51Zm-3.51,0V7.51h-.05l-5.15,7.41V15Z"/><path class="cls-1" d="M494.64,15.57V12.82H503v2.75Z"/><path class="cls-1" d="M512.66,21.74V7h0l-4.55,4.16-1.22-3,5.8-5.38h3.74v19Z"/><path class="cls-1" d="M535.8,5.69H528l-.21,4.4h0a6.36,6.36,0,0,1,2.86-.65A5.88,5.88,0,0,1,535.07,11a5.9,5.9,0,0,1,1.54,4.34Q536.61,22,529,22a12.3,12.3,0,0,1-5.2-1.12l.78-2.94a10.06,10.06,0,0,0,4.34,1.12q4.11,0,4.11-3.75,0-3.09-3-3.09a3.8,3.8,0,0,0-2.68,1.07h-3.12l.52-10.53h11Z"/><path class="cls-1" d="M540.48,15.57V12.82h8.4v2.75Z"/><path class="cls-1" d="M552.86,2.76h12.92V5.69a73,73,0,0,0-7.13,16h-3.84a76.83,76.83,0,0,1,7.48-16V5.69h-9.43Z"/><line class="cls-2" x1="70.71" y1="5.95" x2="84.71" y2="5.95"/><line class="cls-2" x1="70.71" y1="10.95" x2="84.71" y2="10.95"/><line class="cls-2" x1="77.71" y1="20.95" x2="77.71" y2="10.95"/><rect class="cls-3" y="58.66" width="650.5" height="128" rx="12.15"/><text class="cls-4" transform="translate(206.65 160.23)">123-456-7890</text><text class="cls-5" transform="translate(172.65 116.88)">御予約・お問い合せ</text></g></g></svg>