<svg xmlns="http://www.w3.org/2000/svg" viewBox="0 0 650.5 185.66"><defs><style>.cls-1,.cls-5{fill:#3a3a3a;}.cls-2{fill:none;stroke:#3a3a3a;stroke-miterlimit:10;stroke-width:3px;}.cls-3{fill:#b5cc40;}.cls-4{fill:#333;}.cls-5{font-size:38px;font-family:DINAlternate-Bold, DIN Alternate;font-weight:700;letter-spacing:0.1em;}</style></defs><g id="レイヤー_2" data-name="レイヤー 2"><g id="レイヤー_1-2" data-name="レイヤー 1"><path class="cls-1" d="M96.57,2.5l.65,2.93a9.11,9.11,0,0,0-4.5,1.32,6.83,6.83,0,0,0-2.54,3.36l0,0a6.58,6.58,0,0,1,4-1.22,6.21,6.21,0,0,1,4.62,1.64,6.37,6.37,0,0,1,1.62,4.68,6.42,6.42,0,0,1-2,4.91A7.24,7.24,0,0,1,93.3,22a6.94,6.94,0,0,1-5.23-1.94,7.86,7.86,0,0,1-1.87-5.68A12.45,12.45,0,0,1,89,5.88,10.19,10.19,0,0,1,96.57,2.5ZM93.3,19.21a3.37,3.37,0,0,0,2.62-1,4.19,4.19,0,0,0,.94-3,3.86,3.86,0,0,0-1-2.77,3.41,3.41,0,0,0-2.61-1,3.31,3.31,0,0,0-2.56,1,3.86,3.86,0,0,0-.95,2.76,4.23,4.23,0,0,0,.92,3A3.3,3.3,0,0,0,93.3,19.21Z"/><path class="cls-1" d="M113.32,2.5,114,5.43a9,9,0,0,0-4.5,1.32,6.79,6.79,0,0,0-2.55,3.36l0,0a6.53,6.53,0,0,1,4-1.22,6.19,6.19,0,0,1,4.62,1.64,6.37,6.37,0,0,1,1.62,4.68,6.42,6.42,0,0,1-2,4.91A7.24,7.24,0,0,1,110,22a6.94,6.94,0,0,1-5.23-1.94,7.9,7.9,0,0,1-1.87-5.68,12.45,12.45,0,0,1,2.78-8.5A10.21,10.21,0,0,1,113.32,2.5ZM110,19.21a3.39,3.39,0,0,0,2.63-1,4.24,4.24,0,0,0,.93-3,3.82,3.82,0,0,0-.95-2.77,3.41,3.41,0,0,0-2.61-1,3.31,3.31,0,0,0-2.56,1,3.9,3.9,0,0,0-1,2.76,4.28,4.28,0,0,0,.92,3A3.32,3.32,0,0,0,110,19.21Z"/><path class="cls-1" d="M130.06,2.5l.65,2.93a9.11,9.11,0,0,0-4.5,1.32,6.85,6.85,0,0,0-2.55,3.36l0,0a6.56,6.56,0,0,1,4-1.22,6.17,6.17,0,0,1,4.61,1.64,6.33,6.33,0,0,1,1.63,4.68,6.43,6.43,0,0,1-2,4.91A7.2,7.2,0,0,1,126.78,22a6.93,6.93,0,0,1-5.22-1.94,7.86,7.86,0,0,1-1.87-5.68,12.4,12.4,0,0,1,2.78-8.5A10.17,10.17,0,0,1,130.06,2.5Zm-3.28,16.71a3.38,3.38,0,0,0,2.63-1,4.24,4.24,0,0,0,.94-3,3.86,3.86,0,0,0-.95-2.77,3.44,3.44,0,0,0-2.62-1,3.34,3.34,0,0,0-2.56,1,3.9,3.9,0,0,0-1,2.76,4.24,4.24,0,0,0,.93,3A3.28,3.28,0,0,0,126.78,19.21Z"/><path class="cls-1" d="M137.05,15.57V12.82h8.4v2.75Z"/><path class="cls-1" d="M159.15,2.5l.65,2.93a9,9,0,0,0-4.49,1.32,6.79,6.79,0,0,0-2.55,3.36l0,0a6.58,6.58,0,0,1,4-1.22,6.21,6.21,0,0,1,4.62,1.64A6.37,6.37,0,0,1,163,15.24a6.42,6.42,0,0,1-2,4.91A7.24,7.24,0,0,1,155.88,22a6.94,6.94,0,0,1-5.23-1.94,7.86,7.86,0,0,1-1.87-5.68,12.45,12.45,0,0,1,2.78-8.5A10.2,10.2,0,0,1,159.15,2.5Zm-3.27,16.71a3.37,3.37,0,0,0,2.62-1,4.19,4.19,0,0,0,.94-3,3.86,3.86,0,0,0-.95-2.77,3.41,3.41,0,0,0-2.61-1,3.31,3.31,0,0,0-2.56,1,3.86,3.86,0,0,0-.95,2.76,4.23,4.23,0,0,0,.92,3A3.32,3.32,0,0,0,155.88,19.21Z"/><path class="cls-1" d="M175.9,2.5l.65,2.93a9,9,0,0,0-4.5,1.32,6.79,6.79,0,0,0-2.55,3.36l0,0a6.55,6.55,0,0,1,4-1.22,6.18,6.18,0,0,1,4.62,1.64,6.37,6.37,0,0,1,1.63,4.68,6.43,6.43,0,0,1-2,4.91A7.24,7.24,0,0,1,172.62,22a6.94,6.94,0,0,1-5.23-1.94,7.9,7.9,0,0,1-1.87-5.68,12.45,12.45,0,0,1,2.78-8.5A10.21,10.21,0,0,1,175.9,2.5Zm-3.28,16.71a3.39,3.39,0,0,0,2.63-1,4.24,4.24,0,0,0,.93-3,3.82,3.82,0,0,0-1-2.77,3.41,3.41,0,0,0-2.61-1,3.32,3.32,0,0,0-2.56,1,3.9,3.9,0,0,0-.95,2.76,4.28,4.28,0,0,0,.92,3A3.32,3.32,0,0,0,172.62,19.21Z"/><path class="cls-1" d="M192.64,2.5l.65,2.93a9.11,9.11,0,0,0-4.5,1.32,6.83,6.83,0,0,0-2.54,3.36l0,0a6.58,6.58,0,0,1,4-1.22,6.17,6.17,0,0,1,4.61,1.64,6.33,6.33,0,0,1,1.63,4.68,6.45,6.45,0,0,1-2,4.91A7.24,7.24,0,0,1,189.37,22a6.94,6.94,0,0,1-5.23-1.94,7.86,7.86,0,0,1-1.87-5.68,12.4,12.4,0,0,1,2.78-8.5A10.17,10.17,0,0,1,192.64,2.5Zm-3.27,16.71a3.37,3.37,0,0,0,2.62-1,4.19,4.19,0,0,0,.94-3,3.86,3.86,0,0,0-1-2.77,3.44,3.44,0,0,0-2.61-1,3.35,3.35,0,0,0-2.57,1,3.9,3.9,0,0,0-1,2.76,4.24,4.24,0,0,0,.93,3A3.29,3.29,0,0,0,189.37,19.21Z"/><path class="cls-1" d="M215.44,18.69a36.35,36.35,0,0,1-9.2,5.15L204.86,21a37.32,37.32,0,0,0,9.2-4.61h-6.73v-10h8.11V5h-10V2.31h10v-2H219v2h10V5H219v1.3h8.11v10h-6.73a37.32,37.32,0,0,0,9.2,4.61l-1.38,2.88a36.35,36.35,0,0,1-9.2-5.15v5.46h-3.54Zm-4.86-8.45h4.86V8.74h-4.86ZM215.44,14V12.43h-4.86V14Zm8.4-3.77V8.74H219v1.5ZM219,14h4.86V12.43H219Z"/><path class="cls-1" d="M239.75,17.39a27.26,27.26,0,0,1-6.52,6.11l-2-2.39a28.09,28.09,0,0,0,6.22-5.72ZM255.09,2.31V5.1H231.54V2.31h10v-2h3.53v2ZM241.29,24c-.89,0-2.12,0-3.7-.13l-.15-3c1.44.09,2.51.13,3.22.13a1.81,1.81,0,0,0,1-.15,2,2,0,0,0,.16-1V15.11H234V6.45h18.72v8.66h-7.33v4.62c0,.72,0,1.27,0,1.68a4.69,4.69,0,0,1-.2,1.15,2.18,2.18,0,0,1-.4.77,1.52,1.52,0,0,1-.72.42,4.68,4.68,0,0,1-1.09.21C242.5,24,242,24,241.29,24Zm-3.88-11.44h11.81V8.94H237.41Zm9.31,5.25,2.11-2.39a48.6,48.6,0,0,1,6.6,5.93l-2.21,2.26A52.87,52.87,0,0,0,246.72,17.81Z"/><path class="cls-1" d="M278.88,10.58A8.88,8.88,0,0,1,281,13.47a7.93,7.93,0,0,1,.78,3.4,5.12,5.12,0,0,1-1,3.48,4,4,0,0,1-3.07,1h-1.66l-.6-2.91h.57a3.49,3.49,0,0,0,1.91-.35,1.84,1.84,0,0,0,.46-1.47c0-1.81-1-3.79-3.1-6a33.94,33.94,0,0,0,2.84-6.84h-3.12V24.08h-3.28V4.16a29.94,29.94,0,0,1-2.08,3.2h1.38v2.75h-3.69c-.8.84-1.42,1.44-1.85,1.82h4.86V24.08h-3.22v-1h-4.55v1h-3.33V16.41l-1.61.83-.86-3.17a28.41,28.41,0,0,0,6.06-4h-5.59V7.36h4.42V5H258.5V2.31h3.25V.21h3.35v2.1h3.07v1.9a23.3,23.3,0,0,0,1.74-3.07l1.9.81V1.2h9.78V3.87A41.77,41.77,0,0,1,278.88,10.58Zm-16.22,5.83h4.55V14.53h-4.55Zm0,2.34v1.89h4.55V18.75Zm5-13.73H265V7.36h.75A24.26,24.26,0,0,0,267.62,5Z"/><path class="cls-1" d="M288.27,12.74a52.87,52.87,0,0,0-4.79-4l1.93-2.31a52.83,52.83,0,0,1,4.81,3.92Zm3.51,2.78a31,31,0,0,1-2.2,4.5,29.94,29.94,0,0,1-2.74,4l-2.68-1.77a35.24,35.24,0,0,0,4.91-8.06ZM284.6,3,286.53.73A54.26,54.26,0,0,1,291,4.29L289,6.68Q287,4.87,284.6,3Zm16.59,1.72V20h6.37v3H291V20h6.61V4.76h-6.09v-3h15.63v3Z"/><path class="cls-1" d="M316.09,16.46a13.14,13.14,0,0,1-3.64,7.85l-2.71-2a9.63,9.63,0,0,0,2.38-4,26.85,26.85,0,0,0,.61-6.75V6.45h18.39V17.91h-3.46V16.46ZM310.45,4.58v-3h22.36V4.58Zm5.85,4.81V13.6h11.36V9.39Z"/><path class="cls-1" d="M338.55,1.33h3.38V11.65a24.26,24.26,0,0,1-.88,7.15,13.83,13.83,0,0,1-2.89,5.07L335.46,22a12.5,12.5,0,0,0,2.44-4.61,28.59,28.59,0,0,0,.65-7.06Zm8.09,20V2H350V21.35Zm8.45,2.26V1.33h3.48V23.61Z"/><path class="cls-1" d="M384.83,1.2V4h-4.05l2.49,1.43A45,45,0,0,1,379,11.67c1.73,1.6,3.53,3.4,5.38,5.41L382,19.24c-1.8-2-3.49-3.67-5.07-5.15a36.54,36.54,0,0,1-7.23,6h15.42V23H366.63v1.17h-3.46V1.2Zm-16.2,6.39,2.14-2.34a53.75,53.75,0,0,1,5.69,4.16A42.53,42.53,0,0,0,380.15,4H366.63V20.12h2.42L367,17.84a33,33,0,0,0,7.38-6A53.38,53.38,0,0,0,368.63,7.59Z"/><path class="cls-1" d="M394.17,22.13V8.66h3v.67a13.83,13.83,0,0,0,2.21-2.67l-1.62-1.59c.32-.24.55-.43.71-.57h-1.85c.12.31.3.76.52,1.35s.35.92.36,1l-3.14.67a.43.43,0,0,1-.05-.16.63.63,0,0,0-.06-.17,23.39,23.39,0,0,1-1.58,5V24.15h-3.12v-7.8a12.73,12.73,0,0,1-1.35,1.88l-.94-4a19.09,19.09,0,0,0,4-8.16,18.43,18.43,0,0,1-1.56,1.53l-2.19-2.13a15,15,0,0,0,4-5.51l3.1.57a8.9,8.9,0,0,1-.45,1.2h5.49V3.35A12.12,12.12,0,0,0,401.89,0L405,.57c-.07.19-.24.59-.52,1.2h7.41V4.5h-4c.31.76.54,1.33.68,1.71h3V8.55h-1.46a9.16,9.16,0,0,1-2.49,3.2,32.93,32.93,0,0,0,4.18,1l-1,2.55a26.42,26.42,0,0,1-6.19-1.85,15.55,15.55,0,0,1-1.87.71h3.07v1.56h5.9V18.3h-4.6a21.9,21.9,0,0,0,5.07,2.92l-1.12,2.6a23.41,23.41,0,0,1-5.25-3.28v3.61h-3.28V20.59a25.76,25.76,0,0,1-5.33,3.23l-.75-1.69Zm-.24-15.79c-.24-.65-.48-1.27-.73-1.84h-.67c-.45.62-.81,1.08-1.07,1.38Zm8,5.46a9.46,9.46,0,0,1-1.59-1.58,13.82,13.82,0,0,1-1.53,1.53l-1.69-1.56V13A39.29,39.29,0,0,0,402,11.8Zm-.52,6.5H397.7V15.76h4.94V14.27a34.84,34.84,0,0,1-4.55,1.07l-.93-2.08V20.8A21.78,21.78,0,0,0,401.45,18.3Zm1.48-12.09h2.26c-.14-.38-.36-1-.68-1.71h-1.79a3.21,3.21,0,0,1-.42.49l1.07.11C403.25,5.44,403.1,5.82,402.93,6.21Zm1.92,4.32a6.6,6.6,0,0,0,2.11-2h-4.45A7.49,7.49,0,0,0,404.85,10.53Z"/><path class="cls-1" d="M433.66,20V13.16H423.23v9h-6v1.45h-2.86V3.87h2.42V19.32h.73V.73h2.57V19.32h.73V3.87h2.39v6.48h1.15l-.94-2.21a6.49,6.49,0,0,0,4.6-3h-4.16V2.29h5A17.38,17.38,0,0,0,429,.16h3.38a14.63,14.63,0,0,1-.15,2.13h5.53V5.1h-6.31a49.63,49.63,0,0,1,6.73,3.51l-.86,1.74h1.09v2.86h-1.56v6.52c0,.7,0,1.26,0,1.68a6.5,6.5,0,0,1-.16,1.16,2,2,0,0,1-.32.76,1.27,1.27,0,0,1-.58.42,3,3,0,0,1-.85.21c-.29,0-.7,0-1.22,0-.95,0-2.17,0-3.64-.13l-.15-2.65h-2.47v1.5h-3V14.25h7.93v7h.49c.39,0,.61-.06.69-.17A2.6,2.6,0,0,0,433.66,20Zm1.72-9.64a40.23,40.23,0,0,0-5.18-3,9.09,9.09,0,0,1-4.08,3Zm-8.09,6.34v2.08h2.42V16.69Z"/><path class="cls-1" d="M440.89,1.27h13.44V3.2h9.85V6.14h-2.34V19.73c0,.73,0,1.3,0,1.71a4.33,4.33,0,0,1-.2,1.15,1.82,1.82,0,0,1-.39.77,1.85,1.85,0,0,1-.74.4,3.3,3.3,0,0,1-1.09.21c-.38,0-.92,0-1.61,0-.38,0-1.66,0-3.82-.13l-.19-3c1.82.09,3,.13,3.38.13a2.06,2.06,0,0,0,1.07-.15,2,2,0,0,0,.16-1V6.14h-4.06V20h-3V18.62h-7.1v1.89h-3.3Zm5.41,2.86h-2.11V8.55h2.11Zm-2.11,7.13v4.68h2.11V11.26Zm5-7.13V8.55h2.11V4.13Zm0,11.81h2.11V11.26h-2.11Z"/><path class="cls-1" d="M484.18,15h2.91v2.86h-2.91v3.9h-3.51v-3.9h-8.58V15l8.58-12.22h3.51Zm-3.51,0V7.51h-.05l-5.15,7.41V15Z"/><path class="cls-1" d="M490.42,15.57V12.82h8.4v2.75Z"/><path class="cls-1" d="M508.44,21.74V7h0l-4.55,4.16-1.22-3,5.8-5.38h3.74v19Z"/><path class="cls-1" d="M531.58,5.69H523.8l-.21,4.4h.06a6.33,6.33,0,0,1,2.86-.65A5.88,5.88,0,0,1,530.85,11a5.89,5.89,0,0,1,1.53,4.34q0,6.69-7.62,6.69a12.36,12.36,0,0,1-5.2-1.12l.78-2.94a10.1,10.1,0,0,0,4.35,1.12q4.09,0,4.1-3.75c0-2.06-1-3.09-3-3.09a3.79,3.79,0,0,0-2.67,1.07H520l.52-10.53h11.05Z"/><path class="cls-1" d="M536.25,15.57V12.82h8.4v2.75Z"/><path class="cls-1" d="M548.63,2.76h12.92V5.69a72.93,72.93,0,0,0-7.12,16h-3.85a76.86,76.86,0,0,1,7.49-16V5.69h-9.44Z"/><line class="cls-2" x1="66.48" y1="5.95" x2="80.48" y2="5.95"/><line class="cls-2" x1="66.48" y1="10.95" x2="80.48" y2="10.95"/><line class="cls-2" x1="73.48" y1="20.95" x2="73.48" y2="10.95"/><rect class="cls-3" y="57.66" width="650.5" height="128" rx="12.15"/><path class="cls-4" d="M159,105.54a7.58,7.58,0,0,1,1.2-3.84,25.1,25.1,0,0,1,4.1-4.87l3.31,2.53q-3.93,3.83-3.93,5.7c0,1.19.73,2.13,2.19,2.84a14.57,14.57,0,0,0,6.22,1.06,50,50,0,0,0,11.38-1.61l.85,4.1a43.16,43.16,0,0,1-5.93,1.13,48.44,48.44,0,0,1-6.3.48q-6.12,0-9.6-2T159,105.54Zm3.08-15.61v-4h20.16v4Zm20.09,8.78-3.52,1.67q-1.33-2.7-2.9-5.43l3.51-1.78Q180.88,96.08,182.21,98.71Zm5.53-1.09-3.58,1.7q-1.54-3-3-5.53L184.77,92Q186,94.2,187.74,97.62Z"/><path class="cls-4" d="M198.3,92.29l2.5-3.22q2.83,1.65,6,3.69a61.48,61.48,0,0,0,6.05-4.44H195.4V84.56h23.13v3.76A65.76,65.76,0,0,1,210.16,95l.9.64.91.63h10.42v3.93A48.08,48.08,0,0,1,215,107.8l-2.93-3.15a46.83,46.83,0,0,0,4.95-4.47h-7.55v8.47a27.78,27.78,0,0,1-.12,3.06,2.86,2.86,0,0,1-.74,1.64,2.48,2.48,0,0,1-1.55.79,28.77,28.77,0,0,1-2.92.11c-.89,0-2.78,0-5.67-.17l-.21-3.89c2.69.11,4.36.17,5,.17s1.2-.07,1.34-.21a2.57,2.57,0,0,0,.2-1.36v-8.61H191V96.25h14Q201.93,94.33,198.3,92.29Z"/><path class="cls-4" d="M224.82,112.51a85.93,85.93,0,0,0,1.12-9.5l3.25.24a80.9,80.9,0,0,1-1.13,9.77ZM225.06,91l1.84-4.1c.09.14.28.42.58.84l.68,1q1.28-2.62,2.29-5.4L234,84.5c-1.16,2.77-2.33,5.27-3.52,7.48l1,1.53q2.3-3.86,3.66-6.59l3.31,1.47c-1,1.89-2,3.67-2.93,5.33l2.39-.58.12.41.12.48a34.37,34.37,0,0,0,4.47-10.83l4.14.47q-.45,1.89-.93,3.42h10.84q-.08,5-.16,8.65c-.06,2.41-.13,4.6-.24,6.56s-.2,3.56-.29,4.81a28.51,28.51,0,0,1-.41,3.3,15.33,15.33,0,0,1-.53,2.14,2.87,2.87,0,0,1-.7,1.14,1.69,1.69,0,0,1-.85.51,5.35,5.35,0,0,1-1.09.09c-2.49,0-5-.07-7.52-.21l-.21-3.93q3.12.21,5.67.21c.37,0,.65-.36.84-1.09a38.08,38.08,0,0,0,.57-5.37q.27-4.28.47-13h-7.82a34.32,34.32,0,0,1-4.13,7.45L239,97.21c.43,1.75.75,3.21,1,4.37l-3,.61-.21-1-2,.13v13.26h-4.41v-13l-4.92.3L225.19,98l3.56-.21.29-.41a3.47,3.47,0,0,0,.25-.41C227.88,94.9,226.47,92.89,225.06,91Zm10.69,6.49c-.14-.56-.39-1.53-.75-2.9-.82,1.37-1.45,2.38-1.88,3Zm3.89,14.18-3.27.24c-.12-3.16-.35-6.08-.69-8.74l3.18-.41A84.19,84.19,0,0,1,239.64,111.62Zm2.67-15.41L246,94.47a56.46,56.46,0,0,1,4.34,9.36l-3.75,1.47A57.39,57.39,0,0,0,242.31,96.21Z"/><path class="cls-4" d="M272.31,102.12V96.18h5.94v5.94Z"/><path class="cls-4" d="M296.5,88.12h8V83.88h4.34v4.24h7.52v3.62H308.8V96c.87,0,1.55-.06,2.05-.06A13.2,13.2,0,0,1,319,98.33a7,7,0,0,1,3.11,5.71,8.28,8.28,0,0,1-2.48,6.35c-1.65,1.55-4.1,2.51-7.33,2.87l-.92-3.86a9.32,9.32,0,0,0,4.78-1.65,4.27,4.27,0,0,0,1.5-3.47,3.56,3.56,0,0,0-1.86-3,8.82,8.82,0,0,0-5-1.24c-.5,0-1.18,0-2.05.06v7.11c0,2.1-.41,3.55-1.23,4.36s-2.28,1.21-4.37,1.21a8.49,8.49,0,0,1-5.81-2.1,6.61,6.61,0,0,1-2.39-5.18,7.37,7.37,0,0,1,2.47-5.41,14.61,14.61,0,0,1,7-3.47V91.74h-8Zm8,12.71a9.11,9.11,0,0,0-3.83,2,3.77,3.77,0,0,0-1.29,2.75,3.26,3.26,0,0,0,1.07,2.38,3.34,3.34,0,0,0,2.34,1,1.77,1.77,0,0,0,1.35-.41,2.41,2.41,0,0,0,.36-1.54Zm13-11.93,3-2.15a89.26,89.26,0,0,1,5.3,7.79l-3.21,1.91A86.18,86.18,0,0,0,317.41,88.9Z"/><path class="cls-4" d="M333.23,114.46h-4.37V84.22h14v13.4h-9.64Zm0-24.81H339v-2h-5.81Zm0,2.94v2H339v-2Zm11.35,5V84.22h14.34v24.57c0,.93,0,1.67-.05,2.2a6,6,0,0,1-.27,1.51,1.94,1.94,0,0,1-1.5,1.53,6,6,0,0,1-1.44.28c-.51,0-1.21,0-2.1,0-1.07,0-2.58-.06-4.54-.17l-.21-3.49h-8.27v1.61h-4.1V99.84h14.9v10.72c.45,0,1,0,1.5,0a2.75,2.75,0,0,0,1.47-.22c.16-.15.24-.61.24-1.39V97.62Zm2.66,5.39h-6.7v4.58h6.7Zm7.31-13.36v-2H348.4v2Zm0,2.94H348.4v2h6.15Z"/><path class="cls-4" d="M370.78,88a40.83,40.83,0,0,0-1.57,11.48,15,15,0,0,0,1.21,6.39c.81,1.74,1.61,2.6,2.41,2.6.57,0,1.33-.65,2.29-2A24.5,24.5,0,0,0,378,101l4,1.54a21,21,0,0,1-4.37,7.76c-1.78,1.86-3.47,2.8-5.09,2.8q-2.91,0-5.38-4a17.82,17.82,0,0,1-2.48-9.61,40.64,40.64,0,0,1,1.71-12Zm12.88.48,4.21-1.23q4.68,9.43,4.68,22.14H388a53.54,53.54,0,0,0-1.14-11A47.19,47.19,0,0,0,383.66,88.49Z"/><path class="cls-4" d="M422.07,94.37v2.29H402.93V94.37c-1.39.89-2.9,1.75-4.54,2.6l-1.78-3.73a60.83,60.83,0,0,0,7-4.39,55,55,0,0,0,6-5.18h5.74a55,55,0,0,0,6,5.18,60.83,60.83,0,0,0,7,4.39L426.61,97C425,96.12,423.46,95.26,422.07,94.37Zm-17.32,18.55v1.61H400.2V99.73h24.6v14.8h-4.54v-1.61Zm15.51-3.52v-6H404.75v6ZM420.05,93a52,52,0,0,1-7.55-6.42A52,52,0,0,1,405,93Z"/><path class="cls-4" d="M438.84,102.16c-1.8,2-3.32,3.76-4.57,5.26l-3-2.77q4.41-5.3,7.62-8.54V93h-6.73V89.35h6.73v-5h4.1v7.86a21.1,21.1,0,0,1,5-3.3,10.76,10.76,0,0,1,4.35-.94q4.68,0,6.84,2.89t2.15,9.41q0,5.67-2.62,8.76a8.73,8.73,0,0,1-7.05,3.1,11.93,11.93,0,0,1-5.64-1.37l1.37-3.86a10.87,10.87,0,0,0,4.27,1,4.45,4.45,0,0,0,3.84-1.91,9.72,9.72,0,0,0,1.39-5.74c0-3.07-.36-5.19-1.08-6.34A4,4,0,0,0,452,92.22a7.66,7.66,0,0,0-3.77,1.23,29.82,29.82,0,0,0-5.32,4.4v15.76h-4.1Z"/><path class="cls-4" d="M466.25,94.54V90.68l2.58,0,2.61,0V84.91h4.31v5.67q7.51-.14,11.07-.24V84.12H491v6l2.42-.09,2.4-.08.13,3.86-5,.2V99.6a5.76,5.76,0,0,1-.91,3.72,3.86,3.86,0,0,1-3.09,1.06,22.35,22.35,0,0,1-3.48-.41,31.08,31.08,0,0,1-3.73-.85l.89-4a23.45,23.45,0,0,0,5.19,1c.44,0,.7-.08.79-.24a4.29,4.29,0,0,0,.14-1.47V94.2c-4.88.13-8.57.23-11.07.27v10.15a6.56,6.56,0,0,0,.49,3,2.74,2.74,0,0,0,1.86,1.24,20.51,20.51,0,0,0,4.48.34,69.24,69.24,0,0,0,9.77-.68l.41,4a71.94,71.94,0,0,1-10.18.68,24.72,24.72,0,0,1-7-.73,5.22,5.22,0,0,1-3.25-2.5,11.9,11.9,0,0,1-.92-5.31V94.51h-2.61C467.68,94.54,466.82,94.54,466.25,94.54Z"/><text class="cls-5" transform="translate(196.42 163.23)">123-456-7890</text></g></g></svg>