<svg xmlns="http://www.w3.org/2000/svg" viewBox="0 0 36.04 24.03"><defs><style>.cls-1{fill:#353535;}</style></defs><g id="レイヤー_2" data-name="レイヤー 2"><g id="レイヤー_1-2" data-name="レイヤー 1"><path class="cls-1" d="M7.14,23.71V5.54h0l-5.6,5.13L0,7,7.14.32h4.62V23.71Z"/><path class="cls-1" d="M20.33,2.85Q22.55,0,27.07,0t6.75,2.85C35.3,4.75,36,7.81,36,12s-.74,7.27-2.22,9.17S30.08,24,27.07,24s-5.26-1-6.74-2.85-2.23-5-2.23-9.17S18.84,4.75,20.33,2.85Zm3.41,15.76a3.58,3.58,0,0,0,3.33,1.93,3.56,3.56,0,0,0,3.33-1.93q1.09-1.92,1.09-6.6T30.4,5.42a3.56,3.56,0,0,0-3.33-1.93,3.58,3.58,0,0,0-3.33,1.93Q22.65,7.34,22.65,12T23.74,18.61Z"/></g></g></svg>