<svg xmlns="http://www.w3.org/2000/svg" viewBox="0 0 34.79 23.71"><defs><style>.cls-1{fill:#353535;}</style></defs><g id="レイヤー_2" data-name="レイヤー 2"><g id="レイヤー_1-2" data-name="レイヤー 1"><path class="cls-1" d="M7.14,23.71V5.54h0l-5.6,5.13L0,7,7.14.32h4.62V23.71Z"/><path class="cls-1" d="M19.41,20.09a81,81,0,0,0,6.75-5.75,17.22,17.22,0,0,0,3.15-3.86,6.83,6.83,0,0,0,.81-3.21c0-2.37-1.28-3.55-3.82-3.55a11.64,11.64,0,0,0-6.12,2.21L19,2.34A12.92,12.92,0,0,1,22.73.63,14.82,14.82,0,0,1,26.94,0a8.47,8.47,0,0,1,5.79,1.81,6.39,6.39,0,0,1,2,5,10.07,10.07,0,0,1-1.91,5.8A42,42,0,0,1,25.41,20v.07h9.38v3.62H19.41Z"/></g></g></svg>