<svg xmlns="http://www.w3.org/2000/svg" viewBox="0 0 15.79 23.71"><defs><style>.cls-1{fill:#353535;}</style></defs><g id="レイヤー_2" data-name="レイヤー 2"><g id="レイヤー_1-2" data-name="レイヤー 1"><path class="cls-1" d="M.42,20.09a82.23,82.23,0,0,0,6.74-5.75,17.62,17.62,0,0,0,3.16-3.86,6.94,6.94,0,0,0,.8-3.21q0-3.55-3.82-3.55A11.64,11.64,0,0,0,1.18,5.93L0,2.34A12.92,12.92,0,0,1,3.73.63,14.82,14.82,0,0,1,7.94,0a8.47,8.47,0,0,1,5.79,1.81,6.39,6.39,0,0,1,2,5,10.13,10.13,0,0,1-1.9,5.8A42.1,42.1,0,0,1,6.41,20v.07h9.38v3.62H.42Z"/></g></g></svg>