<svg xmlns="http://www.w3.org/2000/svg" viewBox="0 0 260.86 54.17"><defs><style>.cls-1{fill:#ef6565;}.cls-2{fill:#fff;}</style></defs><g id="レイヤー_2" data-name="レイヤー 2"><g id="レイヤー_1-2" data-name="レイヤー 1"><path class="cls-1" d="M7.11,46.14A6.92,6.92,0,0,1,8.93,47a1.65,1.65,0,0,1,.8,1.25A.7.7,0,0,1,9,49c-.4,0-.68-.17-1.1-.88-.24-.37-.51-.81-.79-1.21l0,4.71c0,1.21-.3,1.67-.83,1.67s-1.06-.77-1.08-2a6,6,0,0,0,.2-1.61l.09-1.76A13.2,13.2,0,0,1,.81,51.29a.59.59,0,0,1-.26.07.28.28,0,0,1-.31-.25.43.43,0,0,1,.22-.33,14.23,14.23,0,0,0,4.16-4.59c-1,.17-1.85.35-2.71.55-.26,0-.37-.05-.61-.33-.44-.53-.57-.75-.57-.88s0-.16.24-.18c1.54-.22,3.12-.48,4.49-.7v-.73a3,3,0,0,0-.16-1.06c-1.25.18-2.48.4-3.69.64a.52.52,0,0,1-.49-.2c-.57-.66-.66-.85-.66-1s0-.17.2-.19l3.41-.51a13.46,13.46,0,0,0-.9-2.46l-.27,0A.61.61,0,0,1,2.4,39c-.57-.69-.71-.84-.71-1s.11-.15.27-.17l3.5-.42,0-.7A4.3,4.3,0,0,0,5.08,35,.85.85,0,0,1,5,34.72c0-.17.08-.26.33-.26a5.7,5.7,0,0,1,1.87.59.56.56,0,0,1,.35.53,1.54,1.54,0,0,1-.16.53,2.66,2.66,0,0,0-.17,1l.29,0a2.93,2.93,0,0,0,1-.35c1.08.11,1.76.57,1.76,1s-.22.49-.92.55l-.71.07c.51.29.68.57.68.75a.93.93,0,0,1-.28.59c-.29.44-.53.84-.8,1.21A2.56,2.56,0,0,0,9,40.71c1,.15,1.56.7,1.56,1.12s-.28.44-1,.5c-.88.09-1.76.18-2.61.29.28.2.39.35.39.51a1.46,1.46,0,0,1-.13.5,2,2,0,0,0-.13.71l.15,0a4.08,4.08,0,0,0,1.36-.44c1,.15,1.63.63,1.63,1s-.17.5-.77.57q-1.15.13-2.37.33Zm-.22-4.93a13,13,0,0,0,.48-1.71,4.89,4.89,0,0,0,.09-.93L4.51,39c.59.26.73.35.77,1s.07,1,.11,1.45Zm6.66,1.54a.64.64,0,0,1-.28-.06c-.31,4.31-1.45,6.66-4,8.51a.61.61,0,0,1-.35.13.23.23,0,0,1-.25-.22.63.63,0,0,1,.18-.37c1.89-2.27,2.6-5,2.6-9.07a6.29,6.29,0,0,0-.24-2.42,2.87,2.87,0,0,1-.22-.59c0-.18.08-.26.28-.26a3.29,3.29,0,0,1,1.26.44,15.68,15.68,0,0,0,2.83-2.91,1.83,1.83,0,0,0,.25-1.1c0-.22.08-.33.26-.33a2.75,2.75,0,0,1,1.41.6c.59.37,1,.81,1,1.12s-.09.37-.4.53a4.24,4.24,0,0,0-.59.33,23,23,0,0,1-4,2.26,1.34,1.34,0,0,1,.16.73c0,.39,0,.77,0,1.14,1.3-.22,2.6-.46,3.72-.66a2.64,2.64,0,0,0,1.3-.52c1.12.19,2,.72,2,1.16s-.2.55-.88.62-1.7.17-2.69.33a1.23,1.23,0,0,1,.51.77c0,.13-.05.33-.09.66A10.5,10.5,0,0,0,17.18,45l0,6.88c0,1.61-.57,2.29-1,2.29s-.93-.63-.93-2.26l.09-8.17a3.77,3.77,0,0,0-.13-1.32Z"/><path class="cls-1" d="M34.45,52.59a3.91,3.91,0,0,1-3.3-1.17c-1.14-1.05-1.38-2.37-1.38-4.68,0-.84.19-4.49.37-7.27,0-.66.09-1.32.09-2A3.25,3.25,0,0,0,29.94,36a2.26,2.26,0,0,1-.2-.59c0-.11.09-.15.27-.15A4.72,4.72,0,0,1,32,36c.59.4.79.64.79.9a1.3,1.3,0,0,1-.2.68,3.78,3.78,0,0,0-.26,1,85.58,85.58,0,0,0-.71,8.71c0,1.76.2,2.47.71,3a2.22,2.22,0,0,0,1.6.53,9,9,0,0,0,6.8-3.94.81.81,0,0,1,.51-.37c.11,0,.3.11.3.26a2,2,0,0,1-.24.86C39.84,50.59,37.49,52.59,34.45,52.59Z"/><path class="cls-1" d="M55.53,50.37c0,.63-.2,1-.73,1a1.5,1.5,0,0,1-.79-.19,6.3,6.3,0,0,1-2.46-3.77,27.42,27.42,0,0,1-.77-6.31,10.68,10.68,0,0,0-.16-1.83,2.44,2.44,0,0,1-.13-.61c0-.14.11-.2.26-.2a3.53,3.53,0,0,1,1.85,1.36,1,1,0,0,1,.29.71,6.62,6.62,0,0,0-.11,1.32c0,.37,0,1.38.11,2.59a9.82,9.82,0,0,0,.92,3.79c.14.2.22.28.29.28a3.92,3.92,0,0,0,1.08-1.1c.19-.26.28-.35.42-.35s.19.16.19.42a15.31,15.31,0,0,1-.22,1.78,3.34,3.34,0,0,0,0,.64Zm9.37-4.89a11.4,11.4,0,0,0-2.48-5.72.63.63,0,0,1-.16-.35.3.3,0,0,1,.29-.29,1,1,0,0,1,.42.11,8.17,8.17,0,0,1,3,2.64,7.17,7.17,0,0,1,1.3,3.79c0,.86-.27,1.43-1.11,1.43S65.08,46.65,64.9,45.48Z"/><path class="cls-1" d="M82,46.38c-1.21.11-2.44.27-3.58.42a1.09,1.09,0,0,1-.79-.5c-.49-.58-.58-.73-.58-.91s.11-.15.25-.17l4.7-.44,0-2.66-2.75.39a.65.65,0,0,1-.5-.15c-.27-.22-.47-.4-.64-.55a10.25,10.25,0,0,1-3.43,2.7.47.47,0,0,1-.25.07.28.28,0,0,1-.3-.26.41.41,0,0,1,.15-.29,14.39,14.39,0,0,0,2.9-4.31,2.4,2.4,0,0,0,.22-.88,1.43,1.43,0,0,0-.06-.51,1.18,1.18,0,0,1-.07-.35c0-.2.09-.29.33-.29a3.59,3.59,0,0,1,1.32.71c.47.35.77.68.77.85a.7.7,0,0,1-.15.45c-.11.15-.24.35-.29.43a7.85,7.85,0,0,1-.44.73c1.06-.11,2.14-.24,3.19-.37V38.4a8.15,8.15,0,0,0-.39-3.08.68.68,0,0,1-.07-.29c0-.18.09-.24.33-.24a7.33,7.33,0,0,1,2.22.77.56.56,0,0,1,.38.48,1.08,1.08,0,0,1-.13.51,5.05,5.05,0,0,0-.31,2l0,1.61,2.24-.37a4,4,0,0,0,1.32-.46c.9.06,2,.61,2,1.12s-.22.66-.92.75c-1.37.15-3,.37-4.67.59l0,2.73c.53-.07,1-.11,1.39-.18A4.22,4.22,0,0,0,87,43.9c1.21.2,2,.68,2,1.23s-.42.59-1.12.66l-4,.37,0,3.74c1.62-.11,3.27-.19,4.95-.26a3.73,3.73,0,0,0,1.36-.24c1.43.26,2.42,1.08,2.42,1.71s-.31.64-.86.64a39.07,39.07,0,0,0-4.57-.26,82.44,82.44,0,0,0-11.86,1,.78.78,0,0,1-.62-.22c-.79-.68-1.08-1-1.08-1.19s.11-.22.55-.26c2.51-.27,5.13-.55,7.83-.77Z"/><path class="cls-1" d="M102.41,36.46c-.59.07-1.21.15-1.83.26-.15,0-.28-.06-.57-.37s-.39-.46-.39-.55.08-.11.28-.13l2.51-.29a3.61,3.61,0,0,0-.13-1,1,1,0,0,1-.11-.39c0-.13.13-.18.28-.18a3.85,3.85,0,0,1,1.41.42.52.52,0,0,1,.31.4.89.89,0,0,1-.11.37s0,.11-.07.18a2.88,2.88,0,0,0,1.39-.36c1,.22,1.36.6,1.36.93s-.3.31-.92.35-1.3.11-1.91.15l0,.66c.27,0,.51,0,.73,0a2.27,2.27,0,0,0,1.32-.35c1,.22,1.34.59,1.34.92s-.37.33-.94.35c-.31,0-.68,0-1.06,0a.49.49,0,0,1,.11.24c0,.11-.09.22-.2.37l-.31.38a2.07,2.07,0,0,0,.58-.2c1,.22,1.41.55,1.41.88s-.31.33-.93.35-1.39.07-2.09.14v.7a2.44,2.44,0,0,0,1.32-.35c1,.22,1.47.57,1.47.9s-.3.33-.92.35-1.23.07-1.87.13c0,.9-.29,1.13-.62,1.13s-.7-.33-.83-1c-.62.09-1.26.18-1.92.31-.15,0-.26,0-.55-.35s-.41-.49-.41-.58.08-.11.28-.13l2.58-.28V40.2c-.82.11-1.61.24-2.36.38-.15,0-.26-.07-.55-.38s-.42-.46-.42-.55.09-.13.29-.15l1.89-.2c-.17-.33-.35-.64-.55-.95-.7.09-1.38.2-2,.31-.15,0-.26-.07-.55-.37s-.42-.49-.42-.58.09-.11.29-.13c1.63-.2,3.12-.37,4.42-.5Zm1.41,14a4.65,4.65,0,0,1,.57.44c.31.26.44.46.44.66s-.11.35-.46.53a14.77,14.77,0,0,1-5.63,1.54c-.29,0-.44-.11-.44-.27s.08-.24.33-.33a14.71,14.71,0,0,0,3.74-1.89.76.76,0,0,0,.33-.53,1.88,1.88,0,0,1-.64-1.45,4.63,4.63,0,0,0,.13-1.63c0-3.52-.07-3.69-.29-4.16a1,1,0,0,1-.15-.48c0-.13.11-.22.35-.22a4.6,4.6,0,0,1,1.32.33c2.29-.24,4-.38,5.94-.53a2.85,2.85,0,0,0,1.15-.31,3.14,3.14,0,0,1,1.38.73c.51.42.6.66.6.84a.69.69,0,0,1-.22.55,1.23,1.23,0,0,0-.27.94c0,1.23,0,3,0,4,0,1.19-.35,1.34-.84,1.34a1.21,1.21,0,0,1-.85-.66c-2.12,0-4.25.13-6.36.31ZM103.69,39a5.93,5.93,0,0,0,.24-1c-.64.06-1.26.11-1.87.2a.34.34,0,0,1,.11.17,4.65,4.65,0,0,1,.11.82Zm.26,6.05c1.72-.15,3.39-.3,4.6-.37a1.72,1.72,0,0,0,.84-.22,5,5,0,0,1,.81.29v-1c-2.11.09-3.92.22-6.25.49Zm0,2c1.67-.15,3.17-.26,4.36-.35a2,2,0,0,0,.94-.24,5.87,5.87,0,0,1,.93.28v-1H109c-.85,0-2.92.17-5.08.41Zm0,2c2.07-.16,4.14-.31,6.21-.36v-.92c-.31,0-.6,0-1,0-1.13,0-3,.15-5.22.39Zm7.11-12.68a1.9,1.9,0,0,0,1.08-.55,2.5,2.5,0,0,1,.88.4c.48.31.74.61.74.79a.79.79,0,0,1-.17.46,2.24,2.24,0,0,0-.38.84A11.63,11.63,0,0,0,113,40.6a.77.77,0,0,0,.09.42c.11.13.24.22.75.22s.83-.07,1-.29a2.49,2.49,0,0,0,.33-1.37c0-.28.09-.41.25-.41s.57.39,1,1.12a3.21,3.21,0,0,1,.48,1.25c0,.36-.28.69-.77.88a6.67,6.67,0,0,1-2.11.33,2.81,2.81,0,0,1-2.18-.66,2.32,2.32,0,0,1-.48-1.63c0-1,.06-1.82.15-3.08-.33.07-.66.16-1,.25a10.75,10.75,0,0,1-.68,1.87c.77.37,1.08.74,1.08,1.1a.73.73,0,0,1-.82.77,1.74,1.74,0,0,1-1-.62,7.43,7.43,0,0,1-1.76,1.61.73.73,0,0,1-.31.11.28.28,0,0,1-.29-.24.47.47,0,0,1,.16-.31,7,7,0,0,0,1.36-2l-.75-.66c-.15-.13-.2-.22-.2-.31s.09-.18.25-.18a3.9,3.9,0,0,1,1.08.2c.08-.31.17-.61.24-.9l-.53.15a.46.46,0,0,1-.42-.17c-.48-.49-.57-.64-.57-.77s.11-.2.33-.24c.48-.07,1-.16,1.41-.25a12.67,12.67,0,0,0,.09-1.29,2.09,2.09,0,0,0-.18-.84.92.92,0,0,1-.13-.37c0-.16.06-.25.26-.25a4.47,4.47,0,0,1,1.43.33c.44.18.66.33.66.58a1.36,1.36,0,0,1-.28.68c-.05.26-.09.53-.14.77Zm-1.89,14.57a.52.52,0,0,1-.25-.35.24.24,0,0,1,.25-.22,3,3,0,0,1,.44.06A11.56,11.56,0,0,1,113,51.75c.94.55,1.1,1,1.1,1.48a.89.89,0,0,1-.88.85,1.88,1.88,0,0,1-1.24-.61A37.47,37.47,0,0,0,109.17,50.94Z"/><path class="cls-1" d="M122.54,49a2.42,2.42,0,0,0,1.28-.31,3.78,3.78,0,0,0,1.34-1.38,4.46,4.46,0,0,1-1-1.39,1.75,1.75,0,0,1-.13-.68,5.23,5.23,0,0,1,.44-1.54c-.42.15-.93.37-1.63.66-.22,0-.4-.16-.71-.46a1.53,1.53,0,0,1-.5-.82c0-.09.11-.13.39-.2a22.09,22.09,0,0,0,2.42-.7,1.54,1.54,0,0,0,.86-.64,4.83,4.83,0,0,1,1.54.64.56.56,0,0,1,.09,1,10.39,10.39,0,0,0-1.65,2.11c.26.24.86.73,1.19,1a1.8,1.8,0,0,1,.72,1.32c0,.35-.66.85-2.33,1.47a75.28,75.28,0,0,1,9.75,1.65c.9.2,2,.37,4,.66.69.11,1.41.2,2.34.31.77.09,1,.24,1,.39s-.11.29-.44.47a9,9,0,0,1-3.68,1.18,3,3,0,0,1-1-.17c-.95-.31-2.35-.75-3.85-1.21-2.46-.75-4.49-1.34-5.57-1.56a15.42,15.42,0,0,0-2.64-.36,5.26,5.26,0,0,0-2.44.44.59.59,0,0,1-.62-.35,2.94,2.94,0,0,1-.46-1.32c0-.2.09-.24.42-.24Zm1.52-11.75c-.77-.81-1-1.25-1-1.43s.11-.18.33-.18a7.93,7.93,0,0,1,3,1.13,1.42,1.42,0,0,1,.66,1.16c0,.55-.22.82-.86.82C126,38.73,125.29,38.55,124.06,37.23Zm13.77,9.92c.55.31.75.6.75.84s-.29.44-1,.44c-1.72,0-4.25.18-6.16.37-.09.53-.31.77-.66.77s-1-.44-1.21-1.87a9.08,9.08,0,0,0,.15-2.2v-4a10.45,10.45,0,0,0-.24-3.23,2.8,2.8,0,0,1-.13-.6c0-.11.11-.2.26-.2a3,3,0,0,1,1.21.4,14.73,14.73,0,0,0,1.39-2.27,1.13,1.13,0,0,0,.15-.61,1.31,1.31,0,0,0-.09-.53.31.31,0,0,1,.33-.26,4,4,0,0,1,1.72.59c.33.15.51.37.51.57s-.11.46-.44.73A19,19,0,0,1,131.83,38l2.83-.33c1-.11,1.32-.22,1.59-.44a3.29,3.29,0,0,1,1.16.62c.55.37.73.55.73.73s-.09.3-.26.52a1.89,1.89,0,0,0-.33.77l-.38,1.21c.44.25.62.53.62.78s-.29.46-1,.48c-1.39.07-3.41.22-5.35.44l0,1.5,4.2-.42a2.33,2.33,0,0,0,1.17-.33,2.75,2.75,0,0,1,1.3.57,1.54,1.54,0,0,1,.72.92.71.71,0,0,1-.28.49,1.73,1.73,0,0,0-.4.68Zm-6.38.27c1.52-.16,3.06-.29,4.58-.35.13-.71.22-1.28.31-1.83-1.19,0-3,.2-4.89.42Zm3.94-6.34a19.5,19.5,0,0,0,.26-2.09c-1.21.09-2.68.26-4.18.46v2Z"/><path class="cls-1" d="M149.4,49c0-.13,0-.19.2-.19a.66.66,0,0,1,.27.06,12.15,12.15,0,0,0,1.69.77,23.73,23.73,0,0,0,2.38-8.45l-2,.22a23.07,23.07,0,0,1-2.61,5.09A10.75,10.75,0,0,1,145.71,50a.88.88,0,0,1-.36.13c-.17,0-.28-.08-.28-.24a.71.71,0,0,1,.22-.46,20,20,0,0,0,2.79-3.76,20.4,20.4,0,0,0,1.83-3.94c-.84.13-1.7.26-2.53.42-.18,0-.42-.16-.73-.55a1.85,1.85,0,0,1-.48-.84c0-.09.06-.15.31-.17,1.38-.12,2.7-.22,3.89-.36a23.9,23.9,0,0,0,.57-2.44,3.81,3.81,0,0,0,.09-.86,2.64,2.64,0,0,0-.18-1.05c0-.18.14-.27.33-.27a3.54,3.54,0,0,1,1.85.88,1.45,1.45,0,0,1,.51.64.81.81,0,0,1-.13.46,4.92,4.92,0,0,0-.58,1.32,9.42,9.42,0,0,1-.35,1.1l.53-.06a2.52,2.52,0,0,0,1.28-.4,2.69,2.69,0,0,1,1.25.68c.51.42.71.73.71.93a.82.82,0,0,1-.22.52,2.22,2.22,0,0,0-.36,1.06,31.69,31.69,0,0,1-1.56,5.88,10.26,10.26,0,0,1-1.52,2.81,1.82,1.82,0,0,1-1.05.77,1,1,0,0,1-.82-.5,10.84,10.84,0,0,1-1.3-2.56Zm9,1.21c-.47,0-1-.46-1.06-1.47,0-1.19-.07-3.08-.15-5.41a5.79,5.79,0,0,0-.47-2.36,1.09,1.09,0,0,1-.13-.39.31.31,0,0,1,.33-.29,4.34,4.34,0,0,1,1.41.53c1.47-.13,2.62-.26,3.56-.35a2.28,2.28,0,0,0,1.17-.44,4.24,4.24,0,0,1,1.45.81c.49.4.68.68.68,1s0,.35-.35.66a2.85,2.85,0,0,0-.33,1.05c-.19,1-.44,2.47-.79,4.18.42.25.75.6.75.91s-.27.46-1,.48c-1.43,0-2.9.09-4.33.22C159.11,50,158.8,50.23,158.45,50.23Zm.77-2.42c.94-.06,1.89-.13,2.81-.17.27-1.89.49-3.9.6-5.72a31.35,31.35,0,0,0-3.55.31Z"/><path class="cls-1" d="M179.78,52.59a3.91,3.91,0,0,1-3.3-1.17c-1.14-1.05-1.38-2.37-1.38-4.68,0-.84.2-4.49.37-7.27.05-.66.09-1.32.09-2a3.25,3.25,0,0,0-.29-1.54,2.6,2.6,0,0,1-.19-.59c0-.11.08-.15.26-.15a4.67,4.67,0,0,1,1.94.81c.59.4.79.64.79.9a1.3,1.3,0,0,1-.2.68,3.78,3.78,0,0,0-.26,1,85.58,85.58,0,0,0-.71,8.71c0,1.76.2,2.47.71,3a2.22,2.22,0,0,0,1.6.53,9,9,0,0,0,6.8-3.94c.16-.2.35-.37.51-.37s.31.11.31.26a2.09,2.09,0,0,1-.25.86C185.18,50.59,182.82,52.59,179.78,52.59Z"/><path class="cls-1" d="M201.28,52.87c-2.18,0-3.72-1.25-3.72-2.26,0-1.19,1.78-2.31,3.57-2.31a10.85,10.85,0,0,1,2.5.31c0-.49.05-1,.05-1.59s0-1.34-.05-2c-1.27.11-1.82.16-2.64.16a2,2,0,0,1-1.12-.2,2.47,2.47,0,0,1-1.21-1.47.14.14,0,0,1,.16-.14,2.58,2.58,0,0,1,.52.11,7.46,7.46,0,0,0,1.76.11,24.14,24.14,0,0,0,2.49-.19c0-1.08-.07-2.16-.09-3.24-1.08.11-2.15.26-3.1.44l-.75.15a1.69,1.69,0,0,1-.48.07,1.65,1.65,0,0,1-.93-.53c-.39-.35-.57-.59-.57-.72s.13-.18.6-.27c.88-.15,2.64-.39,5.19-.75,0-.9,0-1.4,0-1.91a4.12,4.12,0,0,0-.16-1.19,1.77,1.77,0,0,1-.13-.55c0-.11.13-.2.37-.2a5.62,5.62,0,0,1,2.07.77.53.53,0,0,1,.24.44,1.15,1.15,0,0,1-.08.42,4,4,0,0,0-.38,2l1.83-.18a2.83,2.83,0,0,0,.68-.13.85.85,0,0,1,.37-.11,2,2,0,0,1,.62.13A1.68,1.68,0,0,1,210,39.28c0,.33-.15.55-1,.55-1.21,0-2.44.08-3.65.2,0,1.16,0,2.15,0,3.16.38-.06.82-.15,1.19-.24a4.49,4.49,0,0,0,.95-.33.93.93,0,0,1,.48-.17c.7,0,1.63.48,1.63,1,0,.38-.22.55-.79.71-.73.17-2.23.46-3.41.63,0,1.57,0,2.86,0,3.48,0,.33,0,.42,0,.73a39.1,39.1,0,0,1,4,1.43c.88.37,1.15.72,1.15,1.23s-.38.92-1,.92a3.15,3.15,0,0,1-1.21-.42,34.45,34.45,0,0,0-3.28-1.51C204.54,52.21,202.84,52.87,201.28,52.87Zm-.66-3.47a1.63,1.63,0,0,0-1.52,1.3c0,.39.46.79,1.78.79a2.78,2.78,0,0,0,2.42-1.43A7.73,7.73,0,0,0,200.62,49.4Z"/><path class="cls-1" d="M228.23,52.59a3.89,3.89,0,0,1-3.3-1.17c-1.15-1.05-1.39-2.37-1.39-4.68,0-.84.2-4.49.38-7.27,0-.66.08-1.32.08-2a3.26,3.26,0,0,0-.28-1.54,2.26,2.26,0,0,1-.2-.59c0-.11.09-.15.26-.15a4.67,4.67,0,0,1,1.94.81c.6.4.79.64.79.9a1.3,1.3,0,0,1-.19.68,3.78,3.78,0,0,0-.27,1c-.35,2.48-.7,7-.7,8.71s.19,2.47.7,3a2.25,2.25,0,0,0,1.61.53c2.18,0,4.79-1.3,6.8-3.94.15-.2.35-.37.5-.37s.31.11.31.26a2.2,2.2,0,0,1-.24.86C233.62,50.59,231.27,52.59,228.23,52.59Z"/><path class="cls-1" d="M251.5,38.4a.91.91,0,0,1,.64-.2,1.89,1.89,0,0,1,.9.2c.36.17.66.39.66.77s-.15.41-.63.57c-.84.26-1.92.62-3,.95-1.14,4-2.16,7.34-3.1,10.8a1.12,1.12,0,0,1-1,.9,1.34,1.34,0,0,1-1.1-1.36,1.9,1.9,0,0,1,.2-.86l.31-.75c1.05-2.62,1.91-5.41,2.75-8.23-.38.09-.9.22-1.72.44a3.42,3.42,0,0,1-.79.16,3.25,3.25,0,0,1-1.56-.91.64.64,0,0,1-.29-.46c0-.11.09-.15.27-.18.48,0,1-.11,1.29-.15a31.12,31.12,0,0,0,3.24-.66,15.32,15.32,0,0,0,.46-3.26,3.09,3.09,0,0,0-.09-.79,2.24,2.24,0,0,1-.08-.39c0-.11.15-.22.39-.22a2.93,2.93,0,0,1,1.45.59c.69.44.86.73.86.86s-.07.33-.29.59a2,2,0,0,0-.3.66c-.18.53-.29.93-.47,1.41A3.14,3.14,0,0,0,251.5,38.4ZM253.6,44c-.27,0-.64.11-.8.11s-.39,0-.39-.27.11-.33.37-.5a11.53,11.53,0,0,1,5-1.26,4.35,4.35,0,0,1,1.93.4.92.92,0,0,1,.62.95c0,.41-.18.57-.92.81a14.35,14.35,0,0,0-1.74.66,1.82,1.82,0,0,1-.64.18c-.11,0-.22-.05-.22-.18a.68.68,0,0,1,.15-.33,8.55,8.55,0,0,0,.51-.86A25.19,25.19,0,0,0,253.6,44Zm-.84,4.6c0-.16,0-.27.15-.27s.2.09.36.24c1.25,1.43,3,1.63,5.5,1.63,1.16,0,1.4.07,1.62.22a1,1,0,0,1,.47.88c0,.55-.38,1-1.74,1a9.49,9.49,0,0,1-4.29-.88,3.82,3.82,0,0,1-2-2.35A2.34,2.34,0,0,1,252.76,48.61Z"/><path class="cls-2" d="M.06,17.37V15.32L5.93,9.4C6.52,8.78,7,8.24,7.41,7.77a6,6,0,0,0,.88-1.36A3.22,3.22,0,0,0,8.58,5a2.63,2.63,0,0,0-.39-1.44,2.56,2.56,0,0,0-1-.93,3.4,3.4,0,0,0-1.52-.33,3.16,3.16,0,0,0-1.54.36,2.51,2.51,0,0,0-1,1A3.25,3.25,0,0,0,2.7,5.28H0A5.17,5.17,0,0,1,.73,2.5a5,5,0,0,1,2-1.84A6.32,6.32,0,0,1,5.67,0,6.35,6.35,0,0,1,8.6.64a4.9,4.9,0,0,1,2,1.75,4.52,4.52,0,0,1,.71,2.52,5.14,5.14,0,0,1-.36,1.88,7.86,7.86,0,0,1-1.26,2,32,32,0,0,1-2.52,2.72L4,14.85V15h7.59v2.4Z"/><path class="cls-2" d="M20.74,17.67a5.71,5.71,0,0,1-3.46-1.05,6.45,6.45,0,0,1-2.21-3,13.28,13.28,0,0,1-.76-4.78A13,13,0,0,1,15.08,4a6.46,6.46,0,0,1,2.21-3,5.76,5.76,0,0,1,3.45-1,5.76,5.76,0,0,1,3.45,1,6.44,6.44,0,0,1,2.21,3,13,13,0,0,1,.77,4.76,13.11,13.11,0,0,1-.77,4.79,6.5,6.5,0,0,1-2.21,3A5.74,5.74,0,0,1,20.74,17.67Zm0-2.41a2.94,2.94,0,0,0,2.63-1.65,9.69,9.69,0,0,0,1-4.8,12.23,12.23,0,0,0-.44-3.52,4.68,4.68,0,0,0-1.24-2.17,2.74,2.74,0,0,0-1.91-.74A2.94,2.94,0,0,0,18.11,4a9.73,9.73,0,0,0-1,4.78,12.38,12.38,0,0,0,.44,3.54,4.76,4.76,0,0,0,1.23,2.17A2.77,2.77,0,0,0,20.74,15.26Z"/><path class="cls-2" d="M30.06,17.37V15.32L35.93,9.4c.59-.62,1.09-1.16,1.48-1.63a6,6,0,0,0,.88-1.36A3.22,3.22,0,0,0,38.58,5a2.71,2.71,0,0,0-.38-1.44,2.66,2.66,0,0,0-1.06-.93,3.4,3.4,0,0,0-1.52-.33,3.16,3.16,0,0,0-1.54.36,2.51,2.51,0,0,0-1,1,3.25,3.25,0,0,0-.36,1.57H30a5.17,5.17,0,0,1,.73-2.78,5,5,0,0,1,2-1.84A6.32,6.32,0,0,1,35.67,0a6.43,6.43,0,0,1,2.94.64,4.93,4.93,0,0,1,2,1.75,4.53,4.53,0,0,1,.72,2.52,5.16,5.16,0,0,1-.37,1.88,7.86,7.86,0,0,1-1.26,2,32,32,0,0,1-2.52,2.72L34,14.85V15h7.58v2.4Z"/><path class="cls-2" d="M50.74,17.67a5.71,5.71,0,0,1-3.46-1.05,6.45,6.45,0,0,1-2.21-3,13.28,13.28,0,0,1-.76-4.78A13,13,0,0,1,45.08,4a6.46,6.46,0,0,1,2.21-3,6.24,6.24,0,0,1,6.9,0,6.44,6.44,0,0,1,2.21,3,13,13,0,0,1,.77,4.76,13.11,13.11,0,0,1-.77,4.79,6.5,6.5,0,0,1-2.21,3A5.74,5.74,0,0,1,50.74,17.67Zm0-2.41a2.93,2.93,0,0,0,2.63-1.65,9.69,9.69,0,0,0,1-4.8,12.23,12.23,0,0,0-.44-3.52,4.68,4.68,0,0,0-1.24-2.17,2.74,2.74,0,0,0-1.91-.74A2.94,2.94,0,0,0,48.11,4a9.73,9.73,0,0,0-1,4.78,12.38,12.38,0,0,0,.44,3.54,4.68,4.68,0,0,0,1.24,2.17A2.73,2.73,0,0,0,50.74,15.26Z"/><path class="cls-2" d="M61.84,17.54a1.74,1.74,0,0,1-1.75-1.75,1.68,1.68,0,0,1,.51-1.23,1.71,1.71,0,0,1,1.24-.51,1.68,1.68,0,0,1,1.23.51,1.66,1.66,0,0,1,.53,1.23,1.69,1.69,0,0,1-.24.88,1.93,1.93,0,0,1-.64.63A1.69,1.69,0,0,1,61.84,17.54Z"/><path class="cls-2" d="M73,17.67a5.71,5.71,0,0,1-3.46-1.05,6.45,6.45,0,0,1-2.21-3,13.28,13.28,0,0,1-.76-4.78A13,13,0,0,1,67.29,4,6.46,6.46,0,0,1,69.5,1a6.24,6.24,0,0,1,6.9,0,6.46,6.46,0,0,1,2.22,3,13.19,13.19,0,0,1,.77,4.76,13.32,13.32,0,0,1-.77,4.79,6.57,6.57,0,0,1-2.21,3A5.77,5.77,0,0,1,73,17.67Zm0-2.41a2.93,2.93,0,0,0,2.63-1.65,9.69,9.69,0,0,0,1-4.8,12.26,12.26,0,0,0-.43-3.52,4.69,4.69,0,0,0-1.25-2.17A2.72,2.72,0,0,0,73,2.38,2.92,2.92,0,0,0,70.33,4a9.61,9.61,0,0,0-1,4.78,12.38,12.38,0,0,0,.44,3.54A4.68,4.68,0,0,0,71,14.52,2.73,2.73,0,0,0,73,15.26Z"/><path class="cls-2" d="M88.07,17.6A6.54,6.54,0,0,1,85.16,17a5.24,5.24,0,0,1-2-1.7,4.6,4.6,0,0,1-.81-2.47h2.75a2.46,2.46,0,0,0,1,1.77,3.2,3.2,0,0,0,2.06.69,3.25,3.25,0,0,0,1.69-.44,3.16,3.16,0,0,0,1.17-1.21,3.67,3.67,0,0,0,.42-1.77,3.64,3.64,0,0,0-.44-1.8,3.16,3.16,0,0,0-1.19-1.24A3.37,3.37,0,0,0,88,8.36a4.19,4.19,0,0,0-1.55.27,3.36,3.36,0,0,0-1.23.74L82.63,9,83.56.23h9.67v2.4H85.91L85.38,7.3h.1a3.88,3.88,0,0,1,1.35-.86,4.86,4.86,0,0,1,1.84-.35,5.24,5.24,0,0,1,4.72,2.76,6,6,0,0,1,.7,2.94,5.72,5.72,0,0,1-.77,3,5.44,5.44,0,0,1-2.13,2.07A6.32,6.32,0,0,1,88.07,17.6Z"/><path class="cls-2" d="M98.8,17.54a1.74,1.74,0,0,1-1.75-1.75,1.68,1.68,0,0,1,.51-1.23,1.76,1.76,0,0,1,2.48,0,1.65,1.65,0,0,1,.52,1.23,1.69,1.69,0,0,1-.24.88,1.84,1.84,0,0,1-.64.63A1.69,1.69,0,0,1,98.8,17.54Z"/><path class="cls-2" d="M109.91,17.67a5.71,5.71,0,0,1-3.46-1.05,6.52,6.52,0,0,1-2.21-3,13.5,13.5,0,0,1-.76-4.78A13.25,13.25,0,0,1,104.25,4a6.46,6.46,0,0,1,2.21-3,6.24,6.24,0,0,1,6.9,0,6.46,6.46,0,0,1,2.22,3,13.19,13.19,0,0,1,.77,4.76,13.32,13.32,0,0,1-.77,4.79,6.57,6.57,0,0,1-2.21,3A5.77,5.77,0,0,1,109.91,17.67Zm0-2.41a2.91,2.91,0,0,0,2.63-1.65,9.69,9.69,0,0,0,1-4.8,12.26,12.26,0,0,0-.43-3.52,4.69,4.69,0,0,0-1.25-2.17,2.72,2.72,0,0,0-1.91-.74A2.92,2.92,0,0,0,107.29,4a9.51,9.51,0,0,0-1,4.78,12.41,12.41,0,0,0,.43,3.54A4.68,4.68,0,0,0,108,14.52,2.73,2.73,0,0,0,109.91,15.26Z"/><path class="cls-2" d="M125,17.6a6.54,6.54,0,0,1-2.91-.62,5.24,5.24,0,0,1-2-1.7,4.6,4.6,0,0,1-.81-2.47H122a2.46,2.46,0,0,0,1,1.77,3.2,3.2,0,0,0,2.06.69,3.25,3.25,0,0,0,1.69-.44,3.09,3.09,0,0,0,1.17-1.21,3.67,3.67,0,0,0,.42-1.77,3.63,3.63,0,0,0-.43-1.8,3.18,3.18,0,0,0-1.2-1.24,3.37,3.37,0,0,0-1.74-.45,4.1,4.1,0,0,0-1.54.27,3.33,3.33,0,0,0-1.24.74L119.59,9l.93-8.74h9.67v2.4h-7.32l-.53,4.67h.11a3.74,3.74,0,0,1,1.34-.86,4.86,4.86,0,0,1,1.84-.35,5.24,5.24,0,0,1,4.72,2.76,6,6,0,0,1,.7,2.94,5.72,5.72,0,0,1-.77,3,5.44,5.44,0,0,1-2.13,2.07A6.32,6.32,0,0,1,125,17.6Z"/></g></g></svg>