<svg xmlns="http://www.w3.org/2000/svg" viewBox="0 0 236.47 57.33"><defs><style>.cls-1{fill:#424242;}.cls-2{fill:#91b21b;}</style></defs><g id="レイヤー_2" data-name="レイヤー 2"><g id="レイヤー_1-2" data-name="レイヤー 1"><path class="cls-1" d="M1.43,16.66V14.87L7,9.12q.88-.93,1.47-1.65a6.63,6.63,0,0,0,.87-1.35A3.28,3.28,0,0,0,9.6,4.76a2.52,2.52,0,0,0-.38-1.41,2.6,2.6,0,0,0-1.05-.92,3.31,3.31,0,0,0-1.5-.32,3.12,3.12,0,0,0-1.53.36,2.46,2.46,0,0,0-1,1A3.15,3.15,0,0,0,3.78,5H1.41A4.9,4.9,0,0,1,2.1,2.4,4.74,4.74,0,0,1,4,.66,5.9,5.9,0,0,1,6.72,0,5.84,5.84,0,0,1,9.45.65a4.66,4.66,0,0,1,1.84,1.67A4.28,4.28,0,0,1,12,4.69a5,5,0,0,1-.34,1.79,8,8,0,0,1-1.18,1.94A32,32,0,0,1,8.1,11L4.84,14.42v.12h7.38v2.12Z"/><path class="cls-1" d="M21,16.93a5.34,5.34,0,0,1-3.25-1A6.21,6.21,0,0,1,15.66,13,13.14,13.14,0,0,1,15,8.47a12.78,12.78,0,0,1,.72-4.55A6.32,6.32,0,0,1,17.73,1,5.33,5.33,0,0,1,21,0a5.21,5.21,0,0,1,3.22,1,6.1,6.1,0,0,1,2.06,2.88A12.78,12.78,0,0,1,27,8.47a13.2,13.2,0,0,1-.71,4.58,6.25,6.25,0,0,1-2.06,2.89A5.3,5.3,0,0,1,21,16.93Zm0-2.13a2.9,2.9,0,0,0,2.6-1.63,9.48,9.48,0,0,0,.94-4.7A11.84,11.84,0,0,0,24.08,5a4.64,4.64,0,0,0-1.22-2.15A2.69,2.69,0,0,0,21,2.14a2.89,2.89,0,0,0-2.61,1.63,9.63,9.63,0,0,0-.95,4.7,11.87,11.87,0,0,0,.43,3.46,4.55,4.55,0,0,0,1.22,2.14A2.74,2.74,0,0,0,21,14.8Z"/><path class="cls-1" d="M29.82,16.66V14.87l5.55-5.75q.89-.93,1.47-1.65a6.23,6.23,0,0,0,.87-1.35A3.28,3.28,0,0,0,38,4.76a2.52,2.52,0,0,0-.38-1.41,2.6,2.6,0,0,0-1-.92,3.31,3.31,0,0,0-1.5-.32,3.12,3.12,0,0,0-1.53.36,2.46,2.46,0,0,0-1,1A3.15,3.15,0,0,0,32.17,5H29.8a4.9,4.9,0,0,1,.69-2.62A4.74,4.74,0,0,1,32.38.66,5.9,5.9,0,0,1,35.11,0a5.84,5.84,0,0,1,2.73.61,4.66,4.66,0,0,1,1.84,1.67,4.28,4.28,0,0,1,.67,2.37A5,5,0,0,1,40,6.48a8,8,0,0,1-1.18,1.94A32,32,0,0,1,36.49,11l-3.26,3.41v.12h7.38v2.12Z"/><path class="cls-1" d="M49.36,16.93a5.34,5.34,0,0,1-3.25-1,6.13,6.13,0,0,1-2-2.89,12.89,12.89,0,0,1-.72-4.57,12.78,12.78,0,0,1,.72-4.55A6.32,6.32,0,0,1,46.12,1a5.33,5.33,0,0,1,3.24-1,5.21,5.21,0,0,1,3.22,1,6.1,6.1,0,0,1,2.06,2.88,12.78,12.78,0,0,1,.72,4.55,13.2,13.2,0,0,1-.71,4.58,6.25,6.25,0,0,1-2.06,2.89A5.3,5.3,0,0,1,49.36,16.93Zm0-2.13A2.9,2.9,0,0,0,52,13.17a9.48,9.48,0,0,0,.94-4.7A11.84,11.84,0,0,0,52.47,5a4.64,4.64,0,0,0-1.22-2.15,2.69,2.69,0,0,0-1.89-.73,2.89,2.89,0,0,0-2.61,1.63,9.63,9.63,0,0,0-1,4.7,11.87,11.87,0,0,0,.43,3.46,4.55,4.55,0,0,0,1.22,2.14A2.74,2.74,0,0,0,49.36,14.8Z"/><path class="cls-1" d="M59.82,16.81a1.56,1.56,0,0,1-1.13-.46,1.57,1.57,0,0,1-.47-1.14,1.53,1.53,0,0,1,.47-1.12,1.59,1.59,0,0,1,2.26,0A1.58,1.58,0,0,1,61.2,16a1.79,1.79,0,0,1-.58.58A1.57,1.57,0,0,1,59.82,16.81Z"/><path class="cls-1" d="M70.3,16.93a5.29,5.29,0,0,1-3.24-1A6.08,6.08,0,0,1,65,13a13.14,13.14,0,0,1-.71-4.57A13,13,0,0,1,65,3.92,6.26,6.26,0,0,1,67.07,1,5.32,5.32,0,0,1,70.3,0a5.26,5.26,0,0,1,3.23,1,6.23,6.23,0,0,1,2.06,2.88,12.78,12.78,0,0,1,.72,4.55,13,13,0,0,1-.72,4.58,6.23,6.23,0,0,1-2,2.89A5.33,5.33,0,0,1,70.3,16.93Zm0-2.13a2.91,2.91,0,0,0,2.61-1.63,9.59,9.59,0,0,0,.94-4.7A12.2,12.2,0,0,0,73.42,5a4.64,4.64,0,0,0-1.23-2.15,2.69,2.69,0,0,0-1.89-.73,2.89,2.89,0,0,0-2.6,1.63,9.52,9.52,0,0,0-1,4.7,12.25,12.25,0,0,0,.42,3.46,4.72,4.72,0,0,0,1.22,2.14A2.76,2.76,0,0,0,70.3,14.8Z"/><path class="cls-1" d="M84.57,16.89a6.16,6.16,0,0,1-2.7-.58A4.85,4.85,0,0,1,80,14.71a4.26,4.26,0,0,1-.77-2.32H81.6a2.41,2.41,0,0,0,.93,1.73,3.14,3.14,0,0,0,2,.68,3.23,3.23,0,0,0,1.68-.43,3.19,3.19,0,0,0,1.15-1.21,3.57,3.57,0,0,0,.42-1.75,3.76,3.76,0,0,0-.43-1.79A3.27,3.27,0,0,0,86.2,8.39a3.47,3.47,0,0,0-1.74-.46A4.63,4.63,0,0,0,83,8.19a3.53,3.53,0,0,0-1.22.67l-2.27-.33L80.4.26h9V2.39h-7L81.94,7H82a3.8,3.8,0,0,1,1.27-.77A4.67,4.67,0,0,1,85,5.89a5,5,0,0,1,4.52,2.65,5.66,5.66,0,0,1,.67,2.82,5.47,5.47,0,0,1-.71,2.84,5.21,5.21,0,0,1-2,2A5.83,5.83,0,0,1,84.57,16.89Z"/><path class="cls-1" d="M94.74,16.81a1.59,1.59,0,0,1-1.6-1.6,1.53,1.53,0,0,1,.47-1.12,1.58,1.58,0,0,1,1.13-.47,1.55,1.55,0,0,1,1.13.47,1.49,1.49,0,0,1,.47,1.12,1.52,1.52,0,0,1-.22.81,1.69,1.69,0,0,1-.58.58A1.54,1.54,0,0,1,94.74,16.81Z"/><path class="cls-1" d="M105.74.26v16.4h-2.49V2.75h-.09L99.24,5.31V2.94L103.33.26Z"/><path class="cls-1" d="M115.9,16.89a6.76,6.76,0,0,1-2.16-.4,5.12,5.12,0,0,1-1.93-1.29,6.48,6.48,0,0,1-1.38-2.41A11.88,11.88,0,0,1,109.92,9a15.89,15.89,0,0,1,.42-3.84,8.75,8.75,0,0,1,1.24-2.83,5.59,5.59,0,0,1,2-1.75A5.5,5.5,0,0,1,116.1,0a5.76,5.76,0,0,1,2.61.58,5,5,0,0,1,1.84,1.61,5.13,5.13,0,0,1,.9,2.33H119a3.16,3.16,0,0,0-1-1.7,2.83,2.83,0,0,0-1.93-.65,3.14,3.14,0,0,0-2.8,1.57,8.16,8.16,0,0,0-1,4.4h.12a4.27,4.27,0,0,1,1-1.19,4.48,4.48,0,0,1,1.39-.76,4.93,4.93,0,0,1,1.63-.27,5,5,0,0,1,2.59.69,5.12,5.12,0,0,1,1.84,1.91,5.55,5.55,0,0,1,.69,2.79,5.78,5.78,0,0,1-.71,2.84,5.13,5.13,0,0,1-2,2A5.79,5.79,0,0,1,115.9,16.89Zm0-2.09a3.13,3.13,0,0,0,1.69-.46,3.27,3.27,0,0,0,1.17-1.25,3.72,3.72,0,0,0,0-3.47,3.29,3.29,0,0,0-1.16-1.24A3.08,3.08,0,0,0,116,7.93a3.22,3.22,0,0,0-2.38,1,3.49,3.49,0,0,0-.72,1.1,3.44,3.44,0,0,0-.26,1.31,3.47,3.47,0,0,0,.43,1.71,3.4,3.4,0,0,0,1.18,1.26A3,3,0,0,0,115.89,14.8Z"/><path class="cls-2" d="M11.06,46.63H7.33v1h3.44v2.82H7.4c.86.73,1.78,1.55,2.75,2.46a16.94,16.94,0,0,0,1.47-5.27A79.68,79.68,0,0,0,12,38.2a32.3,32.3,0,0,0,8.18-1.56l.87,3.08A33.54,33.54,0,0,1,15.2,41c0,1.11-.06,2-.09,2.5h6.07v3.08H19.62V57.13H16.31V46.58h-1.4a26.81,26.81,0,0,1-1.16,6.19,16.13,16.13,0,0,1-2.31,4.43L9.36,55l-.49.58c-.42-.51-.93-1.08-1.54-1.72v3.44H4V53.6A17.61,17.61,0,0,1,1.7,56.55L0,53.89a14.48,14.48,0,0,0,3-3.46H.6V47.61H4v-1H.6V43.9H2.37c-.21-.85-.43-1.7-.67-2.55h-1V38.54H4v-2.1H7.33v2.1h3.82v2.81h-.94a23.46,23.46,0,0,1-.82,2.55h1.67ZM5.27,43.9H6.39a22.41,22.41,0,0,0,.85-2.55H4.65C5,42.49,5.15,43.34,5.27,43.9Z"/><path class="cls-2" d="M25.68,43,28,40.22q2.6,1.83,5.65,4.24a26.81,26.81,0,0,0,3.29-6.9l3.68.76a27.34,27.34,0,0,1-3.91,8.6q3.2,2.65,5.63,4.94l-2.43,2.72Q37.16,52,34.44,49.76a31.46,31.46,0,0,1-8.63,6.52l-2.17-3a29.52,29.52,0,0,0,7.76-6C29.5,45.77,27.6,44.34,25.68,43Z"/><path class="cls-2" d="M46.32,55.07V51.54H64.51v3.53Zm1.57-12.64V38.9H63v3.53Z"/><path class="cls-2" d="M71.93,42.27H82.57L82,52.44h3.38v2.84H70.12V52.44h8.45l.4-7.33h-7Z"/><path class="cls-2" d="M90.79,48.8V45.18h18.64V48.8Z"/><path class="cls-2" d="M117.36,38.56v5.12h3.31V36.75h3.57v6.93h3.31V38.56H131v8h-6.71v6.24h4.18V48h3.47v9h-3.47V55.81H116.49V57H113V48h3.46v4.78h4.18V46.58H114v-8Z"/><path class="cls-2" d="M155.6,53.71l-1.73,3a33.2,33.2,0,0,1-7.28-6.35v6.8H143V50.38a32.12,32.12,0,0,1-7.28,6.37l-1.72-3a33.28,33.28,0,0,0,6.61-4.91h-6V45.89h4c-.57-1.22-1.16-2.4-1.77-3.53l2.13-.92h-3.67V38.63H143V36.55h3.58v2.08h7.67v2.81H153a43.31,43.31,0,0,1-2,4.45h4V48.8h-6A33.37,33.37,0,0,0,155.6,53.71ZM140.11,41.44c.55,1,1.15,2.26,1.79,3.69l-1.79.76H143V41.44Zm9.34,4.45-1.76-.76q.84-1.56,1.74-3.69h-2.84v4.45Z"/><path class="cls-2" d="M158.32,39.12H167v-2h3.44v2H176v3.06h-5.55v1.41h4.7v3h-4.7v3.15a30.57,30.57,0,0,1,5.08,3.94L173.41,56a41.37,41.37,0,0,0-3.2-2.73,3.69,3.69,0,0,1-1.75,2.46,7.67,7.67,0,0,1-3.77.76,5.81,5.81,0,0,1-3.83-1.13,3.87,3.87,0,0,1-1.38-3.18,3.81,3.81,0,0,1,1.31-3,5.89,5.89,0,0,1,3.9-1.12,9.48,9.48,0,0,1,2.3.29V46.58h-7.82v-3H167V42.18h-8.67ZM167,51.39a5,5,0,0,0-1.92-.4c-1.41,0-2.12.39-2.12,1.18s.58,1.25,1.74,1.25A2.89,2.89,0,0,0,166.5,53,2.2,2.2,0,0,0,167,51.39Z"/><path class="cls-2" d="M182.48,37.65l3.71.08q-.34,5.75-.34,9.81c0,2.16.24,3.6.71,4.31a2.83,2.83,0,0,0,2.53,1.06,5.06,5.06,0,0,0,3.51-1.45,13.31,13.31,0,0,0,2.88-4.72L198.72,48q-3.1,8.36-9.63,8.36a8.77,8.77,0,0,1-4.12-.79,4.55,4.55,0,0,1-2.13-2.67,16.46,16.46,0,0,1-.67-5.33Q182.17,42.65,182.48,37.65Z"/><path class="cls-2" d="M202.79,42.4V39.34h3.46c.21-1.13.36-2,.45-2.57l3.42.29c-.07.51-.2,1.27-.38,2.28h7.64V42.4h-8.2a119.4,119.4,0,0,1-3.64,14l-3.42-.76a118.54,118.54,0,0,0,3.53-13.23Zm17.94,10.13.38,3.06a25.23,25.23,0,0,1-4.69.45,9.57,9.57,0,0,1-5.08-1.18,3.45,3.45,0,0,1-1.89-3c0-1.13.71-2.27,2.12-3.42l2.66,1.27a9.86,9.86,0,0,0-1.08,1.11,1.13,1.13,0,0,0-.26.66c0,.43.31.79.93,1.07a6.45,6.45,0,0,0,2.6.42A23.92,23.92,0,0,0,220.73,52.53Zm-.13-5.81a81.76,81.76,0,0,0-9.12.49l-.18-3a85.06,85.06,0,0,1,9.3-.49Z"/><path class="cls-2" d="M231.91,38.72h4.56l-.56,11.17h-3.44ZM232.24,55V51.68h3.89V55Z"/></g></g></svg>