<svg xmlns="http://www.w3.org/2000/svg" viewBox="0 0 258.3 57.01"><defs><style>.cls-1{fill:#424242;}.cls-2{fill:#91b21b;}</style></defs><g id="レイヤー_2" data-name="レイヤー 2"><g id="レイヤー_1-2" data-name="レイヤー 1"><path class="cls-1" d="M.82,16.62V14.83L6.37,9.08C7,8.45,7.45,7.91,7.83,7.43A5.87,5.87,0,0,0,8.7,6.08,3.14,3.14,0,0,0,9,4.72a2.61,2.61,0,0,0-.38-1.41,2.6,2.6,0,0,0-1-.92,3.33,3.33,0,0,0-1.5-.32,3.16,3.16,0,0,0-1.54.36,2.52,2.52,0,0,0-1,1A3.27,3.27,0,0,0,3.16,5H.8a4.9,4.9,0,0,1,.69-2.62A4.67,4.67,0,0,1,3.38.62,5.9,5.9,0,0,1,6.11,0,5.77,5.77,0,0,1,8.83.61a4.69,4.69,0,0,1,1.85,1.67,4.36,4.36,0,0,1,.66,2.37A4.82,4.82,0,0,1,11,6.44,7.68,7.68,0,0,1,9.82,8.38C9.26,9.09,8.48,10,7.49,11L4.23,14.38v.12h7.38v2.12Z"/><path class="cls-1" d="M20.35,16.89a5.33,5.33,0,0,1-3.24-1A6.15,6.15,0,0,1,15.05,13a13.14,13.14,0,0,1-.71-4.57,12.74,12.74,0,0,1,.72-4.55A6.18,6.18,0,0,1,17.12,1a5.32,5.32,0,0,1,3.23-1,5.24,5.24,0,0,1,3.23,1,6.17,6.17,0,0,1,2.06,2.88,12.78,12.78,0,0,1,.72,4.55A13,13,0,0,1,25.64,13a6.23,6.23,0,0,1-2.05,2.89A5.33,5.33,0,0,1,20.35,16.89Zm0-2.13A2.91,2.91,0,0,0,23,13.13a9.59,9.59,0,0,0,.94-4.7A11.84,11.84,0,0,0,23.47,5a4.72,4.72,0,0,0-1.22-2.15,2.73,2.73,0,0,0-1.9-.73,2.89,2.89,0,0,0-2.6,1.63,9.52,9.52,0,0,0-.95,4.7,11.87,11.87,0,0,0,.43,3.46A4.55,4.55,0,0,0,18.45,14,2.72,2.72,0,0,0,20.35,14.76Z"/><path class="cls-1" d="M29.21,16.62V14.83l5.55-5.75c.59-.63,1.08-1.17,1.46-1.65a5.87,5.87,0,0,0,.87-1.35,3.14,3.14,0,0,0,.29-1.36A2.61,2.61,0,0,0,37,3.31a2.6,2.6,0,0,0-1-.92,3.31,3.31,0,0,0-1.5-.32,3.16,3.16,0,0,0-1.54.36,2.52,2.52,0,0,0-1,1A3.27,3.27,0,0,0,31.55,5H29.19a4.9,4.9,0,0,1,.69-2.62A4.67,4.67,0,0,1,31.77.62,5.9,5.9,0,0,1,34.5,0a5.84,5.84,0,0,1,2.73.61,4.73,4.73,0,0,1,1.84,1.67,4.37,4.37,0,0,1,.67,2.37,4.83,4.83,0,0,1-.35,1.79,7.68,7.68,0,0,1-1.18,1.94c-.56.71-1.34,1.57-2.33,2.59l-3.26,3.41v.12H40v2.12Z"/><path class="cls-1" d="M48.74,16.89a5.33,5.33,0,0,1-3.24-1A6.15,6.15,0,0,1,43.44,13a13.14,13.14,0,0,1-.71-4.57,12.74,12.74,0,0,1,.72-4.55A6.18,6.18,0,0,1,45.51,1a5.32,5.32,0,0,1,3.23-1A5.24,5.24,0,0,1,52,1,6.17,6.17,0,0,1,54,3.88a12.78,12.78,0,0,1,.72,4.55A13,13,0,0,1,54,13,6.23,6.23,0,0,1,52,15.9,5.33,5.33,0,0,1,48.74,16.89Zm0-2.13a2.91,2.91,0,0,0,2.61-1.63,9.48,9.48,0,0,0,.94-4.7A11.84,11.84,0,0,0,51.86,5a4.64,4.64,0,0,0-1.22-2.15,2.73,2.73,0,0,0-1.9-.73,2.89,2.89,0,0,0-2.6,1.63,9.52,9.52,0,0,0-1,4.7,11.87,11.87,0,0,0,.43,3.46A4.55,4.55,0,0,0,46.84,14,2.72,2.72,0,0,0,48.74,14.76Z"/><path class="cls-1" d="M59.21,16.77a1.59,1.59,0,0,1-1.6-1.6,1.49,1.49,0,0,1,.47-1.12,1.55,1.55,0,0,1,1.13-.47,1.58,1.58,0,0,1,1.13.47,1.53,1.53,0,0,1,.47,1.12,1.61,1.61,0,0,1-.22.81,1.79,1.79,0,0,1-.58.58A1.57,1.57,0,0,1,59.21,16.77Z"/><path class="cls-1" d="M69.69,16.89a5.34,5.34,0,0,1-3.25-1,6.13,6.13,0,0,1-2-2.89,12.89,12.89,0,0,1-.72-4.57,12.74,12.74,0,0,1,.72-4.55A6.26,6.26,0,0,1,66.46,1a5.3,5.3,0,0,1,3.23-1,5.21,5.21,0,0,1,3.22,1A6.18,6.18,0,0,1,75,3.88a13,13,0,0,1,.71,4.55A13.2,13.2,0,0,1,75,13a6.25,6.25,0,0,1-2.06,2.89A5.3,5.3,0,0,1,69.69,16.89Zm0-2.13a2.89,2.89,0,0,0,2.6-1.63,9.48,9.48,0,0,0,.94-4.7A12.23,12.23,0,0,0,72.81,5a4.73,4.73,0,0,0-1.23-2.15,2.69,2.69,0,0,0-1.89-.73,2.88,2.88,0,0,0-2.6,1.63,9.62,9.62,0,0,0-1,4.7,12.22,12.22,0,0,0,.43,3.46A4.63,4.63,0,0,0,67.78,14,2.76,2.76,0,0,0,69.69,14.76Z"/><path class="cls-1" d="M84,16.85a6.22,6.22,0,0,1-2.7-.58,4.92,4.92,0,0,1-1.91-1.6,4.25,4.25,0,0,1-.76-2.32H81a2.38,2.38,0,0,0,.94,1.73,3.11,3.11,0,0,0,2,.68,3.23,3.23,0,0,0,1.68-.43,3.11,3.11,0,0,0,1.15-1.21,3.57,3.57,0,0,0,.42-1.75,3.65,3.65,0,0,0-.43-1.79,3.2,3.2,0,0,0-1.19-1.23,3.41,3.41,0,0,0-1.73-.46,4.64,4.64,0,0,0-1.5.26,3.57,3.57,0,0,0-1.21.67l-2.27-.33L79.79.22h9V2.35h-7l-.52,4.58h.09a3.86,3.86,0,0,1,1.28-.77,4.6,4.6,0,0,1,1.71-.31,5,5,0,0,1,2.67.71A5.08,5.08,0,0,1,88.93,8.5a5.76,5.76,0,0,1,.67,2.82,5.48,5.48,0,0,1-.72,2.84,5.19,5.19,0,0,1-2,2A5.86,5.86,0,0,1,84,16.85Z"/><path class="cls-1" d="M94.13,16.77A1.56,1.56,0,0,1,93,16.31a1.57,1.57,0,0,1-.47-1.14A1.53,1.53,0,0,1,93,14.05a1.59,1.59,0,0,1,2.26,0A1.58,1.58,0,0,1,95.51,16a1.79,1.79,0,0,1-.58.58A1.57,1.57,0,0,1,94.13,16.77Z"/><path class="cls-1" d="M105.12.22v16.4h-2.48V2.71h-.09L98.62,5.27V2.9L102.71.22Z"/><path class="cls-1" d="M115.27,16.89a5.29,5.29,0,0,1-3.24-1A6.08,6.08,0,0,1,110,13a12.89,12.89,0,0,1-.72-4.57A12.74,12.74,0,0,1,110,3.88,6.26,6.26,0,0,1,112,1a5.3,5.3,0,0,1,3.23-1,5.21,5.21,0,0,1,3.22,1,6.18,6.18,0,0,1,2.07,2.88,13,13,0,0,1,.71,4.55,13.2,13.2,0,0,1-.71,4.58,6.25,6.25,0,0,1-2.06,2.89A5.28,5.28,0,0,1,115.27,16.89Zm0-2.13a2.89,2.89,0,0,0,2.6-1.63,9.48,9.48,0,0,0,.94-4.7A12.23,12.23,0,0,0,118.39,5a4.73,4.73,0,0,0-1.23-2.15,2.69,2.69,0,0,0-1.89-.73,2.88,2.88,0,0,0-2.6,1.63,9.62,9.62,0,0,0-1,4.7,12.22,12.22,0,0,0,.43,3.46A4.63,4.63,0,0,0,113.36,14,2.76,2.76,0,0,0,115.27,14.76Z"/><path class="cls-2" d="M0,47.78V44.16H20.42v3.62Z"/><path class="cls-2" d="M22.28,44.52H27.6v5.32a10.34,10.34,0,0,0,.59-2.53,37.83,37.83,0,0,0,.17-4.09V41l-2.13,2q-2.11-2.35-3.95-4.18l2.32-2.1q2.37,2.46,3.76,4V36.61h14v13a4.31,4.31,0,0,1-.56,2.71,3.91,3.91,0,0,1-2.59.58c-.5,0-1.23,0-2.2-.07l-.06-.92H34.3v.74H31.69V46.24h6.79v4h0q.49,0,.57-.12a1.84,1.84,0,0,0,.08-.78V45.55H31.42A22.22,22.22,0,0,1,31,49.73a10.59,10.59,0,0,1-1.17,3L27.6,51.27v.49A3.06,3.06,0,0,0,28.86,53a8.06,8.06,0,0,0,2.54.53c1.19.12,3,.17,5.52.17h6l-.18,2.84H37a44.74,44.74,0,0,1-7-.41,7.25,7.25,0,0,1-3.59-1.47,33.6,33.6,0,0,1-3,2.21l-1.63-2.74c.89-.57,1.67-1.11,2.34-1.61V47.42H22.28Zm11.44-5.36H31.44V40h2.28Zm-2.28,4h2.28v-.89H31.44Zm2.86,6.57H36V48.36H34.3ZM39.17,40v-.8H36.89V40Zm0,2.35H36.89v.89h2.28Z"/><path class="cls-2" d="M48.29,56.65h-3.4v-20h9.39v9.12h-6Zm0-16.44H51.6v-1H48.29Zm0,2.23v1H51.6v-1Zm12.8,14.17q-1.47,0-3.06-.09l-.09-1.34H52.85v.87H49.94v-9.3h9.93v7h.64c.5,0,.79,0,.87-.11s.14-.33.14-.78V45.73H55.31V36.61h9.61v16c0,.69,0,1.23,0,1.61a4.29,4.29,0,0,1-.19,1.1,1.88,1.88,0,0,1-.37.74,1.79,1.79,0,0,1-.7.38,4.36,4.36,0,0,1-1,.18C62.23,56.6,61.73,56.61,61.09,56.61ZM52.85,50H57V49H52.85Zm0,2.08v1H57V52Zm8.67-11.82v-1H58v1Zm0,2.23H58v1h3.53Z"/><path class="cls-2" d="M75.17,39.4v.45a48.52,48.52,0,0,1-1.61,4.65,8.1,8.1,0,0,1,1.5,4.67,4,4,0,0,1-.79,2.75,3.29,3.29,0,0,1-2.49.84h-.41l-.53-2.16v6.08H67.71V36.79h7.46Zm-2.77,0H70.84v4.49A37.11,37.11,0,0,0,72.4,39.4Zm-1.56,6V50H71a1.11,1.11,0,0,0,.92-.3,2.37,2.37,0,0,0,.22-1.27A3.92,3.92,0,0,0,71.84,47,7.31,7.31,0,0,0,70.84,45.35Zm4.76-8.54H86.9V48H83.37a10.24,10.24,0,0,0,.74,1.87,24.91,24.91,0,0,0,2.1-1.74l1.65,2.12c-.77.72-1.49,1.33-2.14,1.83A10.43,10.43,0,0,0,88,53.82l-1.38,2.83a10,10,0,0,1-4.36-3.86l.22,2.43A53.35,53.35,0,0,1,74,56.56l-.2-2.9c.82-.06,1.41-.11,1.79-.16ZM79,41.23h4.49v-1.6H79Zm0,2.4v1.65h4.49V43.63Zm3.11,8.82A15.06,15.06,0,0,1,80.31,48H79v5C80.3,52.81,81.33,52.62,82.08,52.45Z"/><path class="cls-2" d="M109.85,53.5l-.18,3H108.2a36.9,36.9,0,0,1-9.2-.87,10.1,10.1,0,0,1-5.1-3.13,37.38,37.38,0,0,1-1.81,4.33L89,55.6a42.55,42.55,0,0,0,3.08-9.18l3.26.67c-.15.74-.3,1.44-.47,2.1a7.23,7.23,0,0,0,3.27,3.11V45.12H92.42V43.87h-2.5V38.06h7.84v-2h3.67v2h7.84v5.81h-2.5v1.25h-4.94V47.4h6.1v2.82h-6.1v3a51.38,51.38,0,0,0,6.41.29ZM93.21,42.31H106V40.88H93.21Z"/><path class="cls-2" d="M114.55,42.51l2.3-2.77q2.59,1.83,5.65,4.24a26.5,26.5,0,0,0,3.29-6.9l3.68.76a27.24,27.24,0,0,1-3.91,8.6q3.19,2.66,5.63,4.94l-2.43,2.73q-2.73-2.55-5.45-4.83a31.26,31.26,0,0,1-8.63,6.52l-2.17-3a29.31,29.31,0,0,0,7.76-6C118.37,45.29,116.47,43.86,114.55,42.51Z"/><path class="cls-2" d="M135.19,54.6V51.07h18.19V54.6ZM136.76,42V38.42h15.06V42Z"/><path class="cls-2" d="M160.8,41.79h10.64L170.9,52h3.38V54.8H159V52h8.45l.4-7.33h-7Z"/><path class="cls-2" d="M179.66,48.32V44.7H198.3v3.62Z"/><path class="cls-2" d="M201.16,56.41V53.59h5c-.3-1-.48-1.57-.56-1.76h-1.74v-5.5c-.67.42-1.29.77-1.86,1.07l-1.27-3c1-.54,2-1.07,2.9-1.61-.83-.82-1.65-1.59-2.45-2.32l2.32-2.15.69.67V36.59h8.9a15.26,15.26,0,0,0,1.25,1.9c.59-.75,1.1-1.44,1.52-2.08L218.34,38a26.18,26.18,0,0,1-2,2.71c.21.19.54.47,1,.82.64-.77,1.25-1.59,1.84-2.46l2.54,1.57a28.43,28.43,0,0,1-1.94,2.57c.56.34,1.31.76,2.23,1.25l-1.27,3c-.57-.3-1.18-.65-1.86-1.07v5.5h-1.76c-.33.8-.59,1.39-.78,1.76h5.2v2.82Zm3.28-10.48h13.77a28,28,0,0,1-3-2.21V45h-7.82V43.72A29.22,29.22,0,0,1,204.44,45.93ZM206.23,41a14.79,14.79,0,0,0,1.77-1.7h-3.51C204.88,39.67,205.46,40.24,206.23,41Zm1.21,8.58h7.77V48.34h-7.77Zm3.89-10A24.16,24.16,0,0,1,209,42.24h4.65A24,24,0,0,1,211.33,39.56Zm1.25,14c.28-.5.57-1.09.87-1.76H209.2c.21.67.38,1.26.52,1.76Z"/><path class="cls-2" d="M240.51,56.72c-.54,0-1.45,0-2.75-.11l-.13-2.24A17.38,17.38,0,0,1,234.48,57L232.6,55.2a17.47,17.47,0,0,0,4.94-4.62H236.4a18.44,18.44,0,0,1-3,2.91,19.4,19.4,0,0,1-3.63,2.29l-1.68-1.9a18.36,18.36,0,0,0,5.05-3.3h-1.43c-.49.35-.88.61-1.18.78l.07.76a35.5,35.5,0,0,1-7,2.54l-.38-3.06c.93-.18,1.54-.3,1.86-.38V45.39h-1.77V42.53h1.77V36.65h3.37v5.88h2.08V36.7H243v8H230.59v.67H244v2.32h-9.16q-.6.67-.63.69h9.3v2.13a21,21,0,0,1-.28,4,2.84,2.84,0,0,1-.88,1.75A3.24,3.24,0,0,1,240.51,56.72Zm-8.87-9h-2V45.39h-1.21v4.47A17,17,0,0,0,231.64,47.67Zm2.21-7.46h5.59v-.85h-5.59Zm0,1.67v.87h5.59v-.87Zm6.5,9a17.25,17.25,0,0,1-2.3,3.09c.58,0,1.07.06,1.46.06a.7.7,0,0,0,.53-.17,1.65,1.65,0,0,0,.24-.79,18.11,18.11,0,0,0,.07-2Z"/><path class="cls-2" d="M253.74,38.24h4.56l-.56,11.17H254.3Zm.33,16.31V51.2H258v3.35Z"/></g></g></svg>