<svg xmlns="http://www.w3.org/2000/svg" viewBox="0 0 257.81 56.89"><defs><style>.cls-1{fill:#91b21b;}.cls-2{fill:#424242;}</style></defs><g id="レイヤー_2" data-name="レイヤー 2"><g id="レイヤー_1-2" data-name="レイヤー 1"><path class="cls-1" d="M0,44H19.44v3.24H12.33a8.45,8.45,0,0,1-2,5.93,11,11,0,0,1-6.21,3L3.06,52.89a8.18,8.18,0,0,0,4.24-2,5.23,5.23,0,0,0,1.24-3.75H0Zm2.64-2.79V37.92H16.8v3.24Z"/><path class="cls-1" d="M28.4,52.13a11.46,11.46,0,0,0,6.24-2.48,14.38,14.38,0,0,0,3.75-6.15l3.33,1.32q-2.14,5.9-6,8.4t-10.63,2.5h-.58v-18H28.4Z"/><path class="cls-1" d="M46.08,38h3.71v6a79.36,79.36,0,0,0,12-3l1,3.24a80.42,80.42,0,0,1-12.91,3.15v2.84a2.47,2.47,0,0,0,.4,1.68,2.47,2.47,0,0,0,1.68.4q5.34,0,10.21-.33l.09,3.33q-5.51.33-10.57.33c-2.06,0-3.49-.39-4.3-1.18s-1.22-2.23-1.22-4.32ZM61.61,39.9,59.33,41c-.58-1.18-1.22-2.36-1.9-3.55l2.3-1.17C60.25,37.24,60.88,38.44,61.61,39.9Zm3.75-.49L63,40.53c-.67-1.3-1.32-2.5-2-3.62l2.35-1.18C64,36.69,64.6,37.92,65.36,39.41Z"/><path class="cls-1" d="M67.06,38.7q9.07,0,18.5-.45l.11,3.24c-3.44.24-6,.95-7.74,2.15a5.31,5.31,0,0,0-2.58,4.51,4.42,4.42,0,0,0,1.4,3.45,5.3,5.3,0,0,0,3.7,1.26,15,15,0,0,0,2.7-.29l.4,3.31a16.38,16.38,0,0,1-3.28.31,9.52,9.52,0,0,1-6.43-2.07,7.05,7.05,0,0,1-2.4-5.61,6.83,6.83,0,0,1,1.1-3.71,9.34,9.34,0,0,1,3-3v0q-4.68.18-8.51.18Zm17,8.8-2.3,1.1c-.58-1.18-1.22-2.36-1.9-3.56l2.3-1.16C82.87,45.15,83.51,46.35,84.09,47.5Zm3.62-.71L85.36,47.9c-.67-1.29-1.32-2.5-1.94-3.62l2.34-1.18Q86.57,44.56,87.71,46.79Z"/><path class="cls-1" d="M88.42,55.5c.32-2.17.53-4.23.65-6.17l2,.14a62.82,62.82,0,0,1-.65,6.37Zm0-13.74,1.2-3.4.35.43c.16.19.27.34.35.44q.69-1.57,1.2-3.06l2.71.81c-.69,1.64-1.4,3.18-2.15,4.64a2.58,2.58,0,0,0,.2.29l.16.21c.83-1.43,1.49-2.63,2-3.58l2.59,1C96.41,40.73,95.72,42,95,43.23l1.65-.42c.12.42.32,1.13.59,2.14a6.83,6.83,0,0,0,3.59-5.14H97.34V37h12q0,2.69-.09,4.32a26.08,26.08,0,0,1-.27,2.74,3.42,3.42,0,0,1-.58,1.59,2.09,2.09,0,0,1-.88.66,4.25,4.25,0,0,1-1.33.16c-.89,0-2.07,0-3.53-.11l-.07-2.19a8.44,8.44,0,0,1-3.42,3.26H109v9.35h-3.46v-1H101v1H97.72V48.42l-1.81.36-.13-.54-1.06.07v8.58H91.37V48.55l-2.59.18-.09-3.19,1.77-.12.19-.28.19-.3ZM95,45.16q-.08-.25-.36-1.41l-.47.75c-.21.33-.36.58-.47.74Zm2.23,9.74L95.33,55q-.09-2.47-.34-5.67l1.86-.23Q97.12,51.86,97.27,54.9Zm.49-7.47h.9l-1.37-2C97.44,46,97.6,46.63,97.76,47.43Zm7.76,5.75v-3H101v3ZM105,43.64a.65.65,0,0,0,.54-.23,2.76,2.76,0,0,0,.29-1.06,22,22,0,0,0,.11-2.54h-1.83A12,12,0,0,1,103,43.55Z"/><path class="cls-1" d="M124.15,56.62V43.28H127a33.17,33.17,0,0,1-5.52-4.52,33.17,33.17,0,0,1-5.52,4.52h3.15v2.19a22.7,22.7,0,0,1-.52,5.44,8,8,0,0,1-1.71,3.38,12.15,12.15,0,0,1-3.44,2.55l-2-2.79a8.64,8.64,0,0,0,2.55-1.82,5.69,5.69,0,0,0,1.22-2.5,19.1,19.1,0,0,0,.37-4.26V43.55a40.5,40.5,0,0,1-3.67,2l-1.29-2.91a34.83,34.83,0,0,0,8.6-6.14h4.56a34.83,34.83,0,0,0,8.6,6.14L131,45.58a34.9,34.9,0,0,1-3.24-1.77V56.62Z"/><path class="cls-1" d="M145.56,45.4l0,0a15.72,15.72,0,0,1-1-3c-3.88.1-7.19.16-9.92.16V39.52q4.68,0,9.43-.13c-.06-.58-.12-1.41-.18-2.5l3.42-.2q.09,1.76.18,2.61c2.38-.09,4.16-.16,5.34-.22l.09,3.06-4.91.2a19.08,19.08,0,0,0,2.5,5.47l-3.31,1.5a8.93,8.93,0,0,0-4.76-1.41,3.73,3.73,0,0,0-2.23.58,1.87,1.87,0,0,0-.79,1.59q0,2.82,5,2.82a27.2,27.2,0,0,0,5.49-.63l.58,3.06a28.52,28.52,0,0,1-6.07.63c-2.83,0-5-.55-6.43-1.64a5.29,5.29,0,0,1-2.18-4.44,4.46,4.46,0,0,1,1.7-3.65,7.31,7.31,0,0,1,4.74-1.38A10.07,10.07,0,0,1,145.56,45.4Z"/><path class="cls-1" d="M156.15,40h4.67V36.89h3.42v5.18a16.49,16.49,0,0,1,3.11-2.31,5.15,5.15,0,0,1,2.3-.53,3,3,0,0,1,2.59,1.1,7.3,7.3,0,0,1,.79,4,15.05,15.05,0,0,1-.34,2.75,15,15,0,0,0-.31,2.72q0,1.86.69,1.86c.4,0,1.15-.5,2.23-1.5l1.75,2.46a9.56,9.56,0,0,1-2.53,1.94,5.38,5.38,0,0,1-2.48.72,2.81,2.81,0,0,1-2.48-1.13,7.33,7.33,0,0,1-.78-4,15.5,15.5,0,0,1,.31-2.75,14.07,14.07,0,0,0,.32-2.72c0-1.25-.24-1.88-.7-1.88a1,1,0,0,0-.49.18A13.64,13.64,0,0,0,167,44c-.66.56-1.56,1.39-2.71,2.48v9.72h-3.42V49.83l-1.44,1.43-1.5,1.47-2.31-2.28,5.25-5.18V43.05h-4.67Z"/><path class="cls-1" d="M179.66,38.81h8.67v-2h3.44v2h5.55v3.06h-5.55v1.41h4.7v3h-4.7v3.15a30.57,30.57,0,0,1,5.08,3.94l-2.1,2.32a41.37,41.37,0,0,0-3.2-2.73,3.69,3.69,0,0,1-1.75,2.46,7.67,7.67,0,0,1-3.77.76A5.81,5.81,0,0,1,182.2,55a3.87,3.87,0,0,1-1.38-3.18,3.81,3.81,0,0,1,1.31-3A5.89,5.89,0,0,1,186,47.7a9.48,9.48,0,0,1,2.3.29V46.27h-7.82v-3h7.82V41.87h-8.67Zm8.67,12.27a5,5,0,0,0-1.92-.4c-1.41,0-2.12.39-2.12,1.18s.58,1.25,1.74,1.25a2.89,2.89,0,0,0,1.81-.41A2.2,2.2,0,0,0,188.33,51.08Z"/><path class="cls-1" d="M203.82,37.33l3.71.09q-.34,5.74-.34,9.81c0,2.16.24,3.6.71,4.3a2.81,2.81,0,0,0,2.53,1.07,5,5,0,0,0,3.51-1.46,13.16,13.16,0,0,0,2.88-4.71l3.24,1.23Q217,56,210.43,56a8.89,8.89,0,0,1-4.12-.79,4.55,4.55,0,0,1-2.13-2.67,16.5,16.5,0,0,1-.67-5.33Q203.51,42.34,203.82,37.33Z"/><path class="cls-1" d="M224.13,42.09V39h3.46c.21-1.13.36-2,.45-2.57l3.42.29c-.07.51-.2,1.27-.38,2.28h7.64v3.06h-8.2a119.92,119.92,0,0,1-3.64,14l-3.42-.76A118.54,118.54,0,0,0,227,42.09Zm17.94,10.13.38,3.06a25.21,25.21,0,0,1-4.69.44,9.58,9.58,0,0,1-5.08-1.17,3.45,3.45,0,0,1-1.89-3c0-1.14.71-2.28,2.12-3.42l2.66,1.27a9.86,9.86,0,0,0-1.08,1.11,1.13,1.13,0,0,0-.26.66c0,.43.31.79.93,1.07a6.45,6.45,0,0,0,2.6.42A24.86,24.86,0,0,0,242.07,52.22Zm-.13-5.81a81.76,81.76,0,0,0-9.12.49l-.18-3a85,85,0,0,1,9.3-.5Z"/><path class="cls-1" d="M253.25,38.41h4.56l-.56,11.17h-3.44Zm.33,16.31V51.37h3.89v3.35Z"/><path class="cls-2" d="M3.11,16.47V14.53L8.68,8.91c.56-.58,1-1.1,1.4-1.54a6.12,6.12,0,0,0,.84-1.29,3.24,3.24,0,0,0,.28-1.31,2.51,2.51,0,0,0-.37-1.36,2.43,2.43,0,0,0-1-.89,3.3,3.3,0,0,0-1.43-.31,3.13,3.13,0,0,0-1.47.34,2.49,2.49,0,0,0-1,1A3.06,3.06,0,0,0,5.62,5H3.05a5,5,0,0,1,.7-2.64A4.75,4.75,0,0,1,5.66.62,6.05,6.05,0,0,1,8.44,0a6,6,0,0,1,2.78.61,4.65,4.65,0,0,1,1.87,1.66,4.33,4.33,0,0,1,.68,2.39,4.86,4.86,0,0,1-.35,1.78,7.83,7.83,0,0,1-1.2,1.94A30.12,30.12,0,0,1,9.84,11l-3,3.12v.12H14v2.27Z"/><path class="cls-2" d="M22.73,16.76a5.46,5.46,0,0,1-3.29-1,6.14,6.14,0,0,1-2.09-2.88,12.65,12.65,0,0,1-.73-4.53,12.55,12.55,0,0,1,.73-4.52A6.22,6.22,0,0,1,19.45,1a5.53,5.53,0,0,1,3.28-1A5.48,5.48,0,0,1,26,1a6.22,6.22,0,0,1,2.1,2.86,12.38,12.38,0,0,1,.73,4.52,12.49,12.49,0,0,1-.73,4.54A6.2,6.2,0,0,1,26,15.77,5.42,5.42,0,0,1,22.73,16.76Zm0-2.29a2.77,2.77,0,0,0,2.49-1.56,9.14,9.14,0,0,0,.91-4.55A11.88,11.88,0,0,0,25.72,5a4.55,4.55,0,0,0-1.18-2,2.59,2.59,0,0,0-1.81-.7,2.76,2.76,0,0,0-2.49,1.56,9.24,9.24,0,0,0-.93,4.54,11.54,11.54,0,0,0,.42,3.35,4.48,4.48,0,0,0,1.17,2.07A2.64,2.64,0,0,0,22.73,14.47Z"/><path class="cls-2" d="M31.57,16.47V14.53l5.57-5.62c.56-.58,1-1.1,1.4-1.54a5.68,5.68,0,0,0,.83-1.29,3.08,3.08,0,0,0,.28-1.31,2.43,2.43,0,0,0-.37-1.36,2.4,2.4,0,0,0-1-.89,3.31,3.31,0,0,0-1.44-.31,3.06,3.06,0,0,0-1.46.34,2.36,2.36,0,0,0-1,1A3.07,3.07,0,0,0,34.07,5H31.51a4.86,4.86,0,0,1,.7-2.64A4.72,4.72,0,0,1,34.11.62,6.08,6.08,0,0,1,36.89,0a6,6,0,0,1,2.78.61,4.68,4.68,0,0,1,1.88,1.66,4.33,4.33,0,0,1,.67,2.39,4.85,4.85,0,0,1-.34,1.78,7.83,7.83,0,0,1-1.2,1.94A31.87,31.87,0,0,1,38.3,11l-3,3.12v.12h7.2v2.27Z"/><path class="cls-2" d="M51.18,16.76a5.43,5.43,0,0,1-3.28-1,6.14,6.14,0,0,1-2.09-2.88,12.43,12.43,0,0,1-.73-4.53,12.34,12.34,0,0,1,.73-4.52A6.22,6.22,0,0,1,47.91,1a6,6,0,0,1,6.55,0,6.13,6.13,0,0,1,2.09,2.86,12.37,12.37,0,0,1,.74,4.52,12.48,12.48,0,0,1-.74,4.54,6.11,6.11,0,0,1-2.09,2.87A5.43,5.43,0,0,1,51.18,16.76Zm0-2.29a2.79,2.79,0,0,0,2.5-1.56,9.25,9.25,0,0,0,.91-4.55A11.49,11.49,0,0,0,54.17,5,4.46,4.46,0,0,0,53,3a2.6,2.6,0,0,0-1.82-.7,2.79,2.79,0,0,0-2.49,1.56,9.25,9.25,0,0,0-.92,4.54,11.92,11.92,0,0,0,.41,3.35,4.58,4.58,0,0,0,1.18,2.07A2.61,2.61,0,0,0,51.18,14.47Z"/><path class="cls-2" d="M61.71,16.64A1.67,1.67,0,0,1,60.05,15a1.56,1.56,0,0,1,.49-1.16,1.64,1.64,0,0,1,2.34,0,1.57,1.57,0,0,1,.5,1.16,1.6,1.6,0,0,1-.23.84,1.75,1.75,0,0,1-.61.6A1.6,1.6,0,0,1,61.71,16.64Z"/><path class="cls-2" d="M72.25,16.76a5.43,5.43,0,0,1-3.28-1,6.14,6.14,0,0,1-2.09-2.88,12.43,12.43,0,0,1-.73-4.53,12.34,12.34,0,0,1,.73-4.52A6.22,6.22,0,0,1,69,1a5.95,5.95,0,0,1,6.54,0,6.08,6.08,0,0,1,2.1,2.86,12.38,12.38,0,0,1,.73,4.52,12.49,12.49,0,0,1-.73,4.54,6.11,6.11,0,0,1-2.09,2.87A5.43,5.43,0,0,1,72.25,16.76Zm0-2.29a2.79,2.79,0,0,0,2.5-1.56,9.25,9.25,0,0,0,.91-4.55A11.49,11.49,0,0,0,75.24,5a4.47,4.47,0,0,0-1.18-2,2.57,2.57,0,0,0-1.81-.7,2.79,2.79,0,0,0-2.49,1.56,9.14,9.14,0,0,0-.92,4.54,11.92,11.92,0,0,0,.41,3.35,4.58,4.58,0,0,0,1.18,2.07A2.6,2.6,0,0,0,72.25,14.47Z"/><path class="cls-2" d="M86.59,16.7a6.32,6.32,0,0,1-2.76-.59,4.87,4.87,0,0,1-1.93-1.62,4.22,4.22,0,0,1-.77-2.34h2.6a2.33,2.33,0,0,0,.91,1.68,3,3,0,0,0,2,.65,3.19,3.19,0,0,0,1.61-.41,3,3,0,0,0,1.1-1.16,3.36,3.36,0,0,0,.4-1.67,3.54,3.54,0,0,0-.41-1.71,3,3,0,0,0-1.14-1.17,3.22,3.22,0,0,0-1.65-.43A4.12,4.12,0,0,0,85,8.18a3.36,3.36,0,0,0-1.17.71l-2.44-.38L82.31.22h9.18V2.49H84.54L84,6.93h.1a3.58,3.58,0,0,1,1.28-.82,4.57,4.57,0,0,1,1.74-.33,5,5,0,0,1,2.64.7,4.87,4.87,0,0,1,1.83,1.91,5.65,5.65,0,0,1,.67,2.79A5.49,5.49,0,0,1,91.57,14a5.15,5.15,0,0,1-2,2A6,6,0,0,1,86.59,16.7Z"/><path class="cls-2" d="M96.77,16.64A1.67,1.67,0,0,1,95.11,15a1.56,1.56,0,0,1,.49-1.16,1.64,1.64,0,0,1,2.34,0,1.57,1.57,0,0,1,.5,1.16,1.6,1.6,0,0,1-.23.84,1.84,1.84,0,0,1-.61.6A1.6,1.6,0,0,1,96.77,16.64Z"/><path class="cls-2" d="M107.31,16.76a5.46,5.46,0,0,1-3.29-1,6.21,6.21,0,0,1-2.09-2.88,12.66,12.66,0,0,1-.72-4.53,12.34,12.34,0,0,1,.73-4.52A6.08,6.08,0,0,1,104,1a5.95,5.95,0,0,1,6.54,0,6.08,6.08,0,0,1,2.1,2.86,12.38,12.38,0,0,1,.73,4.52,12.49,12.49,0,0,1-.73,4.54,6.11,6.11,0,0,1-2.09,2.87A5.45,5.45,0,0,1,107.31,16.76Zm0-2.29a2.79,2.79,0,0,0,2.5-1.56,9.27,9.27,0,0,0,.9-4.55A11.52,11.52,0,0,0,110.3,5a4.47,4.47,0,0,0-1.18-2,2.57,2.57,0,0,0-1.81-.7,2.79,2.79,0,0,0-2.49,1.56,9.14,9.14,0,0,0-.92,4.54,11.57,11.57,0,0,0,.41,3.35,4.57,4.57,0,0,0,1.17,2.07A2.64,2.64,0,0,0,107.31,14.47Z"/><path class="cls-2" d="M116.72,16.47l7-13.86V2.49h-8.12V.22h10.9V2.56l-7,13.91Z"/></g></g></svg>