<svg xmlns="http://www.w3.org/2000/svg" viewBox="0 0 176.8 52.79"><defs><style>.cls-1{fill:#91b21b;}.cls-2{fill:#424242;}</style></defs><g id="レイヤー_2" data-name="レイヤー 2"><g id="レイヤー_1-2" data-name="レイヤー 1"><path class="cls-1" d="M11.06,42H7.33v1h3.44V45.8H7.4c.86.73,1.78,1.55,2.75,2.46A16.94,16.94,0,0,0,11.62,43a79.68,79.68,0,0,0,.4-9.42A31.87,31.87,0,0,0,20.2,32l.87,3.08a33.54,33.54,0,0,1-5.87,1.28c0,1.11-.06,2-.09,2.5h6.07V42H19.62V52.5H16.31V42h-1.4a26.81,26.81,0,0,1-1.16,6.19,16.13,16.13,0,0,1-2.31,4.43L9.36,50.4,8.87,51c-.42-.5-.93-1.08-1.54-1.72V52.7H4V49a17.61,17.61,0,0,1-2.26,3L0,49.26A14.48,14.48,0,0,0,3,45.8H.6V43H4V42H.6V39.27H2.37c-.21-.85-.43-1.7-.67-2.55h-1V33.91H4v-2.1H7.33v2.1h3.82v2.81h-.94a23.46,23.46,0,0,1-.82,2.55h1.67ZM5.27,39.27H6.39a22.41,22.41,0,0,0,.85-2.55H4.65C5,37.86,5.15,38.71,5.27,39.27Z"/><path class="cls-1" d="M25.68,38.36,28,35.59q2.6,1.83,5.65,4.24a26.65,26.65,0,0,0,3.29-6.9l3.68.76a27.34,27.34,0,0,1-3.91,8.6q3.2,2.66,5.63,4.94L39.89,50q-2.73-2.54-5.45-4.82a31.46,31.46,0,0,1-8.63,6.52l-2.17-3a29.31,29.31,0,0,0,7.76-6C29.5,41.14,27.6,39.71,25.68,38.36Z"/><path class="cls-1" d="M46.32,50.45V46.92H64.51v3.53ZM47.89,37.8V34.27H63V37.8Z"/><path class="cls-1" d="M71.93,37.64H82.57L82,47.81h3.38v2.84H70.12V47.81h8.45l.4-7.33h-7Z"/><path class="cls-1" d="M90.79,44.17V40.55h18.64v3.62Z"/><path class="cls-1" d="M133.07,36.88h-6.43v2.91h5.76v2.9h-5.76v3h5.76v3h-5.76v3.93h-3.58V37.66a49.72,49.72,0,0,1-2.75,5.28L117.83,41V52.57h-3.48v-9.3a12.15,12.15,0,0,1-1.5,2l-1.12-3.78a18.83,18.83,0,0,0,2.76-4.25,21.78,21.78,0,0,0,1.6-5.18l3.22.61a22.41,22.41,0,0,1-1.48,5.16v2.39a41.68,41.68,0,0,0,3.78-8.38l3.35.67c0,.11-.08.26-.13.46l-.17.55c0,.16-.11.32-.17.47h8.58Z"/><path class="cls-1" d="M144.62,32h3.31c0,.49,0,1.2,0,2.12h2c-.54-.8-.94-1.39-1.21-1.76l2.82-.87a25,25,0,0,1,1.74,2.63h1.36V37h-6.55a36.13,36.13,0,0,0,.94,5.72,17,17,0,0,0,1.72-4.52l3,.81a19.31,19.31,0,0,1-3.45,7.46,9.55,9.55,0,0,0,.91,1.68c.29.4.5.6.64.6.37,0,.66-1.27.87-3.82l2.72,1.23a11.06,11.06,0,0,1-1.07,4.72,2.52,2.52,0,0,1-2.12,1.56,3.65,3.65,0,0,1-2.18-.86A8.82,8.82,0,0,1,148,49.06a16.26,16.26,0,0,1-5.23,3.06l-1.21-2.88a10.14,10.14,0,0,0,1.47-.63,5,5,0,0,1-.91.07c-.64,0-1.6,0-2.88-.13l-.34-2.42a16.23,16.23,0,0,1-2.43,6.55l-2.37-3.22a15,15,0,0,0,1.35-4,41.28,41.28,0,0,0,.32-6.07V34.13h8.92C144.64,33.21,144.62,32.5,144.62,32Zm-5.69,13.81c.89.07,1.55.11,2,.11a.86.86,0,0,0,.42-.07q.12-.06.21-.51a7.08,7.08,0,0,0,.11-1.22c0-.51,0-1.3,0-2.38h-2.52V42A30.18,30.18,0,0,1,138.93,45.82Zm.22-6.77h5.5q0,4.76-.18,6.68a4.44,4.44,0,0,1-.74,2.5,14.08,14.08,0,0,0,2.88-2.16,36.64,36.64,0,0,1-1.78-9h-5.68Z"/><path class="cls-1" d="M160.85,46.33v1.19H157.5V35.47h7.82V31.92H169v3.55h7.82V47.52h-3.35V46.33H169v6.46h-3.66V46.33Zm0-2.9h4.47v-5h-4.47Zm12.6,0v-5H169v5Z"/><path class="cls-2" d="M.55,16.47V14.53L6.12,8.91c.56-.58,1-1.1,1.4-1.54a6.12,6.12,0,0,0,.84-1.29,3.24,3.24,0,0,0,.28-1.31,2.51,2.51,0,0,0-.37-1.36,2.43,2.43,0,0,0-1-.89,3.3,3.3,0,0,0-1.43-.31,3.13,3.13,0,0,0-1.47.34,2.49,2.49,0,0,0-1,1A3.06,3.06,0,0,0,3.06,5H.49a5,5,0,0,1,.7-2.64A4.75,4.75,0,0,1,3.1.62,6,6,0,0,1,5.87,0,6.06,6.06,0,0,1,8.66.61a4.65,4.65,0,0,1,1.87,1.66,4.33,4.33,0,0,1,.68,2.39,4.86,4.86,0,0,1-.35,1.78,7.83,7.83,0,0,1-1.2,1.94A31.87,31.87,0,0,1,7.28,11l-3,3.12v.12h7.2v2.27Z"/><path class="cls-2" d="M20.17,16.76a5.46,5.46,0,0,1-3.29-1,6.14,6.14,0,0,1-2.09-2.88,12.65,12.65,0,0,1-.73-4.53,12.55,12.55,0,0,1,.73-4.52A6.22,6.22,0,0,1,16.89,1a5.51,5.51,0,0,1,3.28-1,5.5,5.5,0,0,1,3.27,1,6.22,6.22,0,0,1,2.1,2.86,12.59,12.59,0,0,1,.73,4.52,12.71,12.71,0,0,1-.73,4.54,6.2,6.2,0,0,1-2.1,2.87A5.42,5.42,0,0,1,20.17,16.76Zm0-2.29a2.77,2.77,0,0,0,2.49-1.56,9.14,9.14,0,0,0,.91-4.55A11.88,11.88,0,0,0,23.16,5,4.55,4.55,0,0,0,22,3a2.59,2.59,0,0,0-1.81-.7,2.79,2.79,0,0,0-2.5,1.56,9.37,9.37,0,0,0-.92,4.54,11.54,11.54,0,0,0,.42,3.35,4.48,4.48,0,0,0,1.17,2.07A2.64,2.64,0,0,0,20.17,14.47Z"/><path class="cls-2" d="M29,16.47V14.53l5.57-5.62c.56-.58,1-1.1,1.4-1.54a5.68,5.68,0,0,0,.83-1.29,3.08,3.08,0,0,0,.28-1.31,2.43,2.43,0,0,0-.37-1.36,2.4,2.4,0,0,0-1-.89,3.31,3.31,0,0,0-1.44-.31,3.06,3.06,0,0,0-1.46.34,2.45,2.45,0,0,0-1,1A3.18,3.18,0,0,0,31.51,5H29a5,5,0,0,1,.69-2.64A4.82,4.82,0,0,1,31.55.62,6.08,6.08,0,0,1,34.33,0a6,6,0,0,1,2.78.61A4.68,4.68,0,0,1,39,2.27a4.33,4.33,0,0,1,.67,2.39,4.85,4.85,0,0,1-.34,1.78,7.83,7.83,0,0,1-1.2,1.94A31.87,31.87,0,0,1,35.74,11l-3,3.12v.12h7.2v2.27Z"/><path class="cls-2" d="M48.62,16.76a5.43,5.43,0,0,1-3.28-1,6.14,6.14,0,0,1-2.09-2.88,12.43,12.43,0,0,1-.73-4.53,12.34,12.34,0,0,1,.73-4.52A6.22,6.22,0,0,1,45.35,1,6,6,0,0,1,51.9,1,6.13,6.13,0,0,1,54,3.84a12.38,12.38,0,0,1,.73,4.52A12.49,12.49,0,0,1,54,12.9a6.11,6.11,0,0,1-2.09,2.87A5.43,5.43,0,0,1,48.62,16.76Zm0-2.29a2.79,2.79,0,0,0,2.5-1.56A9.25,9.25,0,0,0,52,8.36,11.49,11.49,0,0,0,51.61,5a4.46,4.46,0,0,0-1.17-2,2.61,2.61,0,0,0-1.82-.7,2.79,2.79,0,0,0-2.49,1.56,9.25,9.25,0,0,0-.92,4.54,11.92,11.92,0,0,0,.41,3.35,4.58,4.58,0,0,0,1.18,2.07A2.6,2.6,0,0,0,48.62,14.47Z"/><path class="cls-2" d="M59.15,16.64A1.67,1.67,0,0,1,57.49,15,1.56,1.56,0,0,1,58,13.81a1.64,1.64,0,0,1,2.34,0,1.57,1.57,0,0,1,.5,1.16,1.6,1.6,0,0,1-.23.84,1.75,1.75,0,0,1-.61.6A1.6,1.6,0,0,1,59.15,16.64Z"/><path class="cls-2" d="M69.69,16.76a5.43,5.43,0,0,1-3.28-1,6.23,6.23,0,0,1-2.1-2.88,12.66,12.66,0,0,1-.72-4.53,12.34,12.34,0,0,1,.73-4.52A6.15,6.15,0,0,1,66.42,1,5.95,5.95,0,0,1,73,1a6.08,6.08,0,0,1,2.1,2.86,12.38,12.38,0,0,1,.73,4.52,12.49,12.49,0,0,1-.73,4.54A6.11,6.11,0,0,1,73,15.77,5.43,5.43,0,0,1,69.69,16.76Zm0-2.29a2.79,2.79,0,0,0,2.5-1.56,9.25,9.25,0,0,0,.91-4.55A11.49,11.49,0,0,0,72.68,5,4.47,4.47,0,0,0,71.5,3a2.57,2.57,0,0,0-1.81-.7A2.79,2.79,0,0,0,67.2,3.82a9.14,9.14,0,0,0-.92,4.54,11.92,11.92,0,0,0,.41,3.35,4.58,4.58,0,0,0,1.18,2.07A2.6,2.6,0,0,0,69.69,14.47Z"/><path class="cls-2" d="M84,16.7a6.29,6.29,0,0,1-2.76-.59,4.87,4.87,0,0,1-1.93-1.62,4.22,4.22,0,0,1-.77-2.34h2.6a2.33,2.33,0,0,0,.91,1.68,3,3,0,0,0,2,.65,3.19,3.19,0,0,0,1.61-.41,3.07,3.07,0,0,0,1.1-1.16,3.36,3.36,0,0,0,.4-1.67,3.54,3.54,0,0,0-.41-1.71,3,3,0,0,0-1.14-1.17,3.22,3.22,0,0,0-1.65-.43,4.12,4.12,0,0,0-1.46.25,3.18,3.18,0,0,0-1.17.71l-2.44-.38L79.75.22h9.18V2.49H82l-.5,4.44h.1a3.58,3.58,0,0,1,1.28-.82,4.57,4.57,0,0,1,1.74-.33,5,5,0,0,1,2.64.7,4.87,4.87,0,0,1,1.83,1.91,5.65,5.65,0,0,1,.67,2.79A5.49,5.49,0,0,1,89,14a5.15,5.15,0,0,1-2,2A6,6,0,0,1,84,16.7Z"/><path class="cls-2" d="M94.21,16.64A1.67,1.67,0,0,1,92.55,15,1.56,1.56,0,0,1,93,13.81,1.67,1.67,0,0,1,95.88,15a1.6,1.6,0,0,1-.23.84,1.84,1.84,0,0,1-.61.6A1.6,1.6,0,0,1,94.21,16.64Z"/><path class="cls-2" d="M104.75,16.76a5.46,5.46,0,0,1-3.29-1,6.21,6.21,0,0,1-2.09-2.88,12.66,12.66,0,0,1-.72-4.53,12.34,12.34,0,0,1,.73-4.52A6.08,6.08,0,0,1,101.48,1,5.95,5.95,0,0,1,108,1a6.22,6.22,0,0,1,2.1,2.86,12.38,12.38,0,0,1,.73,4.52,12.49,12.49,0,0,1-.73,4.54A6.18,6.18,0,0,1,108,15.77,5.45,5.45,0,0,1,104.75,16.76Zm0-2.29a2.76,2.76,0,0,0,2.49-1.56,9.14,9.14,0,0,0,.91-4.55A11.52,11.52,0,0,0,107.74,5a4.47,4.47,0,0,0-1.18-2,2.57,2.57,0,0,0-1.81-.7,2.79,2.79,0,0,0-2.49,1.56,9.14,9.14,0,0,0-.92,4.54,11.57,11.57,0,0,0,.41,3.35,4.57,4.57,0,0,0,1.17,2.07A2.64,2.64,0,0,0,104.75,14.47Z"/><path class="cls-2" d="M119.09,16.7a6.29,6.29,0,0,1-2.76-.59,4.9,4.9,0,0,1-1.94-1.62,4.29,4.29,0,0,1-.76-2.34h2.6a2.33,2.33,0,0,0,.91,1.68,3,3,0,0,0,2,.65,3.19,3.19,0,0,0,1.61-.41,3.07,3.07,0,0,0,1.1-1.16,3.46,3.46,0,0,0,.4-1.67,3.54,3.54,0,0,0-.41-1.71,3.05,3.05,0,0,0-1.14-1.17A3.22,3.22,0,0,0,119,7.93a4.12,4.12,0,0,0-1.46.25,3.18,3.18,0,0,0-1.17.71l-2.44-.38.88-8.29H124V2.49H117l-.5,4.44h.1a3.53,3.53,0,0,1,1.27-.82,4.62,4.62,0,0,1,1.75-.33,5,5,0,0,1,2.64.7,5,5,0,0,1,1.83,1.91,5.65,5.65,0,0,1,.67,2.79,5.49,5.49,0,0,1-.73,2.84,5.21,5.21,0,0,1-2,2A6,6,0,0,1,119.09,16.7Z"/></g></g></svg>