<svg xmlns="http://www.w3.org/2000/svg" viewBox="0 0 211.54 51.81"><defs><style>.cls-1{fill:#ef6565;}.cls-2{fill:#fff;}</style></defs><g id="レイヤー_2" data-name="レイヤー 2"><g id="レイヤー_1-2" data-name="レイヤー 1"><path class="cls-1" d="M10.18,36.93c1.51-.08,2.88-.17,4-.22a2.93,2.93,0,0,0,1.65-.37,4.1,4.1,0,0,1,1.28.61c.55.38.86.73.86.95a.74.74,0,0,1-.29.55,2.65,2.65,0,0,0-.44.81c-.33.88-.64,1.81-1,2.75.35.25.55.51.55.78s-.24.66-1,.66c-2,0-3.83,0-5.62.11l0,5.28c0,1.8-.39,2.61-1,2.61s-1-.77-1-2.61l0-5.2c-1.36.09-2.75.18-4.13.31a.94.94,0,0,1-.88,1c-.42,0-.86-.35-1.15-1.18A25.32,25.32,0,0,0,1.68,41,10.57,10.57,0,0,0,1,37.86a1.7,1.7,0,0,1-.18-.58c0-.15.14-.22.29-.22a4.22,4.22,0,0,1,1.56.47c1.85-.18,3.7-.31,5.55-.47V35.44a8.23,8.23,0,0,0-.33-2.58.67.67,0,0,1-.07-.28c0-.18.13-.27.42-.27a7.64,7.64,0,0,1,1.8.55c.46.22.58.42.58.62a1.4,1.4,0,0,1-.18.59,3.81,3.81,0,0,0-.24,1.76Zm-2,1.67c-1.89.18-3.3.29-4.7.45l.39,3.41q2.15-.21,4.29-.33Zm2,3.41,4.19-.19a24.5,24.5,0,0,0,.74-3.5c-1.56,0-3.21.09-4.9.17Z"/><path class="cls-1" d="M37,33.68a1.33,1.33,0,0,0,.09-.49,1.76,1.76,0,0,0-.16-.7c0-.18.11-.33.4-.33a3.83,3.83,0,0,1,1.67.77c.24.15.53.44.53.68a.84.84,0,0,1-.33.64,13,13,0,0,1-2.38,2.18c.82-.07,1.61-.11,2.4-.16A5.28,5.28,0,0,0,40.89,36a4.93,4.93,0,0,1,1.47,1,2.2,2.2,0,0,1,.93,1.36c0,.31-.24.55-.86.73a14.82,14.82,0,0,1-2.71.53c-.13,0-.24-.07-.24-.18a.58.58,0,0,1,.11-.31,10.47,10.47,0,0,0,.79-1.36,130.58,130.58,0,0,0-13.44,1c-.09,1.91-.73,2.9-1.47,2.9s-1-.64-1-1.25a1.45,1.45,0,0,1,.37-1,5,5,0,0,0,.71-2.65c0-.33,0-.41.24-.41s.64.41.9,1c2.93-.31,5.85-.58,8.78-.8A13.58,13.58,0,0,0,37,33.68ZM34.9,43.47c1.63-.13,3-.22,3.94-.24a4.5,4.5,0,0,0,1.48-.31c1.38.35,2.29,1.08,2.29,1.69,0,.38-.25.53-.86.53a35.5,35.5,0,0,0-4.23-.22c-.57,0-1.27,0-2.09.07a5.91,5.91,0,0,1,.16,1.43c0,2.46-.49,4-1.83,4.95a1.11,1.11,0,0,1-.68.24.67.67,0,0,1-.55-.24,16.23,16.23,0,0,1-1.74-2.12.82.82,0,0,1-.2-.44.17.17,0,0,1,.16-.17,2.35,2.35,0,0,1,.55.09A8.74,8.74,0,0,0,33,49c.11,0,.18-.06.25-.19a7.13,7.13,0,0,0,.41-2.75c0-.36,0-.69,0-1-2.31.17-5.06.46-7.68.85a.77.77,0,0,1-.7-.28c-.68-.77-.73-1-.73-1.12s.13-.18.57-.22c2.91-.29,5.77-.55,8.23-.75a3.87,3.87,0,0,0-.72-1.19c-.25-.26-.38-.42-.38-.57s.09-.2.27-.2a2.39,2.39,0,0,1,1.21.44,13.94,13.94,0,0,0,1.8-1.74c-1.5.13-3.37.33-5.21.66-.27,0-.51-.2-.8-.48s-.44-.55-.44-.73.09-.15.33-.17c3-.25,4.21-.38,5.55-.51a3.7,3.7,0,0,0,1.74-.46,3.55,3.55,0,0,1,1.47.94,1.09,1.09,0,0,1,.42.75c0,.22-.18.37-.53.46a4,4,0,0,0-.83.4c-1,.55-1.79,1-2.82,1.45A3.85,3.85,0,0,1,34.9,43.47Zm-7.59-10a1,1,0,0,1-.06-.31.23.23,0,0,1,.24-.26.65.65,0,0,1,.18,0c1.16.42,2.64,1.58,2.64,2.75a.85.85,0,0,1-.88,1c-.36,0-.69-.27-1-.84A13.31,13.31,0,0,1,27.31,33.48Zm7,1.38c0,.69-.26,1.13-.88,1.13-.42,0-.77-.33-1.06-1a8.08,8.08,0,0,1-.77-2.6.28.28,0,0,1,.29-.28.72.72,0,0,1,.37.13C33.36,32.93,34.31,33.94,34.31,34.86Z"/><path class="cls-1" d="M56.9,44.33c-1.21.11-2.44.26-3.58.41a1.09,1.09,0,0,1-.79-.5c-.49-.57-.58-.73-.58-.9s.11-.16.25-.18l4.7-.44,0-2.66-2.75.39a.65.65,0,0,1-.5-.15c-.27-.22-.47-.4-.64-.55a10.27,10.27,0,0,1-3.43,2.71.57.57,0,0,1-.25.06.28.28,0,0,1-.3-.26.41.41,0,0,1,.15-.29,14.27,14.27,0,0,0,2.9-4.31,2.4,2.4,0,0,0,.22-.88,1.43,1.43,0,0,0-.06-.51,1.11,1.11,0,0,1-.07-.35c0-.2.09-.29.33-.29a3.75,3.75,0,0,1,1.32.71c.47.35.77.68.77.86a.69.69,0,0,1-.15.44c-.11.15-.24.35-.29.44-.13.24-.28.48-.44.72,1.06-.11,2.14-.24,3.19-.37V36.34a8.15,8.15,0,0,0-.39-3.08.68.68,0,0,1-.07-.29c0-.17.09-.24.33-.24A7.33,7.33,0,0,1,59,33.5a.56.56,0,0,1,.38.48,1.06,1.06,0,0,1-.13.51,5.07,5.07,0,0,0-.31,2l0,1.6,2.24-.37a4,4,0,0,0,1.32-.46c.9.06,2,.61,2,1.12s-.22.66-.92.75c-1.37.15-3,.37-4.67.59l0,2.73c.53-.07,1-.11,1.39-.18a4.22,4.22,0,0,0,1.71-.48c1.21.2,2,.68,2,1.23s-.42.6-1.12.66c-1,.09-2.42.22-4,.38l0,3.74q2.43-.16,4.95-.27a3.73,3.73,0,0,0,1.36-.24c1.43.26,2.42,1.08,2.42,1.72,0,.48-.31.63-.86.63a39.07,39.07,0,0,0-4.57-.26,84,84,0,0,0-11.86,1,.75.75,0,0,1-.62-.22c-.79-.68-1.08-1-1.08-1.19s.11-.22.55-.26c2.51-.26,5.13-.55,7.83-.77Z"/><path class="cls-1" d="M78.16,46a20,20,0,0,1-5.68,3,.89.89,0,0,1-.26,0,.31.31,0,0,1-.31-.31c0-.11.09-.22.28-.33A22.71,22.71,0,0,0,81,39.81c-2-3-2.68-4-3.15-4.57a1.52,1.52,0,0,0-.63-.46c-.22-.09-.31-.16-.31-.36s.15-.22.35-.26a3.82,3.82,0,0,1,1-.11,1.74,1.74,0,0,1,1.38.37,1.06,1.06,0,0,1,.22.51c.13.57.38,1.1,3.06,4.84a47.54,47.54,0,0,0,5.11,5.66A9.3,9.3,0,0,0,90.13,47a20.27,20.27,0,0,1,2,1.14.59.59,0,0,1,.29.4c0,.11-.13.24-.44.3a13.07,13.07,0,0,1-2.68.2c-1.43,0-1.59-.11-2-.64-2-2.59-3.43-4.4-4.95-6.6A19.63,19.63,0,0,1,78.16,46Z"/><path class="cls-1" d="M101.26,49.61c0,.94-.29,1.38-.86,1.38s-1.06-.64-1.21-1.76a10,10,0,0,0,.26-1.89c.07-1,.13-2.53.13-2.93s0-.72,0-1a14.52,14.52,0,0,1-3.12,2,.54.54,0,0,1-.27.07.29.29,0,0,1-.31-.27.52.52,0,0,1,.18-.3,16,16,0,0,0,4.25-5.22,2.92,2.92,0,0,0,.15-1.14c0-.25.07-.4.24-.4a2.66,2.66,0,0,1,1.39.68c.51.38.77.71.77.91s-.24.46-.48.68a21.25,21.25,0,0,1-1.59,1.85c.57.52.66.77.66,1a5.35,5.35,0,0,1-.06.68Zm9.94-15.19a2.55,2.55,0,0,0,1.39-.35c1.34.33,2.09,1,2.09,1.45s-.31.47-.79.47-1.41-.07-2.16-.07l-2.4,0c-.26.53-.51,1-.81,1.54s-.44.58-.71.58a.44.44,0,0,1-.42-.47,1.14,1.14,0,0,1,0-.24c.11-.35.24-.83.35-1.34-1.19,0-2.4.13-3.59.22l.09,1.08a.75.75,0,0,1-.66.83.81.81,0,0,1-.81-.7c-.07-.28-.16-.66-.24-1.08-1.21.13-2.42.27-3.61.47a.59.59,0,0,1-.57-.23,2.67,2.67,0,0,1-.77-1.1c0-.13.06-.19.44-.22,1.47-.15,2.86-.28,4.15-.37l-.11-.51a2.92,2.92,0,0,0-.39-1.05.88.88,0,0,1-.16-.46c0-.11.18-.25.4-.25a3.31,3.31,0,0,1,1.47.38c.47.22.69.44.69.72a2.86,2.86,0,0,1-.07.55l0,.47c1.63-.11,2.8-.18,4-.22l.11-1.19a1.64,1.64,0,0,0-.18-.66.81.81,0,0,1-.09-.38c0-.11.11-.26.38-.26a4.7,4.7,0,0,1,1.84.7c.25.16.36.31.36.49a1,1,0,0,1-.16.5,4.64,4.64,0,0,0-.35.71Zm-2,11.14c0,.37-.22.39-.9.42s-2,.11-3.17.26a.66.66,0,0,1-.59.51c-.51,0-.79-.29-1.08-1.24,0-.11,0-.19,0-.33s0-.61-.11-1.23a4.37,4.37,0,0,0-.39-1.67.85.85,0,0,1-.11-.37c0-.09.09-.2.28-.2a5.31,5.31,0,0,1,1.48.39c.9-.15,1.91-.28,2.51-.35a1.65,1.65,0,0,0,1-.35,2.81,2.81,0,0,1,1.18.46c.47.33.62.6.62.86a.72.72,0,0,1-.26.48,1.1,1.1,0,0,0-.25.4c-.2.55-.37,1-.53,1.43A.6.6,0,0,1,109.15,45.56Zm2.1-4.38A2.77,2.77,0,0,0,111,40c-1.45.11-3.39.31-6.58.68a.62.62,0,0,1-.57-.26c-.7-.84-.77-.93-.77-1.08s0-.18.35-.2c4.36-.37,6-.53,8.78-.79a3,3,0,0,0,1.39-.42c1.34.33,2.09,1,2.09,1.45,0,.33-.31.49-.79.49-.31,0-.6,0-.93,0s-.92,0-1.58,0a3,3,0,0,1,.59.42.64.64,0,0,1,.31.55,1.93,1.93,0,0,1-.07.5,11,11,0,0,0-.08,1.83v1.58c0,2,0,3.63.11,5a3,3,0,0,1-.58,1.58,1,1,0,0,1-.81.49c-.26,0-.57-.18-1.34-.93-1.23-1.19-1.54-1.56-1.54-1.8s.11-.2.24-.22c.73.11,1.56.2,2,.22ZM105.06,45c.82-.09,1.79-.2,2.27-.27.13-.77.2-1.34.24-1.76-.68.05-1.78.18-2.68.33Z"/><path class="cls-1" d="M130.47,50.53a3.91,3.91,0,0,1-3.3-1.17c-1.14-1-1.38-2.37-1.38-4.68,0-.84.19-4.49.37-7.26,0-.66.09-1.32.09-2A3.22,3.22,0,0,0,126,33.9a2.31,2.31,0,0,1-.2-.6c0-.11.09-.15.27-.15A4.67,4.67,0,0,1,128,34c.59.4.79.64.79.9a1.34,1.34,0,0,1-.2.69,3.62,3.62,0,0,0-.26,1,85.81,85.81,0,0,0-.71,8.71c0,1.76.2,2.47.71,3a2.22,2.22,0,0,0,1.6.53,9,9,0,0,0,6.8-3.94c.15-.19.35-.37.51-.37s.3.11.3.26a2,2,0,0,1-.24.86C135.86,48.53,133.51,50.53,130.47,50.53Z"/><path class="cls-1" d="M152,50.82c-2.18,0-3.72-1.26-3.72-2.27,0-1.19,1.78-2.31,3.56-2.31a11,11,0,0,1,2.51.31c0-.49,0-1,0-1.59s0-1.34,0-2c-1.28.11-1.83.15-2.64.15a2,2,0,0,1-1.12-.2,2.45,2.45,0,0,1-1.21-1.47.13.13,0,0,1,.15-.14,2.26,2.26,0,0,1,.53.12,7.42,7.42,0,0,0,1.76.11c.51,0,1.36-.07,2.49-.2,0-1.08-.07-2.16-.09-3.24-1.08.11-2.16.27-3.1.44l-.75.16a2.18,2.18,0,0,1-.49.06,1.67,1.67,0,0,1-.92-.53c-.4-.35-.57-.59-.57-.72s.13-.18.59-.27c.88-.15,2.64-.39,5.19-.74,0-.91,0-1.41,0-1.92a4.27,4.27,0,0,0-.15-1.19,1.52,1.52,0,0,1-.13-.55c0-.11.13-.19.37-.19a5.5,5.5,0,0,1,2.07.77.52.52,0,0,1,.24.44,1,1,0,0,1-.09.41,4.17,4.17,0,0,0-.37,2c.66-.07,1.5-.13,1.83-.18a2.49,2.49,0,0,0,.68-.13,1,1,0,0,1,.37-.11,2.29,2.29,0,0,1,.62.13,1.7,1.7,0,0,1,1.12,1.17c0,.33-.15.55-1,.55-1.21,0-2.44.09-3.65.2,0,1.16,0,2.15,0,3.17.37-.07.81-.16,1.19-.25a3.78,3.78,0,0,0,.94-.33,1,1,0,0,1,.49-.17c.7,0,1.63.48,1.63,1,0,.38-.22.55-.8.71s-2.22.46-3.41.64c0,1.56,0,2.86,0,3.47a5.78,5.78,0,0,1,0,.73,40.79,40.79,0,0,1,4,1.43c.88.37,1.14.72,1.14,1.23s-.37.92-1,.92a3.26,3.26,0,0,1-1.21-.41,35.43,35.43,0,0,0-3.28-1.52C155.22,50.16,153.53,50.82,152,50.82Zm-.66-3.48a1.62,1.62,0,0,0-1.52,1.3c0,.39.46.79,1.78.79A2.79,2.79,0,0,0,154,48,7.83,7.83,0,0,0,151.31,47.34Z"/><path class="cls-1" d="M178.92,50.53a3.88,3.88,0,0,1-3.3-1.17c-1.15-1-1.39-2.37-1.39-4.68,0-.84.2-4.49.37-7.26.05-.66.09-1.32.09-2a3.36,3.36,0,0,0-.28-1.54,2.31,2.31,0,0,1-.2-.6c0-.11.09-.15.26-.15a4.67,4.67,0,0,1,1.94.81c.59.4.79.64.79.9a1.34,1.34,0,0,1-.2.69,3.62,3.62,0,0,0-.26,1c-.35,2.49-.71,7-.71,8.71s.2,2.47.71,3a2.22,2.22,0,0,0,1.6.53,9,9,0,0,0,6.8-3.94c.16-.19.36-.37.51-.37s.31.11.31.26a2.2,2.2,0,0,1-.24.86C184.31,48.53,182,50.53,178.92,50.53Z"/><path class="cls-1" d="M202.19,36.34a.91.91,0,0,1,.64-.2,2,2,0,0,1,.9.2c.36.17.66.39.66.77s-.15.42-.63.57c-.84.26-1.92.62-3,1-1.15,4-2.16,7.35-3.1,10.8a1.11,1.11,0,0,1-1,.9,1.34,1.34,0,0,1-1.1-1.36,1.94,1.94,0,0,1,.2-.86l.31-.75c1-2.62,1.91-5.41,2.75-8.23-.38.09-.91.22-1.72.44a3.42,3.42,0,0,1-.79.16,3.2,3.2,0,0,1-1.56-.91.64.64,0,0,1-.29-.46c0-.11.09-.15.26-.17.49,0,1-.11,1.3-.16a31.12,31.12,0,0,0,3.24-.66,15.33,15.33,0,0,0,.46-3.25,3.12,3.12,0,0,0-.09-.8,2,2,0,0,1-.09-.39c0-.11.16-.22.4-.22a2.93,2.93,0,0,1,1.45.59c.68.44.86.73.86.86s-.07.33-.29.59a1.84,1.84,0,0,0-.3.66c-.18.53-.29.93-.47,1.41A2.94,2.94,0,0,0,202.19,36.34ZM204.28,42c-.26,0-.64.11-.79.11s-.39-.05-.39-.26.11-.33.37-.51a11.63,11.63,0,0,1,5-1.25,4.4,4.4,0,0,1,1.93.39.92.92,0,0,1,.62,1c0,.42-.18.57-.93.81a16.82,16.82,0,0,0-1.73.66,1.82,1.82,0,0,1-.64.18c-.11,0-.22-.05-.22-.18a.6.6,0,0,1,.15-.33,8.55,8.55,0,0,0,.51-.86A25.43,25.43,0,0,0,204.28,42Zm-.83,4.6c0-.16,0-.27.15-.27s.2.09.35.25c1.26,1.43,3,1.62,5.5,1.62,1.17,0,1.41.07,1.63.22a1,1,0,0,1,.46.88c0,.55-.37,1-1.73,1a9.49,9.49,0,0,1-4.29-.88,3.82,3.82,0,0,1-2-2.35A1.78,1.78,0,0,1,203.45,46.55Z"/><path class="cls-2" d="M.06,17.37V15.32L5.93,9.4C6.52,8.78,7,8.24,7.41,7.77a6,6,0,0,0,.88-1.36A3.22,3.22,0,0,0,8.58,5a2.63,2.63,0,0,0-.39-1.44,2.56,2.56,0,0,0-1-.93,3.4,3.4,0,0,0-1.52-.33,3.16,3.16,0,0,0-1.54.36,2.51,2.51,0,0,0-1,1A3.25,3.25,0,0,0,2.7,5.28H0A5.17,5.17,0,0,1,.73,2.5a5,5,0,0,1,2-1.84A6.32,6.32,0,0,1,5.67,0,6.35,6.35,0,0,1,8.6.64a4.9,4.9,0,0,1,2,1.75,4.52,4.52,0,0,1,.71,2.52,5.14,5.14,0,0,1-.36,1.88,7.86,7.86,0,0,1-1.26,2,32,32,0,0,1-2.52,2.72L4,14.85V15h7.58v2.4Z"/><path class="cls-2" d="M20.74,17.67a5.71,5.71,0,0,1-3.46-1.05,6.45,6.45,0,0,1-2.21-3,13.28,13.28,0,0,1-.76-4.78A13,13,0,0,1,15.08,4a6.46,6.46,0,0,1,2.21-3,5.76,5.76,0,0,1,3.45-1,5.76,5.76,0,0,1,3.45,1,6.44,6.44,0,0,1,2.21,3,13,13,0,0,1,.77,4.76,13.11,13.11,0,0,1-.77,4.79,6.5,6.5,0,0,1-2.21,3A5.74,5.74,0,0,1,20.74,17.67Zm0-2.41a2.94,2.94,0,0,0,2.63-1.65,9.69,9.69,0,0,0,1-4.8,12.23,12.23,0,0,0-.44-3.52,4.68,4.68,0,0,0-1.24-2.17,2.74,2.74,0,0,0-1.91-.74A2.94,2.94,0,0,0,18.11,4a9.73,9.73,0,0,0-1,4.78,12.38,12.38,0,0,0,.44,3.54,4.68,4.68,0,0,0,1.24,2.17A2.73,2.73,0,0,0,20.74,15.26Z"/><path class="cls-2" d="M30.06,17.37V15.32L35.93,9.4c.59-.62,1.09-1.16,1.48-1.63a6,6,0,0,0,.88-1.36A3.22,3.22,0,0,0,38.58,5a2.71,2.71,0,0,0-.38-1.44,2.66,2.66,0,0,0-1.06-.93,3.4,3.4,0,0,0-1.52-.33,3.16,3.16,0,0,0-1.54.36,2.51,2.51,0,0,0-1,1,3.25,3.25,0,0,0-.36,1.57H30a5.17,5.17,0,0,1,.73-2.78,4.93,4.93,0,0,1,2-1.84A6.25,6.25,0,0,1,35.67,0a6.43,6.43,0,0,1,2.94.64,4.93,4.93,0,0,1,2,1.75,4.53,4.53,0,0,1,.72,2.52,5.16,5.16,0,0,1-.37,1.88,7.86,7.86,0,0,1-1.26,2,32,32,0,0,1-2.52,2.72L34,14.85V15h7.58v2.4Z"/><path class="cls-2" d="M50.74,17.67a5.71,5.71,0,0,1-3.46-1.05,6.45,6.45,0,0,1-2.21-3,13.28,13.28,0,0,1-.76-4.78A13,13,0,0,1,45.08,4a6.46,6.46,0,0,1,2.21-3,6.24,6.24,0,0,1,6.9,0,6.44,6.44,0,0,1,2.21,3,13,13,0,0,1,.77,4.76,13.11,13.11,0,0,1-.77,4.79,6.56,6.56,0,0,1-2.2,3A5.79,5.79,0,0,1,50.74,17.67Zm0-2.41a2.93,2.93,0,0,0,2.63-1.65,9.69,9.69,0,0,0,1-4.8,12.23,12.23,0,0,0-.44-3.52,4.68,4.68,0,0,0-1.24-2.17,2.74,2.74,0,0,0-1.91-.74A2.94,2.94,0,0,0,48.11,4a9.73,9.73,0,0,0-1,4.78,12.38,12.38,0,0,0,.44,3.54,4.68,4.68,0,0,0,1.24,2.17A2.73,2.73,0,0,0,50.74,15.26Z"/><path class="cls-2" d="M61.84,17.54a1.74,1.74,0,0,1-1.75-1.75,1.68,1.68,0,0,1,.51-1.23,1.76,1.76,0,0,1,2.48,0,1.72,1.72,0,0,1,.28,2.11,1.93,1.93,0,0,1-.64.63A1.69,1.69,0,0,1,61.84,17.54Z"/><path class="cls-2" d="M73,17.67a5.71,5.71,0,0,1-3.46-1.05,6.52,6.52,0,0,1-2.21-3,13.28,13.28,0,0,1-.76-4.78A13.25,13.25,0,0,1,67.29,4,6.46,6.46,0,0,1,69.5,1a6.24,6.24,0,0,1,6.9,0,6.46,6.46,0,0,1,2.22,3,13.19,13.19,0,0,1,.77,4.76,13.32,13.32,0,0,1-.77,4.79,6.57,6.57,0,0,1-2.21,3A5.77,5.77,0,0,1,73,17.67Zm0-2.41a2.93,2.93,0,0,0,2.63-1.65,9.69,9.69,0,0,0,1-4.8,12.26,12.26,0,0,0-.43-3.52,4.69,4.69,0,0,0-1.25-2.17A2.72,2.72,0,0,0,73,2.38,2.92,2.92,0,0,0,70.33,4a9.61,9.61,0,0,0-1,4.78,12.38,12.38,0,0,0,.44,3.54A4.68,4.68,0,0,0,71,14.52,2.73,2.73,0,0,0,73,15.26Z"/><path class="cls-2" d="M88.07,17.6A6.54,6.54,0,0,1,85.16,17a5.24,5.24,0,0,1-2-1.7,4.6,4.6,0,0,1-.81-2.47h2.75a2.46,2.46,0,0,0,1,1.77,3.2,3.2,0,0,0,2.06.69,3.25,3.25,0,0,0,1.69-.44,3.09,3.09,0,0,0,1.17-1.21,3.67,3.67,0,0,0,.42-1.77,3.64,3.64,0,0,0-.44-1.8,3.16,3.16,0,0,0-1.19-1.24A3.37,3.37,0,0,0,88,8.36a4.19,4.19,0,0,0-1.55.27,3.36,3.36,0,0,0-1.23.74L82.63,9,83.56.23h9.67v2.4H85.91L85.38,7.3h.1a3.88,3.88,0,0,1,1.35-.86,4.86,4.86,0,0,1,1.84-.35,5.34,5.34,0,0,1,2.79.74,5.28,5.28,0,0,1,1.93,2,6,6,0,0,1,.7,2.94,5.72,5.72,0,0,1-.77,3,5.44,5.44,0,0,1-2.13,2.07A6.32,6.32,0,0,1,88.07,17.6Z"/><path class="cls-2" d="M98.8,17.54a1.74,1.74,0,0,1-1.75-1.75,1.68,1.68,0,0,1,.51-1.23,1.76,1.76,0,0,1,2.48,0,1.65,1.65,0,0,1,.52,1.23,1.69,1.69,0,0,1-.24.88,1.84,1.84,0,0,1-.64.63A1.69,1.69,0,0,1,98.8,17.54Z"/><path class="cls-2" d="M109.91,17.67a5.71,5.71,0,0,1-3.46-1.05,6.44,6.44,0,0,1-2.2-3,13.27,13.27,0,0,1-.77-4.78A13.25,13.25,0,0,1,104.25,4a6.46,6.46,0,0,1,2.21-3,6.24,6.24,0,0,1,6.9,0,6.46,6.46,0,0,1,2.22,3,13.19,13.19,0,0,1,.77,4.76,13.32,13.32,0,0,1-.77,4.79,6.57,6.57,0,0,1-2.21,3A5.77,5.77,0,0,1,109.91,17.67Zm0-2.41a2.91,2.91,0,0,0,2.63-1.65,9.69,9.69,0,0,0,1-4.8,12.26,12.26,0,0,0-.43-3.52,4.76,4.76,0,0,0-1.24-2.17,2.77,2.77,0,0,0-1.92-.74A2.92,2.92,0,0,0,107.29,4a9.51,9.51,0,0,0-1,4.78,12.41,12.41,0,0,0,.43,3.54A4.68,4.68,0,0,0,108,14.52,2.75,2.75,0,0,0,109.91,15.26Z"/><path class="cls-2" d="M119.84,17.37l7.38-14.62V2.63h-8.56V.23h11.49V2.7l-7.37,14.67Z"/></g></g></svg>