<svg xmlns="http://www.w3.org/2000/svg" viewBox="0 0 15.47 23.71"><defs><style>.cls-1{fill:#353535;}</style></defs><g id="レイヤー_2" data-name="レイヤー 2"><g id="レイヤー_1-2" data-name="レイヤー 1"><path class="cls-1" d="M.16,0h15V3.62l-6.56,6v.06h.54a6.3,6.3,0,0,1,4.65,1.69A6.3,6.3,0,0,1,15.47,16a7.18,7.18,0,0,1-2.24,5.68,9.28,9.28,0,0,1-6.41,2A13.88,13.88,0,0,1,0,22l1.15-3.52a11.72,11.72,0,0,0,5.48,1.6,4.73,4.73,0,0,0,3.27-1,3.76,3.76,0,0,0,1.15-3A2.8,2.8,0,0,0,9.76,13.5a9.55,9.55,0,0,0-4.57-.78H3.27V9.52L9.68,3.68V3.62H.16Z"/></g></g></svg>