<svg xmlns="http://www.w3.org/2000/svg" viewBox="0 0 70.64 68.37"><defs><style>.cls-1{fill:#f7ea38;}.cls-2{fill:#353535;}</style></defs><g id="レイヤー_2" data-name="レイヤー 2"><g id="レイヤー_1-2" data-name="レイヤー 1"><path class="cls-1" d="M.31,46.55C2.81,27.75,0,15.25,12.59,5.49c7.94-6.18,19.53-8.37,37.66,0,15.31,7.06,25,23.55,18.14,41.85C61.28,66.19,47.77,62.4,29.33,66.87,6.51,72.39-1.76,62.06.31,46.55Z"/><path class="cls-2" d="M43.79,26.76H34.22L34,32.18H34a7.73,7.73,0,0,1,3.53-.8,7.25,7.25,0,0,1,5.35,1.89,7.23,7.23,0,0,1,1.89,5.35q0,8.24-9.39,8.23A15.1,15.1,0,0,1,29,45.47l1-3.62a12.53,12.53,0,0,0,5.35,1.38q5.07,0,5.07-4.61,0-3.82-3.69-3.82a4.67,4.67,0,0,0-3.3,1.32H29.54l.64-13H43.79Z"/></g></g></svg>