<svg xmlns="http://www.w3.org/2000/svg" viewBox="0 0 17.52 24.03"><defs><style>.cls-1{fill:#353535;}</style></defs><g id="レイヤー_2" data-name="レイヤー 2"><g id="レイヤー_1-2" data-name="レイヤー 1"><path class="cls-1" d="M12.78,0l.8,3.62A11.17,11.17,0,0,0,8,5.24,8.46,8.46,0,0,0,4.9,9.39l0,0A8.09,8.09,0,0,1,9.84,7.91a7.66,7.66,0,0,1,5.68,2,7.83,7.83,0,0,1,2,5.77,7.94,7.94,0,0,1-2.41,6.06A9,9,0,0,1,8.75,24a8.53,8.53,0,0,1-6.44-2.39Q0,19.26,0,14.64,0,8.07,3.43,4.17A12.54,12.54,0,0,1,12.78,0Zm-4,20.6A4.2,4.2,0,0,0,12,19.35a5.19,5.19,0,0,0,1.16-3.65A4.75,4.75,0,0,0,12,12.29a4.25,4.25,0,0,0-3.22-1.24A4.13,4.13,0,0,0,5.59,12.3a4.79,4.79,0,0,0-1.17,3.4,5.24,5.24,0,0,0,1.14,3.65A4.11,4.11,0,0,0,8.75,20.6Z"/></g></g></svg>