<svg xmlns="http://www.w3.org/2000/svg" viewBox="0 0 17.94 24.03"><defs><style>.cls-1{fill:#353535;}</style></defs><g id="レイヤー_2" data-name="レイヤー 2"><g id="レイヤー_1-2" data-name="レイヤー 1"><path class="cls-1" d="M2.91,1.62A10,10,0,0,1,9,0,10,10,0,0,1,15,1.62,5,5,0,0,1,17.2,5.86q0,3.37-4,5.19v.07c3.16,1.19,4.74,3.26,4.74,6.18a5.86,5.86,0,0,1-2.37,4.9A10.57,10.57,0,0,1,9,24a10.57,10.57,0,0,1-6.6-1.83A5.86,5.86,0,0,1,0,17.3,5.19,5.19,0,0,1,1.17,14a8.34,8.34,0,0,1,3.48-2.45V11.5A7.59,7.59,0,0,1,1.76,9.1a5.56,5.56,0,0,1-1-3.24A5,5,0,0,1,2.91,1.62ZM8.62,13c-2.89.88-4.33,2.23-4.33,4.07a3.23,3.23,0,0,0,1.28,2.67,5.31,5.31,0,0,0,3.4,1,5.09,5.09,0,0,0,3.35-1,3.27,3.27,0,0,0,1.23-2.67,3.1,3.1,0,0,0-1.07-2.42A9.68,9.68,0,0,0,8.62,13ZM9.07,9.8Q13,8.65,13,6.31A2.68,2.68,0,0,0,11.92,4.1,4.7,4.7,0,0,0,9,3.27a4.55,4.55,0,0,0-2.9.83A2.7,2.7,0,0,0,5,6.31C5,7.91,6.38,9.08,9.07,9.8Z"/></g></g></svg>