<svg xmlns="http://www.w3.org/2000/svg" viewBox="0 0 17.52 24.03"><defs><style>.cls-1{fill:#353535;}</style></defs><g id="レイヤー_2" data-name="レイヤー 2"><g id="レイヤー_1-2" data-name="レイヤー 1"><path class="cls-1" d="M3.62,20.41a12,12,0,0,0,5.78-1.6,8.39,8.39,0,0,0,3.22-4.17l0,0a8.19,8.19,0,0,1-4.9,1.51,7.62,7.62,0,0,1-5.69-2A8.11,8.11,0,0,1,0,8.17,7.74,7.74,0,0,1,2.4,2.24,9,9,0,0,1,8.75,0a8.6,8.6,0,0,1,6.47,2.39c1.54,1.59,2.3,3.87,2.3,6.84Q17.52,16,14,19.9A13.1,13.1,0,0,1,4.42,24Zm5.13-17A4.18,4.18,0,0,0,5.53,4.65,5,5,0,0,0,4.39,8.17a5.07,5.07,0,0,0,1.15,3.56A4.17,4.17,0,0,0,8.75,13a4.13,4.13,0,0,0,3.17-1.28A5,5,0,0,0,13.1,8.17,4.93,4.93,0,0,0,12,4.66,4.18,4.18,0,0,0,8.75,3.43Z"/></g></g></svg>