<svg xmlns="http://www.w3.org/2000/svg" viewBox="0 0 35.43 23.62"><defs><style>.cls-1{fill:#fff;}</style></defs><g id="レイヤー_2" data-name="レイヤー 2"><g id="レイヤー_1-2" data-name="レイヤー 1"><path class="cls-1" d="M7,23.3V5.45H7l-5.51,5L0,6.83,7,.32h4.54v23Z"/><path class="cls-1" d="M20,2.8Q22.17,0,26.61,0t6.63,2.8q2.19,2.81,2.19,9t-2.19,9q-2.19,2.81-6.63,2.8T20,20.82q-2.19-2.8-2.19-9T20,2.8Zm3.36,15.5a3.51,3.51,0,0,0,3.27,1.89,3.51,3.51,0,0,0,3.27-1.89Q31,16.41,31,11.81c0-3.06-.36-5.23-1.08-6.49a3.51,3.51,0,0,0-3.27-1.89,3.51,3.51,0,0,0-3.27,1.89c-.72,1.26-1.08,3.43-1.08,6.49S22.62,17,23.34,18.3Z"/></g></g></svg>