<svg xmlns="http://www.w3.org/2000/svg" viewBox="0 0 35.1 23.92"><defs><style>.cls-1{fill:#fff;}</style></defs><g id="レイヤー_2" data-name="レイヤー 2"><g id="レイヤー_1-2" data-name="レイヤー 1"><path class="cls-1" d="M7.21,23.92V5.59h0L1.52,10.76,0,7,7.21.32h4.65v23.6Z"/><path class="cls-1" d="M19.59,20.27a80.2,80.2,0,0,0,6.8-5.81,17.15,17.15,0,0,0,3.19-3.89,7,7,0,0,0,.8-3.23q0-3.58-3.84-3.59A11.77,11.77,0,0,0,20.36,6L19.17,2.36A13.41,13.41,0,0,1,22.93.63,15.09,15.09,0,0,1,27.18,0,8.5,8.5,0,0,1,33,1.83a6.4,6.4,0,0,1,2,5.06,10.26,10.26,0,0,1-1.92,5.85,42.56,42.56,0,0,1-7.52,7.46v.07H35.1v3.65H19.59Z"/></g></g></svg>