<svg xmlns="http://www.w3.org/2000/svg" viewBox="0 0 260.61 53.52"><defs><style>.cls-1{fill:#fff;}.cls-2{fill:#ef6565;}</style></defs><g id="レイヤー_2" data-name="レイヤー 2"><g id="レイヤー_1-2" data-name="レイヤー 1"><path class="cls-1" d="M1.87,17.27V15.41l5.75-6c.62-.65,1.12-1.22,1.52-1.7a5.84,5.84,0,0,0,.9-1.4,3.43,3.43,0,0,0,.3-1.41,2.61,2.61,0,0,0-.4-1.47,2.56,2.56,0,0,0-1.08-1,3.43,3.43,0,0,0-1.55-.34,3.29,3.29,0,0,0-1.6.38,2.51,2.51,0,0,0-1,1A3.33,3.33,0,0,0,4.3,5.2H1.86a5,5,0,0,1,.71-2.71,5,5,0,0,1,2-1.81A6.17,6.17,0,0,1,7.36,0a6,6,0,0,1,2.82.64A4.7,4.7,0,0,1,12.09,2.4a4.52,4.52,0,0,1,.69,2.46,5.15,5.15,0,0,1-.35,1.85,8,8,0,0,1-1.22,2,32.42,32.42,0,0,1-2.43,2.69L5.41,14.94v.13h7.65v2.2Z"/><path class="cls-1" d="M22.12,17.55a5.55,5.55,0,0,1-3.36-1,6.41,6.41,0,0,1-2.14-3,13.61,13.61,0,0,1-.73-4.74,13.21,13.21,0,0,1,.74-4.72,6.39,6.39,0,0,1,2.14-3,5.47,5.47,0,0,1,3.35-1,5.5,5.5,0,0,1,3.34,1,6.51,6.51,0,0,1,2.14,3,13.44,13.44,0,0,1,.74,4.72,13.56,13.56,0,0,1-.74,4.74,6.41,6.41,0,0,1-2.13,3A5.53,5.53,0,0,1,22.12,17.55Zm0-2.22a3,3,0,0,0,2.7-1.68,9.87,9.87,0,0,0,1-4.87,12.68,12.68,0,0,0-.44-3.58A4.84,4.84,0,0,0,24.08,3a2.79,2.79,0,0,0-2-.76,3,3,0,0,0-2.7,1.69,10,10,0,0,0-1,4.87,12.41,12.41,0,0,0,.45,3.59,4.76,4.76,0,0,0,1.26,2.21A2.84,2.84,0,0,0,22.12,15.33Z"/><path class="cls-1" d="M31.29,17.27V15.41l5.75-6c.62-.65,1.12-1.22,1.52-1.7a6.24,6.24,0,0,0,.91-1.4,3.59,3.59,0,0,0,.29-1.41,2.61,2.61,0,0,0-.4-1.47,2.56,2.56,0,0,0-1.08-1,3.43,3.43,0,0,0-1.55-.34,3.29,3.29,0,0,0-1.6.38,2.51,2.51,0,0,0-1,1,3.33,3.33,0,0,0-.37,1.59H31.28A5,5,0,0,1,32,2.49,5,5,0,0,1,34,.68,6.17,6.17,0,0,1,36.78,0,6,6,0,0,1,39.6.68,4.7,4.7,0,0,1,41.51,2.4a4.52,4.52,0,0,1,.69,2.46,4.94,4.94,0,0,1-.35,1.85,8,8,0,0,1-1.22,2,32.42,32.42,0,0,1-2.43,2.69l-3.37,3.53v.13h7.65v2.2Z"/><path class="cls-1" d="M51.54,17.55a5.55,5.55,0,0,1-3.36-1,6.41,6.41,0,0,1-2.14-3,13.61,13.61,0,0,1-.73-4.74,13.21,13.21,0,0,1,.74-4.72,6.39,6.39,0,0,1,2.14-3,5.95,5.95,0,0,1,6.69,0,6.51,6.51,0,0,1,2.14,3,13.44,13.44,0,0,1,.74,4.72A13.56,13.56,0,0,1,57,13.52a6.41,6.41,0,0,1-2.13,3A5.53,5.53,0,0,1,51.54,17.55Zm0-2.22a3,3,0,0,0,2.7-1.68,9.87,9.87,0,0,0,1-4.87,12.68,12.68,0,0,0-.44-3.58A4.84,4.84,0,0,0,53.5,3a2.79,2.79,0,0,0-2-.76,3,3,0,0,0-2.7,1.69,10,10,0,0,0-1,4.87,12.41,12.41,0,0,0,.45,3.59,4.76,4.76,0,0,0,1.26,2.21A2.84,2.84,0,0,0,51.54,15.33Z"/><path class="cls-1" d="M62.38,17.42a1.62,1.62,0,0,1-1.17-.48,1.6,1.6,0,0,1-.49-1.18,1.56,1.56,0,0,1,.49-1.16,1.64,1.64,0,0,1,2.34,0A1.56,1.56,0,0,1,64,15.76a1.6,1.6,0,0,1-.23.84,1.72,1.72,0,0,1-.6.6A1.59,1.59,0,0,1,62.38,17.42Z"/><path class="cls-1" d="M73.24,17.55a5.55,5.55,0,0,1-3.36-1,6.33,6.33,0,0,1-2.13-3A13.6,13.6,0,0,1,67,8.78a13.44,13.44,0,0,1,.74-4.72,6.46,6.46,0,0,1,2.14-3,5.95,5.95,0,0,1,6.69,0,6.44,6.44,0,0,1,2.14,3,13.21,13.21,0,0,1,.74,4.72,13.57,13.57,0,0,1-.73,4.74,6.49,6.49,0,0,1-2.14,3A5.51,5.51,0,0,1,73.24,17.55Zm0-2.22a3,3,0,0,0,2.7-1.68,9.86,9.86,0,0,0,1-4.87,12.29,12.29,0,0,0-.45-3.58A4.75,4.75,0,0,0,75.2,3a2.77,2.77,0,0,0-2-.76,3,3,0,0,0-2.7,1.69,9.88,9.88,0,0,0-1,4.87A12.8,12.8,0,0,0,70,12.37a4.86,4.86,0,0,0,1.27,2.21A2.8,2.8,0,0,0,73.24,15.33Z"/><path class="cls-1" d="M88,17.5a6.33,6.33,0,0,1-2.8-.6,5,5,0,0,1-2-1.66,4.28,4.28,0,0,1-.79-2.4H85a2.47,2.47,0,0,0,1,1.8,3.25,3.25,0,0,0,2.11.7,3.31,3.31,0,0,0,1.73-.45A3.21,3.21,0,0,0,91,13.64a3.74,3.74,0,0,0,.43-1.82A3.78,3.78,0,0,0,91,10,3.29,3.29,0,0,0,89.71,8.7a3.54,3.54,0,0,0-1.79-.48,4.69,4.69,0,0,0-1.55.27,3.75,3.75,0,0,0-1.27.7l-2.34-.35L83.71.27h9.34v2.2H85.84L85.3,7.23h.1a4.17,4.17,0,0,1,1.33-.81A4.92,4.92,0,0,1,88.5,6.1a5.17,5.17,0,0,1,2.77.74,5.28,5.28,0,0,1,1.91,2,5.92,5.92,0,0,1,.7,2.92,5.78,5.78,0,0,1-.75,3,5.48,5.48,0,0,1-2.07,2A6.13,6.13,0,0,1,88,17.5Z"/><path class="cls-1" d="M98.57,17.42a1.62,1.62,0,0,1-1.17-.48,1.6,1.6,0,0,1-.49-1.18,1.56,1.56,0,0,1,.49-1.16,1.64,1.64,0,0,1,2.34,0,1.56,1.56,0,0,1,.49,1.16,1.6,1.6,0,0,1-.23.84,1.72,1.72,0,0,1-.6.6A1.59,1.59,0,0,1,98.57,17.42Z"/><path class="cls-1" d="M110,.27v17h-2.57V2.85h-.1L103.23,5.5V3.05L107.47.27Z"/><path class="cls-1" d="M120.49,17.5a6.62,6.62,0,0,1-2.23-.42,5.14,5.14,0,0,1-2-1.32,6.68,6.68,0,0,1-1.43-2.5,12.19,12.19,0,0,1-.54-3.92,15.89,15.89,0,0,1,.45-4A8.75,8.75,0,0,1,116,2.44a5.73,5.73,0,0,1,2-1.82,6.15,6.15,0,0,1,5.36,0,5.07,5.07,0,0,1,1.92,1.66,5.52,5.52,0,0,1,.93,2.42h-2.53a3.32,3.32,0,0,0-1-1.77,2.89,2.89,0,0,0-2-.67,3.26,3.26,0,0,0-2.91,1.63,8.46,8.46,0,0,0-1,4.55h.12a4.8,4.8,0,0,1,2.53-2,5,5,0,0,1,1.69-.28,5.09,5.09,0,0,1,2.67.72,5.37,5.37,0,0,1,1.92,2,5.81,5.81,0,0,1,.71,2.89,5.94,5.94,0,0,1-.73,2.94,5.4,5.4,0,0,1-2.07,2.09A6,6,0,0,1,120.49,17.5Zm0-2.16a3.22,3.22,0,0,0,1.75-.48,3.44,3.44,0,0,0,1.22-1.29,3.92,3.92,0,0,0,0-3.61,3.33,3.33,0,0,0-1.2-1.27,3.17,3.17,0,0,0-1.73-.48,3.22,3.22,0,0,0-1.36.29,3.16,3.16,0,0,0-1.1.78,3.64,3.64,0,0,0-.75,1.14,3.46,3.46,0,0,0-.27,1.35,3.58,3.58,0,0,0,.45,1.77,3.49,3.49,0,0,0,1.22,1.31A3.19,3.19,0,0,0,120.48,15.34Z"/><path class="cls-2" d="M6.87,45.49a6.83,6.83,0,0,1,1.82.83,1.66,1.66,0,0,1,.79,1.26.7.7,0,0,1-.72.79c-.4,0-.68-.18-1.1-.88-.24-.37-.51-.81-.79-1.21l0,4.71c0,1.21-.3,1.67-.83,1.67s-1.06-.77-1.08-2a6.39,6.39,0,0,0,.2-1.6l.08-1.76A13.42,13.42,0,0,1,.57,50.64a.62.62,0,0,1-.26.06c-.18,0-.31-.11-.31-.24a.43.43,0,0,1,.22-.33,14.38,14.38,0,0,0,4.16-4.6c-.95.18-1.85.35-2.71.55-.26,0-.37,0-.61-.33-.44-.53-.58-.75-.58-.88s.05-.15.25-.17c1.54-.22,3.12-.49,4.48-.71v-.72a3,3,0,0,0-.15-1.06c-1.25.17-2.49.4-3.7.64a.53.53,0,0,1-.48-.2c-.57-.66-.66-.86-.66-1s0-.18.2-.2c1.27-.2,2.4-.35,3.41-.5a13.85,13.85,0,0,0-.9-2.47l-.27.05a.62.62,0,0,1-.5-.18c-.58-.68-.71-.84-.71-1s.11-.15.27-.18c1.32-.15,2.48-.28,3.49-.41l0-.71a4.25,4.25,0,0,0-.35-1.71.87.87,0,0,1-.07-.31c0-.18.09-.27.33-.27A5.69,5.69,0,0,1,7,34.4a.55.55,0,0,1,.36.53,1.44,1.44,0,0,1-.16.52A2.75,2.75,0,0,0,7,36.51l.28,0a3,3,0,0,0,1-.36c1.08.11,1.76.58,1.76,1.06s-.22.48-.93.55l-.7.07c.51.28.68.57.68.74a1,1,0,0,1-.28.6c-.29.44-.53.83-.8,1.21a3.12,3.12,0,0,0,.71-.29c1,.16,1.56.71,1.56,1.12s-.29.44-1,.51c-.88.09-1.76.18-2.62.29.29.19.4.35.4.5A1.78,1.78,0,0,1,7,43a2,2,0,0,0-.13.7l.15,0a3.86,3.86,0,0,0,1.36-.44c.95.15,1.63.64,1.63,1s-.18.51-.77.58q-1.15.12-2.37.33Zm-.23-4.93a11.77,11.77,0,0,0,.49-1.72,4.8,4.8,0,0,0,.09-.92l-2.95.39c.59.27.73.36.77,1,0,.5.06,1,.11,1.45Zm6.67,1.54A.51.51,0,0,1,13,42c-.31,4.32-1.46,6.67-4,8.52a.61.61,0,0,1-.36.13.23.23,0,0,1-.24-.22.63.63,0,0,1,.18-.37c1.89-2.27,2.6-5,2.6-9.07a6,6,0,0,0-.25-2.42,3.1,3.1,0,0,1-.22-.59c0-.18.09-.27.29-.27a3.22,3.22,0,0,1,1.25.44,15.35,15.35,0,0,0,2.84-2.9,1.86,1.86,0,0,0,.24-1.1q0-.33.27-.33a2.83,2.83,0,0,1,1.41.59c.59.38,1,.82,1,1.12s-.09.38-.4.53a4.75,4.75,0,0,0-.59.33,22.44,22.44,0,0,1-4,2.27,1.29,1.29,0,0,1,.15.72c0,.4,0,.77,0,1.15,1.3-.22,2.6-.46,3.72-.66a2.6,2.6,0,0,0,1.3-.53c1.12.2,2.05.73,2.05,1.17s-.2.55-.89.61-1.69.18-2.68.33a1.25,1.25,0,0,1,.51.77c0,.13-.05.33-.09.66a10.64,10.64,0,0,0-.07,1.43l0,6.89c0,1.61-.57,2.29-1,2.29S15,52.88,15,51.25l.09-8.16a3.71,3.71,0,0,0-.13-1.32Z"/><path class="cls-2" d="M34.21,51.93a3.93,3.93,0,0,1-3.3-1.16c-1.14-1.06-1.39-2.38-1.39-4.69,0-.84.2-4.49.38-7.26,0-.66.09-1.32.09-2a3.22,3.22,0,0,0-.29-1.54,2.26,2.26,0,0,1-.2-.59c0-.11.09-.16.27-.16a4.73,4.73,0,0,1,1.93.82c.6.39.8.63.8.9a1.3,1.3,0,0,1-.2.68A4.1,4.1,0,0,0,32,38c-.35,2.49-.7,7-.7,8.72s.2,2.46.7,3a2.29,2.29,0,0,0,1.61.53,9,9,0,0,0,6.8-3.94c.15-.2.35-.38.5-.38s.31.11.31.27A2.08,2.08,0,0,1,41,47C39.6,49.93,37.25,51.93,34.21,51.93Z"/><path class="cls-2" d="M55.29,49.71c0,.64-.2,1-.73,1a1.5,1.5,0,0,1-.79-.2,6.28,6.28,0,0,1-2.47-3.76,28.09,28.09,0,0,1-.77-6.32,9.73,9.73,0,0,0-.15-1.82,2.41,2.41,0,0,1-.13-.62c0-.13.11-.2.26-.2a3.57,3.57,0,0,1,1.85,1.37,1,1,0,0,1,.29.7,6.79,6.79,0,0,0-.11,1.32c0,.38,0,1.39.11,2.6a9.72,9.72,0,0,0,.92,3.78c.13.2.22.29.29.29a4.08,4.08,0,0,0,1.08-1.1c.19-.26.28-.35.41-.35s.2.15.2.42a15.56,15.56,0,0,1-.22,1.78,3.28,3.28,0,0,0,0,.64Zm9.37-4.88a11.25,11.25,0,0,0-2.49-5.72.69.69,0,0,1-.15-.36.29.29,0,0,1,.29-.28.84.84,0,0,1,.41.11,8,8,0,0,1,3,2.64A7.17,7.17,0,0,1,67,45c0,.86-.26,1.43-1.1,1.43S64.84,46,64.66,44.83Z"/><path class="cls-2" d="M81.75,45.73c-1.21.11-2.44.26-3.58.42a1.07,1.07,0,0,1-.79-.51c-.49-.57-.58-.72-.58-.9s.11-.15.24-.18l4.71-.44,0-2.66-2.75.4a.7.7,0,0,1-.51-.16c-.26-.22-.46-.39-.63-.55a10.21,10.21,0,0,1-3.44,2.71.51.51,0,0,1-.24.07.29.29,0,0,1-.31-.27c0-.09.05-.17.16-.29a14.33,14.33,0,0,0,2.9-4.31,2.36,2.36,0,0,0,.22-.88,1.35,1.35,0,0,0-.06-.5.94.94,0,0,1-.07-.36c0-.19.09-.28.33-.28a3.69,3.69,0,0,1,1.32.7c.46.35.77.68.77.86a.65.65,0,0,1-.15.44c-.11.15-.24.35-.29.44-.13.24-.28.48-.44.73,1.06-.11,2.13-.25,3.19-.38V37.74a7.94,7.94,0,0,0-.4-3.08.83.83,0,0,1-.06-.28c0-.18.09-.25.33-.25a7.33,7.33,0,0,1,2.22.77c.27.14.38.31.38.49a1.09,1.09,0,0,1-.14.5,5.36,5.36,0,0,0-.3,2l0,1.61c.75-.14,1.48-.25,2.25-.38a4.07,4.07,0,0,0,1.32-.46c.9.07,2,.62,2,1.12s-.22.66-.92.75c-1.37.16-3,.37-4.67.59l0,2.73c.53-.06,1-.11,1.39-.17a4.06,4.06,0,0,0,1.71-.49c1.21.2,2,.69,2,1.24s-.42.59-1.12.66c-1,.08-2.42.22-4,.37l0,3.74c1.63-.11,3.28-.2,4.95-.26a3.72,3.72,0,0,0,1.37-.25c1.43.27,2.42,1.08,2.42,1.72,0,.48-.31.64-.86.64a37.24,37.24,0,0,0-4.58-.27,83,83,0,0,0-11.86,1,.75.75,0,0,1-.61-.22c-.79-.69-1.08-1-1.08-1.19s.11-.22.55-.27c2.51-.26,5.13-.55,7.83-.77Z"/><path class="cls-2" d="M102.17,35.81c-.6.06-1.21.15-1.83.26-.15,0-.28-.07-.57-.37s-.4-.47-.4-.55.09-.11.29-.14l2.51-.28a3.92,3.92,0,0,0-.13-1,1,1,0,0,1-.11-.4c0-.13.13-.17.28-.17a3.91,3.91,0,0,1,1.41.42.5.5,0,0,1,.31.39,1.18,1.18,0,0,1-.11.38,1.47,1.47,0,0,0-.07.17,2.91,2.91,0,0,0,1.39-.35c1,.22,1.36.59,1.36.92s-.3.31-.92.36-1.3.11-1.91.15l0,.66c.27,0,.51,0,.73,0a2.25,2.25,0,0,0,1.32-.36c1,.22,1.34.6,1.34.93s-.37.33-1,.35c-.3,0-.68,0-1,0a.63.63,0,0,1,.11.25c0,.11-.09.22-.2.37l-.31.37a2.08,2.08,0,0,0,.58-.19c1,.22,1.4.55,1.4.88s-.31.33-.92.35-1.39.06-2.09.13v.7a2.35,2.35,0,0,0,1.32-.35c1,.22,1.47.57,1.47.9s-.31.33-.92.36-1.23.06-1.87.13c0,.9-.29,1.12-.62,1.12s-.7-.33-.83-.95c-.62.09-1.26.18-1.92.31-.15,0-.26,0-.55-.35s-.42-.48-.42-.57.09-.11.29-.13l2.57-.29v-.7c-.81.11-1.6.24-2.35.37-.15,0-.26-.07-.55-.37s-.42-.47-.42-.55.09-.14.29-.16l1.89-.2c-.18-.33-.35-.63-.55-.94-.7.09-1.39.2-2,.31-.15,0-.26-.07-.55-.38s-.42-.48-.42-.57.09-.11.29-.13c1.63-.2,3.12-.38,4.42-.51Zm1.41,14a5.91,5.91,0,0,1,.57.44c.31.27.44.47.44.66s-.11.36-.46.53A14.42,14.42,0,0,1,98.49,53c-.28,0-.44-.11-.44-.26s.09-.24.33-.33a14.38,14.38,0,0,0,3.74-1.89.77.77,0,0,0,.33-.53,1.91,1.91,0,0,1-.63-1.45,4.66,4.66,0,0,0,.13-1.63c0-3.52-.07-3.7-.29-4.16a1.06,1.06,0,0,1-.15-.48c0-.14.11-.23.35-.23a4.6,4.6,0,0,1,1.32.33c2.29-.24,4-.37,5.94-.52a3.28,3.28,0,0,0,1.15-.31,3,3,0,0,1,1.38.73c.51.41.6.66.6.83a.72.72,0,0,1-.22.55,1.24,1.24,0,0,0-.27,1c0,1.23,0,3,0,4,0,1.19-.35,1.35-.84,1.35a1.27,1.27,0,0,1-.86-.66c-2.11,0-4.24.13-6.35.3Zm-.14-11.48a5.85,5.85,0,0,0,.25-1c-.64.07-1.26.11-1.87.2.06.07.11.13.11.18a5.68,5.68,0,0,1,.11.81Zm.27,6c1.71-.15,3.39-.31,4.6-.38a1.7,1.7,0,0,0,.83-.21,4.69,4.69,0,0,1,.82.28v-1c-2.11.09-3.92.22-6.25.48Zm0,2c1.67-.16,3.17-.27,4.36-.35a2.15,2.15,0,0,0,.94-.25,7.17,7.17,0,0,1,.93.29v-1h-1.15c-.86,0-2.92.18-5.08.42Zm0,2c2.07-.15,4.14-.31,6.2-.35v-.92a9.86,9.86,0,0,0-1,0c-1.12,0-3,.16-5.21.4Zm7.11-12.67a2,2,0,0,0,1.07-.55,2.16,2.16,0,0,1,.88.39c.49.31.75.62.75.8a.82.82,0,0,1-.17.46,2.27,2.27,0,0,0-.38.83,11.71,11.71,0,0,0-.24,2.29.75.75,0,0,0,.09.42c.11.13.24.22.75.22s.83-.07,1.05-.29a2.44,2.44,0,0,0,.33-1.36c0-.29.09-.42.24-.42s.58.4,1,1.12a3.25,3.25,0,0,1,.48,1.26c0,.35-.29.68-.77.88a6.67,6.67,0,0,1-2.11.33,2.79,2.79,0,0,1-2.18-.66,2.34,2.34,0,0,1-.48-1.63c0-1,.06-1.83.15-3.08l-1,.24a11.9,11.9,0,0,1-.68,1.87c.77.38,1.08.75,1.08,1.1a.73.73,0,0,1-.82.77,1.79,1.79,0,0,1-1.06-.61,7.34,7.34,0,0,1-1.75,1.6.65.65,0,0,1-.31.11.27.27,0,0,1-.29-.24.49.49,0,0,1,.15-.31,6.74,6.74,0,0,0,1.37-2l-.75-.66c-.15-.13-.2-.22-.2-.3s.09-.18.24-.18a3.78,3.78,0,0,1,1.08.2c.09-.31.18-.62.25-.9l-.53.15a.45.45,0,0,1-.42-.18c-.48-.48-.57-.63-.57-.77s.11-.19.33-.24c.48-.06.94-.15,1.4-.24a10.43,10.43,0,0,0,.09-1.3,2,2,0,0,0-.17-.83.91.91,0,0,1-.13-.38c0-.15.06-.24.26-.24a4.47,4.47,0,0,1,1.43.33c.44.18.66.33.66.57a1.25,1.25,0,0,1-.29.68c0,.27-.08.53-.13.77Zm-1.9,14.56a.51.51,0,0,1-.24-.35.24.24,0,0,1,.24-.22,2.17,2.17,0,0,1,.44.07,11.45,11.45,0,0,1,3.41,1.32c1,.55,1.1,1,1.1,1.47a.89.89,0,0,1-.88.86,1.85,1.85,0,0,1-1.23-.62A35.81,35.81,0,0,0,108.92,50.28Z"/><path class="cls-2" d="M122.3,48.33a2.39,2.39,0,0,0,1.27-.31,3.76,3.76,0,0,0,1.35-1.39,4.2,4.2,0,0,1-1-1.39,1.69,1.69,0,0,1-.14-.68,5.66,5.66,0,0,1,.44-1.54l-1.62.66c-.22,0-.4-.15-.71-.46a1.55,1.55,0,0,1-.5-.81c0-.09.11-.13.39-.2.73-.16,1.54-.42,2.42-.71a1.61,1.61,0,0,0,.86-.63,4.63,4.63,0,0,1,1.54.63A.69.69,0,0,1,127,42a.63.63,0,0,1-.26.48,10.15,10.15,0,0,0-1.65,2.12c.26.24.86.72,1.19,1A1.82,1.82,0,0,1,127,47c0,.35-.66.86-2.33,1.48a73.6,73.6,0,0,1,9.75,1.65c.9.19,2,.37,4,.66.68.11,1.41.19,2.33.3s1,.25,1,.4-.11.29-.44.46a9,9,0,0,1-3.68,1.19,3,3,0,0,1-1-.18l-3.85-1.21c-2.47-.74-4.49-1.34-5.57-1.56a15.32,15.32,0,0,0-2.64-.35,5.11,5.11,0,0,0-2.44.44.6.6,0,0,1-.62-.35,2.94,2.94,0,0,1-.46-1.32c0-.2.09-.24.42-.24Zm1.52-11.75c-.77-.82-.95-1.26-.95-1.43s.11-.18.33-.18a8,8,0,0,1,3,1.12,1.45,1.45,0,0,1,.66,1.17c0,.55-.22.81-.86.81C125.75,38.07,125.05,37.9,123.82,36.58Zm13.77,9.92c.55.31.75.59.75.84s-.29.44-1,.44c-1.72,0-4.25.17-6.16.37-.09.53-.31.77-.66.77s-1-.44-1.21-1.87a9.08,9.08,0,0,0,.15-2.2v-4a11,11,0,0,0-.24-3.24,2.76,2.76,0,0,1-.13-.59c0-.11.11-.2.26-.2a3,3,0,0,1,1.21.4A15.22,15.22,0,0,0,131.94,35a1.16,1.16,0,0,0,.15-.62,1.3,1.3,0,0,0-.09-.52.3.3,0,0,1,.33-.27,4,4,0,0,1,1.72.6c.33.15.5.37.5.57s-.11.46-.44.72a17.09,17.09,0,0,1-2.53,1.94l2.84-.33c1-.11,1.32-.22,1.59-.44a3.29,3.29,0,0,1,1.16.62c.55.37.73.55.73.72s-.09.31-.27.53a2.2,2.2,0,0,0-.33.77l-.37,1.21c.44.24.62.53.62.77s-.29.46-1,.48c-1.39.07-3.41.23-5.35.44l0,1.5c1.52-.15,2.79-.29,4.2-.42a2.18,2.18,0,0,0,1.17-.33,2.78,2.78,0,0,1,1.3.58,1.51,1.51,0,0,1,.72.92.69.69,0,0,1-.28.48,1.69,1.69,0,0,0-.4.68Zm-6.38.26c1.52-.15,3.06-.28,4.58-.35.13-.7.22-1.27.3-1.82-1.18,0-3,.19-4.88.41Zm3.94-6.33a19.5,19.5,0,0,0,.26-2.09c-1.21.08-2.68.26-4.18.46v2Z"/><path class="cls-2" d="M149.16,48.37c0-.13,0-.2.2-.2a.51.51,0,0,1,.26.07,13.68,13.68,0,0,0,1.7.77,23.8,23.8,0,0,0,2.37-8.45c-.64.06-1.3.13-2,.22a23.43,23.43,0,0,1-2.62,5.08,10.61,10.61,0,0,1-3.63,3.48,1,1,0,0,1-.35.13c-.17,0-.28-.09-.28-.24a.69.69,0,0,1,.22-.46A19.71,19.71,0,0,0,147.84,45a20.31,20.31,0,0,0,1.83-3.93c-.84.13-1.7.26-2.53.41-.18,0-.42-.15-.73-.55a1.83,1.83,0,0,1-.48-.83c0-.09.06-.16.3-.18,1.39-.11,2.71-.22,3.9-.35a24.53,24.53,0,0,0,.57-2.44,3.87,3.87,0,0,0,.09-.86,2.66,2.66,0,0,0-.18-1.06c0-.17.14-.26.33-.26a3.46,3.46,0,0,1,1.85.88,1.35,1.35,0,0,1,.51.64.83.83,0,0,1-.13.46,4.64,4.64,0,0,0-.58,1.32c-.11.37-.22.75-.35,1.1l.53-.07a2.36,2.36,0,0,0,1.27-.39,2.5,2.5,0,0,1,1.26.68c.51.42.7.72.7.92a.77.77,0,0,1-.22.53,2.32,2.32,0,0,0-.35,1.06A31.56,31.56,0,0,1,153.87,48a10.33,10.33,0,0,1-1.52,2.82,1.8,1.8,0,0,1-1.06.77,1,1,0,0,1-.81-.51,10.25,10.25,0,0,1-1.3-2.55Zm9,1.21c-.46,0-1-.46-1-1.47,0-1.19-.07-3.08-.16-5.42a5.6,5.6,0,0,0-.46-2.35,1,1,0,0,1-.13-.4.3.3,0,0,1,.33-.28,4.51,4.51,0,0,1,1.41.52c1.47-.13,2.62-.26,3.56-.35a2.14,2.14,0,0,0,1.17-.44,4.45,4.45,0,0,1,1.45.82c.48.39.68.68.68.94s0,.35-.35.66a3,3,0,0,0-.33,1.06c-.2,1-.44,2.46-.79,4.18.42.24.75.59.75.9s-.27.46-1,.49c-1.43,0-2.91.08-4.34.22C158.86,49.32,158.56,49.58,158.2,49.58Zm.77-2.42,2.82-.18c.26-1.89.48-3.89.59-5.72a33.65,33.65,0,0,0-3.54.31Z"/><path class="cls-2" d="M179.54,51.93a3.93,3.93,0,0,1-3.3-1.16c-1.14-1.06-1.38-2.38-1.38-4.69,0-.84.19-4.49.37-7.26,0-.66.09-1.32.09-2A3.22,3.22,0,0,0,175,35.3a2.26,2.26,0,0,1-.2-.59c0-.11.09-.16.27-.16a4.71,4.71,0,0,1,1.94.82c.59.39.79.63.79.9a1.3,1.3,0,0,1-.2.68,3.71,3.71,0,0,0-.26,1,85.76,85.76,0,0,0-.71,8.72c0,1.76.2,2.46.71,3a2.27,2.27,0,0,0,1.6.53,9,9,0,0,0,6.8-3.94c.15-.2.35-.38.51-.38s.3.11.3.27a2.08,2.08,0,0,1-.24.86C184.93,49.93,182.58,51.93,179.54,51.93Z"/><path class="cls-2" d="M201,52.22c-2.18,0-3.72-1.25-3.72-2.27,0-1.18,1.78-2.31,3.56-2.31a11.44,11.44,0,0,1,2.51.31c0-.48.05-1,.05-1.58s0-1.34-.05-2c-1.27.11-1.82.15-2.64.15a2,2,0,0,1-1.12-.2,2.45,2.45,0,0,1-1.21-1.47c0-.09.07-.13.15-.13a2,2,0,0,1,.53.11,7.46,7.46,0,0,0,1.76.11,24.89,24.89,0,0,0,2.49-.2c0-1.08-.07-2.16-.09-3.23-1.08.11-2.16.26-3.1.44l-.75.15a2.22,2.22,0,0,1-.49.07,1.74,1.74,0,0,1-.92-.53c-.4-.35-.57-.6-.57-.73s.13-.17.59-.26c.88-.16,2.64-.4,5.2-.75,0-.9,0-1.41,0-1.91a3.78,3.78,0,0,0-.15-1.19,1.63,1.63,0,0,1-.13-.55c0-.11.13-.2.37-.2a5.5,5.5,0,0,1,2.07.77.55.55,0,0,1,.24.44,1.06,1.06,0,0,1-.09.42,4.12,4.12,0,0,0-.37,2l1.83-.17a2.9,2.9,0,0,0,.68-.14,1,1,0,0,1,.37-.11,2,2,0,0,1,.62.14,1.69,1.69,0,0,1,1.12,1.16c0,.33-.15.55-1,.55-1.21,0-2.44.09-3.65.2,0,1.17,0,2.16,0,3.17l1.19-.24a4.81,4.81,0,0,0,.94-.33,1,1,0,0,1,.49-.18c.7,0,1.63.49,1.63,1.06,0,.37-.22.55-.8.7s-2.22.46-3.41.64c0,1.56,0,2.86,0,3.48a5.62,5.62,0,0,1,0,.72c.93.27,2.67.86,4,1.43.88.38,1.14.73,1.14,1.23s-.37.93-1,.93a3.15,3.15,0,0,1-1.21-.42c-.84-.44-2-1-3.28-1.52C204.29,51.56,202.6,52.22,201,52.22Zm-.66-3.48a1.64,1.64,0,0,0-1.52,1.3c0,.4.46.79,1.78.79a2.79,2.79,0,0,0,2.42-1.43A7.78,7.78,0,0,0,200.38,48.74Z"/><path class="cls-2" d="M228,51.93a3.92,3.92,0,0,1-3.3-1.16c-1.15-1.06-1.39-2.38-1.39-4.69,0-.84.2-4.49.37-7.26.05-.66.09-1.32.09-2a3.36,3.36,0,0,0-.28-1.54,2.26,2.26,0,0,1-.2-.59c0-.11.09-.16.26-.16a4.71,4.71,0,0,1,1.94.82c.59.39.79.63.79.9a1.3,1.3,0,0,1-.2.68,3.71,3.71,0,0,0-.26,1c-.35,2.49-.7,7-.7,8.72s.19,2.46.7,3a2.29,2.29,0,0,0,1.61.53,9,9,0,0,0,6.79-3.94c.16-.2.36-.38.51-.38s.31.11.31.27a2.25,2.25,0,0,1-.24.86C233.38,49.93,231,51.93,228,51.93Z"/><path class="cls-2" d="M251.26,37.74a1,1,0,0,1,.64-.2,2,2,0,0,1,.9.2c.36.18.66.4.66.77s-.15.42-.63.57c-.84.27-1.92.62-3,1-1.15,4-2.16,7.35-3.1,10.8a1.12,1.12,0,0,1-.95.91,1.35,1.35,0,0,1-1.1-1.37,2,2,0,0,1,.2-.86l.31-.74c1-2.62,1.91-5.42,2.75-8.23-.38.08-.91.22-1.72.44a3.31,3.31,0,0,1-.79.15,3.24,3.24,0,0,1-1.56-.9.65.65,0,0,1-.29-.46c0-.11.09-.16.26-.18.49,0,1-.11,1.3-.15,1.06-.16,2-.36,3.24-.66a15.32,15.32,0,0,0,.46-3.26,3,3,0,0,0-.09-.79,2.35,2.35,0,0,1-.09-.4c0-.11.16-.22.4-.22a2.86,2.86,0,0,1,1.45.6c.68.44.86.72.86.85s-.07.33-.29.6a1.69,1.69,0,0,0-.3.66c-.18.53-.29.92-.47,1.41A3.14,3.14,0,0,0,251.26,37.74Zm2.09,5.61a6.11,6.11,0,0,1-.79.11c-.2,0-.39,0-.39-.26s.11-.33.37-.51a11.63,11.63,0,0,1,5-1.25,4.4,4.4,0,0,1,1.93.39.93.93,0,0,1,.62,1c0,.42-.18.57-.93.82a14.75,14.75,0,0,0-1.73.66,2,2,0,0,1-.64.17c-.11,0-.22,0-.22-.17a.57.57,0,0,1,.15-.33,8.55,8.55,0,0,0,.51-.86A26.84,26.84,0,0,0,253.35,43.35Zm-.83,4.6c0-.15,0-.26.15-.26s.2.09.35.24c1.26,1.43,3,1.63,5.5,1.63,1.17,0,1.41.06,1.63.22a1,1,0,0,1,.46.88c0,.55-.37,1-1.73,1a9.49,9.49,0,0,1-4.29-.88,3.87,3.87,0,0,1-2-2.36A1.7,1.7,0,0,1,252.52,48Z"/></g></g></svg>