<svg xmlns="http://www.w3.org/2000/svg" viewBox="0 0 127.84 42.48"><defs><style>.cls-1{fill:#fff;}</style></defs><g id="レイヤー_2" data-name="レイヤー 2"><g id="レイヤー_1-2" data-name="レイヤー 1"><path class="cls-1" d="M0,41.8V37.29L14,22.83q2.24-2.35,3.7-4.14a15.13,15.13,0,0,0,2.18-3.39,8.11,8.11,0,0,0,.73-3.42,6.44,6.44,0,0,0-1-3.55A6.34,6.34,0,0,0,17,6a8.5,8.5,0,0,0-3.76-.81,8,8,0,0,0-3.87.9A6.24,6.24,0,0,0,6.83,8.66a7.94,7.94,0,0,0-.89,3.86H0A12.35,12.35,0,0,1,1.73,5.94,11.88,11.88,0,0,1,6.48,1.56,14.79,14.79,0,0,1,13.35,0,14.62,14.62,0,0,1,20.2,1.54a11.81,11.81,0,0,1,4.65,4.19,11,11,0,0,1,1.67,6,12.27,12.27,0,0,1-.86,4.49,19.85,19.85,0,0,1-3,4.88,82.61,82.61,0,0,1-5.88,6.51L8.62,36.16v.3H27.18V41.8Z"/><path class="cls-1" d="M46.56,42.48A13.48,13.48,0,0,1,38.4,40a15.54,15.54,0,0,1-5.17-7.27,32.91,32.91,0,0,1-1.79-11.5,32.34,32.34,0,0,1,1.8-11.45A15.51,15.51,0,0,1,38.43,2.5,13.32,13.32,0,0,1,46.56,0a13.24,13.24,0,0,1,8.11,2.51,15.56,15.56,0,0,1,5.19,7.25,32.28,32.28,0,0,1,1.8,11.44,32.89,32.89,0,0,1-1.79,11.51A15.61,15.61,0,0,1,54.69,40,13.25,13.25,0,0,1,46.56,42.48Zm0-5.37c2.79,0,5-1.36,6.55-4.09s2.37-6.66,2.37-11.82a30.24,30.24,0,0,0-1.08-8.69,11.77,11.77,0,0,0-3.08-5.39,6.79,6.79,0,0,0-4.76-1.84c-2.78,0-5,1.36-6.55,4.1s-2.38,6.68-2.39,11.82a30.29,30.29,0,0,0,1.08,8.71,11.58,11.58,0,0,0,3.07,5.37A6.83,6.83,0,0,0,46.56,37.11Z"/><path class="cls-1" d="M66.22,41.8V37.29l14-14.46q2.23-2.35,3.7-4.14a15.13,15.13,0,0,0,2.18-3.39,8.27,8.27,0,0,0,.73-3.42,6.44,6.44,0,0,0-1-3.55A6.34,6.34,0,0,0,83.17,6a8.5,8.5,0,0,0-3.76-.81,8,8,0,0,0-3.87.9A6.26,6.26,0,0,0,73,8.66a8.06,8.06,0,0,0-.88,3.86H66.18a12.35,12.35,0,0,1,1.73-6.58,11.88,11.88,0,0,1,4.75-4.38,16,16,0,0,1,13.72,0A11.72,11.72,0,0,1,91,5.73a10.88,10.88,0,0,1,1.68,6,12.27,12.27,0,0,1-.86,4.49,19.85,19.85,0,0,1-3,4.88A82.61,82.61,0,0,1,83,27.58L74.8,36.16v.3H93.36V41.8Z"/><path class="cls-1" d="M112.74,42.48A13.48,13.48,0,0,1,104.58,40a15.54,15.54,0,0,1-5.17-7.27,32.68,32.68,0,0,1-1.79-11.5,32.34,32.34,0,0,1,1.8-11.45,15.51,15.51,0,0,1,5.19-7.25,14.41,14.41,0,0,1,16.24,0A15.56,15.56,0,0,1,126,9.76a32.28,32.28,0,0,1,1.8,11.44,32.89,32.89,0,0,1-1.79,11.51A15.61,15.61,0,0,1,120.87,40,13.25,13.25,0,0,1,112.74,42.48Zm0-5.37q4.19,0,6.55-4.09t2.37-11.82a30.24,30.24,0,0,0-1.08-8.69,11.77,11.77,0,0,0-3.08-5.39,6.79,6.79,0,0,0-4.76-1.84c-2.78,0-5,1.36-6.55,4.1s-2.38,6.68-2.39,11.82a30.29,30.29,0,0,0,1.08,8.71A11.58,11.58,0,0,0,108,35.28,6.83,6.83,0,0,0,112.74,37.11Z"/></g></g></svg>