<svg xmlns="http://www.w3.org/2000/svg" viewBox="0 0 191.69 52.2"><defs><style>.cls-1{fill:#fff;}.cls-2{fill:#ef6565;}</style></defs><g id="レイヤー_2" data-name="レイヤー 2"><g id="レイヤー_1-2" data-name="レイヤー 1"><path class="cls-1" d="M0,17.22V15.37l5.75-6c.61-.65,1.12-1.22,1.52-1.71a6.49,6.49,0,0,0,.9-1.39,3.43,3.43,0,0,0,.3-1.41,2.69,2.69,0,0,0-.4-1.47A2.65,2.65,0,0,0,7,2.48a3.4,3.4,0,0,0-1.55-.34,3.22,3.22,0,0,0-1.59.37,2.55,2.55,0,0,0-1,1.06,3.33,3.33,0,0,0-.36,1.59H0A5.12,5.12,0,0,1,.71,2.45a4.89,4.89,0,0,1,2-1.81A6.05,6.05,0,0,1,5.5,0,6.11,6.11,0,0,1,8.33.63a4.93,4.93,0,0,1,1.91,1.73,4.52,4.52,0,0,1,.69,2.46,5,5,0,0,1-.36,1.85,8.1,8.1,0,0,1-1.22,2,33.91,33.91,0,0,1-2.42,2.69L3.55,14.9V15H11.2v2.19Z"/><path class="cls-1" d="M20.26,17.51a5.62,5.62,0,0,1-3.36-1,6.41,6.41,0,0,1-2.13-3A13.54,13.54,0,0,1,14,8.74,13.4,13.4,0,0,1,14.77,4a6.46,6.46,0,0,1,2.14-3,5.49,5.49,0,0,1,3.35-1A5.42,5.42,0,0,1,23.6,1a6.44,6.44,0,0,1,2.14,3,13.18,13.18,0,0,1,.74,4.72,13.33,13.33,0,0,1-.74,4.74,6.37,6.37,0,0,1-2.13,3A5.45,5.45,0,0,1,20.26,17.51Zm0-2.22A3,3,0,0,0,23,13.61a9.88,9.88,0,0,0,1-4.87,12.29,12.29,0,0,0-.45-3.58,4.84,4.84,0,0,0-1.27-2.23,2.82,2.82,0,0,0-2-.76,3,3,0,0,0-2.7,1.7,9.86,9.86,0,0,0-1,4.87A12.68,12.68,0,0,0,17,12.32a4.84,4.84,0,0,0,1.27,2.22A2.8,2.8,0,0,0,20.26,15.29Z"/><path class="cls-1" d="M29.44,17.22V15.37l5.75-6c.61-.65,1.12-1.22,1.52-1.71a6.49,6.49,0,0,0,.9-1.39,3.43,3.43,0,0,0,.3-1.41,2.69,2.69,0,0,0-.4-1.47,2.65,2.65,0,0,0-1.09-1,3.4,3.4,0,0,0-1.55-.34,3.22,3.22,0,0,0-1.59.37,2.55,2.55,0,0,0-1.05,1.06,3.33,3.33,0,0,0-.36,1.59H29.42a5.12,5.12,0,0,1,.71-2.71,4.89,4.89,0,0,1,2-1.81A6.05,6.05,0,0,1,34.92,0a6.11,6.11,0,0,1,2.83.63,4.93,4.93,0,0,1,1.91,1.73,4.52,4.52,0,0,1,.69,2.46A5,5,0,0,1,40,6.67a8.1,8.1,0,0,1-1.22,2,33.91,33.91,0,0,1-2.42,2.69L33,14.9V15h7.65v2.19Z"/><path class="cls-1" d="M49.68,17.51a5.62,5.62,0,0,1-3.36-1,6.41,6.41,0,0,1-2.13-3,13.54,13.54,0,0,1-.74-4.73A13.4,13.4,0,0,1,44.19,4a6.46,6.46,0,0,1,2.14-3,5.49,5.49,0,0,1,3.35-1A5.42,5.42,0,0,1,53,1a6.44,6.44,0,0,1,2.14,3,13.18,13.18,0,0,1,.74,4.72,13.33,13.33,0,0,1-.74,4.74,6.37,6.37,0,0,1-2.13,3A5.45,5.45,0,0,1,49.68,17.51Zm0-2.22a3,3,0,0,0,2.7-1.68,9.88,9.88,0,0,0,1-4.87,12.29,12.29,0,0,0-.45-3.58,4.84,4.84,0,0,0-1.27-2.23,2.82,2.82,0,0,0-2-.76A3,3,0,0,0,47,3.87a9.86,9.86,0,0,0-1,4.87,12.68,12.68,0,0,0,.44,3.58,4.84,4.84,0,0,0,1.27,2.22A2.8,2.8,0,0,0,49.68,15.29Z"/><path class="cls-1" d="M60.52,17.38a1.64,1.64,0,0,1-1.65-1.66,1.66,1.66,0,0,1,1.65-1.65,1.67,1.67,0,0,1,1.66,1.65,1.62,1.62,0,0,1-.22.84,1.84,1.84,0,0,1-.61.6A1.54,1.54,0,0,1,60.52,17.38Z"/><path class="cls-1" d="M71.39,17.51a5.57,5.57,0,0,1-3.36-1,6.42,6.42,0,0,1-2.14-3,13.54,13.54,0,0,1-.74-4.73A13.16,13.16,0,0,1,65.9,4,6.39,6.39,0,0,1,68,1a5.95,5.95,0,0,1,6.69,0,6.51,6.51,0,0,1,2.14,3,13.4,13.4,0,0,1,.74,4.72,13.56,13.56,0,0,1-.74,4.74,6.37,6.37,0,0,1-2.13,3A5.47,5.47,0,0,1,71.39,17.51Zm0-2.22a3,3,0,0,0,2.7-1.68,9.89,9.89,0,0,0,1-4.87,12.68,12.68,0,0,0-.44-3.58,4.93,4.93,0,0,0-1.27-2.23,2.84,2.84,0,0,0-2-.76,3,3,0,0,0-2.7,1.7,10,10,0,0,0-1,4.87,12.29,12.29,0,0,0,.45,3.58,4.74,4.74,0,0,0,1.26,2.22A2.84,2.84,0,0,0,71.39,15.29Z"/><path class="cls-1" d="M86.17,17.46a6.36,6.36,0,0,1-2.8-.6,5.13,5.13,0,0,1-2-1.66,4.44,4.44,0,0,1-.79-2.41h2.49a2.51,2.51,0,0,0,1,1.8,3.28,3.28,0,0,0,2.11.71,3.37,3.37,0,0,0,1.74-.45A3.25,3.25,0,0,0,89.1,13.6a3.74,3.74,0,0,0,.44-1.82,3.75,3.75,0,0,0-.45-1.85,3.36,3.36,0,0,0-1.23-1.28,3.55,3.55,0,0,0-1.8-.47,4.73,4.73,0,0,0-1.55.27,3.59,3.59,0,0,0-1.26.69L80.9,8.8l1-8.57H91.2v2.2H84l-.54,4.76h.1a3.85,3.85,0,0,1,1.32-.81,4.72,4.72,0,0,1,1.77-.32,5.15,5.15,0,0,1,2.77.74,5.3,5.3,0,0,1,1.92,2A6,6,0,0,1,92,11.73a5.8,5.8,0,0,1-.74,2.95,5.41,5.41,0,0,1-2.08,2A6,6,0,0,1,86.17,17.46Z"/><path class="cls-1" d="M96.72,17.38a1.64,1.64,0,0,1-1.66-1.66,1.66,1.66,0,0,1,3.31,0,1.62,1.62,0,0,1-.22.84,1.84,1.84,0,0,1-.61.6A1.53,1.53,0,0,1,96.72,17.38Z"/><path class="cls-1" d="M108.11.23v17h-2.58V2.8h-.09l-4.07,2.66V3L105.61.23Z"/><path class="cls-1" d="M118.62,17.51a5.62,5.62,0,0,1-3.36-1,6.41,6.41,0,0,1-2.13-3,13.31,13.31,0,0,1-.74-4.73A13.4,13.4,0,0,1,113.13,4a6.46,6.46,0,0,1,2.14-3A5.95,5.95,0,0,1,122,1a6.51,6.51,0,0,1,2.14,3,13.4,13.4,0,0,1,.74,4.72,13.33,13.33,0,0,1-.74,4.74,6.37,6.37,0,0,1-2.13,3A5.47,5.47,0,0,1,118.62,17.51Zm0-2.22a3,3,0,0,0,2.7-1.68,9.89,9.89,0,0,0,1-4.87,12.32,12.32,0,0,0-.44-3.58,4.93,4.93,0,0,0-1.27-2.23,2.82,2.82,0,0,0-2-.76,3,3,0,0,0-2.7,1.7,10,10,0,0,0-1,4.87,12.29,12.29,0,0,0,.45,3.58,4.83,4.83,0,0,0,1.26,2.22A2.84,2.84,0,0,0,118.62,15.29Z"/><path class="cls-2" d="M20.05,42.65c-.2,0-.47,0-1-.09a41.92,41.92,0,0,0-5.15-.22,71,71,0,0,0-10.08,1,.83.83,0,0,1-.64-.27,3.74,3.74,0,0,1-1.12-1.45c0-.13.07-.22.4-.26a133.06,133.06,0,0,1,14-1.08A5.56,5.56,0,0,0,18.18,40c.9.16,2.42,1.06,2.42,2C20.6,42.49,20.38,42.65,20.05,42.65Z"/><path class="cls-2" d="M26.84,47.42a2.42,2.42,0,0,0,1.28-.31,3.71,3.71,0,0,0,1.34-1.38,3.24,3.24,0,0,1-1.12-2.07,5.23,5.23,0,0,1,.44-1.54c-.42.15-1.17.44-1.87.72-.22,0-.4-.15-.71-.46a1.55,1.55,0,0,1-.5-.81c0-.09.11-.13.39-.2.73-.16,1.78-.48,2.66-.77a1.54,1.54,0,0,0,.86-.64,4.73,4.73,0,0,1,1.54.64.55.55,0,0,1,.09,1,10.39,10.39,0,0,0-1.65,2.11c.27.24.86.73,1.19,1a1.82,1.82,0,0,1,.73,1.32c0,.39-.71.85-2.27,1.47a74.29,74.29,0,0,1,9.68,1.65c.9.2,2,.37,4,.66.68.11,1.4.2,2.33.31.77.09,1,.24,1,.39s-.11.29-.44.47a9.09,9.09,0,0,1-3.68,1.19,3,3,0,0,1-1-.18c-.95-.31-2.35-.75-3.85-1.21-2.46-.77-4.49-1.39-5.57-1.61a15.09,15.09,0,0,0-2.64-.35,4.74,4.74,0,0,0-2.44.48A.59.59,0,0,1,26,49a2.94,2.94,0,0,1-.46-1.32c0-.2.09-.24.42-.24Zm1.48-11.68c-.78-.82-.95-1.26-.95-1.43s.11-.18.33-.18a7.85,7.85,0,0,1,3,1.12,1.44,1.44,0,0,1,.67,1.17c0,.55-.22.81-.86.81C30.25,37.23,29.55,37.06,28.32,35.74Zm7.15.57a35.23,35.23,0,0,1-.4,6.42,10.49,10.49,0,0,1-2.18,4.62c-.2.25-.35.36-.57.36a.22.22,0,0,1-.24-.25,2.35,2.35,0,0,1,.15-.37c1.15-2.82,1.45-5,1.45-10.45a9.29,9.29,0,0,0-.24-2.6,1.85,1.85,0,0,1-.15-.53c0-.13.11-.19.31-.19a4.17,4.17,0,0,1,1.4.55c2.23-.22,4.47-.42,6.23-.53A2.22,2.22,0,0,0,42.4,33a3.23,3.23,0,0,1,1.67.88c.37.31.48.47.48.66a1,1,0,0,1-.24.58,1.06,1.06,0,0,0-.2.7v3.68c0,2.9,0,4.88,0,6.86-.09,1.54-1,2.35-1.41,2.35a1,1,0,0,1-.81-.39,15.41,15.41,0,0,1-1.26-1.5c-.18-.22-.29-.37-.29-.5s.07-.2.22-.2a15.51,15.51,0,0,0,1.74.2l0-11.6c-2.35.09-4.53.26-6.9.53Zm5.58,7.88a.75.75,0,0,1,.42.61c0,.38-.19.42-.9.42s-1.83.11-3,.22c0,.53-.15.92-.59.92s-.73-.24-.82-1c0-.36-.06-.73-.11-1.08A7.63,7.63,0,0,0,35.66,42a.94.94,0,0,1-.08-.38c0-.11.08-.17.26-.17a2.35,2.35,0,0,1,1,.31l2.75-.31a1.72,1.72,0,0,0,.7-.27,3.3,3.3,0,0,1,1,.55c.31.25.5.47.5.69a.68.68,0,0,1-.17.44,2.28,2.28,0,0,0-.27.46Zm-1-5a1.31,1.31,0,0,0,.71-.27c.94.18,1.4.53,1.4,1,0,.22-.21.29-.59.31-1.45.07-3.48.27-5.17.51a.34.34,0,0,1-.33-.18,2.53,2.53,0,0,1-.42-.79c0-.07.07-.11.29-.13l2-.22V38.09c-.46.07-.92.11-1.36.18-.14,0-.18-.05-.36-.25a1.89,1.89,0,0,1-.44-.7c0-.09.07-.11.31-.13.73-.07,1.32-.11,1.85-.18a4.1,4.1,0,0,0-.22-1.32,1.17,1.17,0,0,1-.09-.33c0-.11.09-.17.22-.17a4.7,4.7,0,0,1,1.5.37.46.46,0,0,1,.33.42.63.63,0,0,1-.09.31,1.14,1.14,0,0,0-.15.52l.19,0a1.25,1.25,0,0,0,.71-.28c.88.13,1.34.55,1.34.92s-.22.35-.59.37c-.53,0-1.1.07-1.68.14v1.27Zm-2.48,5.19c.68-.09,1.38-.15,2.06-.22a12.89,12.89,0,0,0,.29-1.61c-.84.05-1.58.14-2.44.25Z"/><path class="cls-2" d="M53,50c0,1.1-.42,1.74-1,1.74S51,51.05,51,50.15c.08-1.12.17-2.66.24-4,.13-2.86.2-5.81.2-8.5a15.27,15.27,0,0,0-.33-4c0-.2.08-.28.28-.28a4.09,4.09,0,0,1,1.54.48c1.45-.15,2.25-.2,3.43-.29a2.49,2.49,0,0,0,.8-.22,2.36,2.36,0,0,1,1.14.6c.42.31.62.5.62.7a1.14,1.14,0,0,1-.16.53c-.13.24-.13.35-.15.9,0,.82-.05,2.6-.07,3.08,0,.91-.33,1.28-.94,1.28-.29,0-.66-.24-.84-.79-1.19.06-2.38.15-3.56.28Zm.2-11.28c1.21-.13,2.44-.22,3.65-.27V37.19c-1.21.06-2.44.15-3.63.31Zm0-2.42c1.19-.11,2.4-.22,3.59-.29V34.88c-1.32.06-2.4.17-3.57.28ZM63,48c0,1.36-.39,1.71-.9,1.71s-.68-.28-.88-.94c-1.19,0-2.38.08-3.56.19,0,.51-.2.82-.64.82-.6,0-1.1-.9-1.1-1.67a14.22,14.22,0,0,0,.13-2.64c0-.8,0-1.37,0-1.79a6.9,6.9,0,0,0-.11-1.6,4,4,0,0,1-.06-.46.22.22,0,0,1,.22-.25,5.35,5.35,0,0,1,1.23.49l3.21-.31a2.23,2.23,0,0,0,1.08-.38c1.08.36,1.74.93,1.74,1.35a1.4,1.4,0,0,1-.25.66,2.09,2.09,0,0,0-.13.88ZM61.32,45.7a36.06,36.06,0,0,0-3.61.22l0,1.81c1.21-.09,2.42-.18,3.63-.22Zm0-2.86c-1.26,0-2.38.16-3.59.29l0,1.58,1.56-.15a3.48,3.48,0,0,0,1.1-.26,4.29,4.29,0,0,1,1,.28Zm5-3.27c-1.36.06-2.7.13-4.07.22a.82.82,0,0,1-.79.74,1,1,0,0,1-1-1.05c.05-.69.07-1.32.07-2.77a10.5,10.5,0,0,0-.31-3.24c0-.24.06-.35.33-.35a4.28,4.28,0,0,1,1.38.42c1.59-.11,2.67-.18,3.74-.27a1.45,1.45,0,0,0,.84-.33,4.52,4.52,0,0,1,1.54.79c.46.38.62.58.62.84s0,.29-.27.62a2.21,2.21,0,0,0-.19,1.19v3.36c0,3.26.06,6.07.11,9.33A5.41,5.41,0,0,1,68,51.36a1,1,0,0,1-.88.72A2,2,0,0,1,66,51.51a11.84,11.84,0,0,1-1.8-2,.56.56,0,0,1-.13-.31c0-.13.1-.2.28-.2l.18,0a14.84,14.84,0,0,0,1.85.36Zm0-2.6c-1.34,0-2.68.13-4,.22v1.36c1.35-.11,2.69-.2,4-.24Zm-4-1c1.34-.11,2.66-.2,4-.24V34.55c-1.23,0-2.44.11-4,.24Z"/><path class="cls-2" d="M75.37,36a.57.57,0,0,1-.46-.26c-.57-.66-.64-.84-.64-1s.16-.16.46-.2l4.45-.64a2,2,0,0,0,1.08-.35c1.12.44,1.65,1,1.65,1.34s-.11.31-.33.44a1.57,1.57,0,0,0-.35.37c-.49.67-.91,1.17-1.5,1.92,1.23,1,1.76,1.76,1.76,2.95,0,1.8-.73,2.55-1.34,2.55a2.48,2.48,0,0,1-1.41-.79c-.59-.55-.84-.82-.84-1s.09-.19.38-.19a6.26,6.26,0,0,0,1,.08c.29,0,.42-.13.42-.81a3.42,3.42,0,0,0-.92-2.46.42.42,0,0,1-.13-.29,1.26,1.26,0,0,1,.08-.35,15.83,15.83,0,0,0,.62-2q-1.05.12-2.07.33c.38.28.49.44.49.77s0,.35,0,.5c0,.33,0,.66-.06,1.94l-.11,11.29c0,.88-.38,1.18-.66,1.18s-.62-.22-.88-.61a2.94,2.94,0,0,1-.49-1.52,8.2,8.2,0,0,0,.24-2.4l.09-9.13a10.48,10.48,0,0,0-.09-1.74Zm9.35,12.76a22.69,22.69,0,0,0,3.61-1.45.69.69,0,0,1,.24-.07c.18,0,.27.09.27.25a.34.34,0,0,1-.11.24A25.71,25.71,0,0,1,84.55,51l-.42.31a.73.73,0,0,1-.37.11c-.25,0-.51-.22-.91-.86a1.82,1.82,0,0,1-.33-.88.58.58,0,0,1,.14-.35,1.77,1.77,0,0,0,.24-1.06l0-10.8a8.82,8.82,0,0,0-.17-2c-.53-.5-.8-.72-.8-1s.16-.2.33-.22c2.25-.22,3.88-.42,5.64-.61a2.81,2.81,0,0,0,1.21-.38,4.87,4.87,0,0,1,1.14.62c.49.37.73.66.73.79a.8.8,0,0,1-.24.59.91.91,0,0,0-.22.47c-.22,1.73-.51,3.58-.8,5.19a.78.78,0,0,1-.79.7,1.11,1.11,0,0,1-.84-.55c-1.12.07-2.26.22-3.38.38ZM88.53,35c-1.56.13-3,.3-4.29.52.57.33.64.51.64.71a1,1,0,0,1-.07.37,2.37,2.37,0,0,0,0,.55l2-.28a3.63,3.63,0,0,0,1-.25,1.93,1.93,0,0,1,.66.25Zm-3.78,5.17c1.14-.16,2.28-.33,3.43-.42l.15-1.7a2.32,2.32,0,0,1-.33,0c-.92.09-2.07.22-3.23.39Zm5.61,1.12a1.7,1.7,0,0,0,.42-1.1c0-.2.06-.33.24-.33a.59.59,0,0,1,.3.09,6.42,6.42,0,0,1,1.26.86,1,1,0,0,1,.4.63c0,.25-.16.4-.47.6-.13.09-.28.17-1.05.68-1.32.88-2.14,1.36-2.62,1.63a19.07,19.07,0,0,0,4,3.06c.62.35,1.08.59,1.74,1,.24.13.35.26.35.41s-.18.27-.44.31a17.1,17.1,0,0,1-2.49.27c-.66,0-.79,0-1.14-.47-1.8-2.22-3.35-4.11-4.73-5.76a4,4,0,0,0-1-.88A.17.17,0,0,1,85,42.1c0-.09.08-.2.24-.25a3.58,3.58,0,0,1,.79-.11c.24,0,.53.09.57.31.22.27.73.75,1.63,1.65A17.79,17.79,0,0,0,90.36,41.26Z"/><path class="cls-2" d="M109.43,35.21c1.61-.13,3.12-.24,4.66-.33a2.58,2.58,0,0,0,1.24-.29A5.61,5.61,0,0,1,117.22,36a1.83,1.83,0,0,1,.59,1.1c0,.28-.28.55-1.08.81s-1.42.46-2.5.75c-.29,0-.38-.11-.38-.22a.58.58,0,0,1,.13-.31,9.78,9.78,0,0,0,1-1.71,117.34,117.34,0,0,0-13.23,1.14c-.15,1.54-.72,2.86-1.58,2.86-.68,0-1.06-.83-1.06-1.32a1.5,1.5,0,0,1,.36-1,4.88,4.88,0,0,0,.88-2.64c0-.27.06-.51.22-.51.33,0,.88.68,1,1.1,1.94-.24,3.87-.44,5.81-.64v-.66a4.14,4.14,0,0,0-.29-1.84,1.5,1.5,0,0,1-.15-.51c0-.09.18-.18.33-.18a5.8,5.8,0,0,1,2.11.55c.33.18.46.36.46.55a1,1,0,0,1-.17.47,1.75,1.75,0,0,0-.31,1.1Zm-2.07,6.56a10.78,10.78,0,0,0-.09-1.44c-.94.12-1.89.25-2.72.38-.27,0-.42,0-.6-.2a2.63,2.63,0,0,1-.72-1.12c0-.13,0-.18.39-.2,3-.26,5.22-.53,6.45-.73a5.19,5.19,0,0,0,1.45-.39c.68,0,1.8.53,1.8,1.17,0,.41-.11.55-1.1.61s-2.06.15-3.19.29c.29.22.47.46.47.61a1,1,0,0,1-.09.42,1.67,1.67,0,0,0-.13.75l0,1.25a17.21,17.21,0,0,0,1.79-.35,2.48,2.48,0,0,0,.88-.42c1.23.25,2,.71,2,1.17s-.22.55-.75.59c-1.25.11-2.53.27-4,.47l0,3.45c.7.22,1.45.44,2.31.68a28,28,0,0,0,3.65.79c.86.14,1.85.29,2.66.49.29.06.42.2.42.35s-.11.31-.33.4a15.31,15.31,0,0,1-3.7,1,4,4,0,0,1-1.56-.42c-3.54-1.48-6-2.53-9.08-3.83a11,11,0,0,1-3.46,3,.66.66,0,0,1-.42.11.24.24,0,0,1-.22-.22.48.48,0,0,1,.16-.41,16,16,0,0,0,3.32-5.17,2.34,2.34,0,0,0,.17-1,2.78,2.78,0,0,0-.1-.75c0-.16.15-.24.33-.24a2.31,2.31,0,0,1,1.45.68c.42.31.7.64.7.94a.8.8,0,0,1-.35.62c-.31.51-.59,1-.88,1.43,1,.35,2.07.68,3.12,1Z"/><path class="cls-2" d="M128.55,39.34a4.42,4.42,0,0,0,.57-1.58,1.89,1.89,0,0,0-.07-.51.32.32,0,0,1,.36-.33,2.91,2.91,0,0,1,1.47.75c.44.33.64.64.64.91a.76.76,0,0,1-.31.55,6.61,6.61,0,0,0-.62.81,79.1,79.1,0,0,1-4.79,6.31c1.14-.35,2.53-.81,3.56-1.18a13.41,13.41,0,0,1-.35-1.63c0-.16.09-.22.2-.22a4.29,4.29,0,0,1,1.8,1.45,2.18,2.18,0,0,1,.57,1.43.92.92,0,0,1-.81,1,1.14,1.14,0,0,1-.92-.66c0-.11-.11-.24-.16-.38-1.54.82-3.52,1.81-4.64,2.31a1.74,1.74,0,0,1-.92.36.55.55,0,0,1-.56-.33A5,5,0,0,1,123,46.8c0-.17,0-.24.61-.37a1.17,1.17,0,0,0,.78-.42c.68-.86,1.47-2,2.22-3.21a17.94,17.94,0,0,0-2.44-1.12,1.86,1.86,0,0,0-.6-.14c-.37,0-.48-.17-.48-.92s0-.83.46-1a1,1,0,0,0,.62-.41,16.81,16.81,0,0,0,1.45-3,4,4,0,0,0,.26-1.27,4.27,4.27,0,0,0-.06-.68c0-.18.13-.27.35-.27a3.87,3.87,0,0,1,1.78.9,1.24,1.24,0,0,1,.42.66.8.8,0,0,1-.18.49c-.11.13-.17.24-.44.62-1.08,1.54-2.07,2.81-2.68,3.52a15.8,15.8,0,0,1,2.26,1.34C127.8,40.73,128.24,39.94,128.55,39.34Zm9.77-1.21a5.79,5.79,0,0,0,1.63-.52,3.57,3.57,0,0,1,1.25.68,2.1,2.1,0,0,1,.86,1.12.75.75,0,0,1-.2.49,2.76,2.76,0,0,0-.42,1.29A37.13,37.13,0,0,1,140,47.6a14.07,14.07,0,0,1-1.28,2.61,1.32,1.32,0,0,1-1,.75.91.91,0,0,1-.68-.31,13.8,13.8,0,0,1-1.66-2,1.39,1.39,0,0,1-.24-.51.19.19,0,0,1,.2-.22,2.27,2.27,0,0,1,.53.16,6.27,6.27,0,0,0,1.41.31c.24,0,.33-.09.46-.36a26.35,26.35,0,0,0,1.94-8.67l-2.67.49a25.37,25.37,0,0,1-1.67,4.51,14.34,14.34,0,0,1-4.82,5.59,1.19,1.19,0,0,1-.57.22.27.27,0,0,1-.26-.27.57.57,0,0,1,.17-.37,19.74,19.74,0,0,0,3.81-5.79,22.12,22.12,0,0,0,1.23-3.45l-1.58.35a.53.53,0,0,1-.51-.2c-.57-.66-.79-1-.79-1.16s0-.18.46-.22c.77-.09,1.78-.22,2.82-.4.17-.81.33-1.67.44-2.57a9.27,9.27,0,0,0,.09-1.15,3.36,3.36,0,0,0-.18-1.14,1.44,1.44,0,0,1-.11-.53c0-.13.13-.26.37-.26a4.86,4.86,0,0,1,2.29.83c.22.16.31.29.31.42a.81.81,0,0,1-.13.46,3.94,3.94,0,0,0-.49,1.39c-.13.75-.28,1.49-.46,2.22Z"/><path class="cls-2" d="M153.21,43c0-.19.11-.28.31-.28a3.6,3.6,0,0,1,1.63.75c.35.26.5.44.5.68a1.15,1.15,0,0,1-.28.59,10.64,10.64,0,0,1-7.18,6.73c-.2,0-.35-.08-.35-.26s.07-.2.22-.31a11,11,0,0,0,5.11-6.22,3.13,3.13,0,0,0,.17-.86,1.92,1.92,0,0,0-.06-.44A1.34,1.34,0,0,1,153.21,43Zm-1-6.55c0,2.75,0,3.69,0,5,0,1.07-.39,1.58-.88,1.58s-1-.37-1.21-1.81c.18-.61.2-1.54.2-5.14a4.9,4.9,0,0,0-.22-1.54,3.81,3.81,0,0,1-.22-.75.25.25,0,0,1,.28-.27,6.21,6.21,0,0,1,1.81.58c.29.13.42.3.42.48a2.19,2.19,0,0,1-.11.57A5.86,5.86,0,0,0,152.2,36.4Zm8.25-2.75a2.77,2.77,0,0,0,1.21-.38,4.13,4.13,0,0,1,1.32.79c.48.4.62.58.62.8s-.07.33-.27.57a1.31,1.31,0,0,0-.31,1c0,1.56-.06,3.28-.13,4.4,0,.93-.33,1.41-.88,1.41a1.07,1.07,0,0,1-1-.77c-1.58,0-3.17.13-4.75.29a.8.8,0,0,1-.73.7c-.52,0-.94-.46-1.16-1.58a18.49,18.49,0,0,0,.11-3.06,9.51,9.51,0,0,0-.35-3.55,1.58,1.58,0,0,1-.18-.52c0-.14.11-.22.29-.22a2.13,2.13,0,0,1,.66.19,6.79,6.79,0,0,1,.85.44C157.59,33.93,159.06,33.76,160.45,33.65Zm-4.14,3.54c1.37-.15,2.36-.24,3.37-.33a2.34,2.34,0,0,0,.84-.22,2.72,2.72,0,0,1,.57.17l0-1.82a43.29,43.29,0,0,0-4.8.46Zm0,3.17c1.57-.13,3.13-.2,4.69-.27l0-1.93c-1.59.06-3.17.17-4.74.35Zm2.75,4.38C159,45.81,159,47.53,159,48c0,.86.13,1,.31,1.19a4.53,4.53,0,0,0,2.2.3,7.89,7.89,0,0,0,2.36-.26,1.17,1.17,0,0,0,.81-.7,7.82,7.82,0,0,0,.4-1.65c0-.22.13-.33.26-.33a.41.41,0,0,1,.29.17,5.86,5.86,0,0,1,1.45,3c0,.44-.35.75-1,1a13.15,13.15,0,0,1-4.54.58,6,6,0,0,1-3.54-.73,2.43,2.43,0,0,1-.84-2.16c0-1.29,0-2.79,0-3.6a10.48,10.48,0,0,0-.09-1.46c-.07-.37-.16-.7-.16-.83s.11-.24.31-.24a4.63,4.63,0,0,1,1.56.5c.4.22.66.44.66.64a1.72,1.72,0,0,1-.15.57A4,4,0,0,0,159.08,44.74Z"/><path class="cls-2" d="M174.75,39.41c-.35-.37-.66-.64-1.06-1A26.78,26.78,0,0,1,171.27,40c-.22,0-.4-.06-.4-.24a.37.37,0,0,1,.14-.31,22.41,22.41,0,0,0,3.36-3.7c.79-1.16.91-1.58.91-1.91a2.7,2.7,0,0,0-.14-.62.29.29,0,0,1,.29-.26,3.07,3.07,0,0,1,1.47.59,1.19,1.19,0,0,1,.29.25l2.18-.4a1.58,1.58,0,0,0,.77-.35,2.82,2.82,0,0,1,1.14.5c.57.4.84.75.84,1a.65.65,0,0,1-.31.62,3.42,3.42,0,0,0-.66.77,23.41,23.41,0,0,1-9,7.7.91.91,0,0,1-.33.09c-.2,0-.33-.11-.33-.27a.38.38,0,0,1,.19-.31,32.56,32.56,0,0,0,3.72-3.12A2,2,0,0,1,174.75,39.41Zm.81,6.93a.24.24,0,0,1,.26-.26,2.52,2.52,0,0,1,1.19.55c.58.39.84.66.84.88a.88.88,0,0,1-.35.55,12.72,12.72,0,0,1-3.83,2.37.75.75,0,0,1-.35.07.35.35,0,0,1-.31-.33.38.38,0,0,1,.15-.29,11.22,11.22,0,0,0,2.25-2.48,1.23,1.23,0,0,0,.22-.6A2.41,2.41,0,0,0,175.56,46.34Zm6-1.19c.37.2.5.38.5.55a1.63,1.63,0,0,1-.11.4,4.7,4.7,0,0,0-.06,1c0,.68,0,1.45.06,2.64a3.42,3.42,0,0,1-.44,1.67c-.24.46-.44.62-.7.62a1.92,1.92,0,0,1-1.19-.66,11.75,11.75,0,0,1-1.49-1.65.8.8,0,0,1-.18-.4c0-.11.11-.18.24-.18l.16,0a6.9,6.9,0,0,0,1.76.22v-2a5.72,5.72,0,0,0-.22-2.14c-1.68.16-3.37.33-5.09.55-.2,0-.28-.06-.57-.39s-.57-.75-.57-.93.06-.15.37-.17c3.83-.36,8.21-.71,10.63-.86a3.37,3.37,0,0,0,1.25-.31c1.11.11,2.1.73,2.1,1.19s-.29.59-.86.59c-1.9,0-3.77.09-5.64.22Zm-4.89-7.92c-.28-.31-.55-.52-.83-.81A13.77,13.77,0,0,1,174.24,38a3.63,3.63,0,0,1,1.83.59,1.61,1.61,0,0,1,.33.36c.33-.36.66-.73,1-1.11A2.18,2.18,0,0,1,176.68,37.23Zm3-2.68c-.69.09-1.74.26-2.69.42-.2.28-.39.55-.61.83a3.39,3.39,0,0,1,1.62.58,1.53,1.53,0,0,1,.29.28C178.77,36,179.26,35.27,179.68,34.55Zm3.87,5.83c1,.15,1.6.7,1.6,1.1s-.19.55-.88.57c-2.33.11-4.51.4-6.33.62-.2,0-.42-.18-.66-.51a1.6,1.6,0,0,1-.4-.7c0-.16.07-.18.31-.2,2-.13,4.22-.37,5.52-.57A1.91,1.91,0,0,0,183.55,40.38Zm2.64-5.66c-.73.14-1.43.27-2.29.49a.46.46,0,0,1-.44-.18c-.57-.61-.68-.77-.68-.92s.09-.16.22-.18c1.27-.15,1.89-.26,3.06-.48a3,3,0,0,0,.83-.35,3.67,3.67,0,0,1,1.23.72c.42.33.66.62.66.88a.65.65,0,0,1-.35.55,4.52,4.52,0,0,0-.81.71,16.72,16.72,0,0,1-1.89,2c.63.52,1.27,1,2.06,1.6a14.17,14.17,0,0,0,2,1.17c.57.28,1,.48,1.54.75.24.13.35.28.35.44s-.24.28-.57.35a15.15,15.15,0,0,1-2.22.15A1,1,0,0,1,188,42c-1.35-1.34-2.4-2.4-3.33-3.35a14.84,14.84,0,0,1-3.41,1.68.56.56,0,0,1-.17,0c-.2,0-.33-.11-.33-.26a.39.39,0,0,1,.24-.33,15.65,15.65,0,0,0,2.77-2c-.29-.29-.57-.57-.86-.88a4.68,4.68,0,0,0-1.1-.9.27.27,0,0,1-.17-.24c0-.09.08-.2.26-.25a4.14,4.14,0,0,1,.92-.13.79.79,0,0,1,.64.4c.42.44.79.81,1.15,1.16A13.85,13.85,0,0,0,186.19,34.72ZM184,46.83a.53.53,0,0,1-.18-.36c0-.15.14-.24.36-.24a1.1,1.1,0,0,1,.24,0,11.41,11.41,0,0,1,3.12,1.46c.53.39,1.21.88,1.21,1.6,0,.53-.22.9-.92.9-.4,0-.86-.24-1.56-.94C185.88,48.87,184.69,47.6,184,46.83Z"/></g></g></svg>