<svg xmlns="http://www.w3.org/2000/svg" viewBox="0 0 15.52 23.3"><defs><style>.cls-1{fill:#fff;}</style></defs><g id="レイヤー_2" data-name="レイヤー 2"><g id="レイヤー_1-2" data-name="レイヤー 1"><path class="cls-1" d="M.41,19.75A80.61,80.61,0,0,0,7,14.09a17.07,17.07,0,0,0,3.1-3.79,6.81,6.81,0,0,0,.79-3.15q0-3.49-3.75-3.5a11.51,11.51,0,0,0-6,2.18L0,2.3A12.77,12.77,0,0,1,3.67.62,14.58,14.58,0,0,1,7.81,0a8.28,8.28,0,0,1,5.68,1.78,6.24,6.24,0,0,1,2,4.93,10,10,0,0,1-1.87,5.7A41.33,41.33,0,0,1,6.3,19.68v.07h9.22V23.3H.41Z"/></g></g></svg>