<svg xmlns="http://www.w3.org/2000/svg" viewBox="0 0 15.21 23.3"><defs><style>.cls-1{fill:#fff;}</style></defs><g id="レイヤー_2" data-name="レイヤー 2"><g id="レイヤー_1-2" data-name="レイヤー 1"><path class="cls-1" d="M.16,0H14.9V3.56L8.44,9.42v.06H9a6.2,6.2,0,0,1,4.57,1.65,6.22,6.22,0,0,1,1.67,4.62A7.11,7.11,0,0,1,13,21.33a9.11,9.11,0,0,1-6.3,2A13.58,13.58,0,0,1,0,21.63l1.13-3.46a11.56,11.56,0,0,0,5.39,1.58,4.7,4.7,0,0,0,3.21-1,3.7,3.7,0,0,0,1.13-2.93,2.74,2.74,0,0,0-1.27-2.54A9.38,9.38,0,0,0,5.1,12.5H3.21V9.35l6.3-5.73V3.56H.16Z"/></g></g></svg>