<svg xmlns="http://www.w3.org/2000/svg" viewBox="0 0 69.44 67.2"><defs><style>.cls-1{fill:#b74b4b;}.cls-2{fill:#fff;}</style></defs><g id="レイヤー_2" data-name="レイヤー 2"><g id="レイヤー_1-2" data-name="レイヤー 1"><path class="cls-1" d="M.3,45.76C2.77,27.27,0,15,12.37,5.39c7.81-6.07,19.2-8.23,37,0,15,6.94,24.61,23.16,17.83,41.14C60.23,65.06,47,61.34,28.83,65.72,6.4,71.16-1.73,61,.3,45.76Z"/><path class="cls-2" d="M41.5,24.76H32.09l-.25,5.32h.06a7.68,7.68,0,0,1,3.46-.78,7.14,7.14,0,0,1,5.26,1.85,7.12,7.12,0,0,1,1.86,5.26q0,8.1-9.23,8.1A14.92,14.92,0,0,1,27,43.15l.95-3.56A12.19,12.19,0,0,0,33.16,41c3.32,0,5-1.51,5-4.54,0-2.5-1.2-3.74-3.62-3.74A4.59,4.59,0,0,0,31.27,34H27.49l.63-12.76H41.5Z"/></g></g></svg>