<svg xmlns="http://www.w3.org/2000/svg" viewBox="0 0 17.23 23.62"><defs><style>.cls-1{fill:#fff;}</style></defs><g id="レイヤー_2" data-name="レイヤー 2"><g id="レイヤー_1-2" data-name="レイヤー 1"><path class="cls-1" d="M12.56,0l.79,3.56A11.05,11.05,0,0,0,7.9,5.15,8.27,8.27,0,0,0,4.82,9.23l0,0A7.89,7.89,0,0,1,9.67,7.78a7.55,7.55,0,0,1,5.59,2,7.73,7.73,0,0,1,2,5.67,7.79,7.79,0,0,1-2.38,5.95A8.77,8.77,0,0,1,8.6,23.62a8.37,8.37,0,0,1-6.33-2.35Q0,18.93,0,14.39,0,7.94,3.37,4.1A12.34,12.34,0,0,1,12.56,0Zm-4,20.25A4.12,4.12,0,0,0,11.78,19a5.13,5.13,0,0,0,1.13-3.59,4.65,4.65,0,0,0-1.15-3.35A4.14,4.14,0,0,0,8.6,10.86a4.07,4.07,0,0,0-3.1,1.23,4.69,4.69,0,0,0-1.15,3.34A5.18,5.18,0,0,0,5.46,19,4,4,0,0,0,8.6,20.25Z"/></g></g></svg>