<svg xmlns="http://www.w3.org/2000/svg" viewBox="0 0 17.63 23.62"><defs><style>.cls-1{fill:#fff;}</style></defs><g id="レイヤー_2" data-name="レイヤー 2"><g id="レイヤー_1-2" data-name="レイヤー 1"><path class="cls-1" d="M2.86,1.59A9.84,9.84,0,0,1,8.82,0a9.81,9.81,0,0,1,5.95,1.59,5,5,0,0,1,2.14,4.17q0,3.31-3.94,5.1v.07q4.66,1.75,4.66,6.08a5.74,5.74,0,0,1-2.33,4.81,10.36,10.36,0,0,1-6.48,1.8,10.39,10.39,0,0,1-6.49-1.8A5.76,5.76,0,0,1,0,17a5.09,5.09,0,0,1,1.15-3.23,8.22,8.22,0,0,1,3.42-2.41v-.06A7.36,7.36,0,0,1,1.73,8.94a5.44,5.44,0,0,1-1-3.18A5,5,0,0,1,2.86,1.59Zm5.61,11.2q-4.25,1.29-4.25,4a3.2,3.2,0,0,0,1.26,2.64,5.25,5.25,0,0,0,3.34,1,5.06,5.06,0,0,0,3.29-1,3.24,3.24,0,0,0,1.21-2.64,3,3,0,0,0-1.05-2.37A9.52,9.52,0,0,0,8.47,12.79Zm.44-3.15c2.56-.76,3.84-1.9,3.84-3.44a2.61,2.61,0,0,0-1-2.17,4.58,4.58,0,0,0-2.89-.82A4.48,4.48,0,0,0,6,4a2.63,2.63,0,0,0-1,2.17C4.94,7.78,6.27,8.92,8.91,9.64Z"/></g></g></svg>