<svg xmlns="http://www.w3.org/2000/svg" viewBox="0 0 17.23 23.62"><defs><style>.cls-1{fill:#fff;}</style></defs><g id="レイヤー_2" data-name="レイヤー 2"><g id="レイヤー_1-2" data-name="レイヤー 1"><path class="cls-1" d="M3.56,20.06a11.78,11.78,0,0,0,5.68-1.57,8.32,8.32,0,0,0,3.17-4.1l0,0a8.1,8.1,0,0,1-4.82,1.48,7.49,7.49,0,0,1-5.59-2A8,8,0,0,1,0,8,7.59,7.59,0,0,1,2.36,2.21,8.78,8.78,0,0,1,8.6,0,8.41,8.41,0,0,1,15,2.35q2.26,2.34,2.27,6.72,0,6.67-3.45,10.49a12.88,12.88,0,0,1-9.43,4.06Zm5-16.69a4.12,4.12,0,0,0-3.17,1.2A4.9,4.9,0,0,0,4.31,8a5,5,0,0,0,1.14,3.5A4.09,4.09,0,0,0,8.6,12.76a4.05,4.05,0,0,0,3.11-1.26A4.91,4.91,0,0,0,12.88,8a4.89,4.89,0,0,0-1.13-3.45A4.14,4.14,0,0,0,8.6,3.37Z"/></g></g></svg>