<svg xmlns="http://www.w3.org/2000/svg" viewBox="0 0 250.46 93.17"><defs><style>.cls-1{fill:#fff;}</style></defs><g id="レイヤー_2" data-name="レイヤー 2"><g id="レイヤー_1-2" data-name="レイヤー 1"><path class="cls-1" d="M9.67,41c-.08,2.84,0,12.68,0,14.55,0,2-.41,2.44-2.44,2.44H2.36C.57,58,0,57.62,0,56.4s.49-10,.57-15.85L1,16.25c.08-4.06.08-11.7.08-13.32,0-2,.32-2.44,2.35-2.44H6.09c2,0,2.61.32,3.91,2,2.27,3.09,4.63,6.09,7,9L28,25.44c.65.81,1.05,1.22,1.54,1.22s.9-.41,1.55-1.22L41.93,11.7c2.36-2.92,4.8-6.09,7.16-9.26C50.39.81,51,.49,53,.49h2.68c2,0,2.44.4,2.44,2.44,0,1.21-.08,7.55,0,13.32l.4,24.3c.08,4.31.49,13.82.49,15,0,2.19-.24,2.44-2.27,2.44h-5c-2,0-2.44-.41-2.44-2.44,0-2.36.16-10.08,0-14.47l-.41-20.88c0-.82-.24-1.3-.57-1.3s-.65.24-1.05.73L31.05,39.74a2.22,2.22,0,0,1-1.71,1,2.17,2.17,0,0,1-1.63-1L11.62,19.67c-.41-.49-.73-.73-1.06-.73s-.56.48-.56,1.3Z"/><path class="cls-1" d="M125.56,28.53c0,19.09-13.58,30-29.18,30-17.63,0-27.71-13.65-27.71-28.85,0-18,12.11-29.66,29-29.66C115.4,0,125.56,13.33,125.56,28.53ZM78.42,29.74c0,11,6.67,19.83,18.29,19.83,10.56,0,19.09-7.72,19.09-20.56,0-10.89-6.74-19.66-18.36-19.66S78.42,18,78.42,29.74Z"/><path class="cls-1" d="M145,41.77c0,4.72.24,13.65.24,14.22,0,1.71-.49,2-2.36,2H138c-1.87,0-2.36-.33-2.36-2,0-.57.25-9.5.25-14.22V15.93c0-4.55-.25-12.84-.25-13.41,0-1.71.49-2,2.36-2h2.68c2,0,2.6.32,3.9,2,2.52,3.33,5.12,6.5,7.72,9.67l20.32,25.35c.4.49.73.74,1,.74.41,0,.57-.49.57-1.3V16.74c0-4.71-.24-13.65-.24-14.22,0-1.71.49-2,2.36-2h4.87c1.87,0,2.36.32,2.36,2,0,.57-.25,9.51-.25,14.22V42.58c0,4.47.25,12.84.25,13.41,0,1.71-.49,2-2.36,2h-1.62a3.81,3.81,0,0,1-3.9-2c-2.44-3.08-4.8-6-7.48-9.26L146.52,20.15c-.41-.48-.73-.73-1-.73-.41,0-.57.49-.57,1.3Z"/><path class="cls-1" d="M250.46,28.53c0,19.09-13.57,30-29.17,30-17.64,0-27.72-13.65-27.72-28.85,0-18,12.11-29.66,29-29.66C240.3,0,250.46,13.33,250.46,28.53Zm-47.13,1.21c0,11,6.66,19.83,18.28,19.83,10.57,0,19.1-7.72,19.1-20.56,0-10.89-6.75-19.66-18.37-19.66S203.33,18,203.33,29.74Z"/><path class="cls-1" d="M70.06,89.29c0-1.37-.76-2-2.48-2.7l-.94-.4c-2.57-1.1-4.18-2.47-4.18-5,0-2.74,2.27-4.41,5.53-4.41A7.16,7.16,0,0,1,72.1,78l-.16,3.16H70.16l-.61-3.53,1.69.72v1.17A4.77,4.77,0,0,0,68,78.1c-1.57,0-2.8.87-2.8,2.39,0,1.35.85,2.1,2.39,2.74l1,.42c3,1.27,4.24,2.59,4.24,4.87,0,2.76-2.21,4.58-5.82,4.58a9.54,9.54,0,0,1-4.8-1.23l.14-3.37H64.1l.61,3.69-1.66-.61V90.46a6.46,6.46,0,0,0,3.89,1.36C68.87,91.82,70.06,90.83,70.06,89.29Z"/><path class="cls-1" d="M74.51,78.31v-1.1h7v1.1l-3.25.35h-.58Zm3.79,13,3.25.35v1.1h-7v-1.1l3.21-.35Zm-1.79-6.81c0-2.4,0-4.83-.07-7.24h3.17c-.07,2.36-.07,4.79-.07,7.24v1c0,2.41,0,4.84.07,7.25H76.44c.07-2.36.07-4.79.07-7.24Z"/><path class="cls-1" d="M83.25,91.61l2.47-.35h.57l2.85.35v1.1H83.25ZM84.6,78,86,78.6l-2.66-.28V77.21h4.4l9,12.4v3.2H95.38Zm.64-.78,1.34,1.11V92.71H85.24Zm7.61,0h5.89v1.1l-2.35.35h-.56l-3-.35Zm2.57,0h1.34v15.6l-1.34-1.34Z"/><path class="cls-1" d="M112.61,90.44v1.24L111.1,92l.69-3.56h1.61l-.1,3.49a9.89,9.89,0,0,1-4.81,1.16c-4.61,0-8-3-8-8.14a7.74,7.74,0,0,1,8.08-8.14A9,9,0,0,1,113.1,78l.1,3.5h-1.61l-.69-3.57,1.51.34v1.36A5,5,0,0,0,109,78.06c-2.82,0-5.19,2.24-5.19,6.91s2.2,6.88,5,6.88A6,6,0,0,0,112.61,90.44Z"/><path class="cls-1" d="M115.09,78.31v-1.1h3.52v1.45h-.31Zm3.52,13v1.45h-3.52v-1.1l3.21-.35Zm-1.52-6.81c0-2.4,0-4.83-.07-7.24h3.17c-.07,2.36-.07,4.79-.07,7.24v.83c0,2.59,0,5,.07,7.43H117c.07-2.36.07-4.79.07-7.24Zm7.59-7.24,1.38,1.25h-7.45V77.21h8.25L127,81.3h-1.63Zm-.86,8.16h-5.21V84.14h5.21Zm3.67,3.25-.16,4.09h-8.72V91.47h7.92l-1.38,1.24.71-4.09Zm-4.4-4.16.35-2.36h1.2v5.28h-1.2l-.35-2.47Z"/><path class="cls-1" d="M149.36,91.75v1h-9v-1l3.17-.62h2.74Zm-3.28-14.18.32.23-.09,3.33v6.68c0,1.61,0,3.27.07,4.9h-3c0-1.63.07-3.29.07-4.9V79.75l-2.69.23V78.83Z"/><path class="cls-1" d="M155.8,85.29l.85.35c-1.61,1.12-2.36,2-2.36,3.57a2.57,2.57,0,0,0,2.61,2.7,2.33,2.33,0,0,0,2.39-2.45c0-1.35-.83-2.24-3.53-3.48-2.41-1.09-3.55-2.59-3.55-4.47,0-2.51,2.07-4.05,4.76-4.05s4.34,1.52,4.34,3.5c0,1.27-.84,2.69-3.63,3.9l-.76-.36c1.59-1.34,2.08-2.23,2.08-3.56a2.17,2.17,0,1,0-4.34-.22c0,1.18.61,2.27,3.36,3.51s3.9,2.53,3.9,4.7c0,2.46-2.09,4.11-5.2,4.11s-4.91-1.34-4.91-3.67C151.81,87.54,153.22,86.28,155.8,85.29Z"/><path class="cls-1" d="M169.17,85.42a3.24,3.24,0,0,0,2.62-1.23l.43.28a4.26,4.26,0,0,1-4,2.41,4.32,4.32,0,0,1-4.59-4.52c0-3.1,2.29-4.9,5.26-4.9,3.37,0,5.29,2.36,5.29,6.19,0,4.63-3.09,8.35-9,9.52l-.23-1c4.7-1.56,6.37-4,6.37-8.45,0-3.75-1-5.1-2.43-5.1-1.28,0-2.37,1.1-2.37,3.51C166.46,84.35,167.59,85.42,169.17,85.42Z"/><path class="cls-1" d="M186.37,85.27c0,5.59-2.52,7.77-5.19,7.77S176,90.86,176,85.27s2.49-7.81,5.19-7.81S186.37,79.66,186.37,85.27Zm-5.19,6.63c1.26,0,2.37-1.33,2.37-6.63s-1.11-6.68-2.37-6.68-2.37,1.3-2.37,6.68S179.89,91.9,181.18,91.9Z"/></g></g></svg>